<svg width="288" height="172" viewBox="0 0 288 172" fill="none" xmlns="http://www.w3.org/2000/svg">
<g clip-path="url(#clip0_1922_105939)">
<path d="M59.5642 68.6478C51.3814 60.9899 49.4479 61.1502 47.3483 50.2361C44.697 36.3748 30.6296 30.7669 23.5387 38.8142C16.4477 46.8614 24.9721 62.2459 27.7112 65.6071C29.8108 68.1839 28.8564 80.9248 32.315 93.1846" stroke="#1D1515" stroke-width="1.14524" stroke-linecap="round" stroke-linejoin="round"/>
<path d="M30.502 44.6328C30.502 44.6328 48.217 72.7638 61.6736 102.849" stroke="#1D1515" stroke-width="1.14524" stroke-linecap="round" stroke-linejoin="round"/>
<path d="M105.597 75.708C106.418 73.6217 106.878 71.4401 106.693 69.077C105.95 59.5753 88.1056 52.6619 92.0509 41.7229C95.9963 30.7839 96.6414 19.3716 83.7346 18.1404C68.8216 16.7165 65.7428 31.8204 65.2618 44.6089C64.7808 57.3975 67.1572 61.9918 59.8791 68.8003C52.6011 75.6087 64.4448 84.8146 63.437 91.562C63.0133 94.3946 61.5283 99.2179 61.9711 106.822" stroke="#1D1515" stroke-width="1.14524" stroke-linecap="round" stroke-linejoin="round"/>
<path d="M77.945 23.7695C77.945 23.7695 64.393 64.6738 74.2001 124.675" stroke="#1D1515" stroke-width="1.14524" stroke-linecap="round" stroke-linejoin="round"/>
<path d="M78.0677 132.974C71.9349 119.243 62.2252 101.971 48.5586 97.3858C30.5096 91.3313 30.4256 95.248 22.7429 86.2025C15.0602 77.157 2.54081 78.8291 0.746592 87.6112C-1.04762 96.3933 11.5214 104.148 14.9037 105.485C18.286 106.821 25.0964 122.951 37.528 129.752C49.9596 136.553 56.1019 123.167 60.8299 132.52C60.9291 132.682 61.0303 132.843 61.1295 133.001" stroke="#1D1515" stroke-width="1.14524" stroke-linecap="round" stroke-linejoin="round"/>
<path d="M7.30273 86.8594C7.30273 86.8594 52.8395 106.458 71.2665 132.944" stroke="#1D1515" stroke-width="1.14524" stroke-linecap="round" stroke-linejoin="round"/>
<path d="M116.433 115.859C116.408 115.888 116.383 115.919 116.356 115.947C106.383 127.445 95.1903 116.274 93.9248 127.447C93.5622 129.32 93.0848 131.169 92.4951 132.983" stroke="#1D1515" stroke-width="1.14524" stroke-linecap="round" stroke-linejoin="round"/>
<path d="M108.786 76.404C111.458 74.3751 112.892 72.2774 114.969 66.5569C119.317 54.5757 132.542 51.5771 137.635 59.7503C142.727 67.9235 132.974 80.4353 130.069 83.0369C128.582 84.373 127.639 89.9485 125.738 96.6157" stroke="#1D1515" stroke-width="1.14524" stroke-linecap="round" stroke-linejoin="round"/>
<path d="M77.0537 130.385C78.3898 114.924 82.0775 96.4262 93.1539 87.478C94.6542 86.2679 96.017 85.2047 97.2844 84.2656" stroke="#1D1515" stroke-width="1.14524" stroke-linecap="round" stroke-linejoin="round"/>
<path d="M107.103 88.4922C99.9163 97.9252 92.6631 108.967 87.834 120.164" stroke="#1D1515" stroke-width="1.14524" stroke-linecap="round" stroke-linejoin="round"/>
<path d="M130.901 61.4844C130.901 61.4844 123.686 68.3673 114.805 78.8978" stroke="#1D1515" stroke-width="1.14524" stroke-linecap="round" stroke-linejoin="round"/>
<path d="M82.2669 133.055H56.2622C53.674 133.055 51.7519 135.399 52.3169 137.867L59.593 170.441" stroke="#1D1515" stroke-width="1.14524" stroke-linecap="round" stroke-linejoin="round"/>
<path d="M154.659 124.259V147.528H147.698V132.382C145.888 134.302 143.907 136.055 141.781 137.618V147.475H134.81V141.029C132.615 141.554 130.676 141.435 128.989 140.87V147.528H122.029V134.97C121.818 134.544 121.652 134.096 121.535 133.634L117.439 119H80.791V170.803H158.005V120.189C156.962 121.463 155.846 122.819 154.659 124.259ZM90.4072 147.528H83.448V123.407H90.4072V147.528ZM103.196 147.475H96.2308V123.358H103.19L103.196 147.475ZM116.108 147.528H109.142V123.407H116.103L116.108 147.528Z" fill="#1D1515"/>
<path d="M102.394 129.09H97.2217" stroke="#5D6063" stroke-width="1.14524" stroke-linecap="round" stroke-linejoin="round"/>
<path d="M102.394 131.75H97.2217" stroke="#5D6063" stroke-width="1.14524" stroke-linecap="round" stroke-linejoin="round"/>
<path d="M102.394 134.406H97.2217" stroke="#5D6063" stroke-width="1.14524" stroke-linecap="round" stroke-linejoin="round"/>
<path d="M115.224 140.195H110.054" stroke="#5D6063" stroke-width="1.14524" stroke-linecap="round" stroke-linejoin="round"/>
<path d="M115.224 126.488H110.054" stroke="#5D6063" stroke-width="1.14524" stroke-linecap="round" stroke-linejoin="round"/>
<path d="M115.224 142.855H110.054" stroke="#5D6063" stroke-width="1.14524" stroke-linecap="round" stroke-linejoin="round"/>
<path d="M115.224 145.512H110.054" stroke="#5D6063" stroke-width="1.14524" stroke-linecap="round" stroke-linejoin="round"/>
<path d="M153.781 140.195H148.61" stroke="#5D6063" stroke-width="1.14524" stroke-linecap="round" stroke-linejoin="round"/>
<path d="M153.781 142.855H148.61" stroke="#5D6063" stroke-width="1.14524" stroke-linecap="round" stroke-linejoin="round"/>
<path d="M153.781 145.512H148.61" stroke="#5D6063" stroke-width="1.14524" stroke-linecap="round" stroke-linejoin="round"/>
<path d="M89.5311 140.195H84.3604" stroke="#5D6063" stroke-width="1.14524" stroke-linecap="round" stroke-linejoin="round"/>
<path d="M89.5311 126.488H84.3604" stroke="#5D6063" stroke-width="1.14524" stroke-linecap="round" stroke-linejoin="round"/>
<path d="M89.5311 142.855H84.3604" stroke="#5D6063" stroke-width="1.14524" stroke-linecap="round" stroke-linejoin="round"/>
<path d="M89.5311 145.512H84.3604" stroke="#5D6063" stroke-width="1.14524" stroke-linecap="round" stroke-linejoin="round"/>
<path d="M128.112 140.195H122.939" stroke="#5D6063" stroke-width="1.14524" stroke-linecap="round" stroke-linejoin="round"/>
<path d="M128.112 142.855H122.939" stroke="#5D6063" stroke-width="1.14524" stroke-linecap="round" stroke-linejoin="round"/>
<path d="M128.112 145.512H122.939" stroke="#5D6063" stroke-width="1.14524" stroke-linecap="round" stroke-linejoin="round"/>
<path d="M103.19 150.742V148.484H96.2293V150.742H103.19Z" fill="#5D6063"/>
<path d="M116.103 150.797V148.539H109.141V150.797H116.103Z" fill="#5D6063"/>
<path d="M154.659 150.797V148.539H147.698V150.797H154.659Z" fill="#5D6063"/>
<path d="M90.4092 150.797V148.539H83.448V150.797H90.4092Z" fill="#5D6063"/>
<path d="M128.991 150.797V148.539H122.03V150.797H128.991Z" fill="#5D6063"/>
<path d="M141.771 150.742V148.484H134.81V150.742H141.771Z" fill="#5D6063"/>
<path d="M99.5789 164.293C100.928 164.293 102.022 163.199 102.022 161.849C102.022 160.5 100.928 159.406 99.5789 159.406C98.2296 159.406 97.1357 160.5 97.1357 161.849C97.1357 163.199 98.2296 164.293 99.5789 164.293Z" stroke="white" stroke-width="1.14524" stroke-linecap="round" stroke-linejoin="round"/>
<path d="M112.489 164.347C113.838 164.347 114.932 163.253 114.932 161.904C114.932 160.555 113.838 159.461 112.489 159.461C111.14 159.461 110.046 160.555 110.046 161.904C110.046 163.253 111.14 164.347 112.489 164.347Z" stroke="white" stroke-width="1.14524" stroke-linecap="round" stroke-linejoin="round"/>
<path d="M151.046 164.347C152.395 164.347 153.489 163.253 153.489 161.904C153.489 160.555 152.395 159.461 151.046 159.461C149.696 159.461 148.603 160.555 148.603 161.904C148.603 163.253 149.696 164.347 151.046 164.347Z" stroke="white" stroke-width="1.14524" stroke-linecap="round" stroke-linejoin="round"/>
<path d="M86.7957 164.347C88.1451 164.347 89.2389 163.253 89.2389 161.904C89.2389 160.555 88.1451 159.461 86.7957 159.461C85.4464 159.461 84.3525 160.555 84.3525 161.904C84.3525 163.253 85.4464 164.347 86.7957 164.347Z" stroke="white" stroke-width="1.14524" stroke-linecap="round" stroke-linejoin="round"/>
<path d="M125.375 164.347C126.724 164.347 127.818 163.253 127.818 161.904C127.818 160.555 126.724 159.461 125.375 159.461C124.025 159.461 122.932 160.555 122.932 161.904C122.932 163.253 124.025 164.347 125.375 164.347Z" stroke="white" stroke-width="1.14524" stroke-linecap="round" stroke-linejoin="round"/>
<path d="M138.158 164.293C139.507 164.293 140.601 163.199 140.601 161.849C140.601 160.5 139.507 159.406 138.158 159.406C136.809 159.406 135.715 160.5 135.715 161.849C135.715 163.199 136.809 164.293 138.158 164.293Z" stroke="white" stroke-width="1.14524" stroke-linecap="round" stroke-linejoin="round"/>
<path d="M254.452 75.5778C254.452 75.5778 262.097 72.6555 266.126 67.9429C268.527 65.1275 271.595 61.3443 271.419 60.2315C271.28 59.3421 270.465 59.5024 269.51 60.0178" stroke="#1D1515" stroke-width="1.14524" stroke-linecap="round" stroke-linejoin="round"/>
<path d="M259.004 68.613C259.004 68.613 262.218 65.6373 263.692 63.0166C265.166 60.3959 266.364 58.6857 265.918 58.3001C265.471 57.9145 263.261 57.9184 262.203 59.4721C260.995 62.1214 256.683 65.6736 256.683 65.6736C257.223 65.4827 260.069 62.6444 261.39 60.854C262.711 59.0636 262.917 56.1833 258.943 59.2144C258.943 59.2144 254.744 62.5948 253.131 63.5835C253.131 63.5835 245.966 65.874 244.057 68.7715C242.772 70.7279 235.552 88.8667 230.98 100.489C224.803 94.6635 218.921 89.0556 218.921 89.0556L189.263 95.4022C189.263 95.4022 190.866 97.5018 214.704 120.456C226.729 132.044 234.662 132.863 239.455 129.758C242.116 128.471 244.566 124.972 244.889 122.357L252.293 76.2575C256.635 74.7095 259.611 72.9726 261.541 71.4093C264.039 69.3842 269.922 59.724 269.913 58.7716C269.89 56.231 266.286 58.2333 263.921 62.7265" stroke="#1D1515" stroke-width="1.14524" stroke-linecap="round" stroke-linejoin="round"/>
<path d="M230.98 100.488C230.98 100.488 223.774 112.775 227.88 119.37" stroke="#1D1515" stroke-width="1.14524" stroke-linecap="round" stroke-linejoin="round"/>
<path d="M106.727 88.2412C106.727 88.2412 98.8001 86.2045 94.2611 81.971C91.5546 79.4476 88.0787 76.0348 88.1265 74.9086C88.1646 74.0268 88.9701 74.0726 89.9455 74.4563" stroke="#1D1515" stroke-width="1.14524" stroke-linecap="round" stroke-linejoin="round"/>
<path d="M101.413 81.8397C101.413 81.8397 97.8816 79.2477 96.1198 76.8102C94.3581 74.3728 92.9838 72.8019 93.3751 72.3781C93.7664 71.9544 95.971 71.7062 97.1926 73.1206C98.6928 75.6153 103.379 78.656 103.379 78.656C102.821 78.5357 99.672 76.0314 98.1565 74.4033C96.6409 72.7751 96.1084 69.9349 100.401 72.4946C100.401 72.4946 104.963 75.3748 106.671 76.1765C106.671 76.1765 114.051 77.6329 116.276 80.3013C117.774 82.0993 127.005 99.3009 132.867 110.33C138.343 103.84 143.556 97.6021 143.556 97.6021L173.743 100.542C173.743 100.542 172.389 102.811 151.309 128.323C140.668 141.2 132.888 142.908 127.774 140.373C124.984 139.394 122.159 136.197 121.535 133.633L108.948 88.673C104.457 87.627 101.314 86.2394 99.2139 84.9052C96.5035 83.1873 89.5614 74.2468 89.4622 73.2981C89.1988 70.7729 93.0086 72.3438 95.866 76.543" stroke="#1D1515" stroke-width="1.14524" stroke-linecap="round" stroke-linejoin="round"/>
<path d="M132.873 110.328C132.873 110.328 141.438 121.718 138.095 128.736" stroke="#1D1515" stroke-width="1.14524" stroke-linecap="round" stroke-linejoin="round"/>
<path d="M228.398 97.1953C228.398 97.1953 215.643 83.2023 205.855 80.217C202.467 79.1825 195.957 79.1978 188.627 79.7857L188.683 80.051L194.027 79.8009C192.368 86.6877 185.566 94.4849 173.495 95.7294C161.424 96.9739 162.233 84.632 163.871 83.6184L167.778 82.6221V82.5591C162.052 83.6051 157.261 84.7408 154.759 85.6913C146.463 88.8445 138.664 102.45 138.664 102.45L148.49 114.521C148.49 114.521 148.196 114.196 148.097 122.415C147.998 130.634 155.173 136.746 155.173 136.746L150.891 170.888L217.772 170.42L209.707 117.665L228.398 97.1953Z" fill="#1D1515"/>
<path d="M167.274 76.8758L167.776 82.6211L163.876 83.6175C162.237 84.631 161.429 96.9786 173.5 95.7284C185.571 94.4782 192.374 86.6867 194.033 79.8L188.688 80.0501L185.396 64.3125" stroke="#1D1515" stroke-width="1.14524" stroke-linecap="round" stroke-linejoin="round"/>
<path d="M187.035 58.4795C187.035 58.4795 196.686 59.6095 196.142 50.7605C195.779 44.8435 190.606 44.4617 187.216 44.8435" stroke="#1D1515" stroke-width="1.14524" stroke-linecap="round" stroke-linejoin="round"/>
<path d="M150.929 54.4203C151.239 58.4554 154.776 76.8079 167.715 76.6762C180.654 76.5445 187.93 63.8991 187.85 51.7825C187.77 39.6658 181.248 30.3301 173.052 30.2252C164.856 30.1202 148.69 25.2014 150.929 54.4203Z" stroke="#1D1515" stroke-width="1.14524" stroke-linecap="round" stroke-linejoin="round"/>
<path d="M191.549 15.7504L187.159 14.2227L184.47 21.9489L188.86 23.4767L191.549 15.7504Z" fill="#5D6063"/>
<path d="M191.951 17.1858C196.471 17.1858 200.134 13.5223 200.134 9.00307C200.134 4.48386 196.471 0.820312 191.951 0.820312C187.432 0.820312 183.769 4.48386 183.769 9.00307C183.769 13.5223 187.432 17.1858 191.951 17.1858Z" fill="#1D1515"/>
<path d="M184.824 19.4101C177.547 17.1043 169.745 16.0392 162.873 18.7687C142.056 28.1807 142.001 43.8801 150.755 51.0264C150.422 39.9042 153.139 34.5101 156.962 31.9715C161.138 38.6292 174.631 44.3936 186.986 44.5329C187.013 44.6436 187.036 44.7562 187.061 44.8669C190.449 44.4432 195.78 44.7486 196.148 50.7554C196.658 59.0431 188.227 58.5812 187.154 58.4858C187.011 59.1405 185.284 65.0671 185.284 65.0671L187.15 73.5667L214.636 69.295C215.022 69.2859 215.4 69.1864 215.74 69.0045C216.08 68.8226 216.373 68.5634 216.595 68.2478C216.816 67.9321 216.961 67.5688 217.017 67.1871C217.072 66.8054 217.038 66.4159 216.915 66.0501C213.588 56.2144 208.208 27.1576 184.824 19.4101Z" fill="#1D1515"/>
<path d="M163.253 65.4708C163.253 66.8985 168.504 68.8149 169.495 63.7109C169.496 63.7109 163.257 64.045 163.253 65.4708Z" stroke="#1D1515" stroke-width="1.14524" stroke-linecap="round" stroke-linejoin="round"/>
<path d="M164.018 59.7408L160.174 60.2065L160.974 44.7305" stroke="#1D1515" stroke-width="1.14524" stroke-linecap="round" stroke-linejoin="round"/>
<path d="M155.026 46.2472C155.026 46.2472 152.054 45.06 150.916 47.3639" stroke="#1D1515" stroke-width="1.14524" stroke-linecap="round" stroke-linejoin="round"/>
<path d="M172.767 47.0799C172.767 47.0799 168.075 47.7727 167.499 44.7188" stroke="#1D1515" stroke-width="1.14524" stroke-linecap="round" stroke-linejoin="round"/>
<path d="M170.902 52.3151C171.603 52.206 172.034 51.2393 171.865 50.156C171.697 49.0728 170.992 48.2831 170.291 48.3922C169.59 48.5014 169.158 49.468 169.327 50.5513C169.496 51.6346 170.201 52.4243 170.902 52.3151Z" fill="#1D1515"/>
<path d="M156.685 54.862C157.386 54.7528 157.817 53.7862 157.649 52.7029C157.48 51.6196 156.775 50.8299 156.074 50.9391C155.373 51.0482 154.941 52.0149 155.11 53.0982C155.279 54.1815 155.984 54.9711 156.685 54.862Z" fill="#1D1515"/>
<path d="M174.562 58.3094C179.013 57.6348 181.899 52.3318 181.01 46.4649C180.121 40.5981 175.792 36.3889 171.341 37.0636C166.891 37.7382 164.004 43.0412 164.894 48.9081C165.783 54.775 170.112 58.9841 174.562 58.3094Z" stroke="#5D6063" stroke-width="1.14524" stroke-linecap="round" stroke-linejoin="round"/>
<path d="M152.523 62.2352C156.974 61.5606 159.86 56.2576 158.971 50.3907C158.082 44.5238 153.753 40.3147 149.302 40.9894C144.852 41.664 141.965 46.967 142.854 52.8339C143.744 58.7007 148.073 62.9099 152.523 62.2352Z" stroke="#5D6063" stroke-width="1.14524" stroke-linecap="round" stroke-linejoin="round"/>
<path d="M158.624 48.8585L164.665 47.8125" stroke="#5D6063" stroke-width="1.14524" stroke-linecap="round" stroke-linejoin="round"/>
<path d="M180.958 44.3711L188.601 44.8597" stroke="#5D6063" stroke-width="1.14524" stroke-linecap="round" stroke-linejoin="round"/>
<path d="M0.873047 170.609H287.428" stroke="#1D1515" stroke-width="1.14524" stroke-linecap="round" stroke-linejoin="round"/>
</g>
<defs>
<clipPath id="clip0_1922_105939">
<rect width="288" height="170.363" fill="white" transform="translate(0 0.820312)"/>
</clipPath>
</defs>
</svg>
