<svg width="288" height="118" viewBox="0 0 288 118" fill="none" xmlns="http://www.w3.org/2000/svg">
<g clip-path="url(#clip0_1932_198980)">
<path d="M21.8027 117.307V7.38672H179.152V40.8663" stroke="#1D1515" stroke-width="1.05797" stroke-linecap="round" stroke-linejoin="round"/>
<path d="M107.703 68.9926V14.9707H171.776V44.5957" stroke="#1D1515" stroke-width="1.05797" stroke-linecap="round" stroke-linejoin="round"/>
<path d="M160.208 109.922H127.055" stroke="#1D1515" stroke-width="1.05797" stroke-linecap="round" stroke-linejoin="round"/>
<path d="M119.506 65.9011C121.368 65.9011 122.878 64.5014 122.878 62.7748C122.878 61.0481 121.368 59.6484 119.506 59.6484C117.644 59.6484 116.135 61.0481 116.135 62.7748C116.135 64.5014 117.644 65.9011 119.506 65.9011Z" stroke="#1D1515" stroke-width="1.05797" stroke-linecap="round" stroke-linejoin="round"/>
<path d="M127.191 102.822H152.087C153.156 96.9522 158.661 92.4805 165.296 92.4805" stroke="#1D1515" stroke-width="1.05797" stroke-linecap="round" stroke-linejoin="round"/>
<path d="M166.98 49.1088V32.1495C166.42 32.2151 165.858 32.2487 165.294 32.25C158.721 32.25 153.258 27.8611 152.117 22.0723H126.118C124.977 27.8611 119.512 32.2553 112.94 32.2553C112.791 32.2553 112.644 32.2553 112.496 32.2447V68.967" stroke="#1D1515" stroke-width="1.05797" stroke-linecap="round" stroke-linejoin="round"/>
<path d="M93.1508 77.0985V14.9707H29.0781V109.922H73.2115" stroke="#1D1515" stroke-width="1.05797" stroke-linecap="round" stroke-linejoin="round"/>
<path d="M81.348 65.9011C83.21 65.9011 84.7194 64.5014 84.7194 62.7748C84.7194 61.0481 83.21 59.6484 81.348 59.6484C79.486 59.6484 77.9766 61.0481 77.9766 62.7748C77.9766 64.5014 79.486 65.9011 81.348 65.9011Z" stroke="#1D1515" stroke-width="1.05797" stroke-linecap="round" stroke-linejoin="round"/>
<path d="M73.0971 102.822H48.7637C47.6951 96.9522 42.1901 92.4804 35.5548 92.4804C34.9915 92.4817 34.4287 92.5153 33.8691 92.581V32.1495C34.4287 32.2151 34.9915 32.2487 35.5548 32.25C42.1284 32.25 47.5911 27.8611 48.7319 22.0723H74.7369C75.8778 27.8611 81.3422 32.2553 87.914 32.2553C88.0639 32.2553 88.2102 32.2553 88.3583 32.2447V77.1557" stroke="#1D1515" stroke-width="1.05797" stroke-linecap="round" stroke-linejoin="round"/>
<path d="M100.375 7.51172V76.9466" stroke="#1D1515" stroke-width="1.05797" stroke-linecap="round" stroke-linejoin="round"/>
<path d="M127.272 76.6165L115.197 69.7678C114.394 69.3027 113.481 69.0593 112.552 69.0625L102.801 69.1419C102.57 69.1419 102.063 69.886 102.272 69.9935L114.011 76.9145L115.331 117.096H127.031V76.6147L127.272 76.6165Z" stroke="#1D1515" stroke-width="1.05797" stroke-linecap="round" stroke-linejoin="round"/>
<path d="M102.662 69.4745C102.619 69.4512 102.584 69.414 102.564 69.3688C102.544 69.3236 102.54 69.2731 102.552 69.2251C102.564 69.1772 102.591 69.1346 102.63 69.1041C102.669 69.0736 102.717 69.0569 102.766 69.0566H102.366C100.696 69.0566 100.144 71.2925 101.622 72.0701L110.144 76.5524H72.5645V117.09H116.107V76.5524H116.119L102.662 69.4745ZM97.7248 98.1633C97.7363 100.096 97.3728 102.012 96.6545 103.806L98.4055 108.177C98.6735 108.844 98.0528 109.528 97.2858 109.411L92.405 108.678C91.9451 108.887 91.4585 109.032 90.9591 109.108V110.157C90.9593 110.37 90.9176 110.581 90.8364 110.777C90.7551 110.974 90.636 111.152 90.4856 111.303C90.3353 111.453 90.1568 111.573 89.9603 111.654C89.7637 111.736 89.5531 111.778 89.3404 111.778H88.7091C88.4963 111.778 88.2854 111.736 88.0887 111.655C87.892 111.573 87.7133 111.454 87.5628 111.304C87.4123 111.153 87.2929 110.974 87.2116 110.778C87.1302 110.581 87.0884 110.37 87.0887 110.157V108.218C84.4437 106.5 82.6117 102.644 82.6152 98.1668C82.6187 93.6898 84.4561 89.8441 87.0887 88.116V85.6704C87.0887 85.2406 87.2594 84.8284 87.5633 84.5245C87.8672 84.2206 88.2794 84.0499 88.7091 84.0499H89.3404C89.7699 84.0504 90.1816 84.2213 90.4851 84.5251C90.7886 84.829 90.9591 85.2409 90.9591 85.6704V87.2097C91.4642 87.2862 91.9562 87.4328 92.4209 87.6453L97.3069 86.917C98.0757 86.8024 98.6947 87.4866 98.4249 88.1513L96.6616 92.519C97.3797 94.3135 97.7426 96.2304 97.7301 98.1633H97.7248Z" fill="#1D1515"/>
<path d="M258.94 80.5585C258.162 76.8362 257.579 73.0758 257.194 69.2928C257.111 66.0254 256.981 62.5923 256.926 59.0005C256.92 58.2572 256.797 57.5194 256.563 56.814C263.743 43.9314 263.307 25.1629 256.355 13.9167C248.011 0.423976 227.689 -2.88925 219.056 4.64353C210.423 12.1763 212.165 25.1629 215.845 27.2771C219.525 29.3913 218.574 24.8773 218.574 24.8773C218.574 24.8773 214.318 4.37022 237.399 10.0374C259.698 15.5036 247.979 43.2702 232.032 49.8878C217.841 50.5437 201.605 53.9204 195.003 55.3787C193.878 53.8323 192.331 52.4146 190.279 51.1944C192.515 47.2429 197.173 38.4 194.024 38.4987C192.31 38.5481 172.512 39.7136 166.996 49.454C164.243 50.1311 161.563 51.081 158.998 52.2894C154.772 51.0092 139.514 47.4192 130.091 58.7042C128.343 62.1938 136.086 61.8147 142.081 66.2282C139.708 71.8866 138.555 81.6305 150.132 87.6645C155.087 90.2601 160.46 90.8878 165.626 90.4064C165.671 90.5075 165.731 90.6013 165.803 90.685C165.803 94.9363 167.116 95.0827 167.919 95.7792C167.883 96.95 167.566 98.1138 167.303 99.4821C166.713 102.63 166.06 107.01 166.06 107.01C164.457 107.01 159.254 110.6 158.409 112.418C157.937 113.43 158.34 116.717 158.34 116.717C158.34 116.717 176.432 117.173 177.95 116.739C179.468 116.306 179.417 115.505 179.51 114.024C179.613 112.437 182.196 106.158 185.474 99.7184C187.424 100.202 189.531 100.647 191.795 101.055C191.298 103.906 190.838 106.995 190.838 106.995C189.235 106.995 184.03 110.586 183.187 112.403C182.713 113.426 183.118 116.717 183.118 116.717C183.118 116.717 201.211 117.173 202.729 116.739C204.248 116.306 204.197 115.505 204.29 114.024C204.373 112.701 206.17 108.152 208.652 102.959C213.667 103.25 219.188 103.363 225.268 103.25C226.247 103.233 227.197 103.202 228.117 103.159C228.117 103.938 227.699 104.71 226.883 105.285L222.172 108.662L214.87 108.226C208.27 107.964 208.286 117.013 208.286 117.013H232.942C232.942 117.013 235.874 114.523 239.235 112.252C242.596 109.981 246.993 107.331 246.669 104.943C246.572 104.229 245.951 102.256 245.128 99.8401C245.491 99.6778 245.844 99.5103 246.186 99.3375C249.323 100.009 252.206 100.635 254.297 101.101C256.286 101.536 257.605 103.002 257.471 104.627L257.102 109.134C257.102 109.134 254.26 107.676 250.322 109.545C246.385 111.414 248.134 117.108 248.134 117.108L268.699 117.235C268.971 114.809 272.706 103.22 273.587 97.2057C274.469 91.1911 261.466 92.265 258.94 80.5585Z" stroke="#1D1515" stroke-width="1.05797" stroke-linecap="round" stroke-linejoin="round"/>
<path d="M162.58 69.8481C163.549 69.7302 164.183 68.3949 163.997 66.8656C163.811 65.3362 162.875 64.192 161.906 64.31C160.938 64.4279 160.303 65.7632 160.489 67.2925C160.676 68.8219 161.612 69.966 162.58 69.8481Z" fill="#1D1515"/>
<path d="M150.799 71.8364C151.768 71.7185 152.402 70.3832 152.216 68.8538C152.03 67.3245 151.094 66.1803 150.125 66.2982C149.156 66.4161 148.522 67.7515 148.708 69.2808C148.894 70.8101 149.83 71.9543 150.799 71.8364Z" fill="#1D1515"/>
<path d="M162.369 77.9242C161.84 77.2647 160.664 77.1695 159.527 77.076C159.046 77.0355 158.333 76.9773 158.116 76.8662C158.111 76.8499 158.105 76.834 158.097 76.8186L157.959 75.9951C158.064 75.9355 158.157 75.8572 158.233 75.7641L160.105 73.4401C160.552 72.8812 160.091 72.1864 159.349 72.2993L154.816 72.987C154.033 73.1069 153.724 73.9956 154.336 74.3711L156.981 75.9934L157.157 77.0602C157.013 77.2242 156.399 77.4798 156.023 77.635C154.939 78.0882 153.453 78.7053 153.957 79.9819C154.01 80.0932 154.102 80.1803 154.217 80.2257C154.331 80.2712 154.459 80.2716 154.573 80.2268C154.688 80.1821 154.781 80.0956 154.835 79.9847C154.888 79.8739 154.898 79.7468 154.861 79.6293C154.719 79.2678 155.471 78.924 156.397 78.536C156.947 78.3068 157.476 78.0846 157.808 77.7831C158.229 77.9436 158.818 77.9929 159.455 78.0441C160.211 78.1076 161.354 78.201 161.62 78.5325C161.641 78.5606 161.656 78.5931 161.663 78.6275C161.67 78.662 161.669 78.6976 161.661 78.7318C161.652 78.7949 161.656 78.8591 161.672 78.9207C161.688 78.9823 161.716 79.0402 161.755 79.0909C161.793 79.1417 161.841 79.1844 161.896 79.2165C161.951 79.2487 162.012 79.2697 162.075 79.2784C162.097 79.2801 162.12 79.2801 162.142 79.2784C162.259 79.2782 162.372 79.2356 162.46 79.1584C162.549 79.0813 162.606 78.9748 162.622 78.8587C162.647 78.694 162.638 78.5257 162.595 78.3647C162.551 78.2037 162.475 78.0536 162.369 77.9242Z" fill="#1D1515"/>
<path d="M149.171 75.9961C149.171 75.9961 132.809 84.1072 135.56 101.172" stroke="#1D1515" stroke-width="1.05797" stroke-linecap="round" stroke-linejoin="round"/>
<path d="M150.127 78.041C150.127 78.041 136.675 87.7638 142.645 103.99" stroke="#1D1515" stroke-width="1.05797" stroke-linecap="round" stroke-linejoin="round"/>
<path d="M169.738 72.2717C169.738 72.2717 188.482 68.6323 196.893 83.7331" stroke="#1D1515" stroke-width="1.05797" stroke-linecap="round" stroke-linejoin="round"/>
<path d="M171.344 74.5523C171.344 74.5523 187.714 73.9017 193.085 90.3355" stroke="#1D1515" stroke-width="1.05797" stroke-linecap="round" stroke-linejoin="round"/>
<path d="M193.606 41.0479C193.606 41.0479 186.155 40.3021 178.338 48.7835" stroke="#1D1515" stroke-width="1.05797" stroke-linecap="round" stroke-linejoin="round"/>
<path d="M214.898 74.3965C214.608 86.3393 218.977 94.7872 225.831 96.5364C232.685 98.2855 239.086 96.6809 245.347 99.1584" stroke="#1D1515" stroke-width="1.05797" stroke-linecap="round" stroke-linejoin="round"/>
<path d="M166.396 90.561C185.331 87.3571 201.063 73.6652 194.8 56.332" stroke="#1D1515" stroke-width="1.05797" stroke-linecap="round" stroke-linejoin="round"/>
<path d="M168.434 95.8048C168.434 95.8048 176.153 96.2403 180.815 90.998" stroke="#1D1515" stroke-width="1.05797" stroke-linecap="round" stroke-linejoin="round"/>
<path d="M184.789 116.511C184.789 116.511 183.973 112.191 189.958 108.994" stroke="#1D1515" stroke-width="1.05797" stroke-linecap="round" stroke-linejoin="round"/>
<path d="M188.258 116.716C188.258 116.716 187.85 113.079 191.523 110.561" stroke="#1D1515" stroke-width="1.05797" stroke-linecap="round" stroke-linejoin="round"/>
<path d="M160.01 116.511C160.01 116.511 159.194 112.191 165.18 108.994" stroke="#1D1515" stroke-width="1.05797" stroke-linecap="round" stroke-linejoin="round"/>
<path d="M163.478 116.716C163.478 116.716 163.071 113.079 166.744 110.561" stroke="#1D1515" stroke-width="1.05797" stroke-linecap="round" stroke-linejoin="round"/>
<path d="M211.65 116.851C211.65 116.851 211.402 110.571 216.616 109.975" stroke="#1D1515" stroke-width="1.05797" stroke-linecap="round" stroke-linejoin="round"/>
<path d="M214.145 116.918C214.145 116.918 214.166 113.038 218.376 111.545" stroke="#1D1515" stroke-width="1.05797" stroke-linecap="round" stroke-linejoin="round"/>
<path d="M249.811 116.852C249.811 116.852 248.929 112.498 250.967 111.07C252.152 110.222 253.595 109.813 255.048 109.913" stroke="#1D1515" stroke-width="1.05797" stroke-linecap="round" stroke-linejoin="round"/>
<path d="M252.394 116.852C252.394 116.852 251.102 112.973 254.639 112.43" stroke="#1D1515" stroke-width="1.05797" stroke-linecap="round" stroke-linejoin="round"/>
<path d="M138.085 117.01C139.443 117.01 140.543 115.909 140.543 114.552C140.543 113.194 139.443 112.094 138.085 112.094C136.727 112.094 135.627 113.194 135.627 114.552C135.627 115.909 136.727 117.01 138.085 117.01Z" fill="#5D6063"/>
<path d="M287.469 117.303H0.527344" stroke="#1D1515" stroke-width="1.05797" stroke-linecap="round" stroke-linejoin="round"/>
</g>
<defs>
<clipPath id="clip0_1932_198980">
<rect width="288" height="117.673" fill="white" transform="translate(0 0.164062)"/>
</clipPath>
</defs>
</svg>
