<svg width="288" height="200" viewBox="0 0 288 200" fill="none" xmlns="http://www.w3.org/2000/svg">
<path d="M28.0664 178.418V111.087C28.0709 104.098 30.8505 97.3964 35.7942 92.4559C40.7378 87.5155 47.4409 84.7402 54.43 84.7402H75.077" stroke="#1D1515" stroke-width="1.13726" stroke-linecap="round" stroke-linejoin="round"/>
<path d="M104.816 119.693C104.816 119.693 107.066 126.432 107.396 129.694" stroke="#1D1515" stroke-width="1.51635" stroke-linecap="round" stroke-linejoin="round"/>
<path d="M132.513 117.254C132.311 121.495 132.381 125.745 132.723 129.978" stroke="#1D1515" stroke-width="1.51635" stroke-linecap="round" stroke-linejoin="round"/>
<path d="M153.692 95.8535C154.477 96.6629 154.78 107.865 161.869 107.732" stroke="#1D1515" stroke-width="1.13726" stroke-linecap="round" stroke-linejoin="round"/>
<path d="M77.0786 99.3027C73.9739 100.673 69.4968 103.336 65.8955 108.852C70.9715 106.767 88.4379 122.385 100.819 118.843C95.0625 118.232 82.727 109.193 77.0786 99.3027Z" fill="#1D1515"/>
<path d="M87.1666 74.3828C72.1433 81.5343 71.9367 91.5858 77.043 100.326C74.3629 100.748 67.8767 104.401 54.15 123.784C34.3882 151.686 35.3359 177.722 73.7753 178.385" stroke="#1D1515" stroke-width="1.13726" stroke-linecap="round" stroke-linejoin="round"/>
<path d="M147.229 136.458V136.348C192.516 140.653 191.203 120.925 186.464 101.093L174.568 61.759C172.815 57.934 171.248 59.5717 170.588 58.3757C169.062 55.5818 168.456 54.3555 168.456 54.3555C162.891 59.0694 151.776 57.0091 151.776 57.0091C151.776 57.0091 151.681 58.0269 151.603 61.1392C151.526 64.2515 148.059 63.7928 148.466 67.9287L153.679 95.8522L139.196 92.7646C138.269 87.6943 135.907 80.0007 130.229 75.137" stroke="#1D1515" stroke-width="1.13726" stroke-linecap="round" stroke-linejoin="round"/>
<path d="M149.344 178.284L149.109 162.07" stroke="#1D1515" stroke-width="1.13726" stroke-linecap="round" stroke-linejoin="round"/>
<path d="M145.965 94.2065C143.679 93.2588 140.629 92.9043 138.633 92.584C139.009 94.4844 139.175 96.4207 139.126 98.3575C138.696 108.343 134.789 112.24 133.858 115.917C145.866 111.491 146.802 99.781 145.965 94.2065Z" fill="#1D1515"/>
<path d="M127.967 152.573C127.715 154.684 127.23 155.571 122.29 158.111C121.03 158.759 118.374 160.166 114.816 161.949C115.554 171.064 115.954 177.769 115.954 177.769L130.759 177.975C130.759 177.975 130.35 162.738 130.029 147.258C129.208 148.918 128.119 151.288 127.967 152.573Z" fill="#1D1515"/>
<path d="M129.698 117.343C129.887 109.176 126.76 101.164 123.736 95.8034C123.247 103.26 121.651 111.903 119.965 114.722C112.004 109.2 106.033 106.035 101.26 103.514C98.2448 98.6522 95.6992 94.3174 94.5998 91.1728C94.615 90.6971 94.6302 90.2137 94.6453 89.7285L94.126 89.7797C95.4528 94.1525 98.3149 100.369 104.24 108.721C105.45 110.133 106.559 111.629 107.559 113.198C108.973 115.414 110.269 121.682 111.397 129.499C117.988 128.583 123.094 128.403 124.021 129.807L129.747 130.903C129.535 119.985 129.597 121.801 129.698 117.343Z" fill="#1D1515"/>
<path d="M137.323 144.975L128.515 146.777" stroke="#1D1515" stroke-width="1.13726" stroke-linecap="round" stroke-linejoin="round"/>
<path d="M147.774 157.622C148.513 160.465 150.147 165.936 151.375 165.86C153.119 165.752 152.187 154.832 151.944 151.481C151.824 149.762 150.617 144.231 149.631 141.435C148.344 137.777 142.478 126.638 130.548 130.701L121.93 132.811" stroke="#1D1515" stroke-width="1.13726" stroke-linecap="round" stroke-linejoin="round"/>
<path d="M137.798 142.752C137.608 144.691 136.471 148.768 137.955 151.446" stroke="#1D1515" stroke-width="1.13726" stroke-linecap="round" stroke-linejoin="round"/>
<path d="M149.346 151.27C149.346 151.27 148.415 159.189 145.769 159.799C143.123 160.409 142.954 158.176 142.954 158.176" stroke="#1D1515" stroke-width="1.13726" stroke-linecap="round" stroke-linejoin="round"/>
<path d="M146.17 150.998C146.17 150.998 144.741 157.979 142.055 158.39C139.369 158.802 139.369 156.576 139.369 156.576" stroke="#1D1515" stroke-width="1.13726" stroke-linecap="round" stroke-linejoin="round"/>
<path d="M142.253 150.567C142.253 150.567 140.397 158.935 137.418 155.762C134.438 152.589 134.753 150.973 134.753 150.973C134.753 150.973 136.186 148.673 138.483 152.345" stroke="#1D1515" stroke-width="1.13726" stroke-linecap="round" stroke-linejoin="round"/>
<path d="M128.087 151.238C121.387 145.802 119.114 132.111 121.946 129.115C122.06 128.167 124.236 129.768 125.547 129.914C128.713 130.267 130.077 130.364 130.077 130.364C128.794 134.31 130.223 139.083 131.692 142.477C132.322 143.977 133.052 145.434 133.876 146.837C133.624 146.964 132.606 147.466 130.185 148.528C128.79 149.147 128.495 150.194 128.087 151.238Z" fill="#1D1515"/>
<path d="M75.0781 130.681C78.0369 129.701 86.0034 128.344 88.4334 133.955" stroke="#1D1515" stroke-width="1.13726" stroke-linecap="round" stroke-linejoin="round"/>
<path d="M75.078 137.098C75.078 137.098 121.052 125.29 124.024 129.797L131.005 145.406C131.005 145.406 128.218 150.457 127.972 152.571C127.726 154.684 127.235 155.569 122.295 158.109C117.356 160.649 91.5493 175.473 73.0518 178.383" stroke="#1D1515" stroke-width="1.13726" stroke-linecap="round" stroke-linejoin="round"/>
<path d="M94.9446 80.6094C94.8441 83.5663 94.7114 87.5694 94.5996 91.1688C95.699 94.3134 98.2445 98.6482 101.26 103.51C106.033 106.031 111.998 109.196 119.964 114.718C121.67 111.899 123.247 103.256 123.736 95.7994" stroke="#1D1515" stroke-width="1.13726" stroke-linecap="round" stroke-linejoin="round"/>
<path d="M92.5188 66.7344C91.0915 66.8614 85.7502 67.7143 86.8817 73.3684C87.7802 77.8663 91.8914 77.4663 94.3535 76.7802" stroke="#1D1515" stroke-width="1.13726" stroke-linecap="round" stroke-linejoin="round"/>
<path d="M130.134 56.1426C131.146 63.8627 130.678 72.1495 129.886 78.3192" stroke="#1D1515" stroke-width="1.13726" stroke-linecap="round" stroke-linejoin="round"/>
<path d="M129.885 78.3125C129.553 80.9092 129.163 83.1288 128.801 84.7684" stroke="#1D1515" stroke-width="1.13726" stroke-linecap="round" stroke-linejoin="round"/>
<path d="M96.7206 68.0859C97.9166 69.2952 101.124 76.2666 101.906 79.5173C101.906 79.5173 109.843 76.786 121.213 76.6192C121.213 76.6192 127.413 76.7462 129.885 77.4968C129.885 77.4968 129.35 89.0077 124.324 94.9689C119.297 100.93 108.669 99.2621 103.679 95.6778C98.688 92.0935 97.8692 90.3838 96.7149 86.5494C95.5606 82.7149 92.5127 68.4195 92.5127 68.4195L96.7206 68.0859Z" stroke="#1D1515" stroke-width="1.13726" stroke-linecap="round" stroke-linejoin="round"/>
<path d="M118.084 87.0335C118.084 87.0335 121.183 87.6495 122.443 86.4175L118.084 87.0335Z" fill="white"/>
<path d="M118.084 87.0335C118.084 87.0335 121.183 87.6495 122.443 86.4175" stroke="#1D1515" stroke-width="1.13726" stroke-linecap="round" stroke-linejoin="round"/>
<path d="M122.035 72.1875L123.187 82.2162L119.65 81.3121" stroke="#1D1515" stroke-width="1.13726" stroke-linecap="round" stroke-linejoin="round"/>
<path d="M125.736 74.8993C126.304 74.8993 126.764 74.1873 126.764 73.309C126.764 72.4307 126.304 71.7188 125.736 71.7188C125.169 71.7188 124.709 72.4307 124.709 73.309C124.709 74.1873 125.169 74.8993 125.736 74.8993Z" fill="#1D1515"/>
<path d="M115.844 74.7255C116.411 74.7255 116.871 74.0135 116.871 73.1352C116.871 72.2569 116.411 71.5449 115.844 71.5449C115.276 71.5449 114.816 72.2569 114.816 73.1352C114.816 74.0135 115.276 74.7255 115.844 74.7255Z" fill="#1D1515"/>
<path d="M111.388 64.84C111.906 64.1756 112.594 63.6624 113.378 63.354C114.163 63.0457 115.015 62.9533 115.848 63.0867" stroke="#1D1515" stroke-width="1.13726" stroke-linecap="round" stroke-linejoin="round"/>
<path d="M125.287 62.9122C125.287 62.9122 128.13 62.173 128.849 64.5025" stroke="#1D1515" stroke-width="1.13726" stroke-linecap="round" stroke-linejoin="round"/>
<path d="M136.66 54.5166C136.409 53.785 136.694 52.8942 137.217 51.9976L137.08 51.8441L136.438 53.6448C136.438 53.6448 134.427 54.511 133.763 51.9389C133.559 51.1523 134.023 50.1932 134.762 49.2435L134.741 49.2189C131.946 49.8671 126.483 50.9248 125.99 49.8254C125.295 48.2693 135.151 44.1391 138.153 42.8123C139.692 42.1395 145.018 40.6781 147.888 40.2611C149.792 40.019 151.717 39.998 153.626 40.1985C153.847 38.4348 153.504 36.6462 152.644 35.0903C151.713 33.3731 149.768 30.8199 148.042 29.9044C130.928 20.8272 122.578 36.1594 122.578 36.1594C122.578 36.1594 120.169 29.5841 112.372 29.3491C110.79 29.3065 109.216 29.5871 107.746 30.1737C106.277 30.7604 104.943 31.6407 103.825 32.7608C97.4393 39.1617 101.696 46.408 101.696 46.408C101.696 46.408 98.7225 44.8916 94.7117 46.8269C89.9201 49.145 87.5091 54.5716 88.7544 59.7481C90.0812 65.2448 92.5187 70.4781 92.5187 70.4781C108.092 72.8891 112.072 57.5986 109.779 55.6255C113.232 58.1805 119.445 59.8921 129.969 58.8345C132.378 58.5843 135.333 57.6365 138.341 56.1998C137.759 56.1202 137.082 55.7411 136.66 54.5166Z" fill="#1D1515"/>
<path d="M151.269 53.0488L153.746 63.0207L167.819 58.8583" stroke="#1D1515" stroke-width="1.13726" stroke-linecap="round" stroke-linejoin="round"/>
<path d="M134.75 49.2268C131.954 49.875 126.492 50.9327 125.999 49.8333C125.303 48.2772 135.16 44.147 138.162 42.8202C139.701 42.1473 145.027 40.686 147.897 40.269C151.64 39.7288 165.25 39.3838 167.136 51.5316L169.15 59.0433L155.765 63.0123" stroke="#1D1515" stroke-width="1.13726" stroke-linecap="round" stroke-linejoin="round"/>
<path d="M155.056 51.1309C153.469 52.1771 147.515 54.9938 144.526 54.9217" stroke="#1D1515" stroke-width="1.13726" stroke-linecap="round" stroke-linejoin="round"/>
<path d="M139.528 44.9941C139.528 44.9941 133.107 49.3821 133.772 51.9504C134.437 54.5187 136.446 53.6563 136.446 53.6563" stroke="#1D1515" stroke-width="1.13726" stroke-linecap="round" stroke-linejoin="round"/>
<path d="M141.198 47.6152C141.198 47.6152 135.813 52.0089 136.668 54.5165C137.523 57.0242 139.462 56.012 139.462 56.012" stroke="#1D1515" stroke-width="1.13726" stroke-linecap="round" stroke-linejoin="round"/>
<path d="M143.344 50.8125C143.344 50.8125 136.952 56.2012 141.041 57.3404C145.129 58.4795 146.386 57.4787 146.386 57.4787C146.386 57.4787 147.724 55.2042 143.513 54.8744" stroke="#1D1515" stroke-width="1.13726" stroke-linecap="round" stroke-linejoin="round"/>
<path d="M149.909 64.1132C152.599 67.6785 170.822 64.9926 173.82 60.3867C172.383 58.4155 171.239 59.5395 170.598 58.3757C169.072 55.5818 168.465 54.3555 168.465 54.3555C165.3 57.0375 160.336 57.5265 156.644 57.4507C155.015 57.4363 153.39 57.3141 151.778 57.0849C151.755 57.3673 151.678 58.4989 151.611 61.1411C151.579 62.6707 150.722 63.3398 149.909 64.1132Z" fill="#1D1515"/>
<path d="M249.356 125.477H175.66C175.19 125.476 174.734 125.635 174.366 125.926C173.997 126.218 173.738 126.625 173.63 127.082L163.385 170.453H136.671C136.671 170.453 135.19 178.1 143.824 178.1H237.91C238.38 178.1 238.836 177.941 239.204 177.65C239.572 177.359 239.832 176.951 239.94 176.494L251.384 128.041C251.457 127.735 251.459 127.417 251.391 127.11C251.323 126.803 251.186 126.515 250.991 126.268C250.796 126.022 250.547 125.822 250.264 125.685C249.981 125.548 249.671 125.477 249.356 125.477Z" fill="#1D1515"/>
<path d="M0.567383 178.385H287.43" stroke="#1D1515" stroke-width="1.13726" stroke-linecap="round" stroke-linejoin="round"/>
</svg>
