<svg width="288" height="200" viewBox="0 0 288 200" fill="none" xmlns="http://www.w3.org/2000/svg">
<path d="M34.0059 168.914V116.958C34.0059 110.516 36.5652 104.337 41.1209 99.7811C45.6766 95.2254 51.8555 92.666 58.2983 92.666H77.6288" stroke="#1D1515" stroke-width="1.04791" stroke-linecap="round" stroke-linejoin="round"/>
<path d="M160.36 132.86C159.312 132.385 158.202 131.935 157.03 131.51C153.07 125.965 146.708 110.602 140.057 101.312C139.98 96.6597 140.581 88.0179 132.438 82.7207" stroke="#1D1515" stroke-width="1.04791" stroke-linecap="round" stroke-linejoin="round"/>
<path d="M101.752 78.75C78.4986 82.6116 74.9602 91.8123 79.047 100.265C71.7553 104.19 59.7427 112.599 49.2513 129.046C32.834 154.757 48.6855 168.961 58.0119 168.961C67.3383 168.961 173.618 168.179 173.618 168.179C173.618 168.179 178.683 157.44 174.744 146.967" stroke="#1D1515" stroke-width="1.04791" stroke-linecap="round" stroke-linejoin="round"/>
<path d="M99.5005 90.6699L97.1846 92.3518C97.1846 92.3518 112.606 108.409 119.521 141.097C120.307 144.81 120.862 147.631 121.253 149.778C121.238 149.797 125.934 150.275 125.819 150.228C124.462 141.239 122.565 124.851 125.295 116.925C129.158 105.676 129.259 99.1685 126.64 90.9476C126.011 88.974 125.132 103.713 120.487 108.965C108.764 95.9357 99.5005 90.6699 99.5005 90.6699Z" fill="#1D1515"/>
<path d="M103.622 84.0547L103.456 86.898L99.9004 90.9884C99.9004 90.9884 110.43 97.4977 120.509 108.978C120.509 108.978 124.766 104.527 126.212 90.8888" stroke="#1D1515" stroke-width="1.04791" stroke-linecap="round" stroke-linejoin="round"/>
<path d="M107.472 114.926C107.472 114.926 113.267 126.987 114.063 135.185" stroke="#1D1515" stroke-width="1.39722" stroke-linecap="round" stroke-linejoin="round"/>
<path d="M129.478 114.494C129.478 114.494 126.814 126.037 127.689 134.219" stroke="#1D1515" stroke-width="1.39722" stroke-linecap="round" stroke-linejoin="round"/>
<path d="M145.15 159.769C147.055 161.567 148.109 162.697 148.238 163.209C148.549 164.432 146.058 165.13 144.001 163.227L137.944 157.987C137.944 157.987 144.116 164.36 144.593 165.335C145.07 166.309 142.661 168.035 139.095 163.938C135.528 159.84 134.961 159.802 134.961 159.802C134.961 159.802 139.037 164.959 139.58 166.128C140.123 167.296 136.685 168.398 133.532 162.984L114.684 162.233L115.794 148.648C115.794 148.648 125.187 150.077 131.634 151.42L133.218 151.731C134.158 151.81 135.083 152.018 135.967 152.348C138.237 153.163 148.388 157.888 149.162 158.853C149.935 159.819 148.977 161.676 146.497 160.453C144.016 159.231 138.88 156.476 138.88 156.476" stroke="#1D1515" stroke-width="1.04791" stroke-linecap="round" stroke-linejoin="round"/>
<path d="M93.9626 168.758C101.473 168.822 110.205 167.42 111.962 167.186C115.431 166.73 114.481 164.117 117.027 163.474C119.574 162.832 120.447 162.172 120.447 162.172C117.899 156.757 122.066 148.786 122.066 148.786C122.066 148.786 121.266 148.46 118.772 147.625C116.278 146.79 117.425 144.257 114.002 143.538C110.579 142.818 82.5508 140.424 82.5508 140.424" stroke="#1D1515" stroke-width="1.04791" stroke-linecap="round" stroke-linejoin="round"/>
<path d="M117.403 163.878C120.159 163.203 121.099 162.508 121.099 162.508C118.327 156.76 122.814 148.335 122.814 148.335C122.814 148.335 121.94 147.986 119.247 147.095C118.161 146.737 117.71 146.087 117.326 145.391C110.881 151.133 112.918 162.833 113.936 167.11C115.401 166.104 115.312 164.389 117.403 163.878Z" fill="#1D1515"/>
<path d="M85.7676 132.363C85.7676 132.363 91.3565 133.465 92.0778 141.019" stroke="#1D1515" stroke-width="1.04791" stroke-linecap="round" stroke-linejoin="round"/>
<path d="M156.919 152C156.919 152 155.872 156.801 154.349 158.625C152.826 160.448 156.044 162.076 157.69 160.949C157.917 160.803 158.136 160.644 158.345 160.472" stroke="#1D1515" stroke-width="1.04791" stroke-linecap="round" stroke-linejoin="round"/>
<path d="M162.885 144.779C160.023 144.933 157.553 146.332 157.424 150.218C157.424 150.218 158.33 159.153 158.505 161.745C158.68 164.337 161.28 163.801 161.794 162.725" stroke="#1D1515" stroke-width="1.04791" stroke-linecap="round" stroke-linejoin="round"/>
<path d="M161.491 153.701C161.491 153.701 161.633 159.154 161.806 161.735C161.978 164.316 164.46 164.514 164.949 163.157C165.438 161.8 164.991 153.697 164.991 153.697C164.991 153.697 165.131 159.15 165.306 161.731C165.48 164.313 167.814 164.241 168.327 163.165C168.69 162.406 168.327 153.694 168.327 153.694C168.327 153.694 168.469 159.147 168.643 161.728C168.818 164.309 171.149 164.238 171.665 163.162C172.18 162.086 173.63 149.572 171.822 147.922C171.528 147.019 169.085 145.69 166.292 145.08" stroke="#1D1515" stroke-width="1.04791" stroke-linecap="round" stroke-linejoin="round"/>
<path d="M167.072 145.282C169.528 145.947 171.559 147.116 171.825 147.933C173.023 149.028 172.789 154.896 172.349 159.041C173.559 157.629 174.401 155.94 174.8 154.124C175.198 152.308 175.142 150.422 174.634 148.633C174.126 146.844 173.184 145.209 171.891 143.873C170.598 142.537 168.994 141.542 167.222 140.977" fill="#1D1515"/>
<path d="M162.775 140.488C160.799 140.667 158.905 141.364 157.285 142.509C155.665 143.654 154.376 145.207 153.548 147.011C152.721 148.814 152.384 150.804 152.572 152.779C152.761 154.754 153.467 156.645 154.621 158.259C155.995 156.231 156.919 152 156.919 152L157.696 152.943C157.541 151.359 157.424 150.218 157.424 150.218C157.551 146.367 159.979 144.959 162.809 144.783" fill="#1D1515"/>
<path d="M159.375 135.004C159.375 135.004 145.563 135.236 145.254 149.387" stroke="#1D1515" stroke-width="1.04791" stroke-linecap="round" stroke-linejoin="round"/>
<path d="M142.704 141.804C142.704 141.804 142.949 131.938 153.826 132.245" stroke="#1D1515" stroke-width="1.04791" stroke-linecap="round" stroke-linejoin="round"/>
<path d="M139.482 100.684C139.482 100.89 139.482 101.087 139.496 101.277C137.779 110.663 136.26 109.511 132.232 116.926C132.202 116.98 132.174 117.038 132.146 117.101C137.662 114.942 141.997 112.13 144.48 107.32C144.48 107.312 141.242 102.739 139.482 100.684Z" fill="#1D1515"/>
<path d="M79.4663 99.9258C76.2027 101.714 73.0946 103.772 70.1748 106.079C73.1282 107.773 95.0663 120.023 105.243 117.389C98.1227 117.386 83.7296 108.98 79.4663 99.9258Z" fill="#1D1515"/>
<path d="M105.073 62.4643C106.074 63.6869 107.213 70.2905 107.618 73.3486C107.618 73.3486 115.374 71.6807 126.103 72.7234C126.103 72.7234 131.83 73.4796 134.121 74.4158C135.423 68.9387 136.591 61.7517 136.437 54.8931C136.21 44.6917 123.791 44.0647 121.973 44.0175C102.459 43.4272 101.697 62.2215 101.697 62.2215V62.2914L105.073 62.4643Z" stroke="#1D1515" stroke-width="1.04791" stroke-linecap="round" stroke-linejoin="round"/>
<path d="M100.202 65.1973C98.468 65.2479 94.3828 65.8767 94.8003 70.6988C95.1705 74.9795 99.095 74.9656 101.407 74.5744" stroke="#1D1515" stroke-width="1.04791" stroke-linecap="round" stroke-linejoin="round"/>
<path d="M105.074 62.4629C106.074 63.6855 107.213 70.2891 107.618 73.3473C107.618 73.3473 115.375 71.6793 126.104 72.722C126.104 72.722 131.93 73.4922 134.181 74.4389C134.181 74.4389 132.501 84.918 127.157 89.8537C121.812 94.7894 111.971 92.1399 107.641 88.3342C103.311 84.5285 102.711 82.8763 102.015 79.2435C101.32 75.6108 99.9092 62.1992 99.9092 62.1992L105.074 62.4629Z" stroke="#1D1515" stroke-width="1.04791" stroke-linecap="round" stroke-linejoin="round"/>
<path d="M99.986 64.081C99.986 64.081 97.8517 58.6755 97.6544 53.4622C97.4675 48.5597 100.623 44.0938 105.372 42.8642C109.347 41.8355 111.759 43.7497 111.759 43.7497C111.759 43.7497 109.223 36.4318 116.152 31.8035C117.364 30.9947 118.729 30.4417 120.162 30.1784C121.595 29.915 123.067 29.9468 124.488 30.2718C131.493 31.8891 132.477 38.2814 132.477 38.2814C132.477 38.2814 142.795 25.9334 156.617 37.2335C158.014 38.3739 159.305 41.0304 159.836 42.7525C163.06 53.1845 143.995 60.9652 135.056 60.092C125.241 59.1349 119.926 56.4138 117.299 53.4394C119.327 55.282 113.853 69.1617 99.986 64.081Z" fill="#1D1515"/>
<path d="M126.561 68.666L126.589 77.968L123.445 76.7786" stroke="#1D1515" stroke-width="1.39722" stroke-linecap="round" stroke-linejoin="round"/>
<path d="M131.074 69.0155C131.164 68.2112 130.816 67.5122 130.296 67.4542C129.777 67.3962 129.283 68.0011 129.193 68.8054C129.103 69.6097 129.451 70.3087 129.971 70.3667C130.491 70.4247 130.985 69.8198 131.074 69.0155Z" fill="#1D1515"/>
<path d="M122.068 67.8846C122.157 67.0803 121.809 66.3813 121.289 66.3233C120.77 66.2653 120.276 66.8703 120.186 67.6746C120.096 68.4789 120.445 69.1779 120.964 69.2359C121.484 69.2939 121.978 68.6889 122.068 67.8846Z" fill="#1D1515"/>
<path d="M117.128 62.4575C117.671 61.9018 118.353 61.5021 119.102 61.2999C119.852 61.0978 120.643 61.1006 121.391 61.3082" stroke="#1D1515" stroke-width="1.39722" stroke-linecap="round" stroke-linejoin="round"/>
<path d="M129.273 61.897C129.273 61.897 131.958 61.5111 132.372 63.7169" stroke="#1D1515" stroke-width="1.39722" stroke-linecap="round" stroke-linejoin="round"/>
<path d="M118.927 79.8242C118.927 79.8242 119.711 82.5505 122.212 81.7856" stroke="#1D1515" stroke-width="1.39722" stroke-linecap="round" stroke-linejoin="round"/>
<path d="M115.485 162.27H177.174C177.684 162.27 178.172 162.472 178.533 162.832C178.893 163.193 179.095 163.681 179.095 164.191V168.906H113.51V164.247C113.51 163.987 113.56 163.73 113.66 163.49C113.759 163.25 113.904 163.032 114.088 162.849C114.271 162.665 114.489 162.519 114.729 162.42C114.969 162.321 115.226 162.27 115.485 162.27Z" fill="#1D1515"/>
<path d="M0.523438 169.008H287.476" stroke="#1D1515" stroke-width="1.04791" stroke-linecap="round" stroke-linejoin="round"/>
<path d="M214.368 112.994C212.634 113.054 211.894 113.424 211.894 114.931C211.894 117.163 214.164 147.581 214.185 147.886C214.206 148.192 215.505 166.426 215.505 166.426C215.544 167.012 215.803 167.561 216.231 167.963C216.659 168.366 217.223 168.591 217.811 168.593L220.336 168.506L214.276 113.35C214.263 113.224 214.295 113.098 214.368 112.994Z" fill="#1D1515"/>
<path d="M227.245 130.95H227.209C226.585 130.941 225.966 131.058 225.389 131.294C224.812 131.529 224.288 131.878 223.848 132.321C223.473 132.707 223.182 133.167 222.992 133.671C222.803 134.175 222.719 134.713 222.746 135.251C222.863 137.676 225.097 139.661 227.726 139.681H227.764C228.387 139.689 229.006 139.572 229.583 139.336C230.161 139.101 230.685 138.752 231.124 138.31C231.499 137.923 231.791 137.463 231.98 136.959C232.17 136.455 232.254 135.917 232.226 135.379C232.113 132.96 229.876 130.972 227.245 130.95Z" fill="#1D1515"/>
<path d="M243.556 165.686L239.225 147.684C239.225 147.684 232.569 116.649 232.106 114.5C231.756 112.892 230.211 112.958 230.034 112.983C229.896 113.002 229.812 112.983 229.659 112.983H215.217C215.271 113.056 215.306 113.143 215.316 113.234L221.389 168.499H241.299C241.645 168.497 241.985 168.417 242.296 168.267C242.607 168.116 242.88 167.898 243.096 167.629C243.312 167.359 243.465 167.045 243.545 166.709C243.624 166.373 243.628 166.023 243.556 165.686ZM231.88 139.039C231.343 139.582 230.701 140.012 229.994 140.303C229.287 140.593 228.528 140.738 227.764 140.73H227.718C224.543 140.707 221.843 138.272 221.698 135.303C221.664 134.623 221.77 133.942 222.01 133.305C222.251 132.667 222.62 132.086 223.095 131.597C223.633 131.053 224.274 130.622 224.981 130.331C225.689 130.04 226.447 129.895 227.212 129.903H227.257C230.432 129.926 233.133 132.36 233.276 135.329C233.311 136.01 233.205 136.691 232.965 137.33C232.724 137.968 232.355 138.55 231.88 139.039Z" fill="#1D1515"/>
<path d="M184.766 162.27H239.956V168.499H182.791V164.238C182.793 163.715 183.002 163.215 183.372 162.846C183.742 162.477 184.244 162.27 184.766 162.27Z" fill="#1D1515"/>
<path d="M266.57 77.6078C266.57 75.9608 265.275 74.6387 263.698 74.6387L169.702 74.9286C169.643 74.9286 169.585 74.9286 169.527 74.9391L162.049 74.9618C160.477 74.9618 159.2 76.3049 159.209 77.9501L159.558 146.882C159.558 148.527 160.851 149.851 162.428 149.851L169.255 149.694C169.522 149.777 169.801 149.82 170.081 149.82L213.205 148.787C213.184 148.579 213.161 148.312 213.135 147.968C213.04 146.714 210.84 117.205 210.84 114.934C210.84 111.939 213.33 111.939 214.979 111.939H230.132C230.202 111.939 230.273 111.946 230.341 111.962C231.321 111.995 232.752 112.538 233.125 114.278C233.571 116.354 239.926 146.03 240.379 148.138L264.074 147.57C265.646 147.57 266.922 146.227 266.914 144.582L266.57 77.6078ZM168.162 149.082C168.147 149.211 168.086 149.33 167.989 149.416C167.893 149.502 167.767 149.55 167.638 149.549H167.578C165.339 149.297 164.098 147.628 164.085 144.833C164.085 143.251 163.764 82.3618 163.746 79.0993C163.731 76.1127 166.209 75.2569 167.521 75.2133C167.66 75.2089 167.795 75.2599 167.896 75.355C167.997 75.4502 168.057 75.5817 168.061 75.7206C168.066 75.8596 168.015 75.9946 167.92 76.096C167.824 76.1974 167.693 76.2568 167.554 76.2612C167.269 76.2717 164.78 76.4358 164.794 79.0958C164.812 82.3583 165.125 143.247 165.133 144.83C165.145 147.112 165.984 148.323 167.697 148.497C167.766 148.505 167.833 148.526 167.894 148.559C167.955 148.593 168.009 148.638 168.052 148.693C168.095 148.747 168.127 148.81 168.146 148.877C168.165 148.943 168.17 149.013 168.162 149.082Z" fill="#1D1515"/>
<path d="M57.6052 158.328C60.415 158.328 62.6928 156.05 62.6928 153.24C62.6928 150.43 60.415 148.152 57.6052 148.152C54.7954 148.152 52.5176 150.43 52.5176 153.24C52.5176 156.05 54.7954 158.328 57.6052 158.328Z" stroke="#1D1515" stroke-width="1.04791" stroke-linecap="round" stroke-linejoin="round"/>
<path d="M58.9277 163.327V146.332H80.1655V163.327C80.1655 164.717 79.6134 166.05 78.6308 167.032C77.6482 168.015 76.3155 168.567 74.9259 168.567H64.1673C62.7777 168.567 61.445 168.015 60.4624 167.032C59.4798 166.05 58.9277 164.717 58.9277 163.327Z" fill="#1D1515"/>
</svg>
