<svg width="37" height="36" viewBox="0 0 37 36" fill="none" xmlns="http://www.w3.org/2000/svg">
<path opacity="0.25" d="M27.9874 21L32.4874 7.5H8.16602L10.0946 21H27.9874Z" fill="#FA8A00"/>
<path d="M3.98828 4.5H7.73828L10.7383 25.5H26.4883M26.4883 25.5C24.8314 25.5 23.4883 26.8431 23.4883 28.5C23.4883 30.1569 24.8314 31.5 26.4883 31.5C28.1451 31.5 29.4883 30.1569 29.4883 28.5C29.4883 26.8431 28.1451 25.5 26.4883 25.5ZM10.0954 21H27.9883L32.4883 7.5H8.16684M17.4883 28.5C17.4883 30.1569 16.1451 31.5 14.4883 31.5C12.8314 31.5 11.4883 30.1569 11.4883 28.5C11.4883 26.8431 12.8314 25.5 14.4883 25.5C16.1451 25.5 17.4883 26.8431 17.4883 28.5Z" stroke="#1D1515" stroke-width="2" stroke-linecap="round" stroke-linejoin="round"/>
</svg>
