<svg width="40" height="40" viewBox="0 0 40 40" fill="none" xmlns="http://www.w3.org/2000/svg">
<path d="M15.6184 22.7133C15.2767 22.3716 14.7227 22.3716 14.381 22.7133C14.0392 23.055 14.0392 23.609 14.381 23.9508L15.6184 22.7133ZM18.333 26.6654L17.7143 27.2841C18.056 27.6258 18.61 27.6258 18.9517 27.2841L18.333 26.6654ZM25.6184 20.6174C25.9601 20.2757 25.9601 19.7217 25.6184 19.38C25.2767 19.0383 24.7227 19.0383 24.381 19.38L25.6184 20.6174ZM7.48068 15.3142C7.37141 15.7849 7.66443 16.2551 8.13517 16.3644C8.6059 16.4736 9.07609 16.1806 9.18536 15.7099L7.48068 15.3142ZM9.99968 8.33203V7.45703C9.59266 7.45703 9.23938 7.7377 9.14735 8.13418L9.99968 8.33203ZM19.9997 9.20703C20.4829 9.20703 20.8747 8.81528 20.8747 8.33203C20.8747 7.84878 20.4829 7.45703 19.9997 7.45703V9.20703ZM9.20801 15.512C9.20801 15.0288 8.81626 14.637 8.33301 14.637C7.84976 14.637 7.45801 15.0288 7.45801 15.512H9.20801ZM8.33301 31.6654H7.45801C7.45801 32.1486 7.84976 32.5404 8.33301 32.5404V31.6654ZM31.6663 31.6654V32.5404C32.1496 32.5404 32.5413 32.1486 32.5413 31.6654H31.6663ZM32.5413 15.512C32.5413 15.0288 32.1496 14.637 31.6663 14.637C31.1831 14.637 30.7913 15.0288 30.7913 15.512H32.5413ZM8.33301 14.637C7.84976 14.637 7.45801 15.0288 7.45801 15.512C7.45801 15.9953 7.84976 16.387 8.33301 16.387V14.637ZM19.9997 16.387C20.4829 16.387 20.8747 15.9953 20.8747 15.512C20.8747 15.0288 20.4829 14.637 19.9997 14.637V16.387ZM19.1247 15.512C19.1247 15.9953 19.5164 16.387 19.9997 16.387C20.4829 16.387 20.8747 15.9953 20.8747 15.512H19.1247ZM20.8747 8.33203C20.8747 7.84878 20.4829 7.45703 19.9997 7.45703C19.5164 7.45703 19.1247 7.84878 19.1247 8.33203H20.8747ZM19.9997 14.637C19.5164 14.637 19.1247 15.0288 19.1247 15.512C19.1247 15.9953 19.5164 16.387 19.9997 16.387V14.637ZM31.6663 16.387C32.1496 16.387 32.5413 15.9953 32.5413 15.512C32.5413 15.0288 32.1496 14.637 31.6663 14.637V16.387ZM20.8747 15.512C20.8747 15.0288 20.4829 14.637 19.9997 14.637C19.5164 14.637 19.1247 15.0288 19.1247 15.512H20.8747ZM19.1247 18.332C19.1247 18.8153 19.5164 19.207 19.9997 19.207C20.4829 19.207 20.8747 18.8153 20.8747 18.332H19.1247ZM19.9997 7.45703C19.5164 7.45703 19.1247 7.84878 19.1247 8.33203C19.1247 8.81528 19.5164 9.20703 19.9997 9.20703V7.45703ZM29.9997 8.33203L30.852 8.13418C30.76 7.7377 30.4067 7.45703 29.9997 7.45703V8.33203ZM30.814 15.7099C30.9233 16.1806 31.3935 16.4736 31.8642 16.3644C32.3349 16.2551 32.6279 15.7849 32.5187 15.3142L30.814 15.7099ZM14.381 23.9508L17.7143 27.2841L18.9517 26.0466L15.6184 22.7133L14.381 23.9508ZM18.9517 27.2841L25.6184 20.6174L24.381 19.38L17.7143 26.0466L18.9517 27.2841ZM9.18536 15.7099L10.852 8.52988L9.14735 8.13418L7.48068 15.3142L9.18536 15.7099ZM9.99968 9.20703H19.9997V7.45703H9.99968V9.20703ZM7.45801 15.512V31.6654H9.20801V15.512H7.45801ZM8.33301 32.5404H31.6663V30.7904H8.33301V32.5404ZM32.5413 31.6654V15.512H30.7913V31.6654H32.5413ZM8.33301 16.387H19.9997V14.637H8.33301V16.387ZM20.8747 15.512V8.33203H19.1247V15.512H20.8747ZM19.9997 16.387H31.6663V14.637H19.9997V16.387ZM19.1247 15.512V18.332H20.8747V15.512H19.1247ZM19.9997 9.20703H29.9997V7.45703H19.9997V9.20703ZM29.1473 8.52988L30.814 15.7099L32.5187 15.3142L30.852 8.13418L29.1473 8.52988Z" fill="#1D1515"/>
</svg>
