<svg width="24" height="24" viewBox="0 0 24 24" fill="none" xmlns="http://www.w3.org/2000/svg">
<mask id="path-1-outside-1_2742_85167" maskUnits="userSpaceOnUse" x="3.64355" y="1.58594" width="16" height="20" fill="black">
<rect fill="white" x="3.64355" y="1.58594" width="16" height="20"/>
<path d="M5.85799 21.3602C5.70178 21.3107 5.58783 21.1776 5.57346 21.0132C5.53784 20.6056 5.55326 20.1971 5.53399 19.7891L5.48616 18.8492L5.29519 16.7952C5.22216 16.2348 5.02976 15.7199 4.89255 15.1761C4.74068 14.5741 4.64543 13.9408 4.64416 13.319L4.64355 11.9899C4.64489 11.7251 4.67341 11.5581 4.69484 11.3052L4.73168 11.0078C4.82039 10.3373 5.04855 9.73554 5.2676 9.10083L6.91448 2.95515C7.04595 2.48614 7.32987 2.65718 7.64276 2.72124L8.3463 2.83046C8.41519 2.8389 8.48325 2.85952 8.55232 2.86475C8.93437 2.89369 9.23306 2.78576 9.53119 3.07674L9.78366 3.3057C10.2678 3.70599 10.8457 3.96247 11.4588 4.08233C12.4417 4.27451 13.6962 3.8791 14.4006 3.1749C14.4944 3.08115 14.572 2.95493 14.6955 2.89665L14.7074 2.89137C14.809 2.84304 14.9619 2.86409 15.0744 2.85507L15.4713 2.80922C15.6171 2.79603 15.7693 2.75989 15.9139 2.73411L16.6886 2.58931C16.8316 2.5696 16.9897 2.63738 17.0642 2.76411L17.0729 2.77936C17.1111 2.84553 17.1373 2.90879 17.1506 2.98475L17.4765 4.32624C17.4968 4.45191 17.5491 4.57508 17.5702 4.70124L18.0859 6.72858C18.1077 6.85119 18.1564 6.97097 18.1805 7.09332L18.4138 7.98615C18.4178 8.00815 18.4208 8.02714 18.4283 8.04828L18.555 8.4823C18.617 8.76076 18.6927 9.04826 18.7916 9.31632L19.1484 10.3848C19.4995 11.6898 19.4469 13.7427 19.1426 15.0212C19.0278 15.5034 18.8498 15.9741 18.7577 16.4609C18.6472 17.0451 18.6279 17.6222 18.5877 18.213L18.4894 19.6391C18.4811 19.7788 18.4616 19.9152 18.4606 20.0556L18.4559 20.6963C18.4401 21.3706 18.2605 21.3604 17.7146 21.3609L5.85799 21.3602ZM16.4145 3.42085L15.6997 3.54031L16.5648 6.99877C16.6547 7.29711 16.6973 7.616 16.8004 7.90908L16.9863 8.56386C17.1282 9.02539 17.0356 9.80098 16.8789 10.2373C16.5159 11.2478 15.7393 12.0214 14.7397 12.395L14.3743 12.5195C13.6427 12.8059 12.9439 13.3253 12.5171 13.9942L12.3731 14.2344C11.9956 14.9161 11.6679 14.2668 11.4239 13.9239C11.0071 13.3381 10.4177 12.8415 9.74859 12.5668L9.00907 12.2875C7.67733 11.7283 6.86278 10.3538 6.95159 8.92679C6.9664 8.68847 7.04501 8.44449 7.11199 8.21665L8.37295 3.59815L7.56337 3.48891L6.16566 8.74754L5.93407 9.50365C5.80924 9.86192 5.66081 10.205 5.57864 10.5782C5.42995 11.2535 5.38812 11.9315 5.38798 12.6214L5.39182 13.2552C5.42721 13.9977 5.56059 14.7962 5.7762 15.5059C5.92835 16.0068 6.04085 16.5081 6.093 17.0294L6.25845 19.3497C6.26128 19.4014 6.25587 19.4522 6.26182 19.5038L17.7412 19.5059L17.8714 17.471C17.9469 16.4763 18.1087 15.9571 18.3588 15.0145C18.7238 13.6389 18.7327 11.7076 18.3665 10.3673C18.2801 10.0511 18.1412 9.75851 18.0367 9.44923L16.7816 4.68038C16.6758 4.26561 16.5553 3.84429 16.4772 3.4239C16.4536 3.41333 16.4395 3.41665 16.4145 3.42085ZM14.9558 3.69383C14.0914 4.6171 13.0324 4.67065 11.8833 4.71636C11.7543 4.72149 11.6384 4.75046 11.5119 4.76379C10.6952 4.84997 9.69572 4.23608 9.1233 3.72488L8.87238 4.65099C8.85572 4.71451 8.83997 4.79004 8.80985 4.84829C9.31071 5.34347 10.3981 5.57173 11.0625 5.62306C11.2856 5.64029 11.5143 5.63047 11.7382 5.63065L12.8943 5.62946C13.7059 5.62463 14.5531 5.32904 15.1865 4.82701L15.0484 4.17816C15.0151 4.0242 14.9658 3.84999 14.9558 3.69383ZM15.4156 5.61561C14.5145 6.20401 13.7845 6.36038 12.7479 6.3612L11.0449 6.36125C10.3143 6.36078 9.63666 6.19219 8.97516 5.86672C8.46021 5.61336 8.63287 5.48583 8.46373 6.08733L7.80487 8.55622C7.44956 9.73723 8.11973 11.0215 9.21178 11.5405L9.56524 11.6866C10.4098 11.9901 11.1206 12.3796 11.726 13.0703C11.8194 13.1769 11.9068 13.2946 12.0103 13.391C12.5371 12.6889 13.2585 12.1351 14.0742 11.8089C14.3539 11.6971 14.6321 11.6158 14.8992 11.4721C15.8278 10.9726 16.4186 9.91812 16.2648 8.86337C16.2364 8.66862 16.1694 8.48145 16.1201 8.29175L15.4953 5.90705C15.4681 5.80974 15.4505 5.71072 15.4156 5.61561ZM17.0009 20.2447L6.30305 20.2482C6.30328 20.351 6.28008 20.5315 6.32107 20.6238L7.03709 20.6284L17.6843 20.6274L17.691 20.2853C17.6925 20.2632 17.6925 20.2718 17.6866 20.2475L17.0009 20.2447Z"/>
</mask>
<path d="M5.85799 21.3602C5.70178 21.3107 5.58783 21.1776 5.57346 21.0132C5.53784 20.6056 5.55326 20.1971 5.53399 19.7891L5.48616 18.8492L5.29519 16.7952C5.22216 16.2348 5.02976 15.7199 4.89255 15.1761C4.74068 14.5741 4.64543 13.9408 4.64416 13.319L4.64355 11.9899C4.64489 11.7251 4.67341 11.5581 4.69484 11.3052L4.73168 11.0078C4.82039 10.3373 5.04855 9.73554 5.2676 9.10083L6.91448 2.95515C7.04595 2.48614 7.32987 2.65718 7.64276 2.72124L8.3463 2.83046C8.41519 2.8389 8.48325 2.85952 8.55232 2.86475C8.93437 2.89369 9.23306 2.78576 9.53119 3.07674L9.78366 3.3057C10.2678 3.70599 10.8457 3.96247 11.4588 4.08233C12.4417 4.27451 13.6962 3.8791 14.4006 3.1749C14.4944 3.08115 14.572 2.95493 14.6955 2.89665L14.7074 2.89137C14.809 2.84304 14.9619 2.86409 15.0744 2.85507L15.4713 2.80922C15.6171 2.79603 15.7693 2.75989 15.9139 2.73411L16.6886 2.58931C16.8316 2.5696 16.9897 2.63738 17.0642 2.76411L17.0729 2.77936C17.1111 2.84553 17.1373 2.90879 17.1506 2.98475L17.4765 4.32624C17.4968 4.45191 17.5491 4.57508 17.5702 4.70124L18.0859 6.72858C18.1077 6.85119 18.1564 6.97097 18.1805 7.09332L18.4138 7.98615C18.4178 8.00815 18.4208 8.02714 18.4283 8.04828L18.555 8.4823C18.617 8.76076 18.6927 9.04826 18.7916 9.31632L19.1484 10.3848C19.4995 11.6898 19.4469 13.7427 19.1426 15.0212C19.0278 15.5034 18.8498 15.9741 18.7577 16.4609C18.6472 17.0451 18.6279 17.6222 18.5877 18.213L18.4894 19.6391C18.4811 19.7788 18.4616 19.9152 18.4606 20.0556L18.4559 20.6963C18.4401 21.3706 18.2605 21.3604 17.7146 21.3609L5.85799 21.3602ZM16.4145 3.42085L15.6997 3.54031L16.5648 6.99877C16.6547 7.29711 16.6973 7.616 16.8004 7.90908L16.9863 8.56386C17.1282 9.02539 17.0356 9.80098 16.8789 10.2373C16.5159 11.2478 15.7393 12.0214 14.7397 12.395L14.3743 12.5195C13.6427 12.8059 12.9439 13.3253 12.5171 13.9942L12.3731 14.2344C11.9956 14.9161 11.6679 14.2668 11.4239 13.9239C11.0071 13.3381 10.4177 12.8415 9.74859 12.5668L9.00907 12.2875C7.67733 11.7283 6.86278 10.3538 6.95159 8.92679C6.9664 8.68847 7.04501 8.44449 7.11199 8.21665L8.37295 3.59815L7.56337 3.48891L6.16566 8.74754L5.93407 9.50365C5.80924 9.86192 5.66081 10.205 5.57864 10.5782C5.42995 11.2535 5.38812 11.9315 5.38798 12.6214L5.39182 13.2552C5.42721 13.9977 5.56059 14.7962 5.7762 15.5059C5.92835 16.0068 6.04085 16.5081 6.093 17.0294L6.25845 19.3497C6.26128 19.4014 6.25587 19.4522 6.26182 19.5038L17.7412 19.5059L17.8714 17.471C17.9469 16.4763 18.1087 15.9571 18.3588 15.0145C18.7238 13.6389 18.7327 11.7076 18.3665 10.3673C18.2801 10.0511 18.1412 9.75851 18.0367 9.44923L16.7816 4.68038C16.6758 4.26561 16.5553 3.84429 16.4772 3.4239C16.4536 3.41333 16.4395 3.41665 16.4145 3.42085ZM14.9558 3.69383C14.0914 4.6171 13.0324 4.67065 11.8833 4.71636C11.7543 4.72149 11.6384 4.75046 11.5119 4.76379C10.6952 4.84997 9.69572 4.23608 9.1233 3.72488L8.87238 4.65099C8.85572 4.71451 8.83997 4.79004 8.80985 4.84829C9.31071 5.34347 10.3981 5.57173 11.0625 5.62306C11.2856 5.64029 11.5143 5.63047 11.7382 5.63065L12.8943 5.62946C13.7059 5.62463 14.5531 5.32904 15.1865 4.82701L15.0484 4.17816C15.0151 4.0242 14.9658 3.84999 14.9558 3.69383ZM15.4156 5.61561C14.5145 6.20401 13.7845 6.36038 12.7479 6.3612L11.0449 6.36125C10.3143 6.36078 9.63666 6.19219 8.97516 5.86672C8.46021 5.61336 8.63287 5.48583 8.46373 6.08733L7.80487 8.55622C7.44956 9.73723 8.11973 11.0215 9.21178 11.5405L9.56524 11.6866C10.4098 11.9901 11.1206 12.3796 11.726 13.0703C11.8194 13.1769 11.9068 13.2946 12.0103 13.391C12.5371 12.6889 13.2585 12.1351 14.0742 11.8089C14.3539 11.6971 14.6321 11.6158 14.8992 11.4721C15.8278 10.9726 16.4186 9.91812 16.2648 8.86337C16.2364 8.66862 16.1694 8.48145 16.1201 8.29175L15.4953 5.90705C15.4681 5.80974 15.4505 5.71072 15.4156 5.61561ZM17.0009 20.2447L6.30305 20.2482C6.30328 20.351 6.28008 20.5315 6.32107 20.6238L7.03709 20.6284L17.6843 20.6274L17.691 20.2853C17.6925 20.2632 17.6925 20.2718 17.6866 20.2475L17.0009 20.2447Z" fill="#1D1515"/>
<path d="M5.85799 21.3602C5.70178 21.3107 5.58783 21.1776 5.57346 21.0132C5.53784 20.6056 5.55326 20.1971 5.53399 19.7891L5.48616 18.8492L5.29519 16.7952C5.22216 16.2348 5.02976 15.7199 4.89255 15.1761C4.74068 14.5741 4.64543 13.9408 4.64416 13.319L4.64355 11.9899C4.64489 11.7251 4.67341 11.5581 4.69484 11.3052L4.73168 11.0078C4.82039 10.3373 5.04855 9.73554 5.2676 9.10083L6.91448 2.95515C7.04595 2.48614 7.32987 2.65718 7.64276 2.72124L8.3463 2.83046C8.41519 2.8389 8.48325 2.85952 8.55232 2.86475C8.93437 2.89369 9.23306 2.78576 9.53119 3.07674L9.78366 3.3057C10.2678 3.70599 10.8457 3.96247 11.4588 4.08233C12.4417 4.27451 13.6962 3.8791 14.4006 3.1749C14.4944 3.08115 14.572 2.95493 14.6955 2.89665L14.7074 2.89137C14.809 2.84304 14.9619 2.86409 15.0744 2.85507L15.4713 2.80922C15.6171 2.79603 15.7693 2.75989 15.9139 2.73411L16.6886 2.58931C16.8316 2.5696 16.9897 2.63738 17.0642 2.76411L17.0729 2.77936C17.1111 2.84553 17.1373 2.90879 17.1506 2.98475L17.4765 4.32624C17.4968 4.45191 17.5491 4.57508 17.5702 4.70124L18.0859 6.72858C18.1077 6.85119 18.1564 6.97097 18.1805 7.09332L18.4138 7.98615C18.4178 8.00815 18.4208 8.02714 18.4283 8.04828L18.555 8.4823C18.617 8.76076 18.6927 9.04826 18.7916 9.31632L19.1484 10.3848C19.4995 11.6898 19.4469 13.7427 19.1426 15.0212C19.0278 15.5034 18.8498 15.9741 18.7577 16.4609C18.6472 17.0451 18.6279 17.6222 18.5877 18.213L18.4894 19.6391C18.4811 19.7788 18.4616 19.9152 18.4606 20.0556L18.4559 20.6963C18.4401 21.3706 18.2605 21.3604 17.7146 21.3609L5.85799 21.3602ZM16.4145 3.42085L15.6997 3.54031L16.5648 6.99877C16.6547 7.29711 16.6973 7.616 16.8004 7.90908L16.9863 8.56386C17.1282 9.02539 17.0356 9.80098 16.8789 10.2373C16.5159 11.2478 15.7393 12.0214 14.7397 12.395L14.3743 12.5195C13.6427 12.8059 12.9439 13.3253 12.5171 13.9942L12.3731 14.2344C11.9956 14.9161 11.6679 14.2668 11.4239 13.9239C11.0071 13.3381 10.4177 12.8415 9.74859 12.5668L9.00907 12.2875C7.67733 11.7283 6.86278 10.3538 6.95159 8.92679C6.9664 8.68847 7.04501 8.44449 7.11199 8.21665L8.37295 3.59815L7.56337 3.48891L6.16566 8.74754L5.93407 9.50365C5.80924 9.86192 5.66081 10.205 5.57864 10.5782C5.42995 11.2535 5.38812 11.9315 5.38798 12.6214L5.39182 13.2552C5.42721 13.9977 5.56059 14.7962 5.7762 15.5059C5.92835 16.0068 6.04085 16.5081 6.093 17.0294L6.25845 19.3497C6.26128 19.4014 6.25587 19.4522 6.26182 19.5038L17.7412 19.5059L17.8714 17.471C17.9469 16.4763 18.1087 15.9571 18.3588 15.0145C18.7238 13.6389 18.7327 11.7076 18.3665 10.3673C18.2801 10.0511 18.1412 9.75851 18.0367 9.44923L16.7816 4.68038C16.6758 4.26561 16.5553 3.84429 16.4772 3.4239C16.4536 3.41333 16.4395 3.41665 16.4145 3.42085ZM14.9558 3.69383C14.0914 4.6171 13.0324 4.67065 11.8833 4.71636C11.7543 4.72149 11.6384 4.75046 11.5119 4.76379C10.6952 4.84997 9.69572 4.23608 9.1233 3.72488L8.87238 4.65099C8.85572 4.71451 8.83997 4.79004 8.80985 4.84829C9.31071 5.34347 10.3981 5.57173 11.0625 5.62306C11.2856 5.64029 11.5143 5.63047 11.7382 5.63065L12.8943 5.62946C13.7059 5.62463 14.5531 5.32904 15.1865 4.82701L15.0484 4.17816C15.0151 4.0242 14.9658 3.84999 14.9558 3.69383ZM15.4156 5.61561C14.5145 6.20401 13.7845 6.36038 12.7479 6.3612L11.0449 6.36125C10.3143 6.36078 9.63666 6.19219 8.97516 5.86672C8.46021 5.61336 8.63287 5.48583 8.46373 6.08733L7.80487 8.55622C7.44956 9.73723 8.11973 11.0215 9.21178 11.5405L9.56524 11.6866C10.4098 11.9901 11.1206 12.3796 11.726 13.0703C11.8194 13.1769 11.9068 13.2946 12.0103 13.391C12.5371 12.6889 13.2585 12.1351 14.0742 11.8089C14.3539 11.6971 14.6321 11.6158 14.8992 11.4721C15.8278 10.9726 16.4186 9.91812 16.2648 8.86337C16.2364 8.66862 16.1694 8.48145 16.1201 8.29175L15.4953 5.90705C15.4681 5.80974 15.4505 5.71072 15.4156 5.61561ZM17.0009 20.2447L6.30305 20.2482C6.30328 20.351 6.28008 20.5315 6.32107 20.6238L7.03709 20.6284L17.6843 20.6274L17.691 20.2853C17.6925 20.2632 17.6925 20.2718 17.6866 20.2475L17.0009 20.2447Z" stroke="#1D1515" stroke-width="0.2" mask="url(#path-1-outside-1_2742_85167)"/>
</svg>
