<svg width="40" height="40" viewBox="0 0 40 40" fill="none" xmlns="http://www.w3.org/2000/svg">
<path d="M3.33301 5H7.49967L10.833 28.3333H28.333M28.333 28.3333C26.4921 28.3333 24.9997 29.8257 24.9997 31.6667C24.9997 33.5076 26.4921 35 28.333 35C30.174 35 31.6663 33.5076 31.6663 31.6667C31.6663 29.8257 30.174 28.3333 28.333 28.3333ZM10.1187 23.3333H29.9997L34.9997 8.33333H7.97585M18.333 31.6667C18.333 33.5076 16.8406 35 14.9997 35C13.1587 35 11.6663 33.5076 11.6663 31.6667C11.6663 29.8257 13.1587 28.3333 14.9997 28.3333C16.8406 28.3333 18.333 29.8257 18.333 31.6667Z" stroke="#1D1515" stroke-width="1.75" stroke-linecap="round" stroke-linejoin="round"/>
</svg>
