<svg width="24" height="24" viewBox="0 0 24 24" fill="none" xmlns="http://www.w3.org/2000/svg">
<path fill-rule="evenodd" clip-rule="evenodd" d="M16.9419 7.94194C17.186 7.69786 17.186 7.30214 16.9419 7.05806C16.6979 6.81398 16.3021 6.81398 16.0581 7.05806L12 11.1161L7.94194 7.05806C7.69786 6.81398 7.30214 6.81398 7.05806 7.05806C6.81398 7.30214 6.81398 7.69786 7.05806 7.94194L11.1161 12L7.05806 16.0581C6.81398 16.3021 6.81398 16.6979 7.05806 16.9419C7.30214 17.186 7.69786 17.186 7.94194 16.9419L12 12.8839L16.0581 16.9419C16.3021 17.186 16.6979 17.186 16.9419 16.9419C17.186 16.6979 17.186 16.3021 16.9419 16.0581L12.8839 12L16.9419 7.94194Z" fill="currentColor"/>
</svg>
