<svg width="24" height="24" viewBox="0 0 24 24" fill="none" xmlns="http://www.w3.org/2000/svg">
<path d="M11.6669 19.5107C16.4534 19.5107 20.3337 15.8147 20.3337 11.2554C20.3337 6.69605 16.4534 3 11.6669 3C6.88029 3 3 6.69605 3 11.2554C3 15.8147 6.88029 19.5107 11.6669 19.5107Z" stroke="#1D1515" stroke-width="1.25" stroke-miterlimit="22.9256" stroke-linejoin="round"/>
<path d="M3.79102 14.7188C5.89846 16.0486 8.29568 16.8014 10.7719 16.9269M12.9584 16.9018C15.2766 16.701 17.5421 15.9483 19.5442 14.7187" stroke="#1D1515" stroke-width="1.25" stroke-miterlimit="22.9256" stroke-linejoin="round"/>
<path d="M3 11.8359C5.4499 13.4669 8.45301 14.4204 11.6669 14.4204C14.3275 14.4204 16.8301 13.768 19.0166 12.6138" stroke="#1D1515" stroke-width="1.25" stroke-miterlimit="22.9256" stroke-linejoin="round"/>
<path d="M10.5084 4.40625C7.84778 5.83651 5.97742 8.57157 5.8457 11.7583" stroke="#1D1515" stroke-width="1.25" stroke-miterlimit="22.9256" stroke-linejoin="round"/>
<path d="M15.5916 3.90625C11.6402 5.23614 9.19026 8.87452 9.00586 12.7638" stroke="#1D1515" stroke-width="1.25" stroke-miterlimit="22.9256" stroke-linejoin="round"/>
<path d="M12.457 5.65625C15.0913 6.73522 17.1724 8.91825 17.91 11.7035C18.0154 12.0799 18.1208 12.6068 18.1735 13.0083" stroke="#1D1515" stroke-width="1.25" stroke-miterlimit="22.9256" stroke-linejoin="round"/>
<path d="M10.6387 7.71875C12.6671 9.07373 14.1686 11.0811 14.8009 13.4398C14.8536 13.6154 14.9062 13.8915 14.9589 14.0671" stroke="#1D1515" stroke-width="1.25" stroke-miterlimit="22.9256" stroke-linejoin="round"/>
<path d="M8.18884 6.18904C7.13511 5.88793 5.31744 5.93812 4.31641 6.84144" stroke="#1D1515" stroke-width="1.25" stroke-miterlimit="22.9256" stroke-linejoin="round"/>
<path d="M9.32227 10.7266C10.5604 11.655 11.5614 12.9598 12.1146 14.4151" stroke="#1D1515" stroke-width="1.25" stroke-miterlimit="22.9256" stroke-linejoin="round"/>
<path d="M6.10858 9.92505C5.0812 9.54866 3.79039 9.67412 3.10547 9.92505" stroke="#1D1515" stroke-width="1.25" stroke-miterlimit="22.9256" stroke-linejoin="round"/>
<path d="M19.886 8.61719C25.181 19.9589 10.2708 26.3072 3.10547 18.629" stroke="#1D1515" stroke-width="1.25" stroke-miterlimit="22.9256" stroke-linejoin="round"/>
</svg>
