<svg width="24" height="24" viewBox="0 0 24 24" fill="none" xmlns="http://www.w3.org/2000/svg">
<path d="M14.464 7.32726C14.464 7.32726 14.464 7.32726 14.464 7.32726C14.5017 7.05176 14.5283 6.9113 14.5713 6.77911C14.6058 6.67286 14.6509 6.57158 14.7228 6.40969C14.7418 6.36701 14.7627 6.32011 14.7857 6.26779C14.9139 5.97647 14.9849 5.47028 15.0145 4.96257C15.0442 4.45282 15.0328 3.92756 14.9899 3.58922L14.9578 3.19727L14.9578 3.19727L14.9575 3.1946C14.9356 3.00876 14.9062 2.78142 14.8409 2.59308L14.6229 1.84882C14.6067 1.77647 14.6081 1.69888 14.6097 1.61405C14.6101 1.58949 14.6106 1.56432 14.6106 1.53849V1.53844L14.6112 1.04636L14.6112 1.04623C14.6111 0.892904 14.5909 0.775181 14.5468 0.687085C14.501 0.595315 14.4318 0.540741 14.3476 0.511342C14.2674 0.483359 14.1754 0.478843 14.0825 0.4798C14.0418 0.48022 13.999 0.481763 13.9556 0.483329C13.9489 0.483571 13.9422 0.483813 13.9355 0.484051C13.8847 0.485852 13.8327 0.487487 13.779 0.487454H13.779L9.70813 0.486986L9.6959 0.486984L9.68431 0.490863C9.52827 0.543089 9.44158 0.624555 9.40155 0.738096C9.36947 0.829119 9.37042 0.936604 9.37135 1.04124C9.37146 1.0542 9.37157 1.06711 9.37163 1.07995L9.37163 1.07997L9.37373 1.57716C9.37373 1.57717 9.37373 1.57718 9.37373 1.57718C9.37506 1.91748 9.32326 2.08515 9.25367 2.31038C9.21986 2.41984 9.18184 2.54289 9.14368 2.70596L9.14368 2.70596C9.02112 3.22974 8.96605 3.72899 8.96039 4.26262L8.96039 4.26298L8.95723 4.81247H8.95717L8.95727 4.81546C8.96976 5.18145 9.01734 5.51699 9.1335 5.87019L9.13347 5.8702L9.13423 5.87228L9.40883 6.63097C9.55835 7.09605 9.61094 7.58623 9.66393 8.08014C9.67337 8.16808 9.68281 8.25614 9.69282 8.34419L9.69283 8.34428L10.2541 13.2325C10.2629 13.3262 10.2737 13.4263 10.2849 13.5308C10.3033 13.7014 10.323 13.8835 10.3372 14.0677C10.3602 14.3637 10.3681 14.6538 10.3342 14.8871C10.2897 15.1936 10.1762 15.4789 10.0595 15.7721C10.0182 15.8759 9.97649 15.9808 9.93731 16.0879C9.71951 16.6833 9.67357 17.2667 9.67399 17.8866L9.674 17.8875L9.68356 18.596H9.6835L9.68366 18.599C9.68575 18.6381 9.69105 18.6747 9.6963 18.7082C9.69722 18.7141 9.69812 18.7198 9.69902 18.7254C9.70339 18.753 9.70739 18.7782 9.71007 18.8043L9.71023 18.8056L10.1876 22.7569L10.1877 22.7574C10.2043 22.8863 10.2189 22.9877 10.2409 23.0644C10.2633 23.1425 10.2964 23.2065 10.358 23.2493C10.4169 23.2902 10.4907 23.3035 10.5738 23.309C10.6391 23.3134 10.7197 23.3131 10.816 23.3129C10.8429 23.3128 10.871 23.3127 10.9003 23.3128H10.9004L12.6132 23.3125H12.6133L14.3897 7.31711L14.464 7.32726ZM14.464 7.32726L14.2787 8.68381M14.464 7.32726L14.2787 8.68381M14.2787 8.68381L14.2785 8.68523L13.7193 13.4547L13.6293 14.6506C13.6293 14.6507 13.6292 14.6509 13.6292 14.651C13.626 14.7021 13.6249 14.7597 13.6237 14.8226C13.6236 14.8295 13.6235 14.8363 13.6233 14.8433C13.622 14.9136 13.6202 14.9893 13.6147 15.0646C13.6038 15.2126 13.5777 15.3712 13.5013 15.4917L13.5006 15.4927L13.5006 15.4927L13.5006 15.4927C13.5013 15.5009 13.503 15.5116 13.5061 15.5251C13.5114 15.5482 13.5197 15.5746 13.5297 15.6032C13.5362 15.6219 13.544 15.6427 13.552 15.6639L14.2787 8.68381ZM11.6022 22.542L10.9002 22.5368C10.8965 22.5096 10.8942 22.4821 10.8917 22.4528C10.8895 22.4276 10.8873 22.401 10.884 22.372L10.8838 22.3708L10.6255 20.4004L10.6253 20.3991C10.6204 20.366 10.6177 20.3319 10.615 20.295L10.6145 20.2878C10.612 20.2541 10.6094 20.2179 10.6046 20.1818C10.6046 20.1815 10.6046 20.1812 10.6045 20.1809L10.4287 18.5349L10.4218 17.8765C10.4218 17.8764 10.4218 17.8763 10.4218 17.8761C10.4217 17.4698 10.4373 17.1782 10.4922 16.8916C10.547 16.605 10.6416 16.3201 10.8028 15.9282C10.9937 15.464 11.0911 15.0325 11.0909 14.5324L11.0908 14.53L11.0719 13.9343L11.0721 13.9343L11.0716 13.929L10.8401 11.6946L10.84 11.6933L10.2732 7.02518L10.2738 7.0251L10.2714 7.01574L10.1121 6.38903L10.1122 6.38901L10.1114 6.38622C10.0897 6.31306 10.0622 6.2423 10.036 6.17518L10.0349 6.17238C10.008 6.10339 9.98275 6.03823 9.96357 5.9724L9.96363 5.97238L9.96264 5.96945L9.79333 5.46653L9.79334 5.46653L9.79297 5.46549C9.71786 5.25276 9.69095 4.87211 9.69312 4.47742C9.69508 4.12065 9.72059 3.76339 9.75041 3.53042L14.2527 3.53451C14.2744 3.81425 14.2941 4.21892 14.2903 4.62222C14.2861 5.06249 14.2539 5.49149 14.1704 5.75612C14.1199 5.916 14.0618 6.04128 14.0034 6.1673C13.9866 6.20336 13.9699 6.23948 13.9533 6.27649C13.8788 6.44241 13.811 6.61894 13.7745 6.86834L13.7745 6.86834L13.7743 6.87L13.0458 12.7612L13.0457 12.7612L13.0455 12.7634L12.8795 14.5296L12.8792 14.5296L12.8791 14.5358L12.873 15.097C12.873 15.0971 12.873 15.0972 12.873 15.0973C12.8726 15.1168 12.8706 15.123 12.8695 15.1256C12.8685 15.1278 12.8658 15.1333 12.8523 15.146C12.6974 15.2928 12.7042 15.4832 12.747 15.6491C12.7685 15.7324 12.8004 15.8151 12.83 15.8898C12.8333 15.8981 12.8365 15.9062 12.8397 15.9141C12.8661 15.9807 12.8894 16.0392 12.9042 16.0911C13.0516 16.608 13.0566 17.1574 13.0576 17.7038C13.0576 17.7039 13.0576 17.7041 13.0576 17.7042L13.0494 18.5823L12.9078 20.2564L12.9076 20.2579L12.7367 21.886L12.7366 21.886L12.7364 21.8901L12.7033 22.5475L12.3392 22.5476C12.3371 22.5179 12.3369 22.4846 12.3379 22.4488C12.3384 22.4264 12.3395 22.4018 12.3406 22.3769L11.6022 22.542ZM11.6022 22.542L11.6056 7.02854C11.5726 7.01684 11.5411 7.0059 11.5108 6.99538C11.3998 6.95685 11.305 6.92393 11.2155 6.87978C11.085 6.81543 10.9639 6.72712 10.8026 6.56464C10.5817 6.34223 10.5515 6.11938 10.6523 5.96171C10.7471 5.81353 10.9466 5.75003 11.1124 5.82662L11.6022 22.542ZM13.7985 17.557C13.798 16.9604 13.7547 16.3516 13.5887 15.7688L13.3613 22.6819L13.4363 22.6823C13.4363 22.6823 13.4363 22.6823 13.4363 22.6823C13.4376 22.4498 13.4596 22.2245 13.4821 21.9935C13.4904 21.9081 13.4988 21.8219 13.5063 21.7343C13.5063 21.7342 13.5063 21.7341 13.5063 21.734L13.7647 18.9528L13.7648 18.9528L13.7649 18.9507C13.7682 18.8996 13.7737 18.8486 13.7793 18.7958C13.7804 18.7856 13.7815 18.7754 13.7826 18.7651C13.7892 18.7021 13.7956 18.6366 13.7973 18.5704L13.7973 18.5704L13.7973 18.5686L13.7985 17.5572L13.7985 17.557ZM12.3439 22.268L12.3434 7.45126C12.3434 7.41679 12.3432 7.38269 12.3429 7.34889C12.3422 7.24359 12.3416 7.14119 12.3487 7.0397L12.4186 7.01375L12.4186 7.0138L12.4214 7.01265C12.5741 6.94885 12.8055 6.84 12.9768 6.69061C13.0626 6.6157 13.1379 6.52679 13.1784 6.42373C13.2198 6.31817 13.223 6.20165 13.1703 6.07941L13.1704 6.07934L13.1681 6.07486C13.1165 5.97424 13.0537 5.90459 12.9793 5.86587C12.9038 5.82661 12.8251 5.82378 12.7514 5.84031C12.6108 5.87184 12.4744 5.97769 12.3735 6.05878C12.3734 6.05885 12.3733 6.05893 12.3732 6.059L12.1193 6.25934C12.1192 6.25938 12.1192 6.25942 12.1191 6.25946C12.0845 6.28647 12.0571 6.29801 12.0342 6.30281C12.0111 6.30768 11.9874 6.30674 11.958 6.30137C11.9381 6.29773 11.9203 6.2932 11.8996 6.28789C11.8857 6.28435 11.8705 6.28045 11.8523 6.27624C11.8168 6.26802 11.7766 6.26048 11.7312 6.25833C11.691 6.23193 11.65 6.20784 11.6108 6.18485C11.6071 6.1827 11.6035 6.18056 11.5999 6.17843C11.5506 6.14947 11.5043 6.12185 11.4608 6.09076C11.422 6.06298 11.3861 6.03119 11.3468 5.99641C11.3328 5.98399 11.3183 5.97119 11.3031 5.95805L12.3439 22.268ZM13.8818 1.43863L10.1061 1.43412L10.1058 1.23725L13.884 1.23526C13.886 1.26618 13.8861 1.30006 13.8853 1.33591C13.8848 1.35793 13.8839 1.38176 13.883 1.40576C13.8826 1.41673 13.8822 1.42774 13.8818 1.43863ZM13.9515 2.19385L14.1067 2.7841L13.9532 2.78769L9.90649 2.78348L10.0643 2.19277L13.9515 2.19385Z" fill="#1D1515" stroke="#1D1515" stroke-width="0.15"/>
</svg>
