<svg width="24" height="24" viewBox="0 0 24 24" fill="none" xmlns="http://www.w3.org/2000/svg">
<path d="M14.5 4.31237C14.9371 3.4371 15.3746 3 16.2502 3C17.2164 3 18 3.78362 18 4.74982C18 6.5 16.2502 8.25018 14.5 10C12.7495 8.25018 11 6.5 11 4.74982C11 3.78362 11.7833 3 12.7495 3C13.6251 3 14.0625 3.4371 14.5 4.31237Z" stroke="#1D1515" stroke-width="1.25" stroke-miterlimit="22.9256" stroke-linecap="round" stroke-linejoin="round"/>
<path d="M20.3862 5.61417C20.7649 5.99286 21 6.51547 21 7.08936L21 16.3093C21 17.4582 20.0584 18.399 18.9099 18.399L10.7671 18.399L5.5629 20.9989L5.57096 18.399H5.09009C3.94122 18.399 3 17.4593 3 16.3093L3 7.08936C3 5.93975 3.94012 5 5.09009 5L8.50668 5" stroke="#1D1515" stroke-width="1.25" stroke-miterlimit="22.9256" stroke-linecap="round" stroke-linejoin="round"/>
<path d="M11 11L6 11" stroke="#1D1515" stroke-width="1.25" stroke-miterlimit="22.9256" stroke-linejoin="round"/>
<path d="M6 14L15 14" stroke="#1D1515" stroke-width="1.25" stroke-miterlimit="22.9256" stroke-linejoin="round"/>
<path d="M16 14H18" stroke="#1D1515" stroke-width="1.25" stroke-miterlimit="22.9256" stroke-linejoin="round"/>
</svg>
