<svg width="40" height="40" viewBox="0 0 40 40" fill="none" xmlns="http://www.w3.org/2000/svg">
<path d="M9.86047 28.3348C11.7014 28.3348 13.2249 29.8268 13.2632 31.6674C13.3016 33.5079 11.8403 35 9.99935 35C8.1584 35 6.63493 33.5079 6.59658 31.6674C6.55823 29.8268 8.01952 28.3348 9.86047 28.3348Z" stroke="#1D1515" stroke-width="1.75" stroke-miterlimit="22.9256" stroke-linejoin="round"/>
<path d="M31.5275 28.3348C33.3684 28.3348 34.8919 29.8268 34.9302 31.6674C34.9686 33.5079 33.5073 35 31.6663 35C29.8254 35 28.3019 33.5079 28.2636 31.6674C28.2252 29.8268 29.6865 28.3348 31.5275 28.3348Z" stroke="#1D1515" stroke-width="1.75" stroke-miterlimit="22.9256" stroke-linejoin="round"/>
<path d="M26.666 13.3359H32.0346L36.666 18.5625V30.0026" stroke="#1D1515" stroke-width="1.75" stroke-miterlimit="22.9256" stroke-linejoin="round"/>
<path d="M26.6667 23.9881V6.66797H5V25.0013" stroke="#1D1515" stroke-width="1.75" stroke-miterlimit="22.9256" stroke-linecap="round" stroke-linejoin="round"/>
<path d="M13.333 31.668H26.6663" stroke="#1D1515" stroke-width="1.75" stroke-miterlimit="22.9256" stroke-linecap="square" stroke-linejoin="round"/>
<path d="M4.99967 31.6762L3.33301 31.668" stroke="#1D1515" stroke-width="1.75" stroke-miterlimit="22.9256" stroke-linecap="square" stroke-linejoin="round"/>
<path d="M11.6663 18.3359H3.33301" stroke="#1D1515" stroke-width="1.75" stroke-miterlimit="22.9256" stroke-linecap="round" stroke-linejoin="round"/>
<path d="M19.9997 13.3359H3.33301" stroke="#1D1515" stroke-width="1.75" stroke-miterlimit="22.9256" stroke-linecap="round" stroke-linejoin="round"/>
<path d="M36.6255 19.082H30.7705" stroke="#1D1515" stroke-width="1.75" stroke-miterlimit="22.9256" stroke-linejoin="round"/>
<path d="M13.333 25H29.9997" stroke="#1D1515" stroke-width="1.75" stroke-miterlimit="22.9256" stroke-linejoin="round"/>
<path d="M3.33301 25H6.66634" stroke="#1D1515" stroke-width="1.75" stroke-miterlimit="22.9256" stroke-linecap="round" stroke-linejoin="round"/>
</svg>
