<svg width="24" height="24" viewBox="0 0 24 24" fill="none" xmlns="http://www.w3.org/2000/svg">
<path d="M5.91667 17.0009C7.02124 17.0009 7.93533 17.8961 7.95834 19.0004C7.98135 20.1048 7.10457 21 6 21C4.89543 21 3.98135 20.1048 3.95834 19.0004C3.93533 17.8961 4.8121 17.0009 5.91667 17.0009Z" stroke="#1D1515" stroke-width="1.25" stroke-miterlimit="22.9256" stroke-linejoin="round"/>
<path d="M18.9167 17.0009C20.0212 17.0009 20.9353 17.8961 20.9583 19.0004C20.9813 20.1048 20.1046 21 19 21C17.8954 21 16.9813 20.1048 16.9583 19.0004C16.9353 17.8961 17.8121 17.0009 18.9167 17.0009Z" stroke="#1D1515" stroke-width="1.25" stroke-miterlimit="22.9256" stroke-linejoin="round"/>
<path d="M16 8L19.2212 8L22 11.1359L22 18" stroke="#1D1515" stroke-width="1.25" stroke-miterlimit="22.9256" stroke-linejoin="round"/>
<path d="M16 14.3921L16 4L3 4L3 15" stroke="#1D1515" stroke-width="1.25" stroke-miterlimit="22.9256" stroke-linecap="round" stroke-linejoin="round"/>
<path d="M8 19L16 19" stroke="#1D1515" stroke-width="1.25" stroke-miterlimit="22.9256" stroke-linecap="square" stroke-linejoin="round"/>
<path d="M3 19.005L2 19" stroke="#1D1515" stroke-width="1.25" stroke-miterlimit="22.9256" stroke-linecap="square" stroke-linejoin="round"/>
<path d="M7 11L2 11" stroke="#1D1515" stroke-width="1.25" stroke-miterlimit="22.9256" stroke-linecap="round" stroke-linejoin="round"/>
<path d="M12 8L2 8" stroke="#1D1515" stroke-width="1.25" stroke-miterlimit="22.9256" stroke-linecap="round" stroke-linejoin="round"/>
<path d="M21.9759 11.4453H18.4629" stroke="#1D1515" stroke-width="1.25" stroke-miterlimit="22.9256" stroke-linejoin="round"/>
<path d="M8 15L18 15" stroke="#1D1515" stroke-width="1.25" stroke-miterlimit="22.9256" stroke-linejoin="round"/>
<path d="M2 15H4" stroke="#1D1515" stroke-width="1.25" stroke-miterlimit="22.9256" stroke-linecap="round" stroke-linejoin="round"/>
</svg>
