<svg width="24" height="24" viewBox="0 0 24 24" fill="none" xmlns="http://www.w3.org/2000/svg">
<path d="M16.0625 7.625C15.236 7.62405 14.4241 7.84306 13.7101 8.25955C12.9962 8.67605 12.406 9.27503 12 9.995V7H10.75V12H15.75V10.75H13.0104C13.2888 10.207 13.7067 9.74791 14.2214 9.42007C14.736 9.09223 15.3287 8.90746 15.9385 8.88475C16.5483 8.86205 17.1531 9.00225 17.6907 9.29092C18.2283 9.57958 18.6793 10.0063 18.9972 10.5271C19.3151 11.048 19.4885 11.6441 19.4995 12.2542C19.5105 12.8643 19.3588 13.4663 19.0599 13.9983C18.761 14.5302 18.3257 14.973 17.7989 15.2808C17.272 15.5887 16.6727 15.7507 16.0625 15.75H15.75V17H16.0625C17.3057 17 18.498 16.5061 19.3771 15.6271C20.2561 14.748 20.75 13.5557 20.75 12.3125C20.75 11.0693 20.2561 9.87701 19.3771 8.99794C18.498 8.11886 17.3057 7.625 16.0625 7.625Z" fill="#1D1515"/>
<path d="M18.25 5.75H4.5V7.73187L9.13387 12.3658L9.5 12.7319V18.25H12V17H13.25V18.25C13.25 18.5815 13.1183 18.8995 12.8839 19.1339C12.6495 19.3683 12.3315 19.5 12 19.5H9.5C9.16848 19.5 8.85054 19.3683 8.61612 19.1339C8.3817 18.8995 8.25 18.5815 8.25 18.25V13.25L3.61612 8.61581C3.50004 8.49973 3.40796 8.36193 3.34514 8.21026C3.28232 8.05859 3.24999 7.89604 3.25 7.73187V5.75C3.25 5.41848 3.3817 5.10054 3.61612 4.86612C3.85054 4.6317 4.16848 4.5 4.5 4.5H18.25V5.75Z" fill="#1D1515"/>
</svg>
