<svg width="24" height="24" viewBox="0 0 24 24" fill="none" xmlns="http://www.w3.org/2000/svg">
<path d="M8.46629 14.7447C8.47748 14.755 8.489 14.7654 8.50085 14.7757C8.51361 14.7869 8.52722 14.7986 8.54122 14.8106C8.56803 14.8335 8.59627 14.8577 8.62271 14.8821L8.62416 14.8834L8.62415 14.8835L8.95642 15.2068L8.95785 15.2082L8.95783 15.2082C9.51283 15.7778 10.0593 16.4307 10.4482 17.1369L10.4487 17.1379L10.4487 17.1379L10.8614 17.9162L10.864 17.9213L10.8638 17.9213C10.8816 17.962 10.8998 18.0028 10.9182 18.0439C10.9803 18.1831 11.0437 18.3252 11.0948 18.4727L11.0956 18.4751L11.0956 18.4751L11.3401 19.2671L11.3404 19.2683C11.3973 19.464 11.4145 19.6418 11.4272 19.8073C11.4286 19.8262 11.43 19.8449 11.4314 19.8635C11.4397 19.9764 11.4476 20.0825 11.4657 20.1883L14.0387 19.0089L14.0399 19.0083C14.0565 19.0011 14.0784 18.9926 14.0985 18.9848C14.1118 18.9797 14.1243 18.9748 14.1342 18.9708C14.1419 18.9676 14.1491 18.9645 14.1559 18.9614C14.0612 18.7113 14.0141 18.4551 13.9778 18.1968L14.0521 18.1864L13.9778 18.1968C13.7191 16.3544 14.3678 14.4792 16.197 13.7189C16.4932 13.5958 16.7636 13.5291 17.074 13.4992L17.1803 12.3882C16.5384 12.4312 15.8943 12.4375 15.2519 12.4017L15.2491 12.4015L15.2492 12.4015L14.1025 12.2952L14.0982 12.2948L14.0982 12.2947C13.1983 12.1582 12.3911 11.8718 11.5721 11.509L11.3857 12.885L12.6535 13.6797L12.654 13.68C12.7034 13.7115 12.7538 13.7409 12.8059 13.7714C12.8368 13.7894 12.8683 13.8078 12.9006 13.8272L8.46629 14.7447ZM8.46629 14.7447C8.75914 14.6216 9.10296 14.5364 9.41261 14.5118L9.74702 14.5021C9.7472 14.5021 9.74739 14.5021 9.74757 14.5021C9.7839 14.5017 9.80393 14.5065 9.81566 14.5116C9.82624 14.5162 9.83454 14.5227 9.84426 14.5351C9.85405 14.5475 9.86264 14.5621 9.87559 14.5839C9.87794 14.5879 9.88044 14.5921 9.88311 14.5966C9.8994 14.624 9.91982 14.657 9.94874 14.6923L10.0067 14.6447L9.94874 14.6923C10.3331 15.1609 10.671 15.6598 10.9629 16.1916L11.1423 16.5507C11.1528 16.5734 11.1638 16.599 11.1753 16.6258C11.1966 16.6752 11.2198 16.7288 11.2445 16.777C11.2846 16.8549 11.3359 16.9341 11.411 16.9945C11.6191 17.1617 11.9302 17.0866 12.0664 16.879L12.0669 16.8781L12.0769 16.8623C12.155 16.7442 12.1265 16.608 12.0867 16.509C11.7407 15.6458 11.233 14.8064 10.63 14.0942L10.9235 13.7098C10.9267 13.7059 10.9366 13.6941 10.9476 13.6813C10.9554 13.6854 10.9642 13.6902 10.9742 13.6959C11.0173 13.7203 11.0761 13.7562 11.1468 13.8008C11.26 13.8721 11.4012 13.9639 11.5528 14.0625C11.5904 14.087 11.6287 14.1119 11.6674 14.137C11.8613 14.2629 12.0645 14.394 12.2412 14.5025C12.416 14.6098 12.5705 14.6985 12.6645 14.7365C12.9028 14.8327 13.1197 14.7304 13.2276 14.5645C13.3353 14.3988 13.3378 14.1622 13.1472 13.9989L8.46629 14.7447ZM12.0667 6.66033C12.0667 6.66041 12.0667 6.66049 12.0667 6.66057L12.0075 7.27171C12.0075 7.27179 12.0074 7.27186 12.0074 7.27194L12.0074 7.27206L11.9328 7.26483C11.9297 7.29794 11.926 7.33088 11.9222 7.36377L12.0667 6.66033ZM12.0667 6.66033C12.0744 6.5855 12.0795 6.50937 12.0845 6.43454C12.0863 6.40842 12.088 6.38246 12.0898 6.35677C12.0956 6.27625 12.1023 6.19716 12.1132 6.11929C12.1695 6.11655 12.2264 6.11728 12.2856 6.11805C12.3149 6.11842 12.3448 6.11881 12.3755 6.11878L16.7999 6.11848C16.9016 6.11848 17.0034 6.11678 17.1051 6.11507C17.3448 6.11106 17.5834 6.10706 17.8154 6.12554L17.6873 7.51826L11.9822 7.52214L12.0667 6.66033ZM12.5923 20.6864L12.5924 20.6866L12.5973 20.6843L15.9769 19.0972L15.9769 19.0972L15.9797 19.0958C16.5268 18.8104 16.9422 18.5095 17.2788 18.1288C17.6154 17.7483 17.87 17.2919 18.1006 16.6998L18.0307 16.6726L18.1006 16.6998C18.3833 15.974 18.3493 15.1119 18.1872 14.3745L18.1874 14.3744L18.186 14.3697L18.0723 13.9764L18.0724 13.9764L18.0707 13.9717C18.0577 13.9358 18.0462 13.9044 18.0361 13.8768C18.0151 13.8195 18 13.7782 17.9891 13.7453C17.9732 13.6975 17.969 13.6749 17.9684 13.6544C17.9678 13.6322 17.9712 13.6092 17.9788 13.5584L17.9799 13.5512C17.9878 13.4976 17.9985 13.4227 18.0081 13.3069C18.0081 13.3067 18.0081 13.3065 18.0081 13.3063L18.9535 3.72401L18.9535 3.72401L18.9537 3.72232C18.9571 3.6767 18.9645 3.62212 18.9731 3.56053L18.9747 3.54877C18.9827 3.49127 18.9914 3.42884 18.9978 3.36655C19.011 3.23733 19.0164 3.09311 18.976 2.98327L18.9702 2.96648L18.9704 2.96642L18.9684 2.96165C18.9159 2.83723 18.8015 2.73513 18.6891 2.68055L18.6774 2.67476L18.6774 2.67475L18.6759 2.67405C18.622 2.64895 18.5703 2.64495 18.5244 2.64377L18.5244 2.64375L18.5225 2.64375L11.8479 2.6445L11.8376 2.6445L11.8276 2.6473C11.6972 2.68399 11.6023 2.74356 11.5379 2.83302C11.4749 2.92057 11.4473 3.02837 11.4337 3.14901L11.4337 3.149L11.4335 3.15154L11.2625 5.33203L11.2624 5.33278L10.8059 10.4887C10.8059 10.4888 10.8059 10.4889 10.8058 10.489C10.7986 10.5641 10.7852 10.6402 10.7703 10.7187C10.7675 10.7335 10.7646 10.7484 10.7617 10.7635C10.7494 10.8273 10.7368 10.8928 10.7272 10.958L10.7271 10.958L10.727 10.9595L10.4997 12.7514C10.4997 12.7516 10.4997 12.7518 10.4997 12.752C10.4929 12.7993 10.4911 12.8079 10.488 12.8146C10.4854 12.8204 10.4806 12.8273 10.449 12.8617L10.449 12.8617L10.448 12.8627L10.3251 13.0018L10.3251 13.0018L10.3239 13.0032L10.3163 13.0122C10.1602 13.1977 10.0023 13.3853 9.86145 13.5884C8.63303 13.4947 7.3293 14.0526 6.57933 15.0331C5.60985 16.3006 5.6136 17.8179 6.23062 19.0529C6.84698 20.2866 8.07746 21.2439 9.56883 21.3959C9.71011 21.4103 9.85654 21.4097 9.99582 21.4092C10.0249 21.409 10.0536 21.4089 10.0819 21.409C10.9539 21.4097 11.3512 21.2298 11.9047 20.9793C12.1039 20.8891 12.3233 20.7898 12.5923 20.6864ZM18.0429 3.57735L17.8912 5.22633L12.1965 5.22702C12.1939 5.11473 12.207 5.00106 12.2207 4.88312C12.2263 4.83445 12.232 4.78506 12.2368 4.73473L12.2368 4.73474L12.2369 4.73327L12.3059 3.80369L12.3059 3.80369L12.306 3.80088C12.3068 3.78033 12.3069 3.75752 12.307 3.73505L12.307 3.72781C12.3072 3.70245 12.3074 3.67707 12.3084 3.65221C12.3097 3.62178 12.3122 3.59525 12.3161 3.57329L18.0429 3.57735ZM17.3853 8.42452L17.3858 8.42451L17.5789 8.42314L17.2845 11.4341C16.5489 11.5071 15.9213 11.5141 15.1837 11.4707L15.1824 11.4707L14.7245 11.452C13.9557 11.3837 13.2145 11.2046 12.4904 10.9359L11.9364 10.689C11.9228 10.6823 11.9095 10.6757 11.8964 10.6693C11.8229 10.6333 11.7573 10.6011 11.6997 10.5575L11.8753 8.8112C11.8753 8.81109 11.8753 8.81099 11.8753 8.81089C11.8822 8.74768 11.8843 8.68281 11.8863 8.62125C11.8867 8.60753 11.8872 8.59397 11.8877 8.58063C11.8896 8.52801 11.8922 8.47785 11.8981 8.42973L17.3853 8.42452ZM14.9341 18.5566L14.9341 18.5566L14.9335 18.5534L14.7933 17.8154C14.781 17.7232 14.7819 17.6274 14.7829 17.5274C14.7832 17.5004 14.7834 17.4731 14.7834 17.4455C14.7837 15.9561 15.6915 14.6045 17.216 14.387C17.2278 14.3862 17.2391 14.3856 17.2502 14.3854C17.3628 14.7361 17.4416 15.193 17.4328 15.5422C17.4051 16.6358 16.6463 17.6239 15.731 18.184C15.524 18.3107 15.3062 18.4187 15.0853 18.5281C15.0441 18.5486 15.0027 18.5691 14.9613 18.5897L14.9447 18.5969C14.9396 18.5828 14.9359 18.5692 14.9341 18.5566ZM6.84196 18.0641L6.842 18.064L6.84122 18.0617C6.51728 17.0955 6.92227 15.961 7.62771 15.2523C7.66012 15.2843 7.69489 15.3144 7.72905 15.3427C7.7522 15.3619 7.77435 15.3797 7.79573 15.3969C7.82727 15.4223 7.85713 15.4463 7.8861 15.4715C9.27649 16.6784 10.5837 18.5892 10.5961 20.4548C10.3243 20.4864 10.0563 20.4909 9.78241 20.4689L9.78041 20.4688C8.42255 20.3962 7.35107 19.4824 6.89259 18.2333L6.84196 18.0641Z" fill="#1D1515" stroke="#1D1515" stroke-width="0.15"/>
</svg>
