<svg width="24" height="24" viewBox="0 0 24 24" fill="none" xmlns="http://www.w3.org/2000/svg">
<path d="M17.0401 14.8043C16.4056 14.4586 15.678 14.1973 14.983 14.0157L13.4818 13.6468C13.2861 13.5898 13.1335 13.3815 13.2023 13.1876L13.2074 13.1746C13.2377 13.0959 13.2936 13.029 13.3427 12.9612L13.5552 12.6556C13.9777 11.9893 14.4975 10.9217 14.3442 10.1395L14.1738 9.20979C14.0546 8.15756 14.1564 7.05663 14.3695 6.02402C14.5005 5.3891 14.5764 4.88013 15.3321 4.70782L15.4125 4.69341C15.7741 4.66104 16.0149 4.78439 16.2822 5.01157C16.3462 4.85567 16.3963 4.68842 16.4513 4.52871L16.6842 3.88142C16.8938 3.30633 17.0774 2.89807 17.753 2.78372C18.2423 2.70621 18.7411 3.07786 18.8975 3.52838L18.942 3.64802C19.538 3.53642 20.0328 3.67362 20.2969 4.28595L20.3178 4.33882C20.3371 4.39643 20.36 4.45327 20.3704 4.51338L20.3736 4.53209C20.4603 5.01963 20.2514 5.40865 20.1427 5.87042C20.2153 5.84963 20.2866 5.82743 20.3625 5.82338L20.3848 5.82244C21.0912 5.78621 21.609 6.35895 21.5375 7.04149C21.4234 8.13092 20.3436 10.0259 19.7329 10.8777L19.1479 11.6361C18.8197 12.0546 18.8589 11.9239 18.7775 12.4347L18.6875 12.9135C18.5457 13.5452 18.3118 14.1497 17.9855 14.7091C17.751 15.1111 17.7098 15.1645 17.3265 14.9501L17.0401 14.8043ZM17.8126 3.49737C17.4742 3.5708 17.3801 4.0192 17.2768 4.30043C17.0919 4.8041 16.9375 5.31539 16.8031 5.83451L16.5564 7.06641C16.5454 7.13801 16.5457 7.21113 16.5201 7.27999C16.3913 7.62675 15.8998 7.5379 15.8453 7.19824C15.7739 6.75253 16.2147 5.74327 15.709 5.44437C15.3449 5.22909 15.1847 5.58056 15.123 5.86247L15.0287 6.33673C14.8648 7.2522 14.7596 8.17967 14.8832 9.10821L14.9108 9.39532C14.9583 9.75996 15.0778 10.0916 15.0796 10.4639C15.0825 11.0733 14.8645 11.6276 14.6055 12.1703L14.1351 13.0745C15.0777 13.2576 15.9647 13.5379 16.8452 13.9249L17.4472 14.2123C17.6899 13.8147 17.8763 13.3241 17.9772 12.8738C18.148 12.1109 18.0522 11.8591 18.5774 11.2055C19.4649 10.1244 20.2476 8.88931 20.6676 7.54735C20.7261 7.36038 20.8011 7.16998 20.8275 6.9754L20.8305 6.95501C20.8822 6.56255 20.3077 6.24375 20.0325 6.86004L19.8809 7.19485C19.7985 7.37632 19.7062 7.55632 19.6366 7.74324L19.4988 8.11594C19.2598 8.75693 18.7342 8.44568 18.7547 8.12185C18.7645 7.96751 18.8129 7.80443 18.8544 7.65624L19.5293 5.41519C19.5948 5.19342 19.726 4.90498 19.6912 4.67267L19.6892 4.65842C19.635 4.32197 19.1581 4.17199 18.9646 4.47066C18.914 4.54875 18.8843 4.63521 18.8497 4.72067L18.668 5.23041C18.5405 5.60552 18.3912 6.0056 18.3248 6.39809L18.2371 7.01693C18.2317 7.07199 18.241 7.13538 18.2201 7.18735C18.0571 7.59333 17.4137 7.44483 17.5163 6.94024L17.8768 5.33124L18.2519 4.14818C18.3501 3.82085 18.1684 3.4725 17.8126 3.49737Z" fill="#1D1515" stroke="#1D1515" stroke-width="0.3"/>
<path d="M7.08402 20.9966C6.70782 21.1656 6.64679 21.2235 6.4116 20.8231C5.903 19.9574 5.69118 19.2724 5.5037 18.3174C5.40296 17.8042 5.35112 17.8337 5.03462 17.4247C4.17088 16.3089 3.41469 14.6819 2.97353 13.3665L2.52906 11.8343C2.49067 11.6725 2.44646 11.482 2.46901 11.316L2.49798 11.1184C2.65864 10.4345 3.2818 10.2261 3.90205 10.3824C3.45029 9.44365 4.86756 8.15826 5.74082 9.17158L5.83072 9.09394C6.00046 8.90051 6.25977 8.78517 6.51362 8.7679C7.07075 8.685 7.54998 9.12572 7.70994 9.62937L8.10723 10.943C8.50405 10.5896 9.04189 10.4869 9.48969 10.8214C9.83045 11.076 9.91056 11.3952 9.98282 11.7902L10.0973 12.6097C10.1992 13.5026 10.2006 14.4333 10.0559 15.3196L9.96625 15.8309C9.92469 16.0348 9.85152 16.2725 9.85431 16.4798C9.86284 17.1163 10.3513 18.1301 10.7296 18.6665C10.8699 18.8656 11.183 19.1011 11.1183 19.376L11.1022 19.4385C11.0245 19.6408 10.8056 19.6336 10.6296 19.6848L8.60176 20.3795L7.08402 20.9966ZM6.54653 9.46889C6.14125 9.59976 6.18498 10.0631 6.2931 10.3936L6.73431 11.9915C6.78322 12.195 6.93896 12.8989 6.8533 13.0814L6.84543 13.0987C6.77214 13.2552 6.60871 13.2926 6.45189 13.2559L6.43642 13.2523C6.16436 13.1854 6.17589 12.9293 6.14455 12.7067L6.08291 12.3326C5.95918 11.7274 5.78103 11.1343 5.5944 10.546C5.49217 10.2237 5.28252 9.2978 4.78782 9.5718C4.5752 9.68955 4.50458 9.90047 4.56655 10.1266L4.84874 11.1522C4.87778 11.2623 4.83758 11.3723 4.85928 11.4837L4.86301 11.5036C4.90677 11.7258 5.05639 11.977 5.11574 12.2402L5.45539 13.5261C5.48012 13.6065 5.48643 13.7557 5.44956 13.8314L5.44286 13.8454C5.27947 14.176 4.83657 14.0375 4.73846 13.637C4.60609 13.0968 4.25218 11.4102 3.77729 11.091L3.76443 11.0823C3.59195 10.9699 3.3471 11.0101 3.23893 11.1929C3.1311 11.3751 3.1885 11.593 3.24097 11.7862L3.70525 13.3147C3.71118 13.3369 3.71924 13.3533 3.72793 13.3743L4.13898 14.4173L5.03832 16.1584L5.86564 17.3185C6.24892 17.8424 6.17961 18.507 6.39988 19.0872C6.55564 19.4975 6.69831 19.8976 6.91766 20.2807L10.1636 19.0795C9.67452 18.4017 9.19414 17.3642 9.15378 16.5384C9.13621 16.1787 9.2312 15.8619 9.30833 15.5183C9.46841 14.8053 9.50769 14.0233 9.46332 13.298L9.34058 12.1907C9.31335 11.9745 9.28421 11.6473 9.15357 11.4675C9.02896 11.296 8.79838 11.2937 8.63931 11.4173C8.48502 11.5371 8.47419 11.7601 8.4665 11.9367L8.46425 12.7951C8.46821 12.9239 8.49172 13.1166 8.45685 13.2388C8.40074 13.4354 8.20225 13.5358 8.01048 13.4786C7.7443 13.3992 7.74451 13.0835 7.72789 12.8604L7.68207 12.4307C7.57466 11.6951 7.41123 10.9617 7.18182 10.2544C7.07357 9.92053 6.9857 9.45501 6.54653 9.46889Z" fill="#1D1515" stroke="#1D1515" stroke-width="0.3"/>
</svg>
