<svg width="24" height="24" viewBox="0 0 24 24" fill="none" xmlns="http://www.w3.org/2000/svg">
<path d="M7.26869 7.96595C6.55098 8.65784 6.19212 9.00379 5.75494 8.99997C4.73206 8.99102 2.92649 7.00413 3.00231 5.986C3.033 5.57393 3.39927 5.26497 4.13182 4.64705L6.32917 2.79353C6.979 2.24539 7.87323 2.22352 8.68526 2.06696C9.00922 2.0045 9.1712 1.97327 9.31518 2.02893C9.77941 2.20837 10.1622 3.05277 10.4391 3.43412C11.604 5.03836 12.1864 5.84049 13.0003 5.84049C13.8141 5.84049 14.3966 5.03836 15.5615 3.43412C15.8384 3.05277 16.2211 2.20837 16.6854 2.02893C16.8294 1.97327 16.9913 2.0045 17.3153 2.06696C18.1591 2.22965 18.9924 2.22083 19.6714 2.79353L21.8687 4.64705C22.6013 5.26497 22.9676 5.57393 22.9982 5.986C23.0741 7.00413 21.2685 8.99102 20.2456 8.99997C19.8084 9.00379 19.4496 8.65784 18.7319 7.96595" stroke="#1D1515" stroke-width="1.25" stroke-linecap="round" stroke-linejoin="round"/>
<path d="M7 7C8.5 9 7.95594 11.1815 7.59802 13.2178C7.22004 15.3682 6.58295 16.6762 6.21963 18.4412C5.97017 19.6531 5.84545 20.2591 6.33363 20.7716C7.71183 22.2184 17.9342 22.5901 19.6664 20.7716C20.1546 20.2591 20.0298 19.6531 19.7804 18.4412C19.4171 16.6762 18.78 15.3682 18.402 13.2178C18.0441 11.1815 17.5 9 19 7" stroke="#1D1515" stroke-width="1.25" stroke-linecap="round" stroke-linejoin="round"/>
</svg>
