<svg width="24" height="24" viewBox="0 0 24 24" fill="none" xmlns="http://www.w3.org/2000/svg">
<path d="M14.8546 19.6875C14.9414 19.8259 14.8896 20.3914 14.8893 20.5742L14.8879 22.9393C14.8878 23.144 14.9455 23.402 14.7426 23.533L14.7295 23.5402C14.7287 23.5032 14.7936 23.442 14.8185 23.411L14.8199 23.3757C14.8272 23.3437 14.8364 23.3293 14.8361 23.2944L14.8637 19.8875C14.8641 19.819 14.8423 19.7541 14.8546 19.6875Z" fill="#1D1515"/>
<mask id="path-2-outside-1_2742_84264" maskUnits="userSpaceOnUse" x="7.07129" y="-0.609375" width="10" height="25" fill="black">
<rect fill="white" x="7.07129" y="-0.609375" width="10" height="25"/>
<path d="M11.19 17.5646L11.1839 18.8084C11.181 18.8673 11.1655 18.9224 11.1604 18.9803L11.1187 19.4447C11.1014 19.5732 11.1086 19.7079 11.1085 19.8376L11.1088 23.0515C11.1086 23.1435 11.1182 23.2457 11.0959 23.3348L11.0912 23.3545C11.0593 23.4482 10.9723 23.519 10.8872 23.5598L10.8719 23.5673C10.6671 23.6634 10.2191 23.6127 9.99047 23.6125L9.6694 23.612C9.2613 23.6102 9.18659 23.488 9.18616 23.1276V21.0872C9.18581 20.5755 9.18867 20.2841 9.11004 19.7824L8.73138 17.3916L8.57984 16.0995C8.56324 15.857 8.57395 15.6066 8.57407 15.363L8.57878 14.5275C8.59214 14.255 8.6332 13.9684 8.69391 13.7026C8.98615 12.4229 9.25533 12.0748 8.9932 10.7132C8.9017 10.2379 8.74999 9.77432 8.61305 9.31077L8.27241 8.0017C8.178 7.57694 8.09421 7.04137 8.07384 6.6017L8.07129 4.45293C8.07274 3.27473 8.33585 2.61679 8.7732 1.52102C8.8842 1.24289 9.06628 0.51329 9.38705 0.413596L9.40043 0.409326C9.5392 0.368446 9.70106 0.450545 9.82983 0.495149C11.0899 0.931675 12.7186 0.917259 14.0124 0.547366C14.1767 0.500402 14.356 0.415436 14.5232 0.393245C14.8628 0.348184 14.9636 0.896224 15.0648 1.11764L15.145 1.32607C15.1597 1.37371 15.1855 1.41867 15.2041 1.46506L15.3526 1.82947C15.7427 2.76813 15.9313 3.47556 15.9347 4.50023L15.9301 6.71411C15.8952 7.36148 15.7725 8.03287 15.5903 8.65274C15.201 9.97752 14.5541 11.4982 15.0667 12.8795L15.2388 13.5625C15.382 14.3297 15.537 15.4758 15.393 16.2238C15.3426 16.4857 15.3435 16.7628 15.3083 17.0271L14.9561 19.2366C14.94 19.3414 14.9441 19.5569 14.8465 19.624L14.8545 19.6866C14.8425 19.7533 14.8643 19.8181 14.8639 19.8867L14.8363 23.2935C14.8366 23.3284 14.8274 23.3429 14.8201 23.3748L14.8187 23.4101C14.7938 23.4412 14.7289 23.5023 14.7297 23.5394C14.5292 23.6755 14.0061 23.6111 13.7675 23.6116L13.4408 23.612C12.7867 23.6123 12.9567 23.1137 12.9561 22.611L12.9465 20.8342C12.9423 20.7216 12.9233 20.6106 12.9149 20.4984L12.8334 18.8475C12.8101 18.4613 12.7704 18.0703 12.7727 17.6832C12.7748 17.328 12.838 16.9735 12.863 16.6194C12.9005 16.0891 12.9124 15.1911 12.8679 14.658L12.7627 13.8709C12.7264 13.6399 12.6986 13.4052 12.6493 13.1764L12.4472 12.3123L12.037 9.80214C12.0331 9.77533 12.0347 9.73523 12.0144 9.71784L11.9997 9.75766C11.9092 9.96236 11.8928 10.2241 11.8569 10.4456L11.3183 13.3227C11.1775 13.8926 11.1089 14.4895 11.1083 15.0756L11.19 17.5646ZM9.58849 19.1527C9.60234 19.2061 9.60279 19.26 9.61106 19.3143L9.70744 19.9441C9.78164 20.4725 9.77358 21.0266 9.77374 21.5585L9.77409 22.9758C9.84954 22.9877 9.93743 22.9787 10.0141 22.9787L10.5049 22.9782C10.5222 22.905 10.5095 22.8048 10.5096 22.7277L10.5107 19.4334C10.5129 19.3 10.5415 19.1698 10.5531 19.0368C10.6295 18.167 10.6202 17.6132 10.5645 16.7488C10.557 16.6327 10.574 16.4856 10.542 16.3755L10.5359 16.3546C10.5182 16.2837 10.5177 16.1963 10.514 16.1232L10.5456 14.3909C10.5758 14.0717 10.6139 13.7498 10.6734 13.4346L10.9702 12.0925L11.3416 9.78695C11.4308 9.2819 11.4658 8.87502 11.4683 8.36263L11.4684 7.68902C11.4624 7.50677 11.4304 7.32487 11.4082 7.14437L11.3467 6.63602C11.3134 6.36613 11.2431 6.04448 11.3363 5.78097C11.589 5.06718 12.5302 5.13243 12.6775 5.8788C12.7557 6.27513 12.6422 7.11585 12.5375 7.55453C12.498 7.72019 12.5135 7.90345 12.5135 8.07339L12.5634 9.16586L12.68 9.99789C12.693 10.0754 12.6943 10.1548 12.7075 10.2321L12.8708 11.248C12.8805 11.3094 12.8818 11.3729 12.8922 11.4334L12.9691 11.8428C12.989 11.9733 13.0013 12.1141 13.0321 12.242L13.2424 13.1151C13.2908 13.3129 13.3333 13.5223 13.361 13.7241L13.4569 14.7805C13.475 15.0963 13.4968 15.3224 13.4862 15.6544C13.4811 15.8161 13.4475 15.9765 13.4406 16.1388L13.4378 16.9144C13.4322 17.0369 13.4081 17.1588 13.3973 17.2811L13.4078 18.6639C13.4147 18.7371 13.4313 18.8092 13.4367 18.8826L13.4921 19.7995C13.5026 19.946 13.5355 20.0922 13.5407 20.238L13.5693 22.1554C13.5718 22.4275 13.5552 22.7087 13.5762 22.9793L14.2673 22.9774C14.2548 22.8344 14.2616 22.687 14.2614 22.5434L14.2612 20.565C14.2614 19.9899 14.289 19.6561 14.3687 19.0825L14.8086 16.1723L14.8324 15.7338C14.8676 15.1214 14.853 14.5282 14.7265 13.9228C14.6225 13.4244 14.4511 12.9353 14.3598 12.4345C14.1556 11.3144 14.474 10.2657 14.8065 9.20284C15.0076 8.55993 15.1725 7.92665 15.2801 7.26156C15.3769 6.6629 15.3441 6.04797 15.3442 5.44291C15.3442 4.3919 15.4065 3.27702 14.9028 2.31441C14.8114 2.37208 14.7299 2.44398 14.6387 2.50279C14.0614 2.87477 13.3188 2.95546 12.6495 3.0051L12.298 3.03395C11.1067 3.08528 10.1126 2.92628 9.10552 2.2973L9.08323 2.33504C8.796 2.90964 8.6606 3.59507 8.65976 4.23618L8.65912 6.14287C8.65931 6.38381 8.6483 6.63067 8.67052 6.87072L8.73923 7.35421C8.74882 7.41032 8.75276 7.47016 8.76616 7.52523L8.8875 8.01524C8.89568 8.05534 8.89709 8.10154 8.91042 8.14L9.52338 10.36C9.7023 10.8915 9.7458 11.6462 9.68213 12.1893C9.61003 12.8042 9.35578 13.3978 9.23787 14.0057C9.13697 14.526 9.1062 15.1626 9.14695 15.6982L9.39591 17.8545C9.40798 17.9285 9.40976 18.0043 9.42227 18.078L9.51659 18.7049C9.53977 18.8525 9.57466 19.0045 9.58849 19.1527ZM14.3957 1.05063C12.9584 1.50692 11.6842 1.54488 10.2118 1.2083L9.58317 1.05099L9.32934 1.74298C9.44198 1.83717 9.57942 1.90692 9.71121 1.97098C10.1421 2.20761 10.622 2.29904 11.1038 2.35769C12.206 2.49184 13.7735 2.4887 14.6668 1.7582L14.3957 1.05063ZM11.9707 5.87875C11.8024 5.98916 11.98 6.79253 12.0387 6.96829C12.0327 6.77652 12.2216 5.86502 11.9707 5.87875ZM9.774 22.9704L9.77374 21.5585C9.77358 21.0266 9.78164 20.4725 9.70744 19.9441L9.61106 19.3143C9.60279 19.26 9.60234 19.2061 9.58849 19.1527L9.57037 19.1636C9.57607 19.2072 9.57061 19.2936 9.59224 19.326L9.59194 19.3438C9.59156 19.3897 9.60663 19.5051 9.62728 19.5429L9.6229 19.5603C9.6176 19.6331 9.63961 19.677 9.66255 19.7362C9.67934 19.7794 9.65873 19.854 9.67427 19.9061L9.68534 19.9502C9.75347 20.1758 9.7278 20.419 9.7327 20.6506L9.73866 22.7495C9.73852 22.8213 9.73291 22.8919 9.75422 22.9614L9.774 22.9704ZM11.19 17.5646L11.1078 15.0756L11.1114 16.7568C11.1114 16.8286 11.0997 16.9218 11.1264 16.9881L11.1662 17.0995C11.2078 17.2152 11.174 17.364 11.1826 17.4862L11.19 17.5646Z"/>
</mask>
<path d="M11.19 17.5646L11.1839 18.8084C11.181 18.8673 11.1655 18.9224 11.1604 18.9803L11.1187 19.4447C11.1014 19.5732 11.1086 19.7079 11.1085 19.8376L11.1088 23.0515C11.1086 23.1435 11.1182 23.2457 11.0959 23.3348L11.0912 23.3545C11.0593 23.4482 10.9723 23.519 10.8872 23.5598L10.8719 23.5673C10.6671 23.6634 10.2191 23.6127 9.99047 23.6125L9.6694 23.612C9.2613 23.6102 9.18659 23.488 9.18616 23.1276V21.0872C9.18581 20.5755 9.18867 20.2841 9.11004 19.7824L8.73138 17.3916L8.57984 16.0995C8.56324 15.857 8.57395 15.6066 8.57407 15.363L8.57878 14.5275C8.59214 14.255 8.6332 13.9684 8.69391 13.7026C8.98615 12.4229 9.25533 12.0748 8.9932 10.7132C8.9017 10.2379 8.74999 9.77432 8.61305 9.31077L8.27241 8.0017C8.178 7.57694 8.09421 7.04137 8.07384 6.6017L8.07129 4.45293C8.07274 3.27473 8.33585 2.61679 8.7732 1.52102C8.8842 1.24289 9.06628 0.51329 9.38705 0.413596L9.40043 0.409326C9.5392 0.368446 9.70106 0.450545 9.82983 0.495149C11.0899 0.931675 12.7186 0.917259 14.0124 0.547366C14.1767 0.500402 14.356 0.415436 14.5232 0.393245C14.8628 0.348184 14.9636 0.896224 15.0648 1.11764L15.145 1.32607C15.1597 1.37371 15.1855 1.41867 15.2041 1.46506L15.3526 1.82947C15.7427 2.76813 15.9313 3.47556 15.9347 4.50023L15.9301 6.71411C15.8952 7.36148 15.7725 8.03287 15.5903 8.65274C15.201 9.97752 14.5541 11.4982 15.0667 12.8795L15.2388 13.5625C15.382 14.3297 15.537 15.4758 15.393 16.2238C15.3426 16.4857 15.3435 16.7628 15.3083 17.0271L14.9561 19.2366C14.94 19.3414 14.9441 19.5569 14.8465 19.624L14.8545 19.6866C14.8425 19.7533 14.8643 19.8181 14.8639 19.8867L14.8363 23.2935C14.8366 23.3284 14.8274 23.3429 14.8201 23.3748L14.8187 23.4101C14.7938 23.4412 14.7289 23.5023 14.7297 23.5394C14.5292 23.6755 14.0061 23.6111 13.7675 23.6116L13.4408 23.612C12.7867 23.6123 12.9567 23.1137 12.9561 22.611L12.9465 20.8342C12.9423 20.7216 12.9233 20.6106 12.9149 20.4984L12.8334 18.8475C12.8101 18.4613 12.7704 18.0703 12.7727 17.6832C12.7748 17.328 12.838 16.9735 12.863 16.6194C12.9005 16.0891 12.9124 15.1911 12.8679 14.658L12.7627 13.8709C12.7264 13.6399 12.6986 13.4052 12.6493 13.1764L12.4472 12.3123L12.037 9.80214C12.0331 9.77533 12.0347 9.73523 12.0144 9.71784L11.9997 9.75766C11.9092 9.96236 11.8928 10.2241 11.8569 10.4456L11.3183 13.3227C11.1775 13.8926 11.1089 14.4895 11.1083 15.0756L11.19 17.5646ZM9.58849 19.1527C9.60234 19.2061 9.60279 19.26 9.61106 19.3143L9.70744 19.9441C9.78164 20.4725 9.77358 21.0266 9.77374 21.5585L9.77409 22.9758C9.84954 22.9877 9.93743 22.9787 10.0141 22.9787L10.5049 22.9782C10.5222 22.905 10.5095 22.8048 10.5096 22.7277L10.5107 19.4334C10.5129 19.3 10.5415 19.1698 10.5531 19.0368C10.6295 18.167 10.6202 17.6132 10.5645 16.7488C10.557 16.6327 10.574 16.4856 10.542 16.3755L10.5359 16.3546C10.5182 16.2837 10.5177 16.1963 10.514 16.1232L10.5456 14.3909C10.5758 14.0717 10.6139 13.7498 10.6734 13.4346L10.9702 12.0925L11.3416 9.78695C11.4308 9.2819 11.4658 8.87502 11.4683 8.36263L11.4684 7.68902C11.4624 7.50677 11.4304 7.32487 11.4082 7.14437L11.3467 6.63602C11.3134 6.36613 11.2431 6.04448 11.3363 5.78097C11.589 5.06718 12.5302 5.13243 12.6775 5.8788C12.7557 6.27513 12.6422 7.11585 12.5375 7.55453C12.498 7.72019 12.5135 7.90345 12.5135 8.07339L12.5634 9.16586L12.68 9.99789C12.693 10.0754 12.6943 10.1548 12.7075 10.2321L12.8708 11.248C12.8805 11.3094 12.8818 11.3729 12.8922 11.4334L12.9691 11.8428C12.989 11.9733 13.0013 12.1141 13.0321 12.242L13.2424 13.1151C13.2908 13.3129 13.3333 13.5223 13.361 13.7241L13.4569 14.7805C13.475 15.0963 13.4968 15.3224 13.4862 15.6544C13.4811 15.8161 13.4475 15.9765 13.4406 16.1388L13.4378 16.9144C13.4322 17.0369 13.4081 17.1588 13.3973 17.2811L13.4078 18.6639C13.4147 18.7371 13.4313 18.8092 13.4367 18.8826L13.4921 19.7995C13.5026 19.946 13.5355 20.0922 13.5407 20.238L13.5693 22.1554C13.5718 22.4275 13.5552 22.7087 13.5762 22.9793L14.2673 22.9774C14.2548 22.8344 14.2616 22.687 14.2614 22.5434L14.2612 20.565C14.2614 19.9899 14.289 19.6561 14.3687 19.0825L14.8086 16.1723L14.8324 15.7338C14.8676 15.1214 14.853 14.5282 14.7265 13.9228C14.6225 13.4244 14.4511 12.9353 14.3598 12.4345C14.1556 11.3144 14.474 10.2657 14.8065 9.20284C15.0076 8.55993 15.1725 7.92665 15.2801 7.26156C15.3769 6.6629 15.3441 6.04797 15.3442 5.44291C15.3442 4.3919 15.4065 3.27702 14.9028 2.31441C14.8114 2.37208 14.7299 2.44398 14.6387 2.50279C14.0614 2.87477 13.3188 2.95546 12.6495 3.0051L12.298 3.03395C11.1067 3.08528 10.1126 2.92628 9.10552 2.2973L9.08323 2.33504C8.796 2.90964 8.6606 3.59507 8.65976 4.23618L8.65912 6.14287C8.65931 6.38381 8.6483 6.63067 8.67052 6.87072L8.73923 7.35421C8.74882 7.41032 8.75276 7.47016 8.76616 7.52523L8.8875 8.01524C8.89568 8.05534 8.89709 8.10154 8.91042 8.14L9.52338 10.36C9.7023 10.8915 9.7458 11.6462 9.68213 12.1893C9.61003 12.8042 9.35578 13.3978 9.23787 14.0057C9.13697 14.526 9.1062 15.1626 9.14695 15.6982L9.39591 17.8545C9.40798 17.9285 9.40976 18.0043 9.42227 18.078L9.51659 18.7049C9.53977 18.8525 9.57466 19.0045 9.58849 19.1527ZM14.3957 1.05063C12.9584 1.50692 11.6842 1.54488 10.2118 1.2083L9.58317 1.05099L9.32934 1.74298C9.44198 1.83717 9.57942 1.90692 9.71121 1.97098C10.1421 2.20761 10.622 2.29904 11.1038 2.35769C12.206 2.49184 13.7735 2.4887 14.6668 1.7582L14.3957 1.05063ZM11.9707 5.87875C11.8024 5.98916 11.98 6.79253 12.0387 6.96829C12.0327 6.77652 12.2216 5.86502 11.9707 5.87875ZM9.774 22.9704L9.77374 21.5585C9.77358 21.0266 9.78164 20.4725 9.70744 19.9441L9.61106 19.3143C9.60279 19.26 9.60234 19.2061 9.58849 19.1527L9.57037 19.1636C9.57607 19.2072 9.57061 19.2936 9.59224 19.326L9.59194 19.3438C9.59156 19.3897 9.60663 19.5051 9.62728 19.5429L9.6229 19.5603C9.6176 19.6331 9.63961 19.677 9.66255 19.7362C9.67934 19.7794 9.65873 19.854 9.67427 19.9061L9.68534 19.9502C9.75347 20.1758 9.7278 20.419 9.7327 20.6506L9.73866 22.7495C9.73852 22.8213 9.73291 22.8919 9.75422 22.9614L9.774 22.9704ZM11.19 17.5646L11.1078 15.0756L11.1114 16.7568C11.1114 16.8286 11.0997 16.9218 11.1264 16.9881L11.1662 17.0995C11.2078 17.2152 11.174 17.364 11.1826 17.4862L11.19 17.5646Z" fill="#1D1515"/>
<path d="M9.61106 19.3143L9.53692 19.3256L9.53693 19.3256L9.61106 19.3143ZM9.70744 19.9441L9.78172 19.9336L9.78157 19.9327L9.70744 19.9441ZM9.5159 19.1716C9.5214 19.1928 9.52452 19.2152 9.52729 19.2412C9.5299 19.2655 9.53245 19.2963 9.53692 19.3256L9.68521 19.303C9.68141 19.2781 9.6796 19.2547 9.67645 19.2252C9.67347 19.1973 9.66944 19.1661 9.66109 19.1339L9.5159 19.1716ZM9.53693 19.3256L9.6333 19.9554L9.78157 19.9327L9.6852 19.303L9.53693 19.3256ZM9.63317 19.9545C9.70647 20.4766 9.69858 21.0245 9.69874 21.5585L9.84874 21.5584C9.84858 21.0288 9.85681 20.4685 9.78171 19.9336L9.63317 19.9545ZM11.19 17.5646L11.3401 17.5654L11.3399 17.5597L11.19 17.5646ZM11.1839 18.8084L11.3338 18.8158L11.3339 18.8092L11.1839 18.8084ZM11.1604 18.9803L11.3098 18.9937L11.3099 18.9933L11.1604 18.9803ZM11.1187 19.4447L11.2675 19.4647L11.2681 19.4581L11.1187 19.4447ZM11.1085 19.8376L10.9585 19.8375V19.8376L11.1085 19.8376ZM11.1088 23.0515L11.2588 23.0517V23.0514L11.1088 23.0515ZM11.0959 23.3348L10.9504 23.2983L10.9499 23.3004L11.0959 23.3348ZM11.0912 23.3545L11.2332 23.403L11.2356 23.396L11.2372 23.3889L11.0912 23.3545ZM10.8872 23.5598L10.8224 23.4245L10.8211 23.4251L10.8872 23.5598ZM10.8719 23.5673L10.9356 23.7031L10.938 23.7019L10.8719 23.5673ZM9.99047 23.6125L9.99025 23.7625H9.99032L9.99047 23.6125ZM9.6694 23.612L9.66871 23.762H9.66918L9.6694 23.612ZM9.18616 23.1276H9.03616L9.03616 23.1278L9.18616 23.1276ZM9.18616 21.0872H9.33616L9.33616 21.0871L9.18616 21.0872ZM9.11004 19.7824L9.25823 19.7592L9.25819 19.7589L9.11004 19.7824ZM8.73138 17.3916L8.58228 17.4091L8.58323 17.415L8.73138 17.3916ZM8.57984 16.0995L8.43001 16.1097L8.43086 16.117L8.57984 16.0995ZM8.57407 15.363L8.42407 15.3621L8.42407 15.3629L8.57407 15.363ZM8.57878 14.5275L8.42882 14.5202L8.42878 14.5267L8.57878 14.5275ZM8.69391 13.7026L8.54767 13.6692L8.54767 13.6692L8.69391 13.7026ZM8.9932 10.7132L8.84591 10.7416L8.84591 10.7416L8.9932 10.7132ZM8.61305 9.31077L8.4678 9.34857L8.46919 9.35327L8.61305 9.31077ZM8.27241 8.0017L8.12588 8.03426L8.12724 8.03947L8.27241 8.0017ZM8.07384 6.6017L7.92369 6.60188L7.924 6.60864L8.07384 6.6017ZM8.07129 4.45293L7.92129 4.45274L7.92129 4.45311L8.07129 4.45293ZM8.7732 1.52102L8.91251 1.57663L8.91251 1.57662L8.7732 1.52102ZM9.38705 0.413596L9.43157 0.556841L9.43264 0.556498L9.38705 0.413596ZM9.40043 0.409326L9.35803 0.265403L9.35483 0.266424L9.40043 0.409326ZM9.82983 0.495149L9.87893 0.353414L9.87893 0.353412L9.82983 0.495149ZM14.0124 0.547366L13.9712 0.403144L13.9712 0.403144L14.0124 0.547366ZM14.5232 0.393245L14.5035 0.244549L14.5035 0.244549L14.5232 0.393245ZM15.0648 1.11764L15.205 1.06365L15.2012 1.05527L15.0648 1.11764ZM15.145 1.32607L15.2887 1.28188L15.285 1.27219L15.145 1.32607ZM15.2041 1.46506L15.0649 1.52091L15.0652 1.52164L15.2041 1.46506ZM15.3526 1.82947L15.2136 1.88606L15.2141 1.88704L15.3526 1.82947ZM15.9347 4.50023L16.0847 4.50054L16.0847 4.49973L15.9347 4.50023ZM15.9301 6.71411L16.0801 6.72218L16.0801 6.71442L15.9301 6.71411ZM15.5903 8.65274L15.7343 8.69504L15.7343 8.69504L15.5903 8.65274ZM15.0667 12.8795L15.2122 12.8429L15.2102 12.835L15.2074 12.8273L15.0667 12.8795ZM15.2388 13.5625L15.3865 13.535L15.3842 13.5259L15.2388 13.5625ZM15.393 16.2238L15.5403 16.2522L15.5403 16.2522L15.393 16.2238ZM15.3083 17.0271L15.4565 17.0507L15.457 17.0469L15.3083 17.0271ZM14.9561 19.2366L14.808 19.2129L14.8078 19.2138L14.9561 19.2366ZM14.8465 19.624L14.7615 19.5004L14.686 19.5523L14.6977 19.6432L14.8465 19.624ZM14.8545 19.6866L15.0021 19.7134L15.0063 19.6905L15.0033 19.6675L14.8545 19.6866ZM14.8639 19.8867L15.0138 19.8879L15.0138 19.8876L14.8639 19.8867ZM14.8363 23.2935L14.6862 23.2923L14.6863 23.2952L14.8363 23.2935ZM14.8201 23.3748L14.6738 23.3417L14.6708 23.355L14.6703 23.3687L14.8201 23.3748ZM14.8187 23.4101L14.9358 23.5039L14.9665 23.4655L14.9686 23.4163L14.8187 23.4101ZM14.7297 23.5394L14.814 23.6635L14.8815 23.6176L14.8797 23.5361L14.7297 23.5394ZM13.7675 23.6116L13.7677 23.7616H13.7678L13.7675 23.6116ZM13.4408 23.612L13.4409 23.762H13.4411L13.4408 23.612ZM12.9561 22.611L13.1061 22.6109L13.1061 22.6102L12.9561 22.611ZM12.9465 20.8342L13.0966 20.8334L13.0964 20.8286L12.9465 20.8342ZM12.9149 20.4984L12.765 20.5058L12.7653 20.5097L12.9149 20.4984ZM12.8334 18.8475L12.9832 18.8401L12.9831 18.8385L12.8334 18.8475ZM12.7727 17.6832L12.9227 17.6841V17.6841L12.7727 17.6832ZM12.863 16.6194L12.7134 16.6088L12.7134 16.6088L12.863 16.6194ZM12.8679 14.658L13.0176 14.6455L13.0166 14.6381L12.8679 14.658ZM12.7627 13.8709L12.9114 13.8511L12.9109 13.8476L12.7627 13.8709ZM12.6493 13.1764L12.796 13.1449L12.7954 13.1423L12.6493 13.1764ZM12.4472 12.3123L12.2988 12.3366L12.3012 12.3465L12.4472 12.3123ZM12.037 9.80214L11.8885 9.82368L11.8889 9.82633L12.037 9.80214ZM12.0144 9.71784L12.1122 9.6041L11.9487 9.46346L11.8738 9.66576L12.0144 9.71784ZM11.9997 9.75766L12.1371 9.81845L12.1404 9.80973L11.9997 9.75766ZM11.8569 10.4456L12.0044 10.4732L12.0049 10.4696L11.8569 10.4456ZM11.3183 13.3227L11.4642 13.3588L11.4658 13.3503L11.3183 13.3227ZM11.1083 15.0756L10.9582 15.0754L10.9584 15.0805L11.1083 15.0756ZM9.58849 19.1527L9.66544 19.2815L9.74663 19.233L9.73784 19.1388L9.58849 19.1527ZM9.77374 21.5585L9.92374 21.5584L9.62374 21.5585L9.77374 21.5585ZM9.77409 22.9758L9.62409 22.9759L9.62413 23.1041L9.7508 23.124L9.77409 22.9758ZM10.0141 22.9787L10.0141 23.1287H10.0142L10.0141 22.9787ZM10.5049 22.9782L10.5051 23.1282L10.6237 23.128L10.6509 23.0127L10.5049 22.9782ZM10.5096 22.7277L10.6596 22.7278L10.6596 22.7277L10.5096 22.7277ZM10.5107 19.4334L10.3607 19.431L10.3607 19.4334L10.5107 19.4334ZM10.5531 19.0368L10.7026 19.05L10.7026 19.05L10.5531 19.0368ZM10.5645 16.7488L10.4148 16.7584L10.5645 16.7488ZM10.542 16.3755L10.6861 16.3337L10.6859 16.3333L10.542 16.3755ZM10.5359 16.3546L10.3902 16.3909L10.392 16.3969L10.5359 16.3546ZM10.514 16.1232L10.3637 16.1205L10.3642 16.1307L10.514 16.1232ZM10.5456 14.3909L10.3959 14.3767L10.3957 14.3882L10.5456 14.3909ZM10.6734 13.4346L10.5269 13.4022L10.526 13.4067L10.6734 13.4346ZM10.9702 12.0925L11.1169 12.125L11.1182 12.1164L10.9702 12.0925ZM11.3416 9.78695L11.1939 9.76085L11.1935 9.76309L11.3416 9.78695ZM11.4683 8.36263L11.6183 8.36335L11.6183 8.36267L11.4683 8.36263ZM11.4684 7.68902L11.6185 7.68905L11.6183 7.68408L11.4684 7.68902ZM11.4082 7.14437L11.2593 7.1624L11.2593 7.16266L11.4082 7.14437ZM11.3467 6.63602L11.4956 6.61799L11.4955 6.61768L11.3467 6.63602ZM11.3363 5.78097L11.1949 5.73092L11.1949 5.73092L11.3363 5.78097ZM12.6775 5.8788L12.5303 5.90784L12.5303 5.90785L12.6775 5.8788ZM12.5375 7.55453L12.3916 7.51971L12.3916 7.51973L12.5375 7.55453ZM12.5135 8.07339L12.3634 8.07343L12.3637 8.08023L12.5135 8.07339ZM12.5634 9.16586L12.4129 9.17273L12.4148 9.18669L12.5634 9.16586ZM12.68 9.99789L12.5314 10.0187L12.5321 10.0226L12.68 9.99789ZM12.7075 10.2321L12.8556 10.2083L12.8553 10.2069L12.7075 10.2321ZM12.8708 11.248L13.0189 11.2246L13.0189 11.2242L12.8708 11.248ZM12.8922 11.4334L12.7444 11.4589L12.7448 11.4611L12.8922 11.4334ZM12.9691 11.8428L13.1174 11.8202L13.1165 11.8151L12.9691 11.8428ZM13.0321 12.242L13.1779 12.2069L13.1779 12.2069L13.0321 12.242ZM13.2424 13.1151L13.0966 13.1502L13.0967 13.1507L13.2424 13.1151ZM13.361 13.7241L13.5105 13.7106L13.5096 13.7038L13.361 13.7241ZM13.4569 14.7805L13.6067 14.7719L13.6062 14.7669L13.4569 14.7805ZM13.4862 15.6544L13.6361 15.6592L13.6361 15.6592L13.4862 15.6544ZM13.4406 16.1388L13.2907 16.1324L13.2906 16.1383L13.4406 16.1388ZM13.4378 16.9144L13.5878 16.9213L13.5878 16.915L13.4378 16.9144ZM13.3973 17.2811L13.2479 17.268L13.2473 17.2751L13.2473 17.2822L13.3973 17.2811ZM13.4078 18.6639L13.2572 18.665L13.2584 18.678L13.4078 18.6639ZM13.4367 18.8826L13.5864 18.8735L13.5863 18.8716L13.4367 18.8826ZM13.4921 19.7995L13.3423 19.8085L13.3424 19.8102L13.4921 19.7995ZM13.5407 20.238L13.6908 20.2357L13.6906 20.2326L13.5407 20.238ZM13.5693 22.1554L13.7193 22.154L13.7193 22.1532L13.5693 22.1554ZM13.5762 22.9793L13.4266 22.9909L13.4374 23.1297L13.5766 23.1293L13.5762 22.9793ZM14.2673 22.9774L14.2677 23.1274L14.4309 23.1269L14.4167 22.9643L14.2673 22.9774ZM14.2614 22.5434L14.1114 22.5435V22.5436L14.2614 22.5434ZM14.2612 20.565L14.1112 20.565V20.5651L14.2612 20.565ZM14.3687 19.0825L14.2203 19.0601L14.2201 19.0619L14.3687 19.0825ZM14.8086 16.1723L14.9569 16.1948L14.958 16.1876L14.9584 16.1805L14.8086 16.1723ZM14.8324 15.7338L14.6826 15.7252L14.6826 15.7257L14.8324 15.7338ZM14.7265 13.9228L14.8734 13.8921V13.8921L14.7265 13.9228ZM14.3598 12.4345L14.5074 12.4076L14.5074 12.4076L14.3598 12.4345ZM14.8065 9.20284L14.6633 9.15806L14.6633 9.15806L14.8065 9.20284ZM15.2801 7.26156L15.132 7.2376V7.23761L15.2801 7.26156ZM15.3442 5.44291L15.1942 5.4429V5.4429L15.3442 5.44291ZM14.9028 2.31441L15.0357 2.24487L14.9603 2.1008L14.8228 2.18754L14.9028 2.31441ZM14.6387 2.50279L14.7199 2.62888L14.7199 2.62887L14.6387 2.50279ZM12.6495 3.0051L12.6384 2.85551L12.6372 2.8556L12.6495 3.0051ZM12.298 3.03395L12.3045 3.18393L12.3103 3.18345L12.298 3.03395ZM9.10552 2.2973L9.18497 2.17008L9.05456 2.08863L8.97636 2.22102L9.10552 2.2973ZM9.08323 2.33504L8.95376 2.25857L8.94906 2.26797L9.08323 2.33504ZM8.65976 4.23618L8.50976 4.23598L8.50976 4.23613L8.65976 4.23618ZM8.65912 6.14287L8.50912 6.14282L8.50912 6.14298L8.65912 6.14287ZM8.67052 6.87072L8.52098 6.88456L8.52201 6.89183L8.67052 6.87072ZM8.73923 7.35421L8.59067 7.37533L8.59138 7.37947L8.73923 7.35421ZM8.76616 7.52523L8.62042 7.56071L8.62056 7.56129L8.76616 7.52523ZM8.8875 8.01524L9.0346 7.98524L9.0331 7.97919L8.8875 8.01524ZM8.91042 8.14L9.05531 8.09999L9.05214 8.09086L8.91042 8.14ZM9.52338 10.36L9.37857 10.3999L9.38122 10.4078L9.52338 10.36ZM9.68213 12.1893L9.53315 12.1718V12.1718L9.68213 12.1893ZM9.23787 14.0057L9.09061 13.9771L9.09061 13.9771L9.23787 14.0057ZM9.14695 15.6982L8.99727 15.7096L8.99794 15.7154L9.14695 15.6982ZM9.39591 17.8545L9.24673 17.8717L9.24786 17.8787L9.39591 17.8545ZM9.42227 18.078L9.57063 18.0557L9.57016 18.0529L9.42227 18.078ZM9.51659 18.7049L9.36825 18.7272L9.3684 18.7282L9.51659 18.7049ZM14.3957 1.05063L14.5357 0.996958L14.4851 0.864847L14.3503 0.907657L14.3957 1.05063ZM10.2118 1.2083L10.1753 1.35384L10.1783 1.35453L10.2118 1.2083ZM9.58317 1.05099L9.61959 0.90548L9.48878 0.872746L9.44235 0.999337L9.58317 1.05099ZM9.32934 1.74298L9.18852 1.69132L9.15219 1.79037L9.23312 1.85804L9.32934 1.74298ZM9.71121 1.97098L9.7835 1.83934L9.77679 1.83607L9.71121 1.97098ZM11.1038 2.35769L11.0857 2.50659H11.0857L11.1038 2.35769ZM14.6668 1.7582L14.7617 1.87431L14.8456 1.80571L14.8068 1.70453L14.6668 1.7582ZM11.9707 5.87875L11.9625 5.72897L11.9222 5.73118L11.8884 5.75333L11.9707 5.87875ZM12.0387 6.96829L11.8964 7.01576L12.1886 6.96363L12.0387 6.96829ZM9.774 22.9704L9.71162 23.1068L9.92404 23.204L9.924 22.9704L9.774 22.9704ZM9.57037 19.1636L9.49343 19.0348L9.40888 19.0853L9.42164 19.183L9.57037 19.1636ZM9.59224 19.326L9.74222 19.3286L9.74302 19.2818L9.71704 19.2428L9.59224 19.326ZM9.59194 19.3438L9.44195 19.3412L9.44194 19.3426L9.59194 19.3438ZM9.62728 19.5429L9.77274 19.5795L9.78707 19.5226L9.75898 19.4711L9.62728 19.5429ZM9.6229 19.5603L9.47744 19.5237L9.47424 19.5364L9.47329 19.5495L9.6229 19.5603ZM9.66255 19.7362L9.52269 19.7904L9.52271 19.7904L9.66255 19.7362ZM9.67427 19.9061L9.8199 19.8696L9.81802 19.8632L9.67427 19.9061ZM9.68534 19.9502L9.53968 19.9867L9.54174 19.9935L9.68534 19.9502ZM9.7327 20.6506L9.88273 20.6502L9.88267 20.6474L9.7327 20.6506ZM9.73866 22.7495L9.88866 22.7498L9.88866 22.749L9.73866 22.7495ZM9.75422 22.9614L9.61081 23.0054L9.63056 23.0698L9.69184 23.0978L9.75422 22.9614ZM11.1078 15.0756L11.2577 15.0706L10.9578 15.0759L11.1078 15.0756ZM11.1114 16.7568L11.2614 16.7566L11.2614 16.7564L11.1114 16.7568ZM11.1264 16.9881L11.2677 16.9376L11.2656 16.9322L11.1264 16.9881ZM11.1662 17.0995L11.025 17.15L11.0251 17.1502L11.1662 17.0995ZM11.1826 17.4862L11.0329 17.4967L11.0333 17.5003L11.1826 17.4862ZM11.04 17.5639L11.0339 18.8077L11.3339 18.8092L11.34 17.5654L11.04 17.5639ZM11.0341 18.8011C11.0331 18.8206 11.03 18.8411 11.0251 18.8694C11.0207 18.8952 11.0142 18.9306 11.011 18.9672L11.3099 18.9933C11.3117 18.9721 11.3155 18.951 11.3208 18.9201C11.3257 18.8917 11.3318 18.8552 11.3337 18.8158L11.0341 18.8011ZM11.011 18.9668L10.9693 19.4312L11.2681 19.4581L11.3098 18.9937L11.011 18.9668ZM10.97 19.4246C10.951 19.5663 10.9586 19.7192 10.9585 19.8375L11.2585 19.8376C11.2586 19.6966 11.2518 19.58 11.2674 19.4647L10.97 19.4246ZM10.9585 19.8376L10.9588 23.0515L11.2588 23.0514L11.2585 19.8376L10.9585 19.8376ZM10.9588 23.0512C10.9587 23.0764 10.9594 23.1021 10.9599 23.1254C10.9604 23.1494 10.9608 23.1715 10.9606 23.193C10.9603 23.2366 10.9573 23.2707 10.9504 23.2983L11.2414 23.3713C11.2568 23.3098 11.2602 23.2483 11.2606 23.1955C11.2609 23.1689 11.2603 23.1426 11.2598 23.1187C11.2593 23.0941 11.2587 23.0725 11.2588 23.0517L10.9588 23.0512ZM10.9499 23.3004L10.9452 23.3201L11.2372 23.3889L11.2419 23.3692L10.9499 23.3004ZM10.9493 23.3061C10.9357 23.3459 10.8895 23.3923 10.8224 23.4245L10.952 23.695C11.055 23.6457 11.1828 23.5505 11.2332 23.403L10.9493 23.3061ZM10.8211 23.4251L10.8058 23.4326L10.938 23.7019L10.9533 23.6944L10.8211 23.4251ZM10.8082 23.4315C10.7403 23.4633 10.6097 23.4767 10.4407 23.476C10.3608 23.4757 10.2796 23.4725 10.2022 23.4692C10.1264 23.466 10.0517 23.4626 9.99062 23.4625L9.99032 23.7625C10.0436 23.7626 10.1106 23.7656 10.1895 23.7689C10.2667 23.7722 10.3532 23.7757 10.4395 23.776C10.6029 23.7767 10.7987 23.7673 10.9356 23.7031L10.8082 23.4315ZM9.99069 23.4625L9.66962 23.462L9.66918 23.762L9.99025 23.7625L9.99069 23.4625ZM9.67009 23.462C9.46872 23.4611 9.40827 23.4277 9.3853 23.4027C9.35932 23.3745 9.33638 23.3112 9.33616 23.1275L9.03616 23.1278C9.03637 23.3045 9.051 23.4824 9.16451 23.6058C9.28103 23.7325 9.46198 23.7611 9.66871 23.762L9.67009 23.462ZM9.33616 23.1276V21.0872H9.03616V23.1276H9.33616ZM9.33616 21.0871C9.33581 20.5754 9.33885 20.2736 9.25823 19.7592L8.96185 19.8056C9.03849 20.2947 9.03581 20.5755 9.03616 21.0873L9.33616 21.0871ZM9.25819 19.7589L8.87954 17.3681L8.58323 17.415L8.96189 19.8059L9.25819 19.7589ZM8.88036 17.3741L8.72881 16.082L8.43086 16.117L8.5824 17.4091L8.88036 17.3741ZM8.72949 16.0893C8.71336 15.8535 8.72395 15.6154 8.72407 15.3631L8.42407 15.3629C8.42396 15.5977 8.41313 15.8604 8.43019 16.1097L8.72949 16.0893ZM8.72407 15.3638L8.72878 14.5284L8.42878 14.5267L8.42407 15.3621L8.72407 15.3638ZM8.7286 14.5349C8.7415 14.2717 8.78126 13.9938 8.84014 13.736L8.54767 13.6692C8.48514 13.943 8.44278 14.2383 8.42896 14.5202L8.7286 14.5349ZM8.84014 13.736C8.91247 13.4193 8.98328 13.1605 9.04578 12.9257C9.10798 12.692 9.1625 12.4799 9.19931 12.2638C9.27398 11.8254 9.27423 11.3795 9.1405 10.6848L8.84591 10.7416C8.9743 11.4085 8.97102 11.8174 8.90357 12.2134C8.86932 12.4145 8.81814 12.6146 8.75587 12.8485C8.69389 13.0814 8.62146 13.3461 8.54767 13.6692L8.84014 13.736ZM9.1405 10.6848C9.0472 10.2002 8.89213 9.726 8.7569 9.26828L8.46919 9.35327C8.60786 9.82264 8.75621 10.2756 8.84591 10.7416L9.1405 10.6848ZM8.75821 9.273L8.41757 7.96392L8.12724 8.03947L8.46788 9.34855L8.75821 9.273ZM8.41883 7.96915C8.32572 7.55022 8.24354 7.02351 8.22368 6.59476L7.924 6.60864C7.94488 7.05923 8.03028 7.60366 8.12598 8.03424L8.41883 7.96915ZM8.22384 6.60152L8.22129 4.45275L7.92129 4.45311L7.92384 6.60188L8.22384 6.60152ZM8.22129 4.45311C8.2227 3.3058 8.47574 2.67096 8.91251 1.57663L8.63388 1.46542C8.19596 2.56262 7.92278 3.24365 7.92129 4.45274L8.22129 4.45311ZM8.91251 1.57662C8.942 1.50273 8.97628 1.39878 9.0126 1.29366C9.05003 1.18535 9.09171 1.06939 9.1391 0.960028C9.18684 0.849836 9.2379 0.752245 9.29219 0.678539C9.34803 0.602735 9.39575 0.567968 9.43157 0.556837L9.34253 0.270355C9.21796 0.309071 9.12263 0.402889 9.05065 0.500615C8.97712 0.60044 8.91557 0.721324 8.86382 0.840759C8.81171 0.961026 8.76701 1.08584 8.72906 1.19568C8.69 1.3087 8.65989 1.40025 8.63388 1.46542L8.91251 1.57662ZM9.43264 0.556498L9.44603 0.552227L9.35483 0.266424L9.34145 0.270695L9.43264 0.556498ZM9.44282 0.553213C9.47172 0.544698 9.51385 0.546284 9.5779 0.564475C9.64868 0.584577 9.69879 0.608503 9.78073 0.636887L9.87893 0.353412C9.8321 0.337192 9.7369 0.297767 9.65986 0.275888C9.5761 0.252098 9.46791 0.233074 9.35804 0.265439L9.44282 0.553213ZM9.78073 0.636885C11.0739 1.0849 12.7346 1.06871 14.0537 0.691587L13.9712 0.403144C12.7027 0.765811 11.1058 0.77845 9.87893 0.353414L9.78073 0.636885ZM14.0537 0.691588C14.141 0.666607 14.2363 0.630311 14.3158 0.602751C14.4007 0.573361 14.4753 0.550924 14.543 0.541942L14.5035 0.244549C14.404 0.257757 14.3053 0.288899 14.2176 0.31928C14.1247 0.351492 14.0481 0.38116 13.9712 0.403144L14.0537 0.691588ZM14.543 0.541942C14.6073 0.533406 14.6723 0.570194 14.7495 0.723109C14.785 0.793459 14.815 0.873527 14.8438 0.954803C14.8709 1.03111 14.8994 1.11674 14.9284 1.18L15.2012 1.05527C15.1795 1.00782 15.1575 0.941916 15.1266 0.854606C15.0974 0.772261 15.0621 0.676621 15.0173 0.587917C14.9339 0.422725 14.7787 0.208024 14.5035 0.244549L14.543 0.541942ZM14.9248 1.17152L15.005 1.37995L15.285 1.27219L15.2048 1.06375L14.9248 1.17152ZM15.0016 1.37016C15.0121 1.40417 15.0258 1.43495 15.0369 1.45896C15.0493 1.48573 15.0575 1.50246 15.0649 1.52091L15.3434 1.40921C15.3321 1.38127 15.3181 1.35233 15.3093 1.33311C15.2991 1.31113 15.2926 1.29561 15.2884 1.28198L15.0016 1.37016ZM15.0652 1.52164L15.2137 1.88606L15.4915 1.77289L15.3431 1.40848L15.0652 1.52164ZM15.2141 1.88704C15.5988 2.81276 15.7814 3.50055 15.7847 4.50073L16.0847 4.49973C16.0812 3.45057 15.8866 2.72349 15.4911 1.77191L15.2141 1.88704ZM15.7847 4.49991L15.7801 6.7138L16.0801 6.71442L16.0847 4.50054L15.7847 4.49991ZM15.7803 6.70605C15.7461 7.34073 15.6257 8.00062 15.4464 8.61045L15.7343 8.69504C15.9194 8.06511 16.0443 7.38223 16.0799 6.72217L15.7803 6.70605ZM15.4464 8.61045C15.2555 9.25997 14.9913 9.98853 14.8433 10.715C14.6943 11.4468 14.6561 12.204 14.9261 12.9317L15.2074 12.8273C14.9648 12.1737 14.9937 11.4799 15.1373 10.7748C15.282 10.0644 15.5358 9.37029 15.7343 8.69504L15.4464 8.61045ZM14.9213 12.9161L15.0933 13.5992L15.3842 13.5259L15.2122 12.8429L14.9213 12.9161ZM15.0913 13.5901C15.1623 13.9705 15.236 14.4434 15.2741 14.9125C15.3124 15.3839 15.3139 15.8414 15.2457 16.1955L15.5403 16.2522C15.6161 15.8582 15.6121 15.3687 15.5731 14.8882C15.5339 14.4055 15.4584 13.9218 15.3862 13.535L15.0913 13.5901ZM15.2457 16.1955C15.2188 16.3353 15.2059 16.4773 15.1954 16.6129C15.1847 16.751 15.1765 16.8804 15.1596 17.0073L15.457 17.0469C15.4753 16.9094 15.4843 16.7681 15.4945 16.6361C15.5049 16.5016 15.5168 16.3742 15.5403 16.2522L15.2457 16.1955ZM15.1602 17.0035L14.808 19.2129L15.1042 19.2602L15.4564 17.0507L15.1602 17.0035ZM14.8078 19.2138C14.803 19.2456 14.7997 19.2852 14.7966 19.3178C14.7932 19.3534 14.7896 19.3872 14.7841 19.4186C14.7785 19.4506 14.7719 19.4741 14.765 19.4901C14.7579 19.5065 14.7546 19.5052 14.7615 19.5004L14.9314 19.7477C14.9872 19.7094 15.02 19.6559 15.0401 19.6097C15.0604 19.5631 15.072 19.5137 15.0796 19.4703C15.0873 19.4263 15.0918 19.3824 15.0952 19.346C15.099 19.3066 15.1012 19.2799 15.1044 19.2593L14.8078 19.2138ZM14.6977 19.6432L14.7058 19.7058L15.0033 19.6675L14.9953 19.6049L14.6977 19.6432ZM14.707 19.6599C14.6967 19.7163 14.7017 19.7678 14.7059 19.8034C14.7107 19.8449 14.714 19.8636 14.7139 19.8858L15.0138 19.8876C15.0141 19.8412 15.0067 19.7932 15.0038 19.7684C15.0002 19.7379 15.0003 19.7236 15.0021 19.7134L14.707 19.6599ZM14.7139 19.8855L14.6863 23.2923L14.9863 23.2948L15.0138 19.8879L14.7139 19.8855ZM14.6863 23.2952C14.6863 23.2969 14.6862 23.297 14.6863 23.296C14.6864 23.2951 14.6866 23.295 14.6861 23.2968C14.6852 23.3002 14.6845 23.3021 14.6819 23.3112C14.6796 23.319 14.6767 23.3293 14.6738 23.3417L14.9664 23.408C14.9672 23.4044 14.9682 23.4009 14.9697 23.3959C14.9708 23.3922 14.9738 23.3823 14.9761 23.3737C14.982 23.3512 14.9866 23.3253 14.9863 23.2919L14.6863 23.2952ZM14.6703 23.3687L14.6688 23.4039L14.9686 23.4163L14.97 23.381L14.6703 23.3687ZM14.7016 23.3164C14.6987 23.32 14.6936 23.3257 14.6825 23.3381C14.673 23.3487 14.6602 23.363 14.6479 23.3782C14.636 23.3929 14.6211 23.4127 14.6087 23.435C14.5982 23.4539 14.5786 23.4932 14.5797 23.5427L14.8797 23.5361C14.88 23.5532 14.8766 23.5658 14.8747 23.5716C14.8736 23.5748 14.8726 23.5771 14.872 23.5785C14.8713 23.5799 14.8709 23.5807 14.8708 23.5809C14.8707 23.581 14.8714 23.5798 14.8734 23.577C14.8753 23.5744 14.8779 23.571 14.8812 23.5668C14.8882 23.5582 14.8963 23.5491 14.9059 23.5383C14.9139 23.5294 14.9263 23.5158 14.9358 23.5039L14.7016 23.3164ZM14.6454 23.4153C14.622 23.4312 14.577 23.4482 14.5043 23.46C14.4343 23.4713 14.3513 23.4759 14.2621 23.4764C14.1734 23.4768 14.0826 23.4732 13.9971 23.4694C13.9137 23.4656 13.8314 23.4614 13.7672 23.4616L13.7678 23.7616C13.8229 23.7615 13.8955 23.7651 13.9836 23.7691C14.0695 23.7729 14.1668 23.7769 14.2637 23.7764C14.3601 23.7759 14.4605 23.771 14.5523 23.7561C14.6416 23.7416 14.7372 23.7156 14.814 23.6635L14.6454 23.4153ZM13.7673 23.4616L13.4406 23.462L13.4411 23.762L13.7677 23.7616L13.7673 23.4616ZM13.4408 23.462C13.2938 23.4621 13.2174 23.4337 13.1767 23.4045C13.1398 23.3781 13.1147 23.3383 13.1002 23.2693C13.0848 23.196 13.0843 23.1035 13.0899 22.9867C13.0952 22.8766 13.1063 22.7413 13.1061 22.6109L12.8061 22.6112C12.8063 22.7321 12.7963 22.8476 12.7903 22.9723C12.7846 23.0904 12.7826 23.2167 12.8066 23.3309C12.8315 23.4494 12.8866 23.5656 13.0018 23.6483C13.1132 23.7282 13.2608 23.7621 13.4409 23.762L13.4408 23.462ZM13.1061 22.6102L13.0965 20.8334L12.7965 20.835L12.8061 22.6118L13.1061 22.6102ZM13.0964 20.8286C13.0941 20.7663 13.0877 20.7056 13.0813 20.6493C13.0748 20.5914 13.0684 20.5396 13.0644 20.4871L12.7653 20.5097C12.7698 20.5694 12.7771 20.6292 12.7832 20.6831C12.7895 20.7385 12.7947 20.7896 12.7966 20.8398L13.0964 20.8286ZM13.0647 20.491L12.9832 18.8401L12.6836 18.8549L12.765 20.5058L13.0647 20.491ZM12.9831 18.8385C12.9593 18.4439 12.9204 18.0646 12.9227 17.6841L12.6227 17.6823C12.6203 18.0759 12.6609 18.4787 12.6836 18.8566L12.9831 18.8385ZM12.9227 17.6841C12.9237 17.5145 12.9393 17.3433 12.9584 17.167C12.9772 16.993 12.9998 16.8108 13.0126 16.63L12.7134 16.6088C12.7011 16.7822 12.6796 16.9543 12.6601 17.1348C12.6408 17.313 12.6238 17.4967 12.6227 17.6823L12.9227 17.6841ZM13.0126 16.63C13.0505 16.0946 13.0627 15.1885 13.0174 14.6455L12.7185 14.6704C12.762 15.1936 12.7505 16.0835 12.7134 16.6088L13.0126 16.63ZM13.0166 14.6381L12.9114 13.8511L12.614 13.8908L12.7193 14.6778L13.0166 14.6381ZM12.9109 13.8476C12.8757 13.6243 12.8464 13.379 12.796 13.1449L12.5027 13.208C12.5508 13.4314 12.577 13.6555 12.6146 13.8943L12.9109 13.8476ZM12.7954 13.1423L12.5933 12.2782L12.3012 12.3465L12.5033 13.2106L12.7954 13.1423ZM12.5952 12.2881L12.185 9.77795L11.8889 9.82633L12.2992 12.3365L12.5952 12.2881ZM12.1854 9.7806C12.1852 9.77889 12.1849 9.77654 12.184 9.76644C12.1833 9.75857 12.1821 9.74549 12.1797 9.73157C12.1762 9.71057 12.165 9.64943 12.1122 9.6041L11.9166 9.83158C11.8991 9.81648 11.8909 9.80039 11.8874 9.79219C11.8842 9.78431 11.8836 9.77955 11.8839 9.78134C11.8842 9.78298 11.8846 9.78603 11.8853 9.79377C11.8856 9.79688 11.886 9.8019 11.8864 9.8064C11.8869 9.81114 11.8876 9.81718 11.8885 9.82368L12.1854 9.7806ZM11.8738 9.66576L11.859 9.70558L12.1404 9.80973L12.1551 9.76991L11.8738 9.66576ZM11.8625 9.69698C11.8097 9.81646 11.7805 9.9476 11.7599 10.0705C11.7495 10.1325 11.7409 10.1945 11.733 10.2533C11.7249 10.3128 11.7174 10.3686 11.7088 10.4216L12.0049 10.4696C12.0143 10.4119 12.0223 10.3519 12.0302 10.2937C12.0383 10.2346 12.0462 10.1769 12.0557 10.1201C12.0749 10.0056 12.0992 9.90356 12.1369 9.81833L11.8625 9.69698ZM11.7094 10.418L11.1709 13.2951L11.4658 13.3503L12.0043 10.4732L11.7094 10.418ZM11.1727 13.2868C11.0288 13.8691 10.9589 14.478 10.9583 15.0754L11.2583 15.0757C11.2589 14.5009 11.3262 13.9162 11.4639 13.3587L11.1727 13.2868ZM10.9584 15.0805L11.0401 17.5696L11.3399 17.5597L11.2582 15.0706L10.9584 15.0805ZM9.62374 21.5585L9.62409 22.9759L9.92409 22.9758L9.92374 21.5584L9.62374 21.5585ZM9.7508 23.124C9.80174 23.132 9.85309 23.1325 9.89643 23.1317C9.94698 23.1307 9.9755 23.1287 10.0141 23.1287L10.014 22.8287C9.976 22.8287 9.92226 22.8311 9.89084 22.8317C9.85221 22.8325 9.82189 22.8315 9.79739 22.8276L9.7508 23.124ZM10.0142 23.1287L10.5051 23.1282L10.5048 22.8282L10.0139 22.8287L10.0142 23.1287ZM10.6509 23.0127C10.6642 22.9564 10.6647 22.8969 10.6637 22.851C10.6624 22.7936 10.6596 22.7672 10.6596 22.7278L10.3596 22.7275C10.3596 22.7652 10.3631 22.8275 10.3638 22.8578C10.3647 22.8996 10.363 22.9268 10.359 22.9437L10.6509 23.0127ZM10.6596 22.7277L10.6607 19.4335L10.3607 19.4334L10.3596 22.7276L10.6596 22.7277ZM10.6607 19.4358C10.6616 19.3784 10.6683 19.3198 10.677 19.255C10.6854 19.1927 10.6963 19.121 10.7026 19.05L10.4037 19.0237C10.3983 19.0856 10.3891 19.1455 10.3797 19.2149C10.3707 19.2818 10.362 19.355 10.3607 19.431L10.6607 19.4358ZM10.7026 19.05C10.7797 18.1705 10.7703 17.6088 10.7142 16.7391L10.4148 16.7584C10.4702 17.6176 10.4792 18.1635 10.4037 19.0237L10.7026 19.05ZM10.7142 16.7391C10.7108 16.6859 10.7133 16.634 10.7124 16.5583C10.7117 16.4915 10.7081 16.4097 10.6861 16.3337L10.398 16.4174C10.4079 16.4515 10.4118 16.4983 10.4125 16.5615C10.413 16.6159 10.4108 16.6956 10.4148 16.7584L10.7142 16.7391ZM10.6859 16.3333L10.6798 16.3124L10.392 16.3969L10.3981 16.4178L10.6859 16.3333ZM10.6814 16.3184C10.6684 16.2659 10.6681 16.2006 10.6638 16.1157L10.3642 16.1307C10.3673 16.192 10.3681 16.3014 10.3903 16.3909L10.6814 16.3184ZM10.664 16.126L10.6956 14.3936L10.3957 14.3882L10.364 16.1205L10.664 16.126ZM10.695 14.405C10.725 14.0879 10.7625 13.7711 10.8208 13.4624L10.526 13.4067C10.4653 13.7285 10.4267 14.0556 10.3963 14.3768L10.695 14.405ZM10.8199 13.4669L11.1166 12.1249L10.8237 12.0601L10.5269 13.4022L10.8199 13.4669ZM11.1182 12.1164L11.4897 9.81081L11.1935 9.76309L10.8221 12.0687L11.1182 12.1164ZM11.4893 9.81305C11.5801 9.29927 11.6158 8.88389 11.6182 8.36335L11.3183 8.36192C11.3159 8.86616 11.2816 9.26453 11.1939 9.76086L11.4893 9.81305ZM11.6183 8.36267L11.6184 7.68905L11.3184 7.68898L11.3183 8.3626L11.6183 8.36267ZM11.6183 7.68408C11.612 7.49293 11.578 7.29606 11.5571 7.12609L11.2593 7.16266C11.2828 7.35368 11.3128 7.5206 11.3185 7.69395L11.6183 7.68408ZM11.5571 7.12635L11.4956 6.61799L11.1977 6.65404L11.2593 7.1624L11.5571 7.12635ZM11.4955 6.61768C11.4776 6.47185 11.4535 6.33811 11.4437 6.19585C11.4342 6.05728 11.4411 5.93468 11.4777 5.83101L11.1949 5.73092C11.1384 5.89076 11.1338 6.06075 11.1444 6.21636C11.1548 6.36827 11.1825 6.5303 11.1978 6.65435L11.4955 6.61768ZM11.4777 5.83102C11.5816 5.53767 11.8179 5.41638 12.0357 5.43194C12.2533 5.44749 12.4698 5.60081 12.5303 5.90784L12.8247 5.84975C12.738 5.41041 12.4101 5.15793 12.0571 5.13271C11.7044 5.1075 11.3437 5.31048 11.1949 5.73092L11.4777 5.83102ZM12.5303 5.90785C12.5648 6.08245 12.5584 6.37245 12.5269 6.68574C12.4957 6.99451 12.4422 7.30768 12.3916 7.51971L12.6834 7.58935C12.7375 7.3627 12.7931 7.03617 12.8253 6.71582C12.8572 6.4 12.8684 6.07147 12.8247 5.84975L12.5303 5.90785ZM12.3916 7.51973C12.3466 7.70817 12.3635 7.92225 12.3635 8.07343L12.6635 8.07335C12.6635 7.88464 12.6493 7.73221 12.6834 7.58934L12.3916 7.51973ZM12.3637 8.08023L12.4135 9.1727L12.7132 9.15902L12.6634 8.06655L12.3637 8.08023ZM12.4148 9.18669L12.5315 10.0187L12.8286 9.97707L12.7119 9.14503L12.4148 9.18669ZM12.5321 10.0226C12.5375 10.0549 12.5406 10.0885 12.5443 10.1288C12.5478 10.1671 12.5519 10.212 12.5596 10.2574L12.8553 10.2069C12.8499 10.1749 12.8467 10.1414 12.843 10.1014C12.8395 10.0632 12.8355 10.0184 12.828 9.97323L12.5321 10.0226ZM12.5594 10.2559L12.7227 11.2718L13.0189 11.2242L12.8556 10.2083L12.5594 10.2559ZM12.7226 11.2714C12.7265 11.2963 12.7289 11.3223 12.7318 11.3547C12.7346 11.3853 12.738 11.4219 12.7444 11.4588L13.0401 11.408C13.036 11.3844 13.0335 11.359 13.0306 11.3274C13.0279 11.2976 13.0247 11.2611 13.0189 11.2246L12.7226 11.2714ZM12.7448 11.4611L12.8216 11.8705L13.1165 11.8151L13.0396 11.4058L12.7448 11.4611ZM12.8208 11.8654C12.8386 11.982 12.8535 12.1413 12.8863 12.2772L13.1779 12.2069C13.149 12.0868 13.1394 11.9645 13.1174 11.8202L12.8208 11.8654ZM12.8863 12.2772L13.0966 13.1502L13.3883 13.0799L13.1779 12.2069L12.8863 12.2772ZM13.0967 13.1507C13.1442 13.3448 13.1856 13.5489 13.2124 13.7445L13.5096 13.7038C13.4811 13.4956 13.4374 13.281 13.3882 13.0795L13.0967 13.1507ZM13.2116 13.7377L13.3075 14.7941L13.6062 14.7669L13.5104 13.7106L13.2116 13.7377ZM13.3071 14.7891C13.3255 15.1097 13.3466 15.3263 13.3363 15.6497L13.6361 15.6592C13.647 15.3185 13.6244 15.0829 13.6066 14.7719L13.3071 14.7891ZM13.3363 15.6497C13.334 15.7227 13.3252 15.7968 13.3152 15.8781C13.3055 15.9573 13.2945 16.0442 13.2908 16.1324L13.5905 16.1452C13.5937 16.0711 13.6029 15.9966 13.613 15.9147C13.6228 15.8348 13.6333 15.7478 13.6361 15.6592L13.3363 15.6497ZM13.2906 16.1383L13.2878 16.9139L13.5878 16.915L13.5906 16.1393L13.2906 16.1383ZM13.288 16.9076C13.2855 16.9619 13.2789 17.0175 13.2708 17.0781C13.263 17.137 13.2537 17.2026 13.2479 17.268L13.5468 17.2942C13.5518 17.2373 13.5599 17.1808 13.5682 17.1175C13.5764 17.056 13.5846 16.9894 13.5877 16.9213L13.288 16.9076ZM13.2473 17.2822L13.2578 18.665L13.5577 18.6628L13.5473 17.28L13.2473 17.2822ZM13.2584 18.678C13.2624 18.7202 13.2692 18.7616 13.2746 18.7964C13.2803 18.833 13.2849 18.8637 13.2871 18.8935L13.5863 18.8716C13.5831 18.828 13.5766 18.786 13.571 18.7499C13.565 18.712 13.56 18.6808 13.5571 18.6498L13.2584 18.678ZM13.2869 18.8916L13.3423 19.8085L13.6418 19.7904L13.5864 18.8735L13.2869 18.8916ZM13.3424 19.8102C13.3482 19.8897 13.3599 19.9688 13.3698 20.0397C13.38 20.1129 13.3885 20.179 13.3908 20.2434L13.6906 20.2326C13.6877 20.1512 13.6771 20.0713 13.6669 19.9983C13.6564 19.923 13.6465 19.8557 13.6417 19.7887L13.3424 19.8102ZM13.3908 20.2402L13.4193 22.1576L13.7193 22.1532L13.6907 20.2357L13.3908 20.2402ZM13.4193 22.1568C13.4216 22.4139 13.4052 22.7144 13.4266 22.9909L13.7257 22.9677C13.7052 22.703 13.7219 22.441 13.7193 22.154L13.4193 22.1568ZM13.5766 23.1293L14.2677 23.1274L14.2669 22.8274L13.5758 22.8293L13.5766 23.1293ZM14.4167 22.9643C14.405 22.8299 14.4116 22.6965 14.4114 22.5433L14.1114 22.5436C14.1115 22.6775 14.1046 22.8388 14.1178 22.9904L14.4167 22.9643ZM14.4114 22.5434L14.4112 20.565L14.1112 20.5651L14.1114 22.5435L14.4114 22.5434ZM14.4112 20.5651C14.4114 19.9978 14.4384 19.671 14.5172 19.1032L14.2201 19.0619C14.1396 19.6413 14.1114 19.982 14.1112 20.565L14.4112 20.5651ZM14.517 19.105L14.9569 16.1948L14.6603 16.1499L14.2203 19.0601L14.517 19.105ZM14.9584 16.1805L14.9822 15.7419L14.6826 15.7257L14.6588 16.1642L14.9584 16.1805ZM14.9821 15.7424C15.0178 15.1221 15.0034 14.5147 14.8734 13.8921L14.5797 13.9534C14.7025 14.5416 14.7174 15.1206 14.6826 15.7252L14.9821 15.7424ZM14.8734 13.8921C14.8202 13.6375 14.7499 13.3856 14.6831 13.1402C14.6158 12.8928 14.5517 12.651 14.5074 12.4076L14.2122 12.4614C14.2592 12.7188 14.3264 12.972 14.3936 13.219C14.4614 13.4678 14.5288 13.7097 14.5797 13.9534L14.8734 13.8921ZM14.5074 12.4076C14.3108 11.3292 14.6157 10.3152 14.9497 9.24763L14.6633 9.15806C14.3323 10.2161 14.0005 11.2995 14.2122 12.4614L14.5074 12.4076ZM14.9497 9.24763C15.1522 8.60022 15.3191 7.95971 15.4282 7.28552L15.132 7.23761C15.0259 7.89359 14.8631 8.51964 14.6633 9.15806L14.9497 9.24763ZM15.4282 7.28552C15.5276 6.6712 15.4941 6.03682 15.4942 5.44291L15.1942 5.4429C15.1941 6.05911 15.2263 6.6546 15.132 7.2376L15.4282 7.28552ZM15.4942 5.44292C15.4942 4.40849 15.5606 3.24801 15.0357 2.24487L14.7699 2.38396C15.2524 3.30604 15.1942 4.3753 15.1942 5.4429L15.4942 5.44292ZM14.8228 2.18754C14.771 2.22018 14.7231 2.25624 14.6804 2.28836C14.6362 2.32165 14.5976 2.35083 14.5574 2.37671L14.7199 2.62887C14.771 2.59594 14.8187 2.55976 14.8609 2.52799C14.9047 2.49504 14.9431 2.46632 14.9828 2.44129L14.8228 2.18754ZM14.5574 2.3767C14.0164 2.72531 13.3111 2.80562 12.6384 2.85551L12.6606 3.15469C13.3265 3.1053 14.1064 3.02422 14.7199 2.62888L14.5574 2.3767ZM12.6372 2.8556L12.2857 2.88446L12.3103 3.18345L12.6618 3.1546L12.6372 2.8556ZM12.2916 2.88409C11.12 2.93457 10.1587 2.77821 9.18497 2.17008L9.02606 2.42453C10.0666 3.07436 11.0934 3.23599 12.3045 3.18381L12.2916 2.88409ZM8.97636 2.22102L8.95407 2.25875L9.21238 2.41133L9.23467 2.37359L8.97636 2.22102ZM8.94906 2.26797C8.64972 2.8668 8.51063 3.57586 8.50976 4.23598L8.80976 4.23638C8.81058 3.61428 8.94228 2.95249 9.2174 2.40211L8.94906 2.26797ZM8.50976 4.23613L8.50912 6.14282L8.80912 6.14292L8.80976 4.23623L8.50976 4.23613ZM8.50912 6.14298C8.50931 6.37461 8.49809 6.63538 8.52115 6.88454L8.81988 6.85689C8.7985 6.62597 8.80932 6.393 8.80912 6.14275L8.50912 6.14298ZM8.52201 6.89183L8.59073 7.37532L8.88774 7.3331L8.81902 6.84961L8.52201 6.89183ZM8.59138 7.37947C8.59556 7.40395 8.59827 7.42771 8.60259 7.45999C8.60657 7.48978 8.61174 7.52506 8.62042 7.56071L8.91191 7.48976C8.90718 7.47033 8.90368 7.44815 8.89994 7.42023C8.89654 7.39479 8.8925 7.36058 8.88709 7.32895L8.59138 7.37947ZM8.62056 7.56129L8.7419 8.0513L9.0331 7.97919L8.91177 7.48918L8.62056 7.56129ZM8.74053 8.04522C8.74342 8.05941 8.74457 8.07156 8.74852 8.09937C8.75177 8.1222 8.75702 8.15544 8.7687 8.18914L9.05214 8.09086C9.05049 8.0861 9.04836 8.07701 9.04553 8.0571C9.04341 8.04218 9.03976 8.01118 9.03447 7.98526L8.74053 8.04522ZM8.76583 8.17992L9.37879 10.3999L9.66797 10.32L9.05501 8.10008L8.76583 8.17992ZM9.38122 10.4078C9.55148 10.9136 9.5949 11.6452 9.53315 12.1718L9.8311 12.2068C9.89671 11.6472 9.85313 10.8694 9.66554 10.3121L9.38122 10.4078ZM9.53315 12.1718C9.49867 12.4658 9.4203 12.7575 9.33311 13.0583C9.24695 13.3556 9.15122 13.6647 9.09061 13.9771L9.38512 14.0343C9.44243 13.7388 9.53278 13.4471 9.62125 13.1419C9.70869 12.8402 9.79348 12.5276 9.8311 12.2068L9.53315 12.1718ZM9.09061 13.9771C8.98695 14.5117 8.9557 15.1618 8.99739 15.7096L9.29652 15.6868C9.25669 15.1634 9.28699 14.5404 9.38512 14.0343L9.09061 13.9771ZM8.99794 15.7154L9.2469 17.8717L9.54492 17.8373L9.29596 15.681L8.99794 15.7154ZM9.24786 17.8787C9.25293 17.9097 9.25596 17.9419 9.25958 17.9804C9.26303 18.0171 9.26705 18.0599 9.27439 18.1031L9.57016 18.0529C9.56498 18.0224 9.56185 17.9904 9.55826 17.9523C9.55485 17.916 9.55095 17.8733 9.54395 17.8304L9.24786 17.8787ZM9.27394 18.1003L9.36826 18.7272L9.66492 18.6826L9.5706 18.0557L9.27394 18.1003ZM9.3684 18.7282C9.39403 18.8913 9.42577 19.0234 9.43914 19.1667L9.73784 19.1388C9.72356 18.9857 9.6855 18.8136 9.66477 18.6816L9.3684 18.7282ZM14.3503 0.907657C12.9396 1.35551 11.6926 1.39294 10.2452 1.06207L10.1783 1.35453C11.6757 1.69681 12.9772 1.65833 14.4411 1.19359L14.3503 0.907657ZM10.2482 1.06279L9.61959 0.90548L9.54676 1.19651L10.1754 1.35381L10.2482 1.06279ZM9.44235 0.999337L9.18852 1.69132L9.47017 1.79463L9.724 1.10265L9.44235 0.999337ZM9.23312 1.85804C9.36162 1.9655 9.51476 2.04227 9.64563 2.10589L9.77679 1.83607C9.64409 1.77157 9.52235 1.70884 9.42557 1.62791L9.23312 1.85804ZM9.63901 2.10246C10.0959 2.35336 10.5994 2.44739 11.0857 2.50659L11.122 2.20879C10.6447 2.15069 10.1883 2.06185 9.78341 1.8395L9.63901 2.10246ZM11.0857 2.50659C11.6442 2.57456 12.3242 2.60833 12.9811 2.53117C13.6357 2.45428 14.2835 2.26541 14.7617 1.87431L14.5718 1.64208C14.1568 1.98149 13.5742 2.15944 12.9461 2.23321C12.3204 2.30671 11.6657 2.27497 11.122 2.20879L11.0857 2.50659ZM14.8068 1.70453L14.5357 0.996958L14.2556 1.10429L14.5267 1.81186L14.8068 1.70453ZM11.8884 5.75333C11.8277 5.79317 11.7971 5.85378 11.7808 5.90194C11.7639 5.95197 11.7559 6.00744 11.7524 6.06111C11.7453 6.16889 11.755 6.29624 11.7708 6.41832C11.8025 6.6624 11.8634 6.91691 11.8964 7.01576L12.181 6.92081C12.1553 6.84391 12.0981 6.60886 12.0683 6.37971C12.0535 6.26518 12.0466 6.16 12.0517 6.08061C12.0543 6.04069 12.0596 6.0139 12.0649 5.99818C12.0709 5.98058 12.0716 5.99193 12.053 6.00417L11.8884 5.75333ZM12.1886 6.96363C12.1875 6.92974 12.1961 6.85165 12.2098 6.73242C12.2227 6.62095 12.2384 6.48536 12.2463 6.3555C12.2539 6.22866 12.2552 6.09328 12.2333 5.98621C12.2225 5.93349 12.2032 5.87174 12.1633 5.82103C12.1176 5.7629 12.0479 5.7243 11.9625 5.72897L11.9789 6.02853C11.9562 6.02977 11.9355 6.01664 11.9275 6.00648C11.9253 6.00375 11.9325 6.01245 11.9394 6.04625C11.9528 6.11222 11.9543 6.21412 11.9468 6.33741C11.9396 6.45769 11.9249 6.58507 11.9118 6.69802C11.8997 6.8032 11.8868 6.91095 11.8887 6.97294L12.1886 6.96363ZM9.924 22.9704L9.92374 21.5584L9.62374 21.5585L9.624 22.9705L9.924 22.9704ZM9.51154 19.024L9.49343 19.0348L9.64732 19.2923L9.66544 19.2815L9.51154 19.024ZM9.42164 19.183C9.4221 19.1865 9.42264 19.1939 9.42329 19.2092C9.42383 19.222 9.42448 19.241 9.42566 19.2588C9.42684 19.2768 9.42887 19.2994 9.43331 19.322C9.43723 19.3419 9.44561 19.3765 9.46745 19.4092L9.71704 19.2428C9.72332 19.2522 9.7261 19.2596 9.72699 19.2622C9.72798 19.2651 9.72805 19.266 9.72769 19.2642C9.72689 19.2601 9.72587 19.2522 9.72501 19.2391C9.72413 19.2259 9.72373 19.2131 9.72302 19.1964C9.72241 19.1822 9.7215 19.1624 9.71911 19.1441L9.42164 19.183ZM9.44226 19.3234L9.44196 19.3412L9.74192 19.3464L9.74222 19.3286L9.44226 19.3234ZM9.44194 19.3426C9.44166 19.3772 9.44665 19.4266 9.45362 19.4701C9.45725 19.4928 9.4619 19.5169 9.46767 19.5395C9.47274 19.5593 9.4812 19.5884 9.49558 19.6147L9.75898 19.4711C9.76303 19.4786 9.76187 19.479 9.75832 19.4651C9.75546 19.454 9.7525 19.4393 9.74983 19.4226C9.7442 19.3875 9.74184 19.3563 9.74193 19.345L9.44194 19.3426ZM9.48182 19.5063L9.47744 19.5237L9.76836 19.597L9.77274 19.5795L9.48182 19.5063ZM9.47329 19.5495C9.46504 19.6628 9.50354 19.741 9.52269 19.7904L9.80242 19.682C9.77568 19.613 9.77016 19.6034 9.7725 19.5712L9.47329 19.5495ZM9.52271 19.7904C9.51851 19.7796 9.51912 19.774 9.51946 19.7809C9.51977 19.7873 9.51958 19.7959 9.51898 19.8124C9.51847 19.8263 9.5176 19.8475 9.51834 19.8688C9.51907 19.8902 9.52154 19.9188 9.53053 19.9489L9.81802 19.8632C9.81924 19.8673 9.81845 19.867 9.81816 19.8585C9.81786 19.8498 9.81818 19.8398 9.81878 19.8233C9.81929 19.8091 9.82014 19.7877 9.81911 19.7664C9.81809 19.7455 9.81499 19.7144 9.8024 19.6819L9.52271 19.7904ZM9.52878 19.9426L9.53985 19.9867L9.83083 19.9137L9.81976 19.8696L9.52878 19.9426ZM9.54174 19.9935C9.57016 20.0876 9.58019 20.1894 9.58277 20.3016C9.58406 20.3576 9.58348 20.4143 9.58283 20.4735C9.58218 20.5319 9.58145 20.593 9.58274 20.6538L9.88267 20.6474C9.88151 20.5924 9.88215 20.5363 9.88281 20.4769C9.88346 20.4183 9.88412 20.3566 9.88269 20.2947C9.87985 20.171 9.86865 20.0383 9.82893 19.9068L9.54174 19.9935ZM9.5827 20.651L9.58866 22.7499L9.88866 22.749L9.8827 20.6502L9.5827 20.651ZM9.58866 22.7492C9.58855 22.8048 9.58093 22.9079 9.61081 23.0054L9.89763 22.9174C9.8849 22.8759 9.88848 22.8378 9.88866 22.7498L9.58866 22.7492ZM9.69184 23.0978L9.71162 23.1068L9.83638 22.834L9.8166 22.825L9.69184 23.0978ZM11.3399 17.5597L11.2577 15.0706L10.9579 15.0805L11.0401 17.5696L11.3399 17.5597ZM10.9578 15.0759L10.9614 16.7571L11.2614 16.7564L11.2578 15.0752L10.9578 15.0759ZM10.9614 16.7569C10.9614 16.7716 10.9608 16.7878 10.9601 16.8088C10.9594 16.8286 10.9587 16.8521 10.9589 16.876C10.9594 16.9214 10.9632 16.9842 10.9872 17.044L11.2656 16.9322C11.263 16.9257 11.2593 16.9087 11.2589 16.8729C11.2587 16.8563 11.2592 16.8389 11.2599 16.8189C11.2605 16.8002 11.2614 16.7778 11.2614 16.7566L10.9614 16.7569ZM10.9852 17.0387L11.025 17.15L11.3075 17.0489L11.2676 16.9376L10.9852 17.0387ZM11.0251 17.1502C11.0356 17.1794 11.039 17.2209 11.0369 17.2855C11.0351 17.3392 11.028 17.4255 11.033 17.4967L11.3322 17.4756C11.3287 17.4247 11.3341 17.3755 11.3367 17.2953C11.339 17.226 11.3385 17.1352 11.3074 17.0487L11.0251 17.1502ZM11.0333 17.5003L11.0407 17.5787L11.3394 17.5505L11.332 17.4721L11.0333 17.5003Z" fill="#1D1515" mask="url(#path-2-outside-1_2742_84264)"/>
<path d="M11.1896 17.5594L11.1822 17.4809C11.1736 17.3588 11.2074 17.2099 11.1658 17.0942L11.126 16.9829C11.0993 16.9165 11.111 16.8233 11.111 16.7515L11.1074 15.0703L11.1896 17.5594Z" fill="#1D1515"/>
<path d="M9.77394 22.9661L9.75416 22.9571C9.73285 22.8876 9.73845 22.817 9.73859 22.7452L9.73264 20.6463C9.72774 20.4147 9.75341 20.1715 9.68527 19.9459L9.67421 19.9018C9.65867 19.8497 9.67927 19.7751 9.66249 19.7319C9.63955 19.6727 9.61754 19.6288 9.62284 19.556L9.62722 19.5386C9.60657 19.5008 9.5915 19.3854 9.59188 19.3395L9.59218 19.3217C9.57055 19.2893 9.57601 19.2029 9.57031 19.1593L9.58843 19.1484C9.60228 19.2018 9.60273 19.2557 9.611 19.31L9.70738 19.9398C9.78158 20.4682 9.77352 21.0223 9.77368 21.5542L9.77394 22.9661Z" fill="#1D1515"/>
</svg>
