<svg width="24" height="24" viewBox="0 0 24 24" fill="none" xmlns="http://www.w3.org/2000/svg">
<mask id="path-1-outside-1_2742_85162" maskUnits="userSpaceOnUse" x="5.69238" y="0.382812" width="12" height="23" fill="black">
<rect fill="white" x="5.69238" y="0.382812" width="12" height="23"/>
<path d="M11.4559 18.5049L10.8204 22.2202C10.788 22.3514 10.672 22.4856 10.5291 22.4924L8.33558 22.4932C8.05479 22.4927 7.88827 22.4538 7.88145 22.1112L7.87674 21.782C7.87397 21.6207 7.8518 21.461 7.84388 21.3L7.63836 18.7583L6.8611 12.6783L6.7167 10.8093L6.71398 9.70445C6.71391 9.34469 6.67674 9.07722 6.70008 8.7029L6.7185 8.35712C6.80173 7.54935 7.02218 6.73534 7.24782 5.95698L7.44528 5.26375L8.28884 2.95082L8.26243 2.93087C8.03715 2.76004 8.10832 2.53804 8.19903 2.32189L8.43141 1.81333C8.61043 1.39234 8.58521 1.34867 9.02705 1.45098L10.5727 1.65047L11.2418 1.66063C11.3509 1.66309 11.4578 1.68084 11.5667 1.68273L12.6326 1.6609C13.3294 1.63777 14.0445 1.64125 14.7301 1.49519L15.1503 1.38907C15.4335 1.33809 15.4808 1.60958 15.5727 1.80651L15.7921 2.28638C15.9321 2.61334 15.9657 2.76156 15.6544 2.99552C15.793 3.17254 15.9385 3.34361 16.0373 3.54801L16.1245 3.73614C16.1574 3.80587 16.1899 3.88473 16.2097 3.9595L16.4236 4.85495C16.4518 4.96124 16.4669 5.08452 16.5083 5.18587C16.593 5.39352 16.6156 5.63127 16.6944 5.84062L16.9392 6.71912C17.1053 7.34713 17.4564 8.8521 17.2658 9.49996C17.2389 9.59125 17.2535 9.70427 17.2552 9.79921L17.2543 11.3016C17.2476 11.6241 17.2105 11.9503 17.1812 12.2715L16.4588 17.9306L16.265 19.794L16.1476 21.3554C16.1225 21.6479 16.1396 21.9432 16.1098 22.2138C16.0717 22.56 15.6569 22.493 15.4196 22.4933L13.7477 22.4935C13.3891 22.4935 13.2313 22.5209 13.1714 22.0818L12.5575 18.4641L12.0769 15.875C12.064 15.8148 12.0561 15.7496 12.0196 15.6988L11.9881 15.6959C11.887 15.7784 11.8318 16.3738 11.8044 16.5211L11.4559 18.5049ZM14.9987 2.0252C14.2253 2.22817 13.4065 2.24083 12.612 2.25966L11.447 2.25917C11.1318 2.25275 10.8104 2.26818 10.4964 2.23823L9.16836 2.06817C9.11 2.05715 9.03982 2.03561 8.98107 2.03498L8.84818 2.35047C8.67947 2.70684 8.624 2.64311 9.13043 2.76585L10.5056 2.99948C10.6345 3.01394 10.7671 3.01445 10.8967 3.0224L11.6777 3.06283C11.805 3.06721 11.9307 3.09372 12.0573 3.09698L13.2686 3.09627C13.7619 3.07384 14.8504 2.98077 15.2076 2.71916L15.3038 2.64477L15.1437 2.27987C15.1088 2.19511 15.0786 2.10128 15.0323 2.02233L14.9987 2.0252ZM8.78921 3.25724L7.85555 5.90762C8.52767 6.01523 9.22615 6.15358 9.84854 6.43959C10.9332 6.93801 11.6882 7.86215 11.8475 9.05441L11.8861 9.3337C11.9001 9.48843 11.9153 9.96386 12.1056 9.60137L12.1136 9.5867C12.1691 9.48067 12.139 9.24913 12.1388 9.12686C12.1372 8.35832 12.4011 7.72642 12.9685 7.18577C13.6264 6.57733 14.4466 6.22117 15.322 6.06159L15.897 5.9665C15.9715 5.95359 16.0524 5.94719 16.1239 5.92192C15.9868 5.49866 15.8899 5.06069 15.785 4.62855C15.6687 4.14916 15.5664 3.72203 15.1955 3.36316C14.6193 3.59587 13.9469 3.63189 13.3328 3.66367L12.4181 3.68758L11.3777 3.64682C11.2854 3.64134 11.1946 3.62432 11.1023 3.61635L10.2008 3.52016L8.78921 3.25724ZM7.71458 6.47913C7.56315 6.92491 7.42634 7.51516 7.35971 7.97247L7.27718 8.63901C7.22089 8.99962 7.29736 9.18077 7.30048 9.47833L7.30587 11.1365C7.30929 11.2161 7.33055 11.2896 7.3366 11.3668L7.3838 12.0037C7.39789 12.1481 7.39606 12.2958 7.42029 12.4388L8.28781 19.6115L10.6556 19.6092L10.7589 19.0846L11.5187 14.7216C11.5585 14.4251 11.5688 14.1292 11.593 13.8318L11.7149 12.6595C11.7372 12.3624 11.7198 12.0507 11.7191 11.7519L11.6863 11.0819C11.6798 11.0074 11.6847 10.937 11.6642 10.8642L11.3549 9.61895C11.2934 9.31872 11.2697 9.01288 11.1904 8.71602C10.8557 7.46402 9.66415 6.86523 8.49511 6.61851L7.71458 6.47913ZM16.256 6.50177C15.0321 6.68376 13.5053 7.00823 12.9177 8.24505C12.8091 8.4737 12.7358 8.69582 12.561 8.88541C12.5611 9.02193 12.5815 9.1432 12.6024 9.27684C12.6438 9.54159 12.5821 9.72723 12.5295 9.98809L12.3964 10.5921C12.3249 10.8814 12.2969 10.9891 12.283 11.3072L12.2793 12.2035C12.2795 12.5523 12.2908 12.8639 12.3323 13.2103L12.6084 15.5646C12.6598 15.872 13.2552 19.1162 13.259 19.1196C13.2728 19.2777 13.3092 19.4568 13.3509 19.6109L15.7146 19.6138L16.5895 12.3861L16.6881 10.9867L16.6889 10.1336C16.6835 9.81777 16.64 9.59041 16.7249 9.26962C16.8115 8.94215 16.6773 8.26811 16.6137 7.94432L16.283 6.51135L16.256 6.50177ZM8.35798 20.2111C8.3221 20.2943 8.37003 20.4042 8.37439 20.4894L8.42499 21.4315C8.43073 21.5619 8.41299 21.7444 8.45126 21.8697L10.2748 21.8818L10.3155 21.6368L10.5211 20.4137C10.532 20.3545 10.5528 20.2758 10.5451 20.216L8.35798 20.2111ZM13.4697 20.2127C13.4459 20.2628 13.4615 20.3078 13.4767 20.3592L13.7255 21.8703L15.5401 21.8752C15.5452 21.8396 15.5513 21.8045 15.5503 21.7684L15.6523 20.2139L13.4697 20.2127Z"/>
</mask>
<path d="M11.4559 18.5049L10.8204 22.2202C10.788 22.3514 10.672 22.4856 10.5291 22.4924L8.33558 22.4932C8.05479 22.4927 7.88827 22.4538 7.88145 22.1112L7.87674 21.782C7.87397 21.6207 7.8518 21.461 7.84388 21.3L7.63836 18.7583L6.8611 12.6783L6.7167 10.8093L6.71398 9.70445C6.71391 9.34469 6.67674 9.07722 6.70008 8.7029L6.7185 8.35712C6.80173 7.54935 7.02218 6.73534 7.24782 5.95698L7.44528 5.26375L8.28884 2.95082L8.26243 2.93087C8.03715 2.76004 8.10832 2.53804 8.19903 2.32189L8.43141 1.81333C8.61043 1.39234 8.58521 1.34867 9.02705 1.45098L10.5727 1.65047L11.2418 1.66063C11.3509 1.66309 11.4578 1.68084 11.5667 1.68273L12.6326 1.6609C13.3294 1.63777 14.0445 1.64125 14.7301 1.49519L15.1503 1.38907C15.4335 1.33809 15.4808 1.60958 15.5727 1.80651L15.7921 2.28638C15.9321 2.61334 15.9657 2.76156 15.6544 2.99552C15.793 3.17254 15.9385 3.34361 16.0373 3.54801L16.1245 3.73614C16.1574 3.80587 16.1899 3.88473 16.2097 3.9595L16.4236 4.85495C16.4518 4.96124 16.4669 5.08452 16.5083 5.18587C16.593 5.39352 16.6156 5.63127 16.6944 5.84062L16.9392 6.71912C17.1053 7.34713 17.4564 8.8521 17.2658 9.49996C17.2389 9.59125 17.2535 9.70427 17.2552 9.79921L17.2543 11.3016C17.2476 11.6241 17.2105 11.9503 17.1812 12.2715L16.4588 17.9306L16.265 19.794L16.1476 21.3554C16.1225 21.6479 16.1396 21.9432 16.1098 22.2138C16.0717 22.56 15.6569 22.493 15.4196 22.4933L13.7477 22.4935C13.3891 22.4935 13.2313 22.5209 13.1714 22.0818L12.5575 18.4641L12.0769 15.875C12.064 15.8148 12.0561 15.7496 12.0196 15.6988L11.9881 15.6959C11.887 15.7784 11.8318 16.3738 11.8044 16.5211L11.4559 18.5049ZM14.9987 2.0252C14.2253 2.22817 13.4065 2.24083 12.612 2.25966L11.447 2.25917C11.1318 2.25275 10.8104 2.26818 10.4964 2.23823L9.16836 2.06817C9.11 2.05715 9.03982 2.03561 8.98107 2.03498L8.84818 2.35047C8.67947 2.70684 8.624 2.64311 9.13043 2.76585L10.5056 2.99948C10.6345 3.01394 10.7671 3.01445 10.8967 3.0224L11.6777 3.06283C11.805 3.06721 11.9307 3.09372 12.0573 3.09698L13.2686 3.09627C13.7619 3.07384 14.8504 2.98077 15.2076 2.71916L15.3038 2.64477L15.1437 2.27987C15.1088 2.19511 15.0786 2.10128 15.0323 2.02233L14.9987 2.0252ZM8.78921 3.25724L7.85555 5.90762C8.52767 6.01523 9.22615 6.15358 9.84854 6.43959C10.9332 6.93801 11.6882 7.86215 11.8475 9.05441L11.8861 9.3337C11.9001 9.48843 11.9153 9.96386 12.1056 9.60137L12.1136 9.5867C12.1691 9.48067 12.139 9.24913 12.1388 9.12686C12.1372 8.35832 12.4011 7.72642 12.9685 7.18577C13.6264 6.57733 14.4466 6.22117 15.322 6.06159L15.897 5.9665C15.9715 5.95359 16.0524 5.94719 16.1239 5.92192C15.9868 5.49866 15.8899 5.06069 15.785 4.62855C15.6687 4.14916 15.5664 3.72203 15.1955 3.36316C14.6193 3.59587 13.9469 3.63189 13.3328 3.66367L12.4181 3.68758L11.3777 3.64682C11.2854 3.64134 11.1946 3.62432 11.1023 3.61635L10.2008 3.52016L8.78921 3.25724ZM7.71458 6.47913C7.56315 6.92491 7.42634 7.51516 7.35971 7.97247L7.27718 8.63901C7.22089 8.99962 7.29736 9.18077 7.30048 9.47833L7.30587 11.1365C7.30929 11.2161 7.33055 11.2896 7.3366 11.3668L7.3838 12.0037C7.39789 12.1481 7.39606 12.2958 7.42029 12.4388L8.28781 19.6115L10.6556 19.6092L10.7589 19.0846L11.5187 14.7216C11.5585 14.4251 11.5688 14.1292 11.593 13.8318L11.7149 12.6595C11.7372 12.3624 11.7198 12.0507 11.7191 11.7519L11.6863 11.0819C11.6798 11.0074 11.6847 10.937 11.6642 10.8642L11.3549 9.61895C11.2934 9.31872 11.2697 9.01288 11.1904 8.71602C10.8557 7.46402 9.66415 6.86523 8.49511 6.61851L7.71458 6.47913ZM16.256 6.50177C15.0321 6.68376 13.5053 7.00823 12.9177 8.24505C12.8091 8.4737 12.7358 8.69582 12.561 8.88541C12.5611 9.02193 12.5815 9.1432 12.6024 9.27684C12.6438 9.54159 12.5821 9.72723 12.5295 9.98809L12.3964 10.5921C12.3249 10.8814 12.2969 10.9891 12.283 11.3072L12.2793 12.2035C12.2795 12.5523 12.2908 12.8639 12.3323 13.2103L12.6084 15.5646C12.6598 15.872 13.2552 19.1162 13.259 19.1196C13.2728 19.2777 13.3092 19.4568 13.3509 19.6109L15.7146 19.6138L16.5895 12.3861L16.6881 10.9867L16.6889 10.1336C16.6835 9.81777 16.64 9.59041 16.7249 9.26962C16.8115 8.94215 16.6773 8.26811 16.6137 7.94432L16.283 6.51135L16.256 6.50177ZM8.35798 20.2111C8.3221 20.2943 8.37003 20.4042 8.37439 20.4894L8.42499 21.4315C8.43073 21.5619 8.41299 21.7444 8.45126 21.8697L10.2748 21.8818L10.3155 21.6368L10.5211 20.4137C10.532 20.3545 10.5528 20.2758 10.5451 20.216L8.35798 20.2111ZM13.4697 20.2127C13.4459 20.2628 13.4615 20.3078 13.4767 20.3592L13.7255 21.8703L15.5401 21.8752C15.5452 21.8396 15.5513 21.8045 15.5503 21.7684L15.6523 20.2139L13.4697 20.2127Z" fill="#1D1515"/>
<path d="M11.4559 18.5049L10.8204 22.2202C10.788 22.3514 10.672 22.4856 10.5291 22.4924L8.33558 22.4932C8.05479 22.4927 7.88827 22.4538 7.88145 22.1112L7.87674 21.782C7.87397 21.6207 7.8518 21.461 7.84388 21.3L7.63836 18.7583L6.8611 12.6783L6.7167 10.8093L6.71398 9.70445C6.71391 9.34469 6.67674 9.07722 6.70008 8.7029L6.7185 8.35712C6.80173 7.54935 7.02218 6.73534 7.24782 5.95698L7.44528 5.26375L8.28884 2.95082L8.26243 2.93087C8.03715 2.76004 8.10832 2.53804 8.19903 2.32189L8.43141 1.81333C8.61043 1.39234 8.58521 1.34867 9.02705 1.45098L10.5727 1.65047L11.2418 1.66063C11.3509 1.66309 11.4578 1.68084 11.5667 1.68273L12.6326 1.6609C13.3294 1.63777 14.0445 1.64125 14.7301 1.49519L15.1503 1.38907C15.4335 1.33809 15.4808 1.60958 15.5727 1.80651L15.7921 2.28638C15.9321 2.61334 15.9657 2.76156 15.6544 2.99552C15.793 3.17254 15.9385 3.34361 16.0373 3.54801L16.1245 3.73614C16.1574 3.80587 16.1899 3.88473 16.2097 3.9595L16.4236 4.85495C16.4518 4.96124 16.4669 5.08452 16.5083 5.18587C16.593 5.39352 16.6156 5.63127 16.6944 5.84062L16.9392 6.71912C17.1053 7.34713 17.4564 8.8521 17.2658 9.49996C17.2389 9.59125 17.2535 9.70427 17.2552 9.79921L17.2543 11.3016C17.2476 11.6241 17.2105 11.9503 17.1812 12.2715L16.4588 17.9306L16.265 19.794L16.1476 21.3554C16.1225 21.6479 16.1396 21.9432 16.1098 22.2138C16.0717 22.56 15.6569 22.493 15.4196 22.4933L13.7477 22.4935C13.3891 22.4935 13.2313 22.5209 13.1714 22.0818L12.5575 18.4641L12.0769 15.875C12.064 15.8148 12.0561 15.7496 12.0196 15.6988L11.9881 15.6959C11.887 15.7784 11.8318 16.3738 11.8044 16.5211L11.4559 18.5049ZM14.9987 2.0252C14.2253 2.22817 13.4065 2.24083 12.612 2.25966L11.447 2.25917C11.1318 2.25275 10.8104 2.26818 10.4964 2.23823L9.16836 2.06817C9.11 2.05715 9.03982 2.03561 8.98107 2.03498L8.84818 2.35047C8.67947 2.70684 8.624 2.64311 9.13043 2.76585L10.5056 2.99948C10.6345 3.01394 10.7671 3.01445 10.8967 3.0224L11.6777 3.06283C11.805 3.06721 11.9307 3.09372 12.0573 3.09698L13.2686 3.09627C13.7619 3.07384 14.8504 2.98077 15.2076 2.71916L15.3038 2.64477L15.1437 2.27987C15.1088 2.19511 15.0786 2.10128 15.0323 2.02233L14.9987 2.0252ZM8.78921 3.25724L7.85555 5.90762C8.52767 6.01523 9.22615 6.15358 9.84854 6.43959C10.9332 6.93801 11.6882 7.86215 11.8475 9.05441L11.8861 9.3337C11.9001 9.48843 11.9153 9.96386 12.1056 9.60137L12.1136 9.5867C12.1691 9.48067 12.139 9.24913 12.1388 9.12686C12.1372 8.35832 12.4011 7.72642 12.9685 7.18577C13.6264 6.57733 14.4466 6.22117 15.322 6.06159L15.897 5.9665C15.9715 5.95359 16.0524 5.94719 16.1239 5.92192C15.9868 5.49866 15.8899 5.06069 15.785 4.62855C15.6687 4.14916 15.5664 3.72203 15.1955 3.36316C14.6193 3.59587 13.9469 3.63189 13.3328 3.66367L12.4181 3.68758L11.3777 3.64682C11.2854 3.64134 11.1946 3.62432 11.1023 3.61635L10.2008 3.52016L8.78921 3.25724ZM7.71458 6.47913C7.56315 6.92491 7.42634 7.51516 7.35971 7.97247L7.27718 8.63901C7.22089 8.99962 7.29736 9.18077 7.30048 9.47833L7.30587 11.1365C7.30929 11.2161 7.33055 11.2896 7.3366 11.3668L7.3838 12.0037C7.39789 12.1481 7.39606 12.2958 7.42029 12.4388L8.28781 19.6115L10.6556 19.6092L10.7589 19.0846L11.5187 14.7216C11.5585 14.4251 11.5688 14.1292 11.593 13.8318L11.7149 12.6595C11.7372 12.3624 11.7198 12.0507 11.7191 11.7519L11.6863 11.0819C11.6798 11.0074 11.6847 10.937 11.6642 10.8642L11.3549 9.61895C11.2934 9.31872 11.2697 9.01288 11.1904 8.71602C10.8557 7.46402 9.66415 6.86523 8.49511 6.61851L7.71458 6.47913ZM16.256 6.50177C15.0321 6.68376 13.5053 7.00823 12.9177 8.24505C12.8091 8.4737 12.7358 8.69582 12.561 8.88541C12.5611 9.02193 12.5815 9.1432 12.6024 9.27684C12.6438 9.54159 12.5821 9.72723 12.5295 9.98809L12.3964 10.5921C12.3249 10.8814 12.2969 10.9891 12.283 11.3072L12.2793 12.2035C12.2795 12.5523 12.2908 12.8639 12.3323 13.2103L12.6084 15.5646C12.6598 15.872 13.2552 19.1162 13.259 19.1196C13.2728 19.2777 13.3092 19.4568 13.3509 19.6109L15.7146 19.6138L16.5895 12.3861L16.6881 10.9867L16.6889 10.1336C16.6835 9.81777 16.64 9.59041 16.7249 9.26962C16.8115 8.94215 16.6773 8.26811 16.6137 7.94432L16.283 6.51135L16.256 6.50177ZM8.35798 20.2111C8.3221 20.2943 8.37003 20.4042 8.37439 20.4894L8.42499 21.4315C8.43073 21.5619 8.41299 21.7444 8.45126 21.8697L10.2748 21.8818L10.3155 21.6368L10.5211 20.4137C10.532 20.3545 10.5528 20.2758 10.5451 20.216L8.35798 20.2111ZM13.4697 20.2127C13.4459 20.2628 13.4615 20.3078 13.4767 20.3592L13.7255 21.8703L15.5401 21.8752C15.5452 21.8396 15.5513 21.8045 15.5503 21.7684L15.6523 20.2139L13.4697 20.2127Z" stroke="#1D1515" stroke-width="0.3" mask="url(#path-1-outside-1_2742_85162)"/>
</svg>
