<svg width="16" height="16" viewBox="0 0 16 16" fill="none" xmlns="http://www.w3.org/2000/svg">
<path d="M10.5714 7.99998C10.5714 9.42014 9.42016 10.5714 8 10.5714C6.57984 10.5714 5.42857 9.42014 5.42857 7.99998C5.42857 6.57982 6.57984 5.42855 8 5.42855C9.42016 5.42855 10.5714 6.57982 10.5714 7.99998ZM10.5714 7.99998L10.5714 8.85714C10.5714 9.80392 11.3389 10.5714 12.2857 10.5714C12.8939 10.5714 13.4281 10.2547 13.7324 9.77723C13.9018 9.51139 14 9.19573 14 8.85714V8C14 4.68629 11.3137 2 8 2C4.68629 2 2 4.68629 2 8C2 11.3137 4.68629 14 8 14C9.27478 14 10.4567 13.6024 11.4286 12.9246" stroke="#5D6063" stroke-linecap="round" stroke-linejoin="round"/>
</svg>
