<svg width="24" height="24" viewBox="0 0 24 24" fill="none" xmlns="http://www.w3.org/2000/svg">
<path d="M12.9906 6.14062C13.2513 8.21375 13.9725 9.37124 12.5301 10.7015C9.89751 13.1374 7.6993 17.5082 4.31945 17.6292C3.50272 17.6205 2.79026 17.4391 2.26894 18.2338C1.6173 19.2359 2.0691 20.998 4.51928 20.998H8.17717C9.56735 20.998 10.0539 21.0585 12.087 19.6764C13.8247 18.5103 15.6407 17.4737 17.7085 16.8863C21.2882 15.867 21.74 13.9926 20.0631 11.1248C19.229 9.70812 19.1248 7.95461 19.203 6.14062" stroke="#1D1515" stroke-width="1.25" stroke-miterlimit="22.9256" stroke-linecap="round" stroke-linejoin="round"/>
<path d="M19.9588 10.9375C17.2827 11.8445 16.188 14.7469 17.7085 16.8891" stroke="#1D1515" stroke-width="1.25" stroke-miterlimit="22.9256" stroke-linecap="round" stroke-linejoin="round"/>
<path d="M19.4988 9.79723C17.1789 10.1341 15.0937 9.87498 13.3994 8.8125" stroke="#1D1515" stroke-width="1.25" stroke-miterlimit="22.9256" stroke-linecap="round" stroke-linejoin="round"/>
<path d="M4.5625 17.6172C4.5625 19.1634 8.17695 19.4484 8.30728 21.0033" stroke="#1D1515" stroke-width="1.25" stroke-miterlimit="22.9256" stroke-linecap="round" stroke-linejoin="round"/>
<path d="M19.4284 4L12.8338 4C12.5459 4 12.3125 4.26685 12.3125 4.59602V5.5462C12.3125 5.87538 12.5459 6.14223 12.8338 6.14223L19.4284 6.14223C19.7164 6.14223 19.9498 5.87538 19.9498 5.5462V4.59602C19.9498 4.26685 19.7164 4 19.4284 4Z" stroke="#1D1515" stroke-width="1.25" stroke-miterlimit="22.9256" stroke-linecap="round" stroke-linejoin="round"/>
</svg>
