<svg width="24" height="24" viewBox="0 0 24 24" fill="none" xmlns="http://www.w3.org/2000/svg">
<path d="M15.3662 19.0055C14.3785 19.0078 14.0178 18.5983 13.919 17.6458C13.1136 17.2393 13.2348 16.0079 13.3239 15.233L13.3631 14.9448C13.377 14.8332 13.3625 14.8268 13.2988 14.7335L12.9056 14.2088C12.6375 13.8547 12.3746 13.4858 12.1504 13.102L11.9847 12.7883L10.6303 14.8122C10.6 14.8595 10.6205 14.8954 10.6262 14.9495L10.6637 15.2606C10.7464 15.9783 10.9027 17.0852 10.2002 17.5698L10.1594 17.5983C10.0044 17.7133 10.0931 17.7788 10.0641 17.9678C10.0136 18.2958 9.81764 18.6247 9.54633 18.8185C9.2337 19.0418 8.87876 19.0053 8.51719 19.0056L6.63103 19.0057C5.8384 19.0056 5.43023 18.8081 5.1843 17.9673C5.14416 17.8301 5.18466 17.8114 5.06576 17.7155C4.50042 17.2594 4.40184 16.4478 4.49691 15.7724C4.5431 15.4441 4.59422 15.0301 4.75209 14.7321C4.77098 14.6965 4.62773 13.9984 4.60852 13.8985L4.2832 12.4616C4.21036 12.1065 4.13674 11.7445 4.09387 11.3843L4.01548 10.3385C3.91493 8.24648 5.14566 5.99749 7.42699 5.89636C7.89452 5.86111 8.42562 5.99175 8.84559 6.1979C10.474 6.99729 10.889 8.6583 10.633 10.308C10.8003 10.3135 10.9761 10.2922 11.141 10.3238C11.41 10.3753 11.7602 10.5696 11.9189 10.8068L12.0009 10.9241C12.3209 10.4515 12.7541 10.2498 13.3287 10.3072L13.2788 9.4957C13.2087 7.78851 14.3075 6.105 16.0902 5.91159C17.6462 5.74279 18.9173 6.70479 19.5552 8.0722C19.6395 8.25307 19.7242 8.4505 19.7726 8.64454L19.8198 8.80748C19.9851 9.61476 20.024 10.4025 19.9228 11.217L19.7083 12.5381L19.2488 14.6775C19.2332 14.7549 19.2949 14.834 19.317 14.9066C19.4486 15.3381 19.6221 16.2186 19.515 16.6062L19.4628 16.8335C19.3909 17.1813 19.1913 17.5168 18.9098 17.7357C18.8146 17.8097 18.8675 17.8572 18.8374 17.9645C18.7007 18.4519 18.39 18.9092 17.8513 18.9882L17.8359 18.9903C17.7156 19.0092 17.5942 19.0055 17.4727 19.0055L15.3662 19.0055ZM7.33669 6.5404C5.45559 6.68154 4.63802 8.57693 4.63887 10.2464C4.63905 10.6087 4.66411 11.1191 4.74787 11.4711L4.98654 12.7064C5.00309 12.7612 5.00852 12.8168 5.02148 12.8719L5.20898 13.74C5.28769 14.1054 5.37199 14.4825 5.38104 14.8572L9.98972 14.8636C9.99403 14.7893 9.99989 14.7225 10.0204 14.6506L10.026 14.6302C10.1129 14.3321 10.3921 14.1233 10.5559 13.8668L11.0539 13.1158C11.2347 12.8298 11.4338 12.5258 11.5473 12.2058C11.7243 11.7069 11.6024 11.0977 11.0156 10.9518L10.9927 10.946C10.83 10.9054 10.6326 10.9447 10.4784 11.0042L10.4623 11.0102C10.0836 11.1554 9.76179 11.5576 9.5527 11.8909C9.48755 11.9947 9.43849 12.1244 9.34901 12.2096C9.05869 12.4858 8.71282 12.1135 8.87196 11.79C9.03858 11.4514 9.44016 10.9593 9.73713 10.7283C9.87 10.6249 9.93504 10.6407 9.9645 10.4705L10.0023 10.254C10.1134 9.60478 10.141 8.94614 9.92972 8.31309C9.56177 7.2108 8.49884 6.46139 7.33669 6.5404ZM16.4266 6.5411C15.8936 6.56512 15.4399 6.70692 15.0006 7.01252C13.9063 7.77396 13.8235 9.052 13.9824 10.2447C14.0473 10.7317 13.9765 10.4723 14.3486 10.7992C14.5747 10.9978 15.2695 11.7668 15.1624 12.0879C15.1008 12.2724 14.9246 12.3522 14.7456 12.2729C14.5855 12.2019 14.3142 11.6924 14.1876 11.5327C13.8961 11.1652 13.4075 10.8193 12.9177 10.9677C12.6152 11.0594 12.4168 11.3282 12.3747 11.6331L12.3719 11.6519C12.2726 12.3802 13.1098 13.4856 13.5418 13.9949C13.6994 14.2147 13.858 14.3932 13.9753 14.6394C14.0073 14.7065 13.9975 14.7852 14.0198 14.8564L18.6092 14.8572C18.6857 14.0403 18.9033 13.2578 19.0782 12.4592L19.2847 11.224C19.4649 9.81358 19.3613 8.59647 18.4044 7.4392C18.0283 6.98423 17.3709 6.59915 16.7679 6.55052L16.4266 6.5411ZM5.19405 15.4929C5.14533 15.604 5.12313 15.8373 5.10914 15.9654C5.08788 16.1599 5.11573 17.1073 5.38413 17.1157L9.3731 17.1163C9.61943 17.1162 9.72961 17.1436 9.90731 16.9521C10.165 16.6334 10.1129 16.3329 10.0922 15.9434C10.085 15.8078 10.0919 15.6703 10.0807 15.535L10.0731 15.4954L5.19405 15.4929ZM13.9157 15.4928L13.9053 16.2137C13.9043 16.5269 13.886 16.7238 14.1081 16.9722C14.2852 17.1705 14.3906 17.1163 14.635 17.1164L18.4073 17.1168C18.5948 17.1167 18.638 17.1347 18.7433 16.9589C18.9857 16.5166 18.8993 15.9652 18.8243 15.4906L13.9157 15.4928ZM5.9587 17.7532L5.78259 17.7627C5.97101 18.4663 6.20114 18.3799 6.78159 18.3804L8.62734 18.3805C8.83484 18.3802 8.99841 18.409 9.18145 18.2968C9.32871 18.1837 9.41606 18.051 9.44044 17.8652L9.44941 17.7598L5.9587 17.7532ZM14.6205 17.7532L14.5723 17.7567C14.5526 17.7816 14.5594 17.8071 14.5643 17.8381L14.5784 17.9038C14.6818 18.421 15.0739 18.3803 15.4622 18.3806L17.5482 18.3798C17.7576 18.3794 17.8384 18.3702 17.9996 18.2392C18.1106 18.1008 18.2012 17.9432 18.21 17.761L14.6205 17.7532Z" fill="#1D1515" stroke="#1D1515" stroke-width="0.3"/>
<path d="M7.71444 16.582C7.66023 16.5814 7.59838 16.5857 7.54801 16.5636L7.53514 16.5576C7.22176 16.4277 7.28703 16.0141 7.60988 15.9375C8.04331 15.9521 8.10052 16.4656 7.71444 16.582Z" fill="#1D1515" stroke="#1D1515" stroke-width="0.3"/>
<path d="M6.20979 16.5932C5.73818 16.6062 5.69295 16.1276 6.08456 15.9484C6.12356 15.9467 6.17325 15.9403 6.20991 15.9533L6.24286 15.9653C6.5828 16.0888 6.50672 16.4831 6.20979 16.5932Z" fill="#1D1515" stroke="#1D1515" stroke-width="0.3"/>
<path d="M9.24963 16.5796C8.85844 16.6516 8.65615 16.1555 9.07519 15.9493C9.50806 15.8949 9.63035 16.415 9.24963 16.5796Z" fill="#1D1515" stroke="#1D1515" stroke-width="0.3"/>
<path d="M14.931 16.5805C14.8634 16.5878 14.7859 16.5911 14.7222 16.5638L14.7073 16.5571C14.6176 16.5172 14.5461 16.4465 14.5298 16.3452L14.5274 16.3286C14.4957 16.1393 14.5942 16.0288 14.7575 15.9497C14.9095 15.9275 15.0978 15.9886 15.1378 16.1549L15.1414 16.1704C15.1903 16.3572 15.0963 16.4959 14.931 16.5805Z" fill="#1D1515" stroke="#1D1515" stroke-width="0.3"/>
<path d="M16.4087 16.581C15.9533 16.6287 15.8362 16.144 16.2342 15.9515C16.6734 15.8837 16.7925 16.3946 16.4087 16.581Z" fill="#1D1515" stroke="#1D1515" stroke-width="0.3"/>
<path d="M17.8439 16.5939C17.3918 16.5708 17.3733 16.0655 17.8017 15.9538C17.841 15.9509 17.8711 15.9579 17.9089 15.9688L17.9303 15.9752C18.0951 16.0231 18.1587 16.1478 18.134 16.3162L18.1264 16.3627C18.1097 16.4342 18.0502 16.5144 17.9869 16.5505L17.9762 16.5563C17.9326 16.5808 17.8931 16.5869 17.8439 16.5939Z" fill="#1D1515" stroke="#1D1515" stroke-width="0.3"/>
</svg>
