<svg width="24" height="24" viewBox="0 0 24 24" fill="none" xmlns="http://www.w3.org/2000/svg">
<path fill-rule="evenodd" clip-rule="evenodd" d="M18.3578 18.3578C16.7339 19.9817 14.4771 21 12 21C9.52294 21 7.26606 19.9817 5.6422 18.3578C4.01835 16.7339 3 14.4771 3 12C3 9.52294 4.01835 7.26606 5.6422 5.6422C7.26606 4.01835 9.52294 3 12 3C14.4771 3 16.7339 4.01835 18.3578 5.6422C19.9817 7.26606 21 9.52294 21 12C21 14.4771 19.9817 16.7339 18.3578 18.3578Z" stroke="#1D1515" stroke-width="1.25" stroke-miterlimit="22.9256" stroke-linejoin="round"/>
<path d="M17.7238 5.0625C15.522 5.33773 13.3477 7.75975 12.9348 9.79644C12.0816 13.8698 16.6504 15.3561 15.7972 20.1451" stroke="#1D1515" stroke-width="1.25" stroke-miterlimit="22.9256" stroke-linejoin="round"/>
<path d="M14.0082 3.25C12.6045 3.44266 11.311 4.18578 9.96233 5.83716C6.02655 12.0023 15.6596 15.305 13.3477 20.8922" stroke="#1D1515" stroke-width="1.25" stroke-miterlimit="22.9256" stroke-linejoin="round"/>
<path d="M6.82624 4.64844C1.92715 11.7494 14.0648 15.9053 10.6519 20.887" stroke="#1D1515" stroke-width="1.25" stroke-miterlimit="22.9256" stroke-linejoin="round"/>
</svg>
