<svg width="24" height="24" viewBox="0 0 24 24" fill="none" xmlns="http://www.w3.org/2000/svg">
<path fill-rule="evenodd" clip-rule="evenodd" d="M3 16.521L3 3.45503C3 3.21127 3.21431 3 3.4616 3L7.74789 3C8.01167 3 8.22598 3.21127 8.22598 3.45503L8.22598 16.521C6.95658 15.2209 4.2694 15.2209 3 16.521Z" stroke="#1D1515" stroke-width="1.25" stroke-miterlimit="22.9256" stroke-linejoin="round"/>
<path d="M4.00272 19.0389C3.89792 19.9143 4.53281 20.7077 5.4208 20.811C6.3088 20.9143 7.11362 20.2884 7.21843 19.4131C7.32324 18.5377 6.68834 17.7444 5.80035 17.6411C4.91236 17.5377 4.10753 18.1636 4.00272 19.0389Z" stroke="#1D1515" stroke-width="1.25" stroke-miterlimit="22.9256" stroke-linejoin="round"/>
<path d="M8.22515 11.3711L4.54883 11.3711" stroke="#1D1515" stroke-width="1.25" stroke-miterlimit="22.9256" stroke-linecap="round" stroke-linejoin="round"/>
<path d="M8.22515 7.17578L4.54883 7.17578" stroke="#1D1515" stroke-width="1.25" stroke-miterlimit="22.9256" stroke-linecap="round" stroke-linejoin="round"/>
<path d="M8.20898 9.64661L11.3413 4.28372C11.4732 4.07245 11.7534 3.99119 11.9842 4.1212L15.6935 6.23386C15.9243 6.36387 15.9903 6.64014 15.8749 6.85141L9.24759 18.1785C9.08273 17.5609 8.72004 16.9759 8.22547 16.5209" stroke="#1D1515" stroke-width="1.25" stroke-miterlimit="22.9256" stroke-linecap="round" stroke-linejoin="round"/>
<path d="M15.661 10.539L18.1503 9.10892C18.3811 8.97891 18.6614 9.06017 18.7933 9.28769L20.9364 12.9442C21.0683 13.1555 20.9859 13.448 20.7716 13.578L9.28102 20.111C9.46236 19.5097 9.44588 18.8109 9.24805 18.1771" stroke="#1D1515" stroke-width="1.25" stroke-miterlimit="22.9256" stroke-linecap="round" stroke-linejoin="round"/>
<path d="M11.8535 13.7104L9.75977 12.5078" stroke="#1D1515" stroke-width="1.25" stroke-miterlimit="22.9256" stroke-linecap="round" stroke-linejoin="round"/>
<path d="M13.9804 10.0872L10.9141 8.33203" stroke="#1D1515" stroke-width="1.25" stroke-miterlimit="22.9256" stroke-linecap="round" stroke-linejoin="round"/>
<path d="M17.8542 15.2202L16.4199 12.75" stroke="#1D1515" stroke-width="1.25" stroke-miterlimit="22.9256" stroke-linecap="round" stroke-linejoin="round"/>
<path d="M14.4742 17.1538L13.0234 14.6836" stroke="#1D1515" stroke-width="1.25" stroke-miterlimit="22.9256" stroke-linecap="round" stroke-linejoin="round"/>
</svg>
