<svg width="24" height="24" viewBox="0 0 24 24" fill="none" xmlns="http://www.w3.org/2000/svg">
<path fill-rule="evenodd" clip-rule="evenodd" d="M3 16.521V3.45503C3 3.21127 3.21431 3 3.4616 3H7.74789C8.01167 3 8.22598 3.21127 8.22598 3.45503V16.521C6.95658 15.2209 4.2694 15.2209 3 16.521Z" stroke="#5D6063" stroke-width="1.3" stroke-miterlimit="22.9256" stroke-linejoin="round"/>
<path d="M4.00175 19.0389C3.89694 19.9143 4.53183 20.7077 5.41983 20.811C6.30782 20.9143 7.11264 20.2884 7.21745 19.4131C7.32226 18.5377 6.68737 17.7444 5.79937 17.6411C4.91138 17.5377 4.10656 18.1636 4.00175 19.0389Z" stroke="#5D6063" stroke-width="1.3" stroke-miterlimit="22.9256" stroke-linejoin="round"/>
<path d="M8.22612 11.3711H4.5498" stroke="#5D6063" stroke-width="1.3" stroke-miterlimit="22.9256" stroke-linejoin="round"/>
<path d="M8.22612 7.17578H4.5498" stroke="#5D6063" stroke-width="1.3" stroke-miterlimit="22.9256" stroke-linejoin="round"/>
<path d="M8.20996 9.64661L11.3423 4.28372C11.4741 4.07245 11.7544 3.99119 11.9852 4.1212L15.6945 6.23386C15.9253 6.36387 15.9912 6.64014 15.8758 6.85141L9.24856 18.1785C9.08371 17.5609 8.72102 16.9759 8.22645 16.5209" stroke="#5D6063" stroke-width="1.3" stroke-miterlimit="22.9256" stroke-linejoin="round"/>
<path d="M15.661 10.539L18.1503 9.10892C18.3811 8.97891 18.6614 9.06017 18.7933 9.28769L20.9364 12.9442C21.0683 13.1555 20.9859 13.448 20.7716 13.578L9.28102 20.111C9.46236 19.5097 9.44588 18.8109 9.24805 18.1771" stroke="#5D6063" stroke-width="1.3" stroke-miterlimit="22.9256" stroke-linejoin="round"/>
<path d="M11.8525 13.7104L9.75879 12.5078" stroke="#5D6063" stroke-width="1.3" stroke-miterlimit="22.9256" stroke-linejoin="round"/>
<path d="M13.9794 10.0872L10.9131 8.33203" stroke="#5D6063" stroke-width="1.3" stroke-miterlimit="22.9256" stroke-linejoin="round"/>
<path d="M17.8532 15.2202L16.4189 12.75" stroke="#5D6063" stroke-width="1.3" stroke-miterlimit="22.9256" stroke-linejoin="round"/>
<path d="M14.4742 17.1538L13.0234 14.6836" stroke="#5D6063" stroke-width="1.3" stroke-miterlimit="22.9256" stroke-linejoin="round"/>
</svg>
