<svg width="40" height="40" viewBox="0 0 40 40" fill="none" xmlns="http://www.w3.org/2000/svg">
<path fill-rule="evenodd" clip-rule="evenodd" d="M3.70801 15.2524C3.70801 15.2524 3.70801 15.2524 3.70801 15.2524V31.4331C3.70801 33.1891 5.1578 34.6292 6.9279 34.6292H24.7411C26.5112 34.6292 27.961 33.1891 27.961 31.4331V19.8945C27.961 18.1219 26.5079 16.6984 24.7411 16.6984L22.4895 16.6984H6.9279C6.11329 16.6984 5.45801 16.0309 5.45801 15.2524C5.45801 15.2524 5.45801 15.2524 5.45801 15.2524C5.45801 14.4573 6.11656 13.793 6.9279 13.793H17.2534C17.7367 13.793 18.1284 13.4012 18.1284 12.918C18.1284 12.4347 17.7367 12.043 17.2534 12.043H6.9279C5.15454 12.043 3.70801 13.4863 3.70801 15.2524ZM5.45801 18.0932V31.4331C5.45801 32.2117 6.11329 32.8792 6.9279 32.8792H24.7411C25.5557 32.8792 26.211 32.2117 26.211 31.4331V19.8945C26.211 19.1059 25.559 18.4484 24.7411 18.4484H22.4934C22.4921 18.4484 22.4908 18.4484 22.4895 18.4484H6.9279C6.39936 18.4484 5.89937 18.32 5.45801 18.0932Z" fill="#1D1515"/>
<path d="M20 16.3184L24.1643 6.07083C24.5264 5.17974 25.5222 4.76119 26.3757 5.13923L35.6354 9.18964C36.489 9.56768 36.8899 10.5938 36.5407 11.4849L29.4408 28.9286C29.1304 29.7117 28.3156 30.1302 27.5526 29.9682" stroke="#1D1515" stroke-width="1.75" stroke-miterlimit="22.9256" stroke-linecap="round" stroke-linejoin="round"/>
<path d="M26.6667 25H20" stroke="#1D1515" stroke-width="1.75" stroke-miterlimit="22.9256" stroke-linejoin="round"/>
<path fill-rule="evenodd" clip-rule="evenodd" d="M29.398 12.4603C29.3835 12.3541 29.3689 12.2478 29.3689 12.1263C29.3252 10.9876 30.1847 10.0463 31.2918 10.0007C32.3844 9.97038 33.3022 10.8662 33.3313 12.0049C33.3605 12.7336 33.0108 13.3713 32.4718 13.766C32.297 12.7792 31.4521 12.0656 30.4615 12.096C30.0682 12.1111 29.704 12.2326 29.398 12.4603ZM30.3741 16.6659C29.2815 16.6963 28.3637 15.8005 28.3346 14.6618C28.2909 13.5231 29.1504 12.5818 30.2575 12.5514C31.3501 12.5059 32.2679 13.4017 32.297 14.5404C32.3261 15.679 31.4667 16.6204 30.3741 16.6659Z" fill="#1D1515"/>
</svg>
