<svg width="25" height="24" viewBox="0 0 25 24" fill="none" xmlns="http://www.w3.org/2000/svg">
<path opacity="0.25" d="M21.6654 16.4767V19.1864C21.6696 20.2223 20.7382 21.0873 19.6924 20.9929C10.666 21 3.66602 13.935 3.67308 4.96919C3.57889 3.92895 4.43959 3.00106 5.47412 3.00009H8.18926C8.62849 2.99577 9.0543 3.151 9.38733 3.43684C10.3341 4.24949 10.9431 7.00777 10.7088 8.10428C10.5259 8.96036 9.66292 9.55929 9.07621 10.1448C10.3646 12.4062 12.2407 14.2785 14.5065 15.5644C15.0932 14.9788 15.6933 14.1176 16.5511 13.935C17.6515 13.7008 20.4275 14.3106 21.2369 15.264C21.5239 15.6021 21.6764 16.0337 21.6654 16.4767Z" fill="#FA8A00"/>
<path d="M15.166 6.5C15.9031 6.64382 16.6349 6.96892 17.166 7.5C17.697 8.03108 18.0221 8.76284 18.166 9.5M15.666 3C17.1975 3.17014 18.5757 3.91107 19.666 5C20.7563 6.08893 21.4939 7.46869 21.666 9M21.6654 16.4767V19.1864C21.6696 20.2223 20.7382 21.0873 19.6924 20.9929C10.666 21 3.66602 13.935 3.67308 4.96919C3.57889 3.92895 4.43959 3.00106 5.47412 3.00009H8.18926C8.62849 2.99577 9.0543 3.151 9.38733 3.43684C10.3341 4.24949 10.9431 7.00777 10.7088 8.10428C10.5259 8.96036 9.66292 9.55929 9.07621 10.1448C10.3646 12.4062 12.2407 14.2785 14.5065 15.5644C15.0932 14.9788 15.6933 14.1176 16.5511 13.935C17.6515 13.7008 20.4275 14.3106 21.2369 15.264C21.5239 15.6021 21.6764 16.0337 21.6654 16.4767Z" stroke="#1D1515" stroke-width="1.25" stroke-linecap="round" stroke-linejoin="round"/>
</svg>
