<svg width="24" height="24" viewBox="0 0 24 24" fill="none" xmlns="http://www.w3.org/2000/svg">
<path fill-rule="evenodd" clip-rule="evenodd" d="M12.7518 3.75C12.7518 3.33579 12.416 3 12.0018 3C11.5876 3 11.2518 3.33579 11.2518 3.75V11.2518H3.75C3.33579 11.2518 3 11.5876 3 12.0018C3 12.416 3.33579 12.7518 3.75 12.7518H11.2518V20.2536C11.2518 20.6678 11.5876 21.0036 12.0018 21.0036C12.416 21.0036 12.7518 20.6678 12.7518 20.2536V12.7518H20.2536C20.6678 12.7518 21.0036 12.416 21.0036 12.0018C21.0036 11.5876 20.6678 11.2518 20.2536 11.2518H12.7518V3.75Z" fill="currentColor"/>
</svg>
