<svg width="24" height="24" viewBox="0 0 24 24" fill="none" xmlns="http://www.w3.org/2000/svg">
<mask id="path-1-outside-1_2742_85225" maskUnits="userSpaceOnUse" x="5.74902" y="-0.742188" width="12" height="25" fill="black">
<rect fill="white" x="5.74902" y="-0.742188" width="12" height="25"/>
<path d="M12.7019 7.84299L12.8072 5.49097C12.8335 4.7322 12.83 4.60173 11.9338 4.61204C11.6343 4.61549 11.3477 4.58378 11.1942 4.90637L11.1875 4.92095C11.1278 5.04617 11.1516 5.17702 11.1535 5.31128L11.1618 5.83911L11.3452 8.84914L11.4686 10.443L11.5641 11.9876C11.5908 12.4211 11.5654 12.8355 11.4852 13.2613L11.3773 13.7887C11.2697 14.2651 11.1018 14.7306 10.9702 15.2008L10.6618 16.5331C10.6019 16.7859 10.5649 17.0478 10.5234 17.3043L10.085 19.9527L9.56512 23.3296C9.54156 23.5194 9.51839 23.7217 9.28989 23.77L9.27405 23.773C9.15175 23.7991 9.03707 23.7742 8.91447 23.7604L7.2198 23.5919C7.02977 23.5701 6.76971 23.5288 6.75735 23.2839L6.75982 16.5437C6.7642 16.4276 6.78302 16.3119 6.79296 16.196L6.91162 15.1523C7.01114 14.4823 7.19901 13.8233 7.38602 13.1738L7.66382 12.1861C7.79172 11.6356 7.79151 11.0515 7.73482 10.4898L7.00265 6.27439L6.81468 5.03802C6.62765 3.66948 6.85582 2.26756 7.30089 0.971154L7.4265 0.631043C7.50914 0.403786 7.57139 0.29448 7.83227 0.263477L15.9757 0.260341C16.0644 0.26044 16.1752 0.249007 16.2604 0.27397L16.3066 0.286943C16.4904 0.33693 16.5904 0.624201 16.6311 0.786712L16.8834 1.59875C16.9018 1.64549 16.9076 1.69421 16.9219 1.74179L17.0626 2.29843C17.141 2.60797 17.1795 2.9184 17.2088 3.23598L17.2417 3.52138C17.251 3.65781 17.2464 3.79808 17.2466 3.93493L17.2429 4.43816C17.2122 5.11316 17.0508 5.96549 16.9226 6.62851L16.4542 9.10702C16.3443 9.66746 16.2647 10.2507 16.2197 10.82C16.1317 11.9321 16.4481 12.6839 16.7343 13.7359L16.9432 14.5185C17.0471 14.965 17.1199 15.4292 17.1738 15.8845L17.2072 16.3125C17.2179 16.4252 17.2406 16.5367 17.2439 16.6503L17.2463 23.2809C17.2357 23.5823 16.9405 23.5694 16.7517 23.5963L14.9885 23.7714C14.578 23.8136 14.496 23.762 14.4338 23.336L13.3087 16.5016L12.6969 14.1872L12.4826 13.1631C12.3935 12.4424 12.4609 11.7395 12.5056 11.0174L12.6316 8.99129C12.6365 8.92885 12.6496 8.86862 12.6535 8.80515L12.7019 7.84299ZM7.94561 0.813637C7.68785 1.48954 7.44876 2.29072 7.36012 3.01327L7.3341 3.35288C7.26133 4.13361 7.33089 4.87635 7.45753 5.64695L7.81863 7.66665C7.82709 7.71809 7.82831 7.77376 7.84375 7.82326C9.11657 8.03354 9.81614 9.33456 10.0838 10.4862L10.1584 10.7594C10.3146 11.4633 10.3572 12.2338 10.2361 12.9479L10.0783 13.6715C9.7537 14.9774 9.10286 16.1741 8.7221 17.4633C8.66198 17.6669 8.60341 17.8842 8.57861 18.0953L8.53575 18.6766C8.51702 18.9563 8.48032 19.2361 8.47675 19.5156L8.46977 20.0443C8.46424 20.1469 8.44577 20.2488 8.43665 20.3512L8.34192 22.2555L8.33226 22.8758C8.33048 22.972 8.31642 23.0694 8.31963 23.1653L9.02939 23.2205L9.0963 22.7567L10.1571 16.2184L10.5112 14.8038C10.7801 13.8669 11.0634 12.9723 11.0021 11.984L10.8895 10.3698L10.731 7.74985C10.7267 7.68038 10.7121 7.61256 10.7075 7.5437L10.5951 5.28592C10.5937 5.15387 10.5843 5.01772 10.6138 4.88827L10.6181 4.868C10.7208 4.40249 11.1102 4.11713 11.5635 4.06091C11.6166 4.05432 11.6745 4.05819 11.726 4.04455L11.7275 1.046C11.7277 0.983981 11.7422 0.869597 11.7216 0.813705L7.94561 0.813637ZM12.2844 0.813152L12.2771 4.05706C12.654 4.07438 12.8776 4.13816 13.1469 4.4371C13.4852 4.81269 13.3636 5.32088 13.3476 5.7789L13.2875 7.36306C13.2835 7.43687 13.27 7.50941 13.2673 7.58359L13.2445 8.1703L13.078 10.5009L13.0153 11.9234C12.9638 12.6645 12.9823 13.0931 13.1789 13.8321L13.551 15.159C13.5702 15.247 13.6017 15.3348 13.6236 15.4224L14.0868 17.609L14.9674 23.2053L15.7236 23.1535L15.6184 20.6946L15.4804 18.9273C15.441 18.475 15.411 18.0309 15.2941 17.5896C15.0426 16.6406 14.5502 15.7629 14.2306 14.8354C13.6277 13.0857 13.2897 10.1334 14.6268 8.62126C14.9466 8.25959 15.4854 7.80327 15.997 7.77158L16.1512 7.76949L16.6777 4.60269C16.7157 4.4109 16.6974 4.18084 16.6977 3.98427C16.699 3.15069 16.5394 2.35988 16.3017 1.56411C16.2269 1.31379 16.1266 1.06892 16.0599 0.816515L12.2844 0.813152ZM15.9946 8.35116C15.8966 8.37001 15.8003 8.41637 15.7116 8.46142C14.441 9.10674 14.2012 10.7318 14.2638 12.0272L14.3253 12.7206C14.3448 12.9014 14.3633 13.0841 14.3962 13.2631L14.5169 13.8258C14.5405 13.9299 14.5606 14.0446 14.5973 14.1445L15.7569 17.189C15.9581 17.7556 15.9767 18.3364 16.0354 18.9273L16.128 20.0862C16.1341 20.1816 16.1537 20.276 16.1589 20.3719L16.1706 20.8322C16.1764 20.9326 16.2 21.0301 16.2066 21.1305L16.2199 21.5816C16.232 21.778 16.2532 21.964 16.2565 22.1622L16.265 22.6922C16.2658 22.8209 16.2609 22.9504 16.2809 23.0779L16.6982 23.0526L16.6935 16.6251C16.6889 16.531 16.6691 16.4383 16.6599 16.3445L16.6318 15.991C16.5534 15.3391 16.4279 14.6754 16.2503 14.043L15.8897 12.7867C15.7552 12.2965 15.6652 11.9189 15.6642 11.4145L15.6663 10.7735C15.6779 10.2386 15.8246 9.48781 15.9182 8.95665L16.0001 8.52139C16.0094 8.4744 16.0379 8.39338 16.0241 8.34819L15.9946 8.35116ZM7.97121 8.39769C7.99739 8.6251 8.05214 8.85338 8.08867 9.07984C8.21901 9.8878 8.36934 10.7441 8.31749 11.5668C8.27306 12.272 8.02181 12.9318 7.83372 13.6052L7.71841 14.0625C7.61732 14.4481 7.51671 14.8355 7.45448 15.2301L7.35885 16.0211C7.33807 16.2169 7.32255 16.4888 7.31376 16.6902L7.31266 23.0598L7.74396 23.0872L7.78631 22.144L7.88329 20.0532C7.88927 19.8962 7.91503 19.7454 7.92018 19.5889L7.97032 18.776C8.04546 17.6394 8.24301 17.0004 8.66095 15.9432L8.94663 15.2584C9.3944 14.142 9.81808 12.9445 9.74721 11.724C9.68685 10.6849 9.19722 9.19295 8.33463 8.60422C8.21852 8.52498 8.09266 8.46718 7.97121 8.39769Z"/>
</mask>
<path d="M12.7019 7.84299L12.8072 5.49097C12.8335 4.7322 12.83 4.60173 11.9338 4.61204C11.6343 4.61549 11.3477 4.58378 11.1942 4.90637L11.1875 4.92095C11.1278 5.04617 11.1516 5.17702 11.1535 5.31128L11.1618 5.83911L11.3452 8.84914L11.4686 10.443L11.5641 11.9876C11.5908 12.4211 11.5654 12.8355 11.4852 13.2613L11.3773 13.7887C11.2697 14.2651 11.1018 14.7306 10.9702 15.2008L10.6618 16.5331C10.6019 16.7859 10.5649 17.0478 10.5234 17.3043L10.085 19.9527L9.56512 23.3296C9.54156 23.5194 9.51839 23.7217 9.28989 23.77L9.27405 23.773C9.15175 23.7991 9.03707 23.7742 8.91447 23.7604L7.2198 23.5919C7.02977 23.5701 6.76971 23.5288 6.75735 23.2839L6.75982 16.5437C6.7642 16.4276 6.78302 16.3119 6.79296 16.196L6.91162 15.1523C7.01114 14.4823 7.19901 13.8233 7.38602 13.1738L7.66382 12.1861C7.79172 11.6356 7.79151 11.0515 7.73482 10.4898L7.00265 6.27439L6.81468 5.03802C6.62765 3.66948 6.85582 2.26756 7.30089 0.971154L7.4265 0.631043C7.50914 0.403786 7.57139 0.29448 7.83227 0.263477L15.9757 0.260341C16.0644 0.26044 16.1752 0.249007 16.2604 0.27397L16.3066 0.286943C16.4904 0.33693 16.5904 0.624201 16.6311 0.786712L16.8834 1.59875C16.9018 1.64549 16.9076 1.69421 16.9219 1.74179L17.0626 2.29843C17.141 2.60797 17.1795 2.9184 17.2088 3.23598L17.2417 3.52138C17.251 3.65781 17.2464 3.79808 17.2466 3.93493L17.2429 4.43816C17.2122 5.11316 17.0508 5.96549 16.9226 6.62851L16.4542 9.10702C16.3443 9.66746 16.2647 10.2507 16.2197 10.82C16.1317 11.9321 16.4481 12.6839 16.7343 13.7359L16.9432 14.5185C17.0471 14.965 17.1199 15.4292 17.1738 15.8845L17.2072 16.3125C17.2179 16.4252 17.2406 16.5367 17.2439 16.6503L17.2463 23.2809C17.2357 23.5823 16.9405 23.5694 16.7517 23.5963L14.9885 23.7714C14.578 23.8136 14.496 23.762 14.4338 23.336L13.3087 16.5016L12.6969 14.1872L12.4826 13.1631C12.3935 12.4424 12.4609 11.7395 12.5056 11.0174L12.6316 8.99129C12.6365 8.92885 12.6496 8.86862 12.6535 8.80515L12.7019 7.84299ZM7.94561 0.813637C7.68785 1.48954 7.44876 2.29072 7.36012 3.01327L7.3341 3.35288C7.26133 4.13361 7.33089 4.87635 7.45753 5.64695L7.81863 7.66665C7.82709 7.71809 7.82831 7.77376 7.84375 7.82326C9.11657 8.03354 9.81614 9.33456 10.0838 10.4862L10.1584 10.7594C10.3146 11.4633 10.3572 12.2338 10.2361 12.9479L10.0783 13.6715C9.7537 14.9774 9.10286 16.1741 8.7221 17.4633C8.66198 17.6669 8.60341 17.8842 8.57861 18.0953L8.53575 18.6766C8.51702 18.9563 8.48032 19.2361 8.47675 19.5156L8.46977 20.0443C8.46424 20.1469 8.44577 20.2488 8.43665 20.3512L8.34192 22.2555L8.33226 22.8758C8.33048 22.972 8.31642 23.0694 8.31963 23.1653L9.02939 23.2205L9.0963 22.7567L10.1571 16.2184L10.5112 14.8038C10.7801 13.8669 11.0634 12.9723 11.0021 11.984L10.8895 10.3698L10.731 7.74985C10.7267 7.68038 10.7121 7.61256 10.7075 7.5437L10.5951 5.28592C10.5937 5.15387 10.5843 5.01772 10.6138 4.88827L10.6181 4.868C10.7208 4.40249 11.1102 4.11713 11.5635 4.06091C11.6166 4.05432 11.6745 4.05819 11.726 4.04455L11.7275 1.046C11.7277 0.983981 11.7422 0.869597 11.7216 0.813705L7.94561 0.813637ZM12.2844 0.813152L12.2771 4.05706C12.654 4.07438 12.8776 4.13816 13.1469 4.4371C13.4852 4.81269 13.3636 5.32088 13.3476 5.7789L13.2875 7.36306C13.2835 7.43687 13.27 7.50941 13.2673 7.58359L13.2445 8.1703L13.078 10.5009L13.0153 11.9234C12.9638 12.6645 12.9823 13.0931 13.1789 13.8321L13.551 15.159C13.5702 15.247 13.6017 15.3348 13.6236 15.4224L14.0868 17.609L14.9674 23.2053L15.7236 23.1535L15.6184 20.6946L15.4804 18.9273C15.441 18.475 15.411 18.0309 15.2941 17.5896C15.0426 16.6406 14.5502 15.7629 14.2306 14.8354C13.6277 13.0857 13.2897 10.1334 14.6268 8.62126C14.9466 8.25959 15.4854 7.80327 15.997 7.77158L16.1512 7.76949L16.6777 4.60269C16.7157 4.4109 16.6974 4.18084 16.6977 3.98427C16.699 3.15069 16.5394 2.35988 16.3017 1.56411C16.2269 1.31379 16.1266 1.06892 16.0599 0.816515L12.2844 0.813152ZM15.9946 8.35116C15.8966 8.37001 15.8003 8.41637 15.7116 8.46142C14.441 9.10674 14.2012 10.7318 14.2638 12.0272L14.3253 12.7206C14.3448 12.9014 14.3633 13.0841 14.3962 13.2631L14.5169 13.8258C14.5405 13.9299 14.5606 14.0446 14.5973 14.1445L15.7569 17.189C15.9581 17.7556 15.9767 18.3364 16.0354 18.9273L16.128 20.0862C16.1341 20.1816 16.1537 20.276 16.1589 20.3719L16.1706 20.8322C16.1764 20.9326 16.2 21.0301 16.2066 21.1305L16.2199 21.5816C16.232 21.778 16.2532 21.964 16.2565 22.1622L16.265 22.6922C16.2658 22.8209 16.2609 22.9504 16.2809 23.0779L16.6982 23.0526L16.6935 16.6251C16.6889 16.531 16.6691 16.4383 16.6599 16.3445L16.6318 15.991C16.5534 15.3391 16.4279 14.6754 16.2503 14.043L15.8897 12.7867C15.7552 12.2965 15.6652 11.9189 15.6642 11.4145L15.6663 10.7735C15.6779 10.2386 15.8246 9.48781 15.9182 8.95665L16.0001 8.52139C16.0094 8.4744 16.0379 8.39338 16.0241 8.34819L15.9946 8.35116ZM7.97121 8.39769C7.99739 8.6251 8.05214 8.85338 8.08867 9.07984C8.21901 9.8878 8.36934 10.7441 8.31749 11.5668C8.27306 12.272 8.02181 12.9318 7.83372 13.6052L7.71841 14.0625C7.61732 14.4481 7.51671 14.8355 7.45448 15.2301L7.35885 16.0211C7.33807 16.2169 7.32255 16.4888 7.31376 16.6902L7.31266 23.0598L7.74396 23.0872L7.78631 22.144L7.88329 20.0532C7.88927 19.8962 7.91503 19.7454 7.92018 19.5889L7.97032 18.776C8.04546 17.6394 8.24301 17.0004 8.66095 15.9432L8.94663 15.2584C9.3944 14.142 9.81808 12.9445 9.74721 11.724C9.68685 10.6849 9.19722 9.19295 8.33463 8.60422C8.21852 8.52498 8.09266 8.46718 7.97121 8.39769Z" fill="#1D1515"/>
<path d="M12.7019 7.84299L12.8072 5.49097C12.8335 4.7322 12.83 4.60173 11.9338 4.61204C11.6343 4.61549 11.3477 4.58378 11.1942 4.90637L11.1875 4.92095C11.1278 5.04617 11.1516 5.17702 11.1535 5.31128L11.1618 5.83911L11.3452 8.84914L11.4686 10.443L11.5641 11.9876C11.5908 12.4211 11.5654 12.8355 11.4852 13.2613L11.3773 13.7887C11.2697 14.2651 11.1018 14.7306 10.9702 15.2008L10.6618 16.5331C10.6019 16.7859 10.5649 17.0478 10.5234 17.3043L10.085 19.9527L9.56512 23.3296C9.54156 23.5194 9.51839 23.7217 9.28989 23.77L9.27405 23.773C9.15175 23.7991 9.03707 23.7742 8.91447 23.7604L7.2198 23.5919C7.02977 23.5701 6.76971 23.5288 6.75735 23.2839L6.75982 16.5437C6.7642 16.4276 6.78302 16.3119 6.79296 16.196L6.91162 15.1523C7.01114 14.4823 7.19901 13.8233 7.38602 13.1738L7.66382 12.1861C7.79172 11.6356 7.79151 11.0515 7.73482 10.4898L7.00265 6.27439L6.81468 5.03802C6.62765 3.66948 6.85582 2.26756 7.30089 0.971154L7.4265 0.631043C7.50914 0.403786 7.57139 0.29448 7.83227 0.263477L15.9757 0.260341C16.0644 0.26044 16.1752 0.249007 16.2604 0.27397L16.3066 0.286943C16.4904 0.33693 16.5904 0.624201 16.6311 0.786712L16.8834 1.59875C16.9018 1.64549 16.9076 1.69421 16.9219 1.74179L17.0626 2.29843C17.141 2.60797 17.1795 2.9184 17.2088 3.23598L17.2417 3.52138C17.251 3.65781 17.2464 3.79808 17.2466 3.93493L17.2429 4.43816C17.2122 5.11316 17.0508 5.96549 16.9226 6.62851L16.4542 9.10702C16.3443 9.66746 16.2647 10.2507 16.2197 10.82C16.1317 11.9321 16.4481 12.6839 16.7343 13.7359L16.9432 14.5185C17.0471 14.965 17.1199 15.4292 17.1738 15.8845L17.2072 16.3125C17.2179 16.4252 17.2406 16.5367 17.2439 16.6503L17.2463 23.2809C17.2357 23.5823 16.9405 23.5694 16.7517 23.5963L14.9885 23.7714C14.578 23.8136 14.496 23.762 14.4338 23.336L13.3087 16.5016L12.6969 14.1872L12.4826 13.1631C12.3935 12.4424 12.4609 11.7395 12.5056 11.0174L12.6316 8.99129C12.6365 8.92885 12.6496 8.86862 12.6535 8.80515L12.7019 7.84299ZM7.94561 0.813637C7.68785 1.48954 7.44876 2.29072 7.36012 3.01327L7.3341 3.35288C7.26133 4.13361 7.33089 4.87635 7.45753 5.64695L7.81863 7.66665C7.82709 7.71809 7.82831 7.77376 7.84375 7.82326C9.11657 8.03354 9.81614 9.33456 10.0838 10.4862L10.1584 10.7594C10.3146 11.4633 10.3572 12.2338 10.2361 12.9479L10.0783 13.6715C9.7537 14.9774 9.10286 16.1741 8.7221 17.4633C8.66198 17.6669 8.60341 17.8842 8.57861 18.0953L8.53575 18.6766C8.51702 18.9563 8.48032 19.2361 8.47675 19.5156L8.46977 20.0443C8.46424 20.1469 8.44577 20.2488 8.43665 20.3512L8.34192 22.2555L8.33226 22.8758C8.33048 22.972 8.31642 23.0694 8.31963 23.1653L9.02939 23.2205L9.0963 22.7567L10.1571 16.2184L10.5112 14.8038C10.7801 13.8669 11.0634 12.9723 11.0021 11.984L10.8895 10.3698L10.731 7.74985C10.7267 7.68038 10.7121 7.61256 10.7075 7.5437L10.5951 5.28592C10.5937 5.15387 10.5843 5.01772 10.6138 4.88827L10.6181 4.868C10.7208 4.40249 11.1102 4.11713 11.5635 4.06091C11.6166 4.05432 11.6745 4.05819 11.726 4.04455L11.7275 1.046C11.7277 0.983981 11.7422 0.869597 11.7216 0.813705L7.94561 0.813637ZM12.2844 0.813152L12.2771 4.05706C12.654 4.07438 12.8776 4.13816 13.1469 4.4371C13.4852 4.81269 13.3636 5.32088 13.3476 5.7789L13.2875 7.36306C13.2835 7.43687 13.27 7.50941 13.2673 7.58359L13.2445 8.1703L13.078 10.5009L13.0153 11.9234C12.9638 12.6645 12.9823 13.0931 13.1789 13.8321L13.551 15.159C13.5702 15.247 13.6017 15.3348 13.6236 15.4224L14.0868 17.609L14.9674 23.2053L15.7236 23.1535L15.6184 20.6946L15.4804 18.9273C15.441 18.475 15.411 18.0309 15.2941 17.5896C15.0426 16.6406 14.5502 15.7629 14.2306 14.8354C13.6277 13.0857 13.2897 10.1334 14.6268 8.62126C14.9466 8.25959 15.4854 7.80327 15.997 7.77158L16.1512 7.76949L16.6777 4.60269C16.7157 4.4109 16.6974 4.18084 16.6977 3.98427C16.699 3.15069 16.5394 2.35988 16.3017 1.56411C16.2269 1.31379 16.1266 1.06892 16.0599 0.816515L12.2844 0.813152ZM15.9946 8.35116C15.8966 8.37001 15.8003 8.41637 15.7116 8.46142C14.441 9.10674 14.2012 10.7318 14.2638 12.0272L14.3253 12.7206C14.3448 12.9014 14.3633 13.0841 14.3962 13.2631L14.5169 13.8258C14.5405 13.9299 14.5606 14.0446 14.5973 14.1445L15.7569 17.189C15.9581 17.7556 15.9767 18.3364 16.0354 18.9273L16.128 20.0862C16.1341 20.1816 16.1537 20.276 16.1589 20.3719L16.1706 20.8322C16.1764 20.9326 16.2 21.0301 16.2066 21.1305L16.2199 21.5816C16.232 21.778 16.2532 21.964 16.2565 22.1622L16.265 22.6922C16.2658 22.8209 16.2609 22.9504 16.2809 23.0779L16.6982 23.0526L16.6935 16.6251C16.6889 16.531 16.6691 16.4383 16.6599 16.3445L16.6318 15.991C16.5534 15.3391 16.4279 14.6754 16.2503 14.043L15.8897 12.7867C15.7552 12.2965 15.6652 11.9189 15.6642 11.4145L15.6663 10.7735C15.6779 10.2386 15.8246 9.48781 15.9182 8.95665L16.0001 8.52139C16.0094 8.4744 16.0379 8.39338 16.0241 8.34819L15.9946 8.35116ZM7.97121 8.39769C7.99739 8.6251 8.05214 8.85338 8.08867 9.07984C8.21901 9.8878 8.36934 10.7441 8.31749 11.5668C8.27306 12.272 8.02181 12.9318 7.83372 13.6052L7.71841 14.0625C7.61732 14.4481 7.51671 14.8355 7.45448 15.2301L7.35885 16.0211C7.33807 16.2169 7.32255 16.4888 7.31376 16.6902L7.31266 23.0598L7.74396 23.0872L7.78631 22.144L7.88329 20.0532C7.88927 19.8962 7.91503 19.7454 7.92018 19.5889L7.97032 18.776C8.04546 17.6394 8.24301 17.0004 8.66095 15.9432L8.94663 15.2584C9.3944 14.142 9.81808 12.9445 9.74721 11.724C9.68685 10.6849 9.19722 9.19295 8.33463 8.60422C8.21852 8.52498 8.09266 8.46718 7.97121 8.39769Z" stroke="#1D1515" stroke-width="0.3" mask="url(#path-1-outside-1_2742_85225)"/>
</svg>
