<svg width="24" height="24" viewBox="0 0 24 24" fill="none" xmlns="http://www.w3.org/2000/svg">
<path fill-rule="evenodd" clip-rule="evenodd" d="M20.75 12C20.75 16.8325 16.8325 20.75 12 20.75C7.16751 20.75 3.25 16.8325 3.25 12C3.25 7.16751 7.16751 3.25 12 3.25C16.8325 3.25 20.75 7.16751 20.75 12ZM22 12C22 17.5228 17.5228 22 12 22C6.47715 22 2 17.5228 2 12C2 6.47715 6.47715 2 12 2C17.5228 2 22 6.47715 22 12ZM9.70273 15.0759V17.1351H11.0391V15.0759L13.3664 15.0759V14.0917L11.0391 14.0917L11.0391 12.7442H11.7898H12.2102C13.0611 12.7442 13.7668 12.6129 14.3274 12.3505C14.8979 12.0881 15.3284 11.7146 15.6186 11.2301C15.9089 10.7354 16.0541 10.1449 16.0541 9.45853C16.0541 8.43903 15.7538 7.66178 15.1532 7.12679C14.5626 6.5918 13.6467 6.32431 12.4054 6.32431L9.70273 6.32431L9.70273 11.5934H8.48651V12.7442H9.70273V14.0917H8.48651V15.0759H9.70273ZM11.0391 11.5934H11.7898H12.0301C12.5906 11.5934 13.0661 11.5278 13.4565 11.3966C13.8469 11.2654 14.1472 11.0484 14.3574 10.7455C14.5676 10.4427 14.6727 10.0289 14.6727 9.50396C14.6727 8.81756 14.4775 8.3078 14.0871 7.9747C13.7067 7.64159 13.1061 7.47504 12.2853 7.47504L11.0391 7.47504V11.5934Z" fill="#1D1515"/>
</svg>
