<svg width="24" height="24" viewBox="0 0 24 24" fill="none" xmlns="http://www.w3.org/2000/svg">
<path d="M15.4919 19.3723L7.08366 19.3732C6.53 19.3732 6.47466 19.3518 6.47419 18.8368L6.4632 10.956C6.40641 10.9909 6.3424 11.003 6.28083 11.0277L5.83808 11.207C5.65151 11.2822 5.46605 11.3869 5.2737 11.4452C4.95943 11.5405 4.85994 11.2784 4.69922 11.0657L2.50444 8.32807C2.47097 8.28497 2.41224 8.21297 2.40132 8.15969L2.39769 8.13717C2.37884 8.02371 2.41163 7.93411 2.50456 7.86724L4.86729 6.28162C5.86276 5.58794 5.96262 5.5912 7.16471 5.33862L8.24916 5.05938C8.45609 4.99741 8.64085 4.92769 8.82985 4.82074C8.98995 4.73013 9.143 4.58386 9.32286 4.54031C9.36519 4.53801 9.40393 4.53841 9.44583 4.54556L9.46269 4.54856C9.60137 4.57209 9.74919 4.74204 9.86419 4.82648C11.0086 5.66683 13.1404 5.56901 14.2557 4.73454C14.475 4.57041 14.586 4.45146 14.8681 4.62621C15.392 4.95082 15.4885 4.9856 16.1003 5.12121L17.2051 5.36154C18.102 5.56512 18.6958 5.97183 19.4311 6.49362L21.499 7.8555C21.5269 7.87472 21.5506 7.89333 21.5683 7.92267L21.5759 7.93596C21.6832 8.1169 21.5412 8.26394 21.4315 8.39712L19.5504 10.7369L19.1336 11.306C18.9048 11.5961 18.6641 11.4071 18.3938 11.2946L17.5274 10.9558C17.5041 11.1452 17.5198 11.352 17.5199 11.5432L17.5199 18.4751C17.5199 18.6871 17.5388 18.9149 17.516 19.1246L17.5141 19.14C17.4884 19.355 17.2577 19.3717 17.0948 19.372L15.4919 19.3723ZM9.09092 5.32317C8.80304 5.47659 8.54056 5.57044 8.22769 5.65704L7.07792 5.93315C6.14515 6.14355 6.08926 6.16047 5.33747 6.66822L3.33153 8.02132C3.275 8.05983 3.1696 8.10755 3.12877 8.15906L5.24612 10.8262L6.14042 10.4556C6.3995 10.3442 6.79805 10.0367 7.00693 10.3685L7.01532 10.3815C7.0471 10.4357 7.03543 10.5323 7.03517 10.5945L7.03297 18.2132C7.03306 18.3976 7.01401 18.606 7.04527 18.787L16.9506 18.7904L16.9562 18.674L16.9523 10.8239C16.9521 10.5978 16.8944 10.3194 17.1619 10.2218L17.177 10.2157C17.3013 10.1708 17.5198 10.3166 17.6311 10.3626L18.5143 10.7168C18.5353 10.7252 18.7396 10.8152 18.7437 10.8135C18.7627 10.8057 19.1369 10.2959 19.1962 10.225L20.8774 8.14237L19.3356 7.12237C18.3057 6.43331 18.037 6.13158 16.8207 5.87416L16.0865 5.70145C15.6777 5.60402 15.2952 5.52612 14.9228 5.32183C14.6991 6.06851 14.2697 6.73598 13.5659 7.11818C11.9409 8.00069 9.79023 7.33786 9.15718 5.54435C9.13161 5.47188 9.1193 5.3947 9.09092 5.32317ZM14.2638 5.39972C14.1003 5.51041 13.912 5.59153 13.7288 5.66407C12.5982 6.11149 11.0955 6.13701 9.99969 5.56652C9.90776 5.51869 9.82419 5.4558 9.73315 5.40616L9.75582 5.48559C9.80276 5.66641 9.95759 5.89139 10.0718 6.03171C10.3641 6.40783 10.7324 6.66546 11.1912 6.79962C12.4193 7.1587 13.8166 6.68894 14.2817 5.40612L14.2638 5.39972Z" fill="#1D1515" stroke="#1D1515" stroke-width="0.4"/>
<path d="M14.138 12.6256C13.9889 12.7254 13.8371 12.8349 13.667 12.8961L13.5916 12.922C13.332 12.9914 12.8241 12.5927 12.6156 12.4312C11.9294 11.8998 11.395 11.0818 11.9273 10.2457C12.1203 9.94251 12.4227 9.79785 12.7629 9.721C13.0418 9.6918 13.2572 9.7506 13.4858 9.91026L13.6317 9.81562C14.2565 9.48398 15.0876 9.98884 15.2202 10.65C15.3987 11.5394 14.8162 12.135 14.138 12.6256ZM12.8782 10.2971C12.6411 10.3274 12.4669 10.4502 12.3635 10.6617L12.355 10.6784C12.2731 10.843 12.2676 11.0468 12.3295 11.2184L12.3812 11.329C12.5886 11.7711 13.0892 12.1067 13.5024 12.3282C13.6708 12.239 13.8563 12.1285 13.9985 12.0009C14.2948 11.7632 14.6305 11.4656 14.6765 11.0623C14.7301 10.5926 14.2557 10.0768 13.7875 10.3842C13.4516 10.6047 13.4838 10.604 13.1624 10.3733C13.0872 10.3193 12.9715 10.2883 12.8782 10.2971Z" fill="#1D1515" stroke="#1D1515" stroke-width="0.4"/>
</svg>
