<svg width="24" height="24" viewBox="0 0 24 24" fill="none" xmlns="http://www.w3.org/2000/svg">
<mask id="path-1-outside-1_2742_101791" maskUnits="userSpaceOnUse" x="3.88281" y="1.30469" width="15" height="21" fill="black">
<rect fill="white" x="3.88281" y="1.30469" width="15" height="21"/>
<path d="M17.0614 21.2855C16.2649 21.7211 15.3644 21.754 14.4731 21.7218C13.6267 21.6912 12.5558 21.583 11.7567 21.2657C11.336 21.0987 11.2359 21.0574 10.7934 20.9909L9.70296 20.8444C9.03007 20.7449 8.37239 20.6075 7.72226 20.4064C6.29016 19.9635 5.33138 19.1587 4.96425 17.6206C4.82548 17.0393 4.87313 16.4024 5.03857 15.8291C5.2463 15.1094 5.41024 14.7109 5.40092 13.9041C5.39681 13.5491 5.27121 13.2169 5.1841 12.8772L5.03199 12.1556C4.99892 11.9837 4.98204 11.807 4.9613 11.6332L4.90854 11.0478C4.9017 10.9797 4.88897 10.9135 4.88651 10.8445L4.88508 8.53337C4.88548 8.25578 4.9159 7.98489 4.93435 7.708L5.14887 4.30333L5.1511 3.4814C5.1521 2.98762 5.22347 2.51575 5.78719 2.3452L5.80238 2.34081C5.86847 2.32126 5.92955 2.31166 5.99785 2.30469L12.9274 2.44434C13.5006 2.5169 13.5211 3.04005 13.5214 3.47305L13.5079 5.76306C13.5002 5.89647 13.464 6.0238 13.4563 6.15794C13.4368 6.4978 13.4221 6.81041 13.3927 7.15117L13.0784 10.4443L13.018 11.9692C13.0178 12.2084 13.0035 12.4584 13.028 12.6963C13.1446 13.827 13.8024 14.9678 14.8078 15.5231C15.2182 15.7498 15.6596 15.894 16.0992 16.0501L16.6079 16.2495C17.4407 16.5788 17.9648 16.9929 18.3282 17.8037L18.3754 17.9209C18.7633 18.915 18.4187 20.1267 17.6542 20.8448C17.4746 21.0135 17.2683 21.153 17.0614 21.2855ZM6.05691 3.08791C5.96611 3.124 5.99103 3.20619 5.99051 3.29003L5.98922 5.06753L7.07274 5.17905L7.12739 5.18001C7.13984 5.1003 7.13449 5.01683 7.13463 4.93619L7.13478 3.1495L6.66502 3.11289C6.47161 3.09234 6.25135 3.06219 6.05691 3.08791ZM12.7066 3.20622L11.5673 3.2665C11.5564 3.44106 11.5624 3.61851 11.5624 3.79342L11.5603 5.05656C11.5601 5.13529 11.5187 5.25543 11.6225 5.25454L12.7478 5.1884L12.7493 3.29807C12.7485 3.26216 12.7579 3.23331 12.7336 3.20535L12.7066 3.20622ZM7.88178 3.22832L7.87413 5.11485C7.87596 5.32044 7.88963 5.2626 8.07795 5.28419C8.38922 5.31984 8.71001 5.31196 9.02337 5.31048L9.02358 3.25766C8.65453 3.2072 8.25464 3.22623 7.88178 3.22832ZM9.71452 3.28487C9.69851 3.49659 9.68527 5.25503 9.71021 5.31004L10.8865 5.30001L10.887 3.28307L10.1001 3.2815C9.97554 3.28164 9.83756 3.27023 9.71452 3.28487ZM5.8211 5.81123L5.71704 7.39239C6.11862 7.49186 6.61957 7.52338 7.03172 7.5651L8.21986 7.66047C8.3295 7.66801 8.43656 7.69012 8.54611 7.69457L10.5251 7.6938L11.3084 7.64575C11.5575 7.64073 11.8106 7.61176 12.0648 7.5988L12.5923 7.552C12.6163 7.51555 12.6111 7.46957 12.6129 7.42841L12.7133 5.96659C12.5964 5.96772 12.4841 5.98112 12.3677 5.98832L11.7309 6.03229C11.5235 6.05043 11.3121 6.03852 11.104 6.04733C10.9552 6.05364 10.807 6.08202 10.6568 6.08819L8.69578 6.08915L7.635 6.02978L6.25791 5.86926C6.11032 5.85107 5.96763 5.83937 5.8211 5.81123ZM5.64017 8.18026C5.60853 8.6433 5.63379 9.11978 5.63304 9.58457L5.63222 10.1668C5.63217 10.5649 5.57452 10.4886 5.95357 10.5717L7.25299 10.8003C7.51467 10.8428 7.77502 10.8953 8.03921 10.923L8.48485 10.9712C9.19317 11.0369 9.91064 11.072 10.6217 11.0268L11.0198 10.9828C11.2893 10.9551 11.5731 10.9211 11.8342 10.8482L12.305 10.7139L12.5166 8.33507C12.3119 8.33706 12.1128 8.3609 11.9094 8.37962L10.5085 8.4591L8.01546 8.4298C7.89495 8.42413 7.77549 8.404 7.65513 8.39437L6.80217 8.32443C6.41576 8.2818 6.02759 8.20637 5.64017 8.18026ZM5.71308 11.3079C5.71852 11.4908 5.74296 11.6704 5.7687 11.8515L5.84234 12.2551C5.85776 12.3479 5.85853 12.4318 5.8946 12.5204C6.56485 12.7123 7.27472 12.8532 7.96688 12.9378L8.6206 13.0037L10.3364 13.0019C10.9354 12.9632 11.6202 12.8363 12.1886 12.6651L12.2464 12.6495C12.2654 12.5985 12.2446 11.7134 12.2578 11.5638L10.8407 11.7818C10.5412 11.8146 10.2513 11.816 9.94931 11.8157L9.11646 11.809C9.02098 11.804 8.9288 11.7836 8.8339 11.7761L7.19414 11.5858L6.18544 11.4072C6.02944 11.3764 5.86503 11.3534 5.71308 11.3079ZM6.11986 13.3799L6.1406 13.7178L8.43654 14.521C8.52595 14.5612 8.62247 14.6256 8.71976 14.6375L9.20262 14.7164C9.88526 14.8024 10.8811 14.7858 11.5405 14.5988L12.5659 14.2934L12.681 14.2489C12.6138 14.0889 12.5435 13.9303 12.4868 13.7661C12.4496 13.6583 12.4278 13.5234 12.3773 13.4236L10.5231 13.7628C10.4411 13.7835 10.3487 13.7804 10.2645 13.7815L8.65367 13.7774C8.57691 13.7733 8.50465 13.7562 8.42918 13.7494L7.02816 13.5784L6.40512 13.4497C6.32215 13.4303 6.20189 13.382 6.11986 13.3799ZM6.12919 14.5283C6.09127 14.864 6.05236 15.2276 5.9366 15.5464C6.94477 15.9536 7.92141 16.6165 8.35749 17.6542L8.49502 18.0282C8.62934 18.3801 8.67525 19.0155 8.58474 19.3747L8.50088 19.827C8.6227 19.9271 8.7376 19.6142 8.77899 19.5402C9.5314 18.2648 9.62928 16.8269 8.70804 15.6367C8.49434 15.3606 8.40056 15.3567 8.09278 15.2224C7.55487 14.9877 7.00446 14.7938 6.44578 14.6147L6.22135 14.5451C6.19606 14.5377 6.15506 14.5224 6.12919 14.5283ZM13.053 14.935L12.2835 15.208C11.2548 15.5222 10.6154 15.5207 9.5775 15.519L9.59175 15.5288C9.65578 15.5769 9.92721 16.2317 9.95555 16.3192C10.263 17.2691 10.1739 18.397 9.77848 19.3029L9.42567 20.0139L9.99656 20.112C10.459 20.1726 10.9304 20.2139 11.3852 20.3191C11.6514 20.3807 11.9055 20.49 12.1619 20.5824C12.4485 20.6771 12.7515 20.7659 13.0493 20.8149L13.5356 20.8748C13.6215 20.8848 13.7063 20.9026 13.7925 20.9098L14.8467 20.9581C14.8032 20.7862 14.7344 20.6207 14.6879 20.4487C14.3746 19.2887 14.6546 18.0012 15.3628 17.0422L15.6249 16.7016C14.7755 16.3757 14.2006 16.18 13.5473 15.5075L13.2547 15.1813C13.19 15.1018 13.1274 15.0046 13.053 14.935ZM5.71242 16.292C5.66471 16.5078 5.61221 17.1447 5.69096 17.3643L5.83055 17.84C6.12103 18.5503 6.59761 19.1226 7.31323 19.4438L7.72313 19.5991C7.7355 19.5819 7.73963 19.5747 7.74595 19.5557C7.7816 19.4074 7.81871 19.2571 7.83373 19.105C7.96416 17.7844 6.86227 16.7238 5.71242 16.292ZM16.4157 17.003C15.9664 17.4699 15.5875 18.0262 15.4269 18.6626C15.286 19.2211 15.2779 19.9116 15.4886 20.4516L15.603 20.7681C15.619 20.8218 15.652 20.8724 15.6732 20.925C15.956 20.8965 16.2467 20.8229 16.5079 20.7096C17.8178 20.134 18.252 18.3745 17.1391 17.3963C16.949 17.2292 16.7075 17.1126 16.4725 17.024L16.4157 17.003Z"/>
</mask>
<path d="M17.0614 21.2855C16.2649 21.7211 15.3644 21.754 14.4731 21.7218C13.6267 21.6912 12.5558 21.583 11.7567 21.2657C11.336 21.0987 11.2359 21.0574 10.7934 20.9909L9.70296 20.8444C9.03007 20.7449 8.37239 20.6075 7.72226 20.4064C6.29016 19.9635 5.33138 19.1587 4.96425 17.6206C4.82548 17.0393 4.87313 16.4024 5.03857 15.8291C5.2463 15.1094 5.41024 14.7109 5.40092 13.9041C5.39681 13.5491 5.27121 13.2169 5.1841 12.8772L5.03199 12.1556C4.99892 11.9837 4.98204 11.807 4.9613 11.6332L4.90854 11.0478C4.9017 10.9797 4.88897 10.9135 4.88651 10.8445L4.88508 8.53337C4.88548 8.25578 4.9159 7.98489 4.93435 7.708L5.14887 4.30333L5.1511 3.4814C5.1521 2.98762 5.22347 2.51575 5.78719 2.3452L5.80238 2.34081C5.86847 2.32126 5.92955 2.31166 5.99785 2.30469L12.9274 2.44434C13.5006 2.5169 13.5211 3.04005 13.5214 3.47305L13.5079 5.76306C13.5002 5.89647 13.464 6.0238 13.4563 6.15794C13.4368 6.4978 13.4221 6.81041 13.3927 7.15117L13.0784 10.4443L13.018 11.9692C13.0178 12.2084 13.0035 12.4584 13.028 12.6963C13.1446 13.827 13.8024 14.9678 14.8078 15.5231C15.2182 15.7498 15.6596 15.894 16.0992 16.0501L16.6079 16.2495C17.4407 16.5788 17.9648 16.9929 18.3282 17.8037L18.3754 17.9209C18.7633 18.915 18.4187 20.1267 17.6542 20.8448C17.4746 21.0135 17.2683 21.153 17.0614 21.2855ZM6.05691 3.08791C5.96611 3.124 5.99103 3.20619 5.99051 3.29003L5.98922 5.06753L7.07274 5.17905L7.12739 5.18001C7.13984 5.1003 7.13449 5.01683 7.13463 4.93619L7.13478 3.1495L6.66502 3.11289C6.47161 3.09234 6.25135 3.06219 6.05691 3.08791ZM12.7066 3.20622L11.5673 3.2665C11.5564 3.44106 11.5624 3.61851 11.5624 3.79342L11.5603 5.05656C11.5601 5.13529 11.5187 5.25543 11.6225 5.25454L12.7478 5.1884L12.7493 3.29807C12.7485 3.26216 12.7579 3.23331 12.7336 3.20535L12.7066 3.20622ZM7.88178 3.22832L7.87413 5.11485C7.87596 5.32044 7.88963 5.2626 8.07795 5.28419C8.38922 5.31984 8.71001 5.31196 9.02337 5.31048L9.02358 3.25766C8.65453 3.2072 8.25464 3.22623 7.88178 3.22832ZM9.71452 3.28487C9.69851 3.49659 9.68527 5.25503 9.71021 5.31004L10.8865 5.30001L10.887 3.28307L10.1001 3.2815C9.97554 3.28164 9.83756 3.27023 9.71452 3.28487ZM5.8211 5.81123L5.71704 7.39239C6.11862 7.49186 6.61957 7.52338 7.03172 7.5651L8.21986 7.66047C8.3295 7.66801 8.43656 7.69012 8.54611 7.69457L10.5251 7.6938L11.3084 7.64575C11.5575 7.64073 11.8106 7.61176 12.0648 7.5988L12.5923 7.552C12.6163 7.51555 12.6111 7.46957 12.6129 7.42841L12.7133 5.96659C12.5964 5.96772 12.4841 5.98112 12.3677 5.98832L11.7309 6.03229C11.5235 6.05043 11.3121 6.03852 11.104 6.04733C10.9552 6.05364 10.807 6.08202 10.6568 6.08819L8.69578 6.08915L7.635 6.02978L6.25791 5.86926C6.11032 5.85107 5.96763 5.83937 5.8211 5.81123ZM5.64017 8.18026C5.60853 8.6433 5.63379 9.11978 5.63304 9.58457L5.63222 10.1668C5.63217 10.5649 5.57452 10.4886 5.95357 10.5717L7.25299 10.8003C7.51467 10.8428 7.77502 10.8953 8.03921 10.923L8.48485 10.9712C9.19317 11.0369 9.91064 11.072 10.6217 11.0268L11.0198 10.9828C11.2893 10.9551 11.5731 10.9211 11.8342 10.8482L12.305 10.7139L12.5166 8.33507C12.3119 8.33706 12.1128 8.3609 11.9094 8.37962L10.5085 8.4591L8.01546 8.4298C7.89495 8.42413 7.77549 8.404 7.65513 8.39437L6.80217 8.32443C6.41576 8.2818 6.02759 8.20637 5.64017 8.18026ZM5.71308 11.3079C5.71852 11.4908 5.74296 11.6704 5.7687 11.8515L5.84234 12.2551C5.85776 12.3479 5.85853 12.4318 5.8946 12.5204C6.56485 12.7123 7.27472 12.8532 7.96688 12.9378L8.6206 13.0037L10.3364 13.0019C10.9354 12.9632 11.6202 12.8363 12.1886 12.6651L12.2464 12.6495C12.2654 12.5985 12.2446 11.7134 12.2578 11.5638L10.8407 11.7818C10.5412 11.8146 10.2513 11.816 9.94931 11.8157L9.11646 11.809C9.02098 11.804 8.9288 11.7836 8.8339 11.7761L7.19414 11.5858L6.18544 11.4072C6.02944 11.3764 5.86503 11.3534 5.71308 11.3079ZM6.11986 13.3799L6.1406 13.7178L8.43654 14.521C8.52595 14.5612 8.62247 14.6256 8.71976 14.6375L9.20262 14.7164C9.88526 14.8024 10.8811 14.7858 11.5405 14.5988L12.5659 14.2934L12.681 14.2489C12.6138 14.0889 12.5435 13.9303 12.4868 13.7661C12.4496 13.6583 12.4278 13.5234 12.3773 13.4236L10.5231 13.7628C10.4411 13.7835 10.3487 13.7804 10.2645 13.7815L8.65367 13.7774C8.57691 13.7733 8.50465 13.7562 8.42918 13.7494L7.02816 13.5784L6.40512 13.4497C6.32215 13.4303 6.20189 13.382 6.11986 13.3799ZM6.12919 14.5283C6.09127 14.864 6.05236 15.2276 5.9366 15.5464C6.94477 15.9536 7.92141 16.6165 8.35749 17.6542L8.49502 18.0282C8.62934 18.3801 8.67525 19.0155 8.58474 19.3747L8.50088 19.827C8.6227 19.9271 8.7376 19.6142 8.77899 19.5402C9.5314 18.2648 9.62928 16.8269 8.70804 15.6367C8.49434 15.3606 8.40056 15.3567 8.09278 15.2224C7.55487 14.9877 7.00446 14.7938 6.44578 14.6147L6.22135 14.5451C6.19606 14.5377 6.15506 14.5224 6.12919 14.5283ZM13.053 14.935L12.2835 15.208C11.2548 15.5222 10.6154 15.5207 9.5775 15.519L9.59175 15.5288C9.65578 15.5769 9.92721 16.2317 9.95555 16.3192C10.263 17.2691 10.1739 18.397 9.77848 19.3029L9.42567 20.0139L9.99656 20.112C10.459 20.1726 10.9304 20.2139 11.3852 20.3191C11.6514 20.3807 11.9055 20.49 12.1619 20.5824C12.4485 20.6771 12.7515 20.7659 13.0493 20.8149L13.5356 20.8748C13.6215 20.8848 13.7063 20.9026 13.7925 20.9098L14.8467 20.9581C14.8032 20.7862 14.7344 20.6207 14.6879 20.4487C14.3746 19.2887 14.6546 18.0012 15.3628 17.0422L15.6249 16.7016C14.7755 16.3757 14.2006 16.18 13.5473 15.5075L13.2547 15.1813C13.19 15.1018 13.1274 15.0046 13.053 14.935ZM5.71242 16.292C5.66471 16.5078 5.61221 17.1447 5.69096 17.3643L5.83055 17.84C6.12103 18.5503 6.59761 19.1226 7.31323 19.4438L7.72313 19.5991C7.7355 19.5819 7.73963 19.5747 7.74595 19.5557C7.7816 19.4074 7.81871 19.2571 7.83373 19.105C7.96416 17.7844 6.86227 16.7238 5.71242 16.292ZM16.4157 17.003C15.9664 17.4699 15.5875 18.0262 15.4269 18.6626C15.286 19.2211 15.2779 19.9116 15.4886 20.4516L15.603 20.7681C15.619 20.8218 15.652 20.8724 15.6732 20.925C15.956 20.8965 16.2467 20.8229 16.5079 20.7096C17.8178 20.134 18.252 18.3745 17.1391 17.3963C16.949 17.2292 16.7075 17.1126 16.4725 17.024L16.4157 17.003Z" fill="#1D1515"/>
<path d="M17.0614 21.2855C16.2649 21.7211 15.3644 21.754 14.4731 21.7218C13.6267 21.6912 12.5558 21.583 11.7567 21.2657C11.336 21.0987 11.2359 21.0574 10.7934 20.9909L9.70296 20.8444C9.03007 20.7449 8.37239 20.6075 7.72226 20.4064C6.29016 19.9635 5.33138 19.1587 4.96425 17.6206C4.82548 17.0393 4.87313 16.4024 5.03857 15.8291C5.2463 15.1094 5.41024 14.7109 5.40092 13.9041C5.39681 13.5491 5.27121 13.2169 5.1841 12.8772L5.03199 12.1556C4.99892 11.9837 4.98204 11.807 4.9613 11.6332L4.90854 11.0478C4.9017 10.9797 4.88897 10.9135 4.88651 10.8445L4.88508 8.53337C4.88548 8.25578 4.9159 7.98489 4.93435 7.708L5.14887 4.30333L5.1511 3.4814C5.1521 2.98762 5.22347 2.51575 5.78719 2.3452L5.80238 2.34081C5.86847 2.32126 5.92955 2.31166 5.99785 2.30469L12.9274 2.44434C13.5006 2.5169 13.5211 3.04005 13.5214 3.47305L13.5079 5.76306C13.5002 5.89647 13.464 6.0238 13.4563 6.15794C13.4368 6.4978 13.4221 6.81041 13.3927 7.15117L13.0784 10.4443L13.018 11.9692C13.0178 12.2084 13.0035 12.4584 13.028 12.6963C13.1446 13.827 13.8024 14.9678 14.8078 15.5231C15.2182 15.7498 15.6596 15.894 16.0992 16.0501L16.6079 16.2495C17.4407 16.5788 17.9648 16.9929 18.3282 17.8037L18.3754 17.9209C18.7633 18.915 18.4187 20.1267 17.6542 20.8448C17.4746 21.0135 17.2683 21.153 17.0614 21.2855ZM6.05691 3.08791C5.96611 3.124 5.99103 3.20619 5.99051 3.29003L5.98922 5.06753L7.07274 5.17905L7.12739 5.18001C7.13984 5.1003 7.13449 5.01683 7.13463 4.93619L7.13478 3.1495L6.66502 3.11289C6.47161 3.09234 6.25135 3.06219 6.05691 3.08791ZM12.7066 3.20622L11.5673 3.2665C11.5564 3.44106 11.5624 3.61851 11.5624 3.79342L11.5603 5.05656C11.5601 5.13529 11.5187 5.25543 11.6225 5.25454L12.7478 5.1884L12.7493 3.29807C12.7485 3.26216 12.7579 3.23331 12.7336 3.20535L12.7066 3.20622ZM7.88178 3.22832L7.87413 5.11485C7.87596 5.32044 7.88963 5.2626 8.07795 5.28419C8.38922 5.31984 8.71001 5.31196 9.02337 5.31048L9.02358 3.25766C8.65453 3.2072 8.25464 3.22623 7.88178 3.22832ZM9.71452 3.28487C9.69851 3.49659 9.68527 5.25503 9.71021 5.31004L10.8865 5.30001L10.887 3.28307L10.1001 3.2815C9.97554 3.28164 9.83756 3.27023 9.71452 3.28487ZM5.8211 5.81123L5.71704 7.39239C6.11862 7.49186 6.61957 7.52338 7.03172 7.5651L8.21986 7.66047C8.3295 7.66801 8.43656 7.69012 8.54611 7.69457L10.5251 7.6938L11.3084 7.64575C11.5575 7.64073 11.8106 7.61176 12.0648 7.5988L12.5923 7.552C12.6163 7.51555 12.6111 7.46957 12.6129 7.42841L12.7133 5.96659C12.5964 5.96772 12.4841 5.98112 12.3677 5.98832L11.7309 6.03229C11.5235 6.05043 11.3121 6.03852 11.104 6.04733C10.9552 6.05364 10.807 6.08202 10.6568 6.08819L8.69578 6.08915L7.635 6.02978L6.25791 5.86926C6.11032 5.85107 5.96763 5.83937 5.8211 5.81123ZM5.64017 8.18026C5.60853 8.6433 5.63379 9.11978 5.63304 9.58457L5.63222 10.1668C5.63217 10.5649 5.57452 10.4886 5.95357 10.5717L7.25299 10.8003C7.51467 10.8428 7.77502 10.8953 8.03921 10.923L8.48485 10.9712C9.19317 11.0369 9.91064 11.072 10.6217 11.0268L11.0198 10.9828C11.2893 10.9551 11.5731 10.9211 11.8342 10.8482L12.305 10.7139L12.5166 8.33507C12.3119 8.33706 12.1128 8.3609 11.9094 8.37962L10.5085 8.4591L8.01546 8.4298C7.89495 8.42413 7.77549 8.404 7.65513 8.39437L6.80217 8.32443C6.41576 8.2818 6.02759 8.20637 5.64017 8.18026ZM5.71308 11.3079C5.71852 11.4908 5.74296 11.6704 5.7687 11.8515L5.84234 12.2551C5.85776 12.3479 5.85853 12.4318 5.8946 12.5204C6.56485 12.7123 7.27472 12.8532 7.96688 12.9378L8.6206 13.0037L10.3364 13.0019C10.9354 12.9632 11.6202 12.8363 12.1886 12.6651L12.2464 12.6495C12.2654 12.5985 12.2446 11.7134 12.2578 11.5638L10.8407 11.7818C10.5412 11.8146 10.2513 11.816 9.94931 11.8157L9.11646 11.809C9.02098 11.804 8.9288 11.7836 8.8339 11.7761L7.19414 11.5858L6.18544 11.4072C6.02944 11.3764 5.86503 11.3534 5.71308 11.3079ZM6.11986 13.3799L6.1406 13.7178L8.43654 14.521C8.52595 14.5612 8.62247 14.6256 8.71976 14.6375L9.20262 14.7164C9.88526 14.8024 10.8811 14.7858 11.5405 14.5988L12.5659 14.2934L12.681 14.2489C12.6138 14.0889 12.5435 13.9303 12.4868 13.7661C12.4496 13.6583 12.4278 13.5234 12.3773 13.4236L10.5231 13.7628C10.4411 13.7835 10.3487 13.7804 10.2645 13.7815L8.65367 13.7774C8.57691 13.7733 8.50465 13.7562 8.42918 13.7494L7.02816 13.5784L6.40512 13.4497C6.32215 13.4303 6.20189 13.382 6.11986 13.3799ZM6.12919 14.5283C6.09127 14.864 6.05236 15.2276 5.9366 15.5464C6.94477 15.9536 7.92141 16.6165 8.35749 17.6542L8.49502 18.0282C8.62934 18.3801 8.67525 19.0155 8.58474 19.3747L8.50088 19.827C8.6227 19.9271 8.7376 19.6142 8.77899 19.5402C9.5314 18.2648 9.62928 16.8269 8.70804 15.6367C8.49434 15.3606 8.40056 15.3567 8.09278 15.2224C7.55487 14.9877 7.00446 14.7938 6.44578 14.6147L6.22135 14.5451C6.19606 14.5377 6.15506 14.5224 6.12919 14.5283ZM13.053 14.935L12.2835 15.208C11.2548 15.5222 10.6154 15.5207 9.5775 15.519L9.59175 15.5288C9.65578 15.5769 9.92721 16.2317 9.95555 16.3192C10.263 17.2691 10.1739 18.397 9.77848 19.3029L9.42567 20.0139L9.99656 20.112C10.459 20.1726 10.9304 20.2139 11.3852 20.3191C11.6514 20.3807 11.9055 20.49 12.1619 20.5824C12.4485 20.6771 12.7515 20.7659 13.0493 20.8149L13.5356 20.8748C13.6215 20.8848 13.7063 20.9026 13.7925 20.9098L14.8467 20.9581C14.8032 20.7862 14.7344 20.6207 14.6879 20.4487C14.3746 19.2887 14.6546 18.0012 15.3628 17.0422L15.6249 16.7016C14.7755 16.3757 14.2006 16.18 13.5473 15.5075L13.2547 15.1813C13.19 15.1018 13.1274 15.0046 13.053 14.935ZM5.71242 16.292C5.66471 16.5078 5.61221 17.1447 5.69096 17.3643L5.83055 17.84C6.12103 18.5503 6.59761 19.1226 7.31323 19.4438L7.72313 19.5991C7.7355 19.5819 7.73963 19.5747 7.74595 19.5557C7.7816 19.4074 7.81871 19.2571 7.83373 19.105C7.96416 17.7844 6.86227 16.7238 5.71242 16.292ZM16.4157 17.003C15.9664 17.4699 15.5875 18.0262 15.4269 18.6626C15.286 19.2211 15.2779 19.9116 15.4886 20.4516L15.603 20.7681C15.619 20.8218 15.652 20.8724 15.6732 20.925C15.956 20.8965 16.2467 20.8229 16.5079 20.7096C17.8178 20.134 18.252 18.3745 17.1391 17.3963C16.949 17.2292 16.7075 17.1126 16.4725 17.024L16.4157 17.003Z" stroke="#1D1515" stroke-width="0.2" mask="url(#path-1-outside-1_2742_101791)"/>
</svg>
