<svg width="24" height="24" viewBox="0 0 24 24" fill="none" xmlns="http://www.w3.org/2000/svg">
<path fill-rule="evenodd" clip-rule="evenodd" d="M9.21502 20.5001C10.6381 19.7016 11.7935 18.2534 12.6248 16.8323C14.3156 13.8953 15.7668 13.4081 18.2044 10.9448C19.5288 9.60485 19.0216 7.98071 17.9789 6.68139C16.7531 5.44975 15.3018 5.24673 14.3015 3C12.4134 4.38052 10.159 5.20613 7.65104 5.6663C9.22911 10.9989 6.89019 12.6772 5.08668 15.0728C2.01509 19.1738 6.11524 22.2461 9.21502 20.5001Z" stroke="#1D1515" stroke-width="1.25" stroke-miterlimit="22.9256" stroke-linecap="round" stroke-linejoin="round"/>
<path d="M15.4283 4.69531C13.4557 6.33299 10.9477 7.25334 8.10156 7.74058" stroke="#1D1515" stroke-width="1.25" stroke-miterlimit="22.9256" stroke-linecap="round" stroke-linejoin="round"/>
<path d="M17.0912 5.95312C13.6814 7.32011 13.8364 10.5278 16.6685 12.382" stroke="#1D1515" stroke-width="1.25" stroke-miterlimit="22.9256" stroke-linecap="round" stroke-linejoin="round"/>
<path d="M9.66568 20.2264C9.45433 17.4924 6.87588 15.8412 4.31152 16.3961" stroke="#1D1515" stroke-width="1.25" stroke-miterlimit="22.9256" stroke-linecap="round" stroke-linejoin="round"/>
</svg>
