<svg width="24" height="24" viewBox="0 0 24 24" fill="none" xmlns="http://www.w3.org/2000/svg">
<path d="M10.0592 21.7541C8.30191 20.6997 8.7217 16.4822 4.38709 13.7389C0.638227 11.3764 1.79022 7.65678 4.514 5.76283C5.92958 4.7768 6.68131 3.89816 6.52511 3" stroke="#1D1515" stroke-width="1.25" stroke-miterlimit="22.9256" stroke-linecap="round" stroke-linejoin="round"/>
<path fill-rule="evenodd" clip-rule="evenodd" d="M13.6129 21.9709C10.8501 21.9709 10.567 15.059 5.90041 12.1106C5.15845 11.642 4.27005 11.027 4.39696 10.0019C4.59222 8.46918 5.94923 6.92668 7.29647 6.20424C8.31179 5.6673 8.74134 4.21266 8.90731 3.41213C8.94636 3.20711 8.91707 3.06067 8.99517 3.01186C8.99517 3.01186 8.99517 3.01186 9.03422 3.01186C9.08304 3.00209 9.10256 3.01186 9.13185 3.02162C13.6422 4.88629 15.9657 4.44697 15.995 4.64222C16.1219 5.31584 16.3172 7.00478 15.79 9.54307C14.8918 13.8289 15.5947 17.0701 17.5765 18.1244C18.4649 18.593 22.0478 19.0714 20.7006 20.9751C19.7927 22.2736 13.6129 21.9709 13.6129 21.9709Z" stroke="#1D1515" stroke-width="1.25" stroke-miterlimit="22.9256" stroke-linecap="round" stroke-linejoin="round"/>
</svg>
