<svg width="24" height="24" viewBox="0 0 24 24" fill="none" xmlns="http://www.w3.org/2000/svg">
<path d="M18.4715 17.8371L16.0424 13.7886C16.3067 13.7463 16.5413 13.5873 16.6781 13.3518C16.8392 13.0743 16.8404 12.732 16.6811 12.4536L14.3453 8.36611C14.5589 8.3055 14.7455 8.1672 14.8652 7.97341C15.0293 7.70791 15.044 7.37671 14.9045 7.09771L13.1045 3.49771C12.9524 3.19259 12.6407 3 12.2999 3C11.9591 3 11.6474 3.19259 11.495 3.49739L9.69497 7.09739C9.55547 7.37639 9.57048 7.7076 9.73427 7.9731C9.85398 8.16691 10.0409 8.30518 10.2542 8.36579L7.91838 12.4533C7.75909 12.732 7.76028 13.074 7.92137 13.3515C8.05816 13.5873 8.29276 13.746 8.55707 13.7883L6.1283 17.8371C5.96148 18.1152 5.95698 18.4614 6.11691 18.7434C6.27651 19.0257 6.57559 19.2 6.89991 19.2H11.8499V21H12.7499V19.2L17.6999 19.2C18.0242 19.2 18.3233 19.0257 18.4832 18.7434C18.6428 18.4614 18.6383 18.1149 18.4715 17.8371ZM12.2999 3.9L14.0999 7.5L10.4999 7.5L12.2999 3.9ZM11.2712 8.4L13.3283 8.4L15.8999 12.9L8.69991 12.9L11.2712 8.4ZM6.89987 18.3L9.59987 13.8L14.9999 13.8L17.6999 18.3L6.89987 18.3Z" fill="#1D1515" stroke="#1D1515" stroke-width="0.2"/>
</svg>
