<svg width="24" height="24" viewBox="0 0 24 24" fill="none" xmlns="http://www.w3.org/2000/svg">
<path fill-rule="evenodd" clip-rule="evenodd" d="M4.34564 19C5.58765 18.9829 6.53026 18.9659 7.77226 18.9505C10.0803 18.9198 10.1658 18.7816 11.2894 17.5824C14.5531 14.0991 15.3756 14.1571 19.8206 11.1394C21.079 10.2848 21.2846 9.01218 20.6546 7.85732C20.1117 6.8628 19.4504 5.95187 18.8483 5C16.1011 7.30121 13.0726 8.81089 9.28735 8.19167C8.56517 10.3359 7.95815 14.4761 5.01353 15.445C2.37982 16.3099 2.51635 19 4.34564 19Z" stroke="#1D1515" stroke-width="1.25" stroke-miterlimit="22.9256" stroke-linecap="round" stroke-linejoin="round"/>
<path d="M5.97266 18.9764L5.91672 18.7444C5.93646 17.5538 5.642 16.4518 5.0136 15.4453" stroke="#1D1515" stroke-width="1.25" stroke-miterlimit="22.9256" stroke-linecap="round" stroke-linejoin="round"/>
<path d="M8.57369 10.6188C11.5249 11.2636 14.5929 10.3697 17.8057 8.55469" stroke="#1D1515" stroke-width="1.25" stroke-miterlimit="22.9256" stroke-linecap="round" stroke-linejoin="round"/>
<path d="M16.8301 13.0831C16.4073 11.8805 16.2231 10.8143 16.6738 9.15625" stroke="#1D1515" stroke-width="1.25" stroke-miterlimit="22.9256" stroke-linecap="round" stroke-linejoin="round"/>
</svg>
