<svg width="24" height="24" viewBox="0 0 24 24" fill="none" xmlns="http://www.w3.org/2000/svg">
<path d="M17.5917 5.12638C17.502 4.34027 17.5063 3.59711 17.5789 3L9.95992 3C10.6603 7.71671 9.49868 8.89374 8.9563 12.3389C8.34985 16.1965 9.07161 17.9878 5.88137 18.645C1.76438 19.4913 2.70394 21.9141 4.71973 22C6.0949 21.9828 7.13696 22 8.51214 22C10.5792 22 11.365 21.957 13.1502 19.5987C15.1147 17.0084 15.9475 16.1492 18.8302 14.6758C20.325 13.9111 20.3976 11.4669 18.9883 9.36197C18.6808 8.89803 18.4288 8.37825 18.2323 7.84558" stroke="#1D1515" stroke-width="1.25" stroke-miterlimit="22.9256" stroke-linecap="round" stroke-linejoin="round"/>
<path d="M6.91865 21.9948C6.24387 21.1142 5.95773 19.9586 5.88086 18.6484" stroke="#1D1515" stroke-width="1.25" stroke-miterlimit="22.9256" stroke-linecap="round" stroke-linejoin="round"/>
<path d="M11.3825 10.5156C10.806 12.337 10.7206 14.1842 10.8658 16.3578" stroke="#1D1515" stroke-width="1.25" stroke-miterlimit="22.9256" stroke-linecap="round" stroke-linejoin="round"/>
<path d="M18.8732 9.17969C15.8324 10.1076 15.4139 13.6859 17.3357 15.4944" stroke="#1D1515" stroke-width="1.25" stroke-miterlimit="22.9256" stroke-linecap="round" stroke-linejoin="round"/>
<path fill-rule="evenodd" clip-rule="evenodd" d="M12.4111 7.92797V4.85223C13.1286 4.83935 13.876 5.01118 14.6661 5.41927V7.36523C13.876 7.79481 13.1286 7.97093 12.4111 7.92797Z" stroke="#1D1515" stroke-width="1.25" stroke-miterlimit="22.9256" stroke-linecap="round" stroke-linejoin="round"/>
<path fill-rule="evenodd" clip-rule="evenodd" d="M19.2315 7.92478V4.84904C18.514 4.81038 17.7666 4.9822 16.9766 5.41607V7.36204C17.7666 7.79161 18.514 7.96773 19.2315 7.92478Z" stroke="#1D1515" stroke-width="1.25" stroke-miterlimit="22.9256" stroke-linecap="round" stroke-linejoin="round"/>
<path d="M16.9765 5.5L14.666 5.5V7.19681L16.9765 7.19681V5.5Z" stroke="#1D1515" stroke-width="1.25" stroke-miterlimit="22.9256" stroke-linecap="round" stroke-linejoin="round"/>
<path d="M12.4118 6.34375L10.1611 6.34375" stroke="#1D1515" stroke-width="1.25" stroke-miterlimit="22.9256" stroke-linecap="round" stroke-linejoin="round"/>
</svg>
