<svg width="24" height="24" viewBox="0 0 24 24" fill="none" xmlns="http://www.w3.org/2000/svg">
<path fill-rule="evenodd" clip-rule="evenodd" d="M19.5662 19.9988C18.2465 19.9823 17.2445 19.9483 15.9248 19.9483C13.9424 19.9483 13.1911 19.9094 11.4751 17.6194C9.16131 14.5339 8.41101 14.0609 4.0685 11.3581C1.70549 9.88767 3.61517 5.37938 6.36464 6.7711C8.92727 8.06862 11.2323 9.573 14.3141 9.1719C15.0811 11.3202 16.267 15.6702 18.8572 16.4364C21.6657 17.2688 21.5103 19.9988 19.5662 19.9988Z" stroke="#1D1515" stroke-width="1.25" stroke-miterlimit="22.9256" stroke-linecap="round" stroke-linejoin="round"/>
<path d="M17.7537 18.0234H14.9609" stroke="#1D1515" stroke-width="1.25" stroke-miterlimit="22.9256" stroke-linecap="round" stroke-linejoin="round"/>
<path d="M13.9105 9.21487C13.7011 6.67811 13.9853 5.88853 13.114 5.81763C10.2131 5.58163 10.2082 5.51753 8.60631 4.26955C6.60223 3.0507 4.98166 6.34985 5.01214 6.53632" stroke="#1D1515" stroke-width="1.25" stroke-miterlimit="22.9256" stroke-linecap="round" stroke-linejoin="round"/>
</svg>
