<svg width="24" height="24" viewBox="0 0 24 24" fill="none" xmlns="http://www.w3.org/2000/svg">
<path d="M20.0002 10.999H22.0002C22.0002 5.869 18.1272 2 12.9902 2V4C17.0522 4 20.0002 6.943 20.0002 10.999Z" fill="#1D1515"/>
<path d="M13.0003 8.00219C15.1033 8.00219 16.0003 8.89919 16.0003 11.0022H18.0003C18.0003 7.77719 16.2253 6.00219 13.0003 6.00219V8.00219ZM16.4223 13.4452C16.2301 13.2705 15.9776 13.1774 15.7181 13.1854C15.4585 13.1934 15.2123 13.302 15.0313 13.4882L12.6383 15.9492C12.0623 15.8392 10.9043 15.4782 9.71228 14.2892C8.52028 13.0962 8.15928 11.9352 8.05228 11.3632L10.5113 8.96919C10.6977 8.78832 10.8064 8.54201 10.8144 8.2824C10.8225 8.02278 10.7292 7.77023 10.5543 7.57819L6.85928 3.51519C6.68432 3.32255 6.44116 3.2057 6.18143 3.18945C5.92171 3.17321 5.66588 3.25885 5.46828 3.42819L3.29828 5.28919C3.12539 5.46271 3.0222 5.69364 3.00828 5.93819C2.99328 6.18819 2.70728 12.1102 7.29928 16.7042C11.3053 20.7092 16.3233 21.0022 17.7053 21.0022C17.9073 21.0022 18.0313 20.9962 18.0643 20.9942C18.3088 20.9805 18.5396 20.8769 18.7123 20.7032L20.5723 18.5322C20.7417 18.3347 20.8276 18.079 20.8115 17.8192C20.7954 17.5595 20.6788 17.3163 20.4863 17.1412L16.4223 13.4452Z" fill="#1D1515"/>
</svg>
