<svg width="24" height="25" viewBox="0 0 24 25" fill="none" xmlns="http://www.w3.org/2000/svg">
<path d="M3.94141 18.8494C4.81732 18.6304 5.71513 17.9297 6.61294 17.9297C7.35746 17.9297 8.12389 18.4552 8.89031 18.7399M18.7443 18.718C19.4889 18.4114 20.2334 17.9297 20.9998 17.9297M11.5399 18.718C12.3064 18.4114 13.0509 17.9297 13.7954 17.9297C14.5618 17.9297 15.3064 18.4552 16.0728 18.7399" stroke="#5D6063" stroke-width="1.4" stroke-miterlimit="22.9256"/>
<path d="M6.61328 3.5V8.42701M6.61328 11.6022V16.3978M6.61328 19.573V21.5" stroke="#5D6063" stroke-width="1.4" stroke-miterlimit="22.9256"/>
<path d="M10.2041 3.5V4.44161M10.2041 7.61679V12.3905M10.2041 15.5657V21.5" stroke="#5D6063" stroke-width="1.4" stroke-miterlimit="22.9256"/>
<path d="M13.7959 3.5V8.42701M13.7959 11.4927V16.3978M13.7959 19.573V21.5" stroke="#5D6063" stroke-width="1.4" stroke-miterlimit="22.9256"/>
<path d="M17.3867 3.5V4.41971M17.3867 7.59489V12.3905M17.3867 15.5657V21.5" stroke="#5D6063" stroke-width="1.4" stroke-miterlimit="22.9256"/>
<path d="M3 5.95312C3.76642 5.97502 4.53285 6.50057 5.27737 6.76334M15.1095 6.76334C15.8759 6.47867 16.6204 5.95312 17.3869 5.95312C18.2847 5.97502 19.1606 6.67575 20.0584 6.87283M7.92701 6.76334C8.67153 6.45677 9.43796 5.95312 10.2044 5.95312C10.9489 5.97502 11.7153 6.47867 12.4599 6.76334" stroke="#5D6063" stroke-width="1.4" stroke-miterlimit="22.9256"/>
<path d="M3 13.946C3.76642 13.946 4.53285 14.4716 5.27737 14.7343M15.1314 14.7343C15.8759 14.4278 16.6423 13.9241 17.3869 13.946C18.2847 13.946 19.1606 14.6467 20.0584 14.8438M7.94891 14.7124C8.69343 14.4278 9.43796 13.9241 10.2044 13.946C10.9489 13.946 11.7153 14.4497 12.4599 14.7343" stroke="#5D6063" stroke-width="1.4" stroke-miterlimit="22.9256"/>
<path d="M3.94141 10.8806C4.81732 10.6398 5.71513 9.96094 6.61294 9.96094C7.35746 9.96094 8.12389 10.4865 8.89031 10.7712M18.7224 10.7493C19.467 10.4646 20.2334 9.96094 20.9998 9.96094M11.518 10.7493C12.2845 10.4646 13.029 9.96094 13.7954 9.96094C14.5618 9.96094 15.3064 10.4865 16.0728 10.7712" stroke="#5D6063" stroke-width="1.4" stroke-miterlimit="22.9256"/>
</svg>
