<svg width="16" height="16" viewBox="0 0 16 16" fill="none" xmlns="http://www.w3.org/2000/svg">
<path fill-rule="evenodd" clip-rule="evenodd" d="M5.83211 11.2189C5.83644 11.8103 5.48347 12.346 4.93826 12.5753C4.39305 12.8047 3.76334 12.6824 3.34357 12.2657C2.9238 11.849 2.79692 11.2202 3.02226 10.6733C3.2476 10.1264 3.78063 9.76956 4.37211 9.76954C4.75792 9.76812 5.12848 9.92003 5.40228 10.1918C5.67609 10.4636 5.8307 10.8331 5.83211 11.2189V11.2189Z" stroke="#5D6063" stroke-linecap="round" stroke-linejoin="round"/>
<path fill-rule="evenodd" clip-rule="evenodd" d="M12.7872 11.2189C12.7915 11.8103 12.4385 12.346 11.8933 12.5753C11.3481 12.8047 10.7184 12.6824 10.2986 12.2657C9.87888 11.849 9.752 11.2202 9.97734 10.6733C10.2027 10.1264 10.7357 9.76956 11.3272 9.76954C11.713 9.76812 12.0836 9.92003 12.3574 10.1918C12.6312 10.4636 12.7858 10.8331 12.7872 11.2189Z" stroke="#5D6063" stroke-linecap="round" stroke-linejoin="round"/>
<path d="M9.69633 11.718C9.97247 11.718 10.1963 11.4942 10.1963 11.218C10.1963 10.9419 9.97247 10.718 9.69633 10.718V11.718ZM5.82966 10.718C5.55352 10.718 5.32966 10.9419 5.32966 11.218C5.32966 11.4942 5.55352 11.718 5.82966 11.718V10.718ZM9.19633 11.218C9.19633 11.4942 9.42018 11.718 9.69633 11.718C9.97247 11.718 10.1963 11.4942 10.1963 11.218H9.19633ZM10.1963 7.70668C10.1963 7.43054 9.97247 7.20668 9.69633 7.20668C9.42018 7.20668 9.19633 7.43054 9.19633 7.70668H10.1963ZM9.69633 10.718C9.42018 10.718 9.19633 10.9419 9.19633 11.218C9.19633 11.4942 9.42018 11.718 9.69633 11.718V10.718ZM9.86699 11.718C10.1431 11.718 10.367 11.4942 10.367 11.218C10.367 10.9419 10.1431 10.718 9.86699 10.718V11.718ZM12.7849 10.718C12.5087 10.7192 12.2858 10.944 12.287 11.2202C12.2882 11.4963 12.513 11.7192 12.7891 11.718L12.7849 10.718ZM14.3337 9.65735L14.8337 9.65498C14.8335 9.6255 14.8308 9.59609 14.8254 9.56709L14.3337 9.65735ZM14.4674 7.61643C14.4176 7.34482 14.157 7.16505 13.8854 7.2149C13.6138 7.26474 13.434 7.52533 13.4839 7.79694L14.4674 7.61643ZM9.69566 4.08535C9.41952 4.08535 9.19566 4.30921 9.19566 4.58535C9.19566 4.86149 9.41952 5.08535 9.69566 5.08535V4.08535ZM12.143 4.58535V5.08545L12.1529 5.08525L12.143 4.58535ZM13.2505 5.03435L13.6057 4.68247V4.68247L13.2505 5.03435ZM13.689 6.14602L13.1892 6.13141C13.1882 6.16651 13.1909 6.20161 13.1972 6.23614L13.689 6.14602ZM13.4832 7.79681C13.533 8.06843 13.7935 8.24827 14.0651 8.19849C14.3367 8.14872 14.5166 7.88817 14.4668 7.61656L13.4832 7.79681ZM10.195 4.58535C10.195 4.30921 9.97114 4.08535 9.69499 4.08535C9.41885 4.08535 9.19499 4.30921 9.19499 4.58535H10.195ZM9.19499 7.70668C9.19499 7.98282 9.41885 8.20668 9.69499 8.20668C9.97114 8.20668 10.195 7.98282 10.195 7.70668H9.19499ZM9.19499 4.58535C9.19499 4.86149 9.41885 5.08535 9.69499 5.08535C9.97114 5.08535 10.195 4.86149 10.195 4.58535H9.19499ZM9.69499 4.05202H10.195L10.195 4.04834L9.69499 4.05202ZM8.96699 3.33402V3.83403L8.97023 3.834L8.96699 3.33402ZM2.39699 3.33402L2.39236 3.83402H2.39699V3.33402ZM1.88356 3.54115L1.53328 3.18435L1.53328 3.18435L1.88356 3.54115ZM1.66699 4.05068L1.16699 4.0461V4.05068H1.66699ZM1.66699 10.5007H1.16697L1.16701 10.5053L1.66699 10.5007ZM1.88356 11.0102L2.23384 10.6534L2.23384 10.6534L1.88356 11.0102ZM2.39699 11.2173V10.7173L2.39236 10.7174L2.39699 11.2173ZM2.91166 11.7173C3.1878 11.7173 3.41166 11.4935 3.41166 11.2173C3.41166 10.9412 3.1878 10.7173 2.91166 10.7173V11.7173ZM9.69633 7.20668C9.42018 7.20668 9.19633 7.43054 9.19633 7.70668C9.19633 7.98282 9.42018 8.20668 9.69633 8.20668V7.20668ZM13.9763 8.20668C14.2525 8.20668 14.4763 7.98282 14.4763 7.70668C14.4763 7.43054 14.2525 7.20668 13.9763 7.20668V8.20668ZM9.69633 10.718H5.82966V11.718H9.69633V10.718ZM10.1963 11.218V7.70668H9.19633V11.218H10.1963ZM9.69633 11.718H9.86699V10.718H9.69633V11.718ZM12.7891 11.718C13.3339 11.7157 13.8553 11.497 14.2388 11.1101L13.5285 10.4062C13.3318 10.6046 13.0643 10.7168 12.7849 10.718L12.7891 11.718ZM14.2388 11.1101C14.6222 10.7231 14.8362 10.1997 14.8337 9.65498L13.8337 9.65971C13.835 9.93915 13.7252 10.2077 13.5285 10.4062L14.2388 11.1101ZM14.8254 9.56709L14.4674 7.61643L13.4839 7.79694L13.8419 9.74761L14.8254 9.56709ZM9.69566 5.08535H12.143V4.08535H9.69566V5.08535ZM12.1529 5.08525C12.4311 5.07975 12.6994 5.18853 12.8953 5.38623L13.6057 4.68247C13.2172 4.29032 12.685 4.07454 12.1331 4.08545L12.1529 5.08525ZM12.8953 5.38623C13.0911 5.58393 13.1973 5.85326 13.1892 6.13141L14.1888 6.16062C14.2049 5.60887 13.9942 5.07462 13.6057 4.68247L12.8953 5.38623ZM13.1972 6.23614L13.4832 7.79681L14.4668 7.61656L14.1808 6.05589L13.1972 6.23614ZM9.19499 4.58535V7.70668H10.195V4.58535H9.19499ZM10.195 4.58535V4.05202H9.19499V4.58535H10.195ZM10.195 4.04834C10.19 3.37315 9.63895 2.82965 8.96375 2.83403L8.97023 3.834C9.0935 3.83321 9.1941 3.93243 9.19501 4.05569L10.195 4.04834ZM8.96699 2.83402H2.39699V3.83402H8.96699V2.83402ZM2.40162 2.83404C2.07717 2.83103 1.76481 2.95705 1.53328 3.18435L2.23384 3.89795C2.27611 3.85645 2.33313 3.83345 2.39236 3.83399L2.40162 2.83404ZM1.53328 3.18435C1.30174 3.41166 1.16999 3.72164 1.16701 4.0461L2.16697 4.05527C2.16751 3.99604 2.19157 3.93945 2.23384 3.89795L1.53328 3.18435ZM1.16699 4.05068V10.5007H2.16699V4.05068H1.16699ZM1.16701 10.5053C1.16999 10.8297 1.30174 11.1397 1.53328 11.367L2.23384 10.6534C2.19157 10.6119 2.16751 10.5553 2.16697 10.4961L1.16701 10.5053ZM1.53328 11.367C1.76481 11.5943 2.07717 11.7203 2.40162 11.7173L2.39236 10.7174C2.33313 10.7179 2.27611 10.6949 2.23384 10.6534L1.53328 11.367ZM2.39699 11.7173H2.91166V10.7173H2.39699V11.7173ZM9.69633 8.20668H13.9763V7.20668H9.69633V8.20668Z" fill="#5D6063"/>
</svg>
