<svg width="24" height="24" viewBox="0 0 24 24" fill="none" xmlns="http://www.w3.org/2000/svg">
<path d="M5.28889 17.2124C4.70255 16.911 3.80157 16.5231 3.13339 16.444C2.81415 16.4063 2.30406 16.5851 2.11447 16.4392C1.88632 16.2635 1.90951 14.9924 1.93669 14.6102C1.96765 14.175 2.04487 13.7518 2.10785 13.3212L2.38939 11.0375C2.40282 10.8553 2.38494 10.665 2.41409 10.4847L2.62194 9.38367C2.69998 8.87456 2.68341 8.35587 2.6821 7.842L2.67716 7.41584C2.67043 7.17992 2.63455 6.88849 2.60984 6.65119L2.49519 5.82117C2.45952 5.56763 2.55526 5.30006 2.8662 5.37188L2.88252 5.37588C2.96872 5.39658 3.04522 5.43844 3.12791 5.46898L3.56412 5.61668C4.78105 5.9929 6.00795 6.18994 7.27609 6.28744L9.34133 6.37488C9.64979 6.37488 9.96561 6.38761 10.273 6.36935C10.496 6.35611 10.72 6.31132 10.9428 6.29203L11.4392 6.23719C11.5283 6.22744 11.6297 6.25317 11.6776 6.16749C11.8146 5.92249 12.0716 5.79384 12.2626 6.08363C12.363 6.23604 12.4984 6.1692 12.712 6.1797L13.3724 6.24049C13.481 6.2535 13.6083 6.25927 13.7119 6.29433C13.9092 6.3611 13.7598 6.37071 14.0622 6.37331L15.4175 6.37151L18.0463 6.10948C18.972 5.98533 19.9234 5.84238 20.7925 5.4855C20.8959 5.44306 20.9931 5.3925 21.0989 5.35434C21.2748 5.33843 21.4478 5.38779 21.5013 5.58024L21.5045 5.59266C21.5447 5.74306 21.4869 5.92599 21.4667 6.07688L21.3796 6.76071C21.361 6.93235 21.3335 7.16859 21.3233 7.33974L21.32 8.73335C21.3296 9.00612 21.3686 9.46071 21.4216 9.7118C21.4822 9.99919 21.5465 10.2825 21.5792 10.5746L21.6141 11.0737L21.9606 13.7782C22.0345 14.1996 22.0616 14.6094 22.0612 15.038L22.058 15.6431C22.047 15.9116 22.0391 16.4486 21.7416 16.5007L21.7277 16.5028C21.5814 16.5272 21.3843 16.472 21.2346 16.4571C20.3104 16.3651 19.5498 16.7369 18.7718 17.1812L17.2359 18.1015C16.2372 18.6471 15.3323 18.6449 14.2315 18.4636C13.9482 18.4169 13.5163 18.383 13.3381 18.1303L13.3265 18.1135C13.2301 17.979 13.2908 17.6954 13.2701 17.5293C13.1741 16.7596 12.5082 15.817 11.6519 16.1391L11.6364 16.1451C11.0788 16.3482 10.9069 16.8194 10.7509 17.3154C10.672 17.5664 10.7924 17.9541 10.6875 18.1571C10.4748 18.5686 9.35152 18.5974 8.97172 18.5974C7.79895 18.5974 7.25544 18.354 6.31208 17.7879L5.28889 17.2124ZM20.7771 6.19784L20.1944 6.3912C19.7496 6.5206 19.162 6.64378 18.7038 6.69474L18.7765 8.08062C18.7982 8.28094 18.8348 8.50043 18.9144 8.68641L18.9515 8.77664C19.1052 9.11192 19.2872 9.43289 19.566 9.6818C19.9372 10.0285 20.3604 10.2629 20.8696 10.329C20.6705 9.46179 20.618 8.22218 20.6753 7.3062L20.7373 6.53215C20.7485 6.42242 20.7746 6.3075 20.7771 6.19784ZM3.21912 6.20027L3.28939 7.00029C3.29621 7.06678 3.31346 7.13006 3.31745 7.19756L3.32579 8.88199C3.30612 9.31629 3.22571 9.89609 3.13573 10.3257C3.64658 10.2668 4.09993 10.0169 4.46354 9.66068C5.28036 8.81667 5.28765 7.83471 5.28493 6.71473L3.21912 6.20027ZM18.0152 6.82313L16.1932 7.01487L13.9292 7.06362C13.8599 7.06376 13.7166 7.04243 13.6733 7.09296C13.5349 7.25419 13.5904 7.39763 13.2653 7.56788C12.8639 7.77813 12.8588 7.56696 13.1838 8.16148L13.5782 8.877C13.6677 9.03722 13.7798 9.20496 13.8397 9.37781L13.8466 9.3938C13.9432 9.66399 13.5745 9.86138 13.3535 9.73355C13.2369 9.66607 13.1453 9.44414 13.0785 9.3316L12.562 8.43445C12.4724 8.2725 12.3934 8.10211 12.2906 7.94796C12.2557 8.18956 12.2766 8.45238 12.2764 8.69672L12.2751 10.4151C12.2748 10.4774 12.2811 10.5544 12.2675 10.6149C12.1906 10.9578 11.637 10.879 11.6184 10.5731L11.616 8.42299C11.4441 8.75477 11.0259 9.44836 10.7539 9.71609C10.4722 9.99328 10.0192 9.63788 10.2286 9.28704C10.2738 9.21141 10.3443 9.14707 10.3984 9.07704C10.7321 8.64434 10.9965 8.15145 11.2645 7.67733L11.2541 7.67625C10.8925 7.63371 10.4306 7.47106 10.3437 7.08014C10.2999 7.06085 10.2342 7.06723 10.1856 7.06624L8.43859 7.05839L6.11319 6.87031C6.05923 6.86555 6.00087 6.85479 5.94699 6.85791C5.92611 7.13665 5.95541 7.4183 5.93694 7.69671C5.91847 7.97538 5.87588 8.28204 5.81122 8.55164C5.50686 9.82074 4.39377 10.9602 3.04902 11.0054L2.94962 11.8591L2.80707 13.1723L4.17624 13.3276C6.25065 13.6905 8.76589 14.7845 10.1659 16.4382L10.2924 16.5739C10.3395 16.473 10.4063 16.3803 10.47 16.2895C11.3017 15.1031 12.6829 15.141 13.5354 16.3409C13.5886 16.4157 13.6302 16.4965 13.6853 16.5707L13.697 16.5535C13.74 16.4925 13.8014 16.4363 13.8532 16.3819L14.2259 16.0253C14.6509 15.6534 15.0905 15.3116 15.5683 15.0089L16.7026 14.3389C16.9639 14.1793 17.2006 13.9756 17.483 13.8546C17.7934 13.7216 18.5156 13.5567 18.849 13.5049L20.2321 13.3189C20.5514 13.2909 20.8758 13.294 21.1962 13.286C21.2032 13.2384 21.1911 13.185 21.1857 13.1371L20.9456 11.0157C19.4289 10.9031 18.2707 9.60659 18.1049 8.13563C18.0564 7.70576 18.1033 7.21282 18.0503 6.82052L18.0152 6.82313ZM11.2578 6.98719C11.3018 7.00877 11.3462 7.01231 11.3941 7.01803L11.4111 7.01063C11.36 6.99199 11.3124 6.9742 11.2578 6.98719ZM2.68653 13.8598L2.58915 14.6238C2.53937 14.858 2.55598 15.5088 2.6154 15.7771C3.07119 15.7898 3.27509 15.7794 3.71691 15.892C4.62732 16.1241 5.47534 16.5339 6.2848 17.0044C6.66568 17.2258 7.03597 17.4871 7.44551 17.6529C8.07507 17.9077 9.17234 18.0272 9.85756 17.8462L9.95848 17.8209C9.98916 17.812 10.0169 17.8018 10.0459 17.7884L10.0506 17.5266C10.0519 17.4515 10.0661 17.3835 10.0199 17.3196C8.69776 15.4922 6.42917 14.4765 4.27937 14.0347C3.75995 13.928 3.21648 13.8605 2.68653 13.8598ZM20.9717 13.9455L20.2121 13.9991C19.583 14.0603 18.3026 14.2383 17.7013 14.4802C17.4624 14.5763 17.2642 14.7814 17.0458 14.9184L15.6831 15.734C15.2602 16.0173 14.8628 16.3336 14.4959 16.6874C14.3007 16.8756 14.1183 17.0885 13.9089 17.2604C13.9303 17.403 13.9334 17.6103 13.9558 17.721C14.1144 17.7761 14.3079 17.8051 14.4751 17.8235C15.7163 18.0557 16.3081 17.8663 17.3611 17.2427L17.9889 16.8772C19.1474 16.1797 20.0057 15.6606 21.3845 15.805C21.4025 15.5832 21.4221 15.3711 21.4226 15.148L21.4193 14.6448C21.4071 14.419 21.3835 14.1628 21.3291 13.9449L20.9717 13.9455Z" fill="#1D1515" stroke="#1D1515" stroke-width="0.3"/>
</svg>
