<svg width="37" height="36" viewBox="0 0 37 36" fill="none" xmlns="http://www.w3.org/2000/svg">
<path opacity="0.25" d="M18.9883 16.5C22.302 16.5 24.9883 13.8137 24.9883 10.5C24.9883 7.18629 22.302 4.5 18.9883 4.5C15.6746 4.5 12.9883 7.18629 12.9883 10.5C12.9883 13.8137 15.6746 16.5 18.9883 16.5Z" fill="#FA8A00"/>
<path d="M24.9883 22.5H12.9883C9.67457 22.5 6.98828 25.1863 6.98828 28.5V31.5H30.9883V28.5C30.9883 25.1863 28.302 22.5 24.9883 22.5Z" stroke="#1D1515" stroke-width="1.75" stroke-linecap="round" stroke-linejoin="round"/>
<path d="M18.9883 16.5C22.302 16.5 24.9883 13.8137 24.9883 10.5C24.9883 7.18629 22.302 4.5 18.9883 4.5C15.6746 4.5 12.9883 7.18629 12.9883 10.5C12.9883 13.8137 15.6746 16.5 18.9883 16.5Z" stroke="#1D1515" stroke-width="1.75" stroke-linecap="round" stroke-linejoin="round"/>
</svg>
