<svg width="16" height="16" viewBox="0 0 16 16" fill="none" xmlns="http://www.w3.org/2000/svg">
<path d="M7.33465 6.66602H8.66798V9.99935H7.33465V6.66602ZM7.33398 10.666H8.66732V11.9993H7.33398V10.666Z" fill="currentColor"/>
<path d="M9.17928 2.7998C8.94728 2.36313 8.49528 2.0918 8.00062 2.0918C7.50595 2.0918 7.05395 2.36313 6.82195 2.80046L1.92995 12.0425C1.8214 12.2454 1.76762 12.4732 1.77394 12.7032C1.78025 12.9333 1.84643 13.1578 1.96595 13.3545C2.08375 13.552 2.25104 13.7155 2.45132 13.8287C2.65159 13.9418 2.87792 14.0008 3.10795 13.9998H12.8933C13.3653 13.9998 13.7926 13.7585 14.0359 13.3545C14.1553 13.1577 14.2214 12.9333 14.2277 12.7032C14.234 12.4732 14.1803 12.2455 14.072 12.0425L9.17928 2.7998ZM3.10795 12.6665L8.00062 3.42446L12.8966 12.6665H3.10795Z" fill="currentColor"/>
</svg>
