<svg width="208" height="44" viewBox="0 0 208 44" fill="none" xmlns="http://www.w3.org/2000/svg">
<g clip-path="url(#clip0_2492_87174)">
<path fill-rule="evenodd" clip-rule="evenodd" d="M42.5112 29.8067C41.8679 29.8067 41.1905 29.728 40.4786 29.5705C39.767 29.4133 39.0655 29.1841 38.3742 28.883C37.6832 28.582 37.0228 28.2092 36.3931 27.7644C35.7636 27.3198 35.2092 26.8065 34.7301 26.2251C34.2511 25.6436 33.8713 25.0004 33.5907 24.2957C33.3102 23.591 33.1699 22.8214 33.1699 21.9868C33.1699 21.0562 33.3136 20.2183 33.601 19.4724C33.8885 18.7268 34.275 18.0666 34.7609 17.4918C35.2468 16.9173 35.8045 16.4213 36.4343 16.0039C37.0638 15.5866 37.7242 15.2445 38.4154 14.9776C38.6508 14.8869 38.887 14.8038 39.1241 14.7288L39.2014 14.9128C39.5324 15.7118 39.809 16.5403 40.0264 17.3933L39.9757 17.4098C39.1887 17.6698 38.5009 18.0255 37.9123 18.477C37.3239 18.9285 36.8584 19.4554 36.5164 20.0575C36.1741 20.6595 36.003 21.3027 36.003 21.9868C36.003 22.6709 36.1741 23.3175 36.5164 23.9263C36.8584 24.5352 37.3239 25.0655 37.9123 25.517C38.5009 25.9685 39.1887 26.3244 39.9757 26.5842C40.7628 26.8443 41.6079 26.9743 42.5112 26.9743C43.4146 26.9743 44.2597 26.8443 45.0467 26.5842C45.8337 26.3244 46.525 25.9685 47.1203 25.517C47.7158 25.0655 48.1844 24.5352 48.5267 23.9263C48.8688 23.3175 49.0399 22.6709 49.0399 21.9868C49.0399 21.3027 48.8688 20.6595 48.5267 20.0575C48.1844 19.4554 47.7158 18.9285 47.1203 18.477C46.525 18.0255 45.8337 17.6698 45.0467 17.4098L45.0327 17.4052C44.822 16.3522 44.5407 15.3238 44.1935 14.3254C44.6807 14.4035 45.1773 14.5148 45.6832 14.6594C46.7849 14.9743 47.7943 15.4531 48.7115 16.0963C49.6285 16.7393 50.3846 17.55 50.9801 18.5284C51.5754 19.5066 51.8731 20.6595 51.8731 21.9868C51.8731 23.1498 51.6369 24.2103 51.1649 25.1681C50.6926 26.1258 50.0356 26.9503 49.1938 27.6412C48.3522 28.3322 47.3632 28.8658 46.2272 29.2422C45.0912 29.6184 43.8526 29.8067 42.5112 29.8067ZM55.1169 14.639C55.1169 14.5569 55.1578 14.5158 55.2399 14.5158H66.778C67.4487 14.5158 68.0681 14.6493 68.6361 14.9161C69.2041 15.1829 69.6967 15.5421 70.1143 15.9936C70.5318 16.4452 70.8602 16.9616 71.0998 17.5432C71.3392 18.1247 71.4591 18.7234 71.4591 19.3391C71.4591 19.9684 71.3427 20.5501 71.1101 21.0837C70.8774 21.6173 70.5557 22.0825 70.145 22.4793C69.7345 22.8762 69.245 23.1873 68.6771 23.4132C68.1091 23.639 67.4966 23.7587 66.8397 23.7724C66.7849 23.7724 66.778 23.7929 66.8192 23.8339L71.849 29.314C71.8765 29.3413 71.8799 29.3755 71.8593 29.4166C71.8389 29.4576 71.808 29.4781 71.7669 29.4781H68.441C68.4137 29.4781 68.3862 29.4645 68.3589 29.4372L63.1853 23.8135C63.1578 23.786 63.1305 23.7724 63.1032 23.7724H58.0731C57.991 23.7724 57.9499 23.8135 57.9499 23.8956V29.3346C57.9499 29.4166 57.9089 29.4576 57.8268 29.4576H55.2399C55.1578 29.4576 55.1168 29.4166 55.1168 29.3346L55.1169 14.639ZM58.0732 20.9399H66.778C66.997 20.9399 67.216 20.9093 67.4351 20.8476C67.6541 20.7861 67.8525 20.6903 68.0305 20.5602C68.2084 20.4303 68.352 20.2627 68.4616 20.0574C68.571 19.8521 68.6258 19.6128 68.6258 19.3391C68.6258 19.0654 68.5746 18.8088 68.4719 18.5693C68.3692 18.33 68.229 18.1214 68.0509 17.9434C67.8731 17.7655 67.6746 17.6218 67.4556 17.5124C67.2366 17.403 67.0107 17.3482 66.778 17.3482H58.0732C57.9911 17.3482 57.9499 17.3892 57.9499 17.4712V20.8169C57.9499 20.899 57.9911 20.9399 58.0732 20.9399ZM74.5386 14.762C74.5386 14.6115 74.6207 14.5364 74.7849 14.5364H88.5404C88.6086 14.5364 88.6567 14.5706 88.684 14.639L89.4846 17.1635C89.5119 17.2183 89.5086 17.2662 89.4743 17.3071C89.4401 17.3482 89.3956 17.3688 89.341 17.3688H77.5975C77.447 17.3688 77.3716 17.444 77.3716 17.5945V20.4063C77.3716 20.5159 77.4197 20.5705 77.5154 20.5705H86.3024C86.3572 20.5705 86.3982 20.5911 86.4257 20.6322C86.453 20.6731 86.4599 20.7143 86.4462 20.7552L85.6454 23.2797C85.6181 23.362 85.5633 23.4029 85.4812 23.4029H77.5154C77.4197 23.4029 77.3716 23.4508 77.3716 23.5467V26.3586C77.3716 26.4268 77.3922 26.4851 77.4333 26.533C77.4743 26.5809 77.5291 26.6048 77.5975 26.6048H89.341C89.3956 26.6048 89.4401 26.6254 89.4744 26.6663C89.5086 26.7074 89.512 26.7484 89.4847 26.7895L88.684 29.314C88.6567 29.3824 88.6086 29.4166 88.5404 29.4166H74.7849C74.6207 29.4166 74.5386 29.3413 74.5386 29.1908L74.5386 14.762ZM93.0569 14.5364H95.1306C95.2127 14.5364 95.2606 14.5569 95.2742 14.5979L105.868 24.8807C105.882 24.8944 105.902 24.9013 105.93 24.9013C105.971 24.9013 105.991 24.8807 105.991 24.8396L105.971 14.7211C105.971 14.5842 106.039 14.5158 106.176 14.5158H108.598C108.735 14.5158 108.804 14.5842 108.804 14.7211L108.824 29.2525C108.824 29.403 108.749 29.4782 108.598 29.4782H106.628C106.559 29.4782 106.511 29.4576 106.484 29.4166L95.7874 19.0312C95.7601 19.0039 95.7361 18.9969 95.7156 19.0106C95.695 19.0244 95.6847 19.0448 95.6847 19.0723V29.2728C95.6847 29.4097 95.6095 29.4781 95.459 29.4781H93.0568C92.9201 29.4781 92.8517 29.4097 92.8517 29.2728V14.7415C92.8517 14.6048 92.9202 14.5364 93.0569 14.5364ZM121.06 29.8067C119.856 29.8067 118.771 29.745 117.806 29.622C116.841 29.4987 116.006 29.3585 115.302 29.2011C114.597 29.0439 114.036 28.8933 113.618 28.7496C113.2 28.606 112.93 28.5067 112.807 28.4521C112.766 28.4246 112.745 28.3973 112.745 28.3698L112.438 25.2091C112.438 25.1133 112.472 25.0655 112.54 25.0655C112.554 25.0655 112.564 25.0688 112.571 25.0758C112.578 25.0825 112.588 25.0861 112.602 25.0861C112.793 25.1954 113.115 25.3562 113.567 25.5682C114.018 25.7805 114.6 25.9891 115.312 26.1942C116.023 26.3995 116.859 26.5809 117.816 26.7381C118.775 26.8955 119.856 26.9743 121.06 26.9743C122.634 26.9743 123.869 26.7998 124.766 26.4509C125.663 26.1019 126.111 25.64 126.111 25.0655C126.111 24.8602 126.001 24.6652 125.782 24.4804C125.563 24.2957 125.214 24.1316 124.735 23.988C124.256 23.8442 123.647 23.7314 122.908 23.6492C122.169 23.5671 121.272 23.5262 120.219 23.5262C118.905 23.5262 117.793 23.4441 116.882 23.2797C115.972 23.1156 115.212 22.9002 114.604 22.6334C113.994 22.3666 113.515 22.0689 113.166 21.7404C112.817 21.4121 112.557 21.0802 112.386 20.745C112.215 20.4097 112.109 20.0917 112.068 19.7907C112.027 19.4896 112.006 19.2434 112.006 19.0518C112.006 18.0802 112.277 17.2798 112.817 16.6503C113.358 16.021 114.053 15.5249 114.901 15.1624C115.75 14.7999 116.704 14.5467 117.765 14.4029C118.826 14.2593 119.87 14.1875 120.896 14.1875C121.827 14.1875 122.679 14.2457 123.452 14.362C124.225 14.4783 124.906 14.6116 125.495 14.7621C126.084 14.9126 126.562 15.0597 126.932 15.2033C127.302 15.3471 127.541 15.4462 127.651 15.501C127.692 15.501 127.712 15.5283 127.712 15.5831L127.917 18.6414C127.945 18.7234 127.911 18.7644 127.815 18.7644C127.801 18.7644 127.791 18.761 127.784 18.7541C127.777 18.7474 127.767 18.7438 127.753 18.7438C127.507 18.5933 127.161 18.4189 126.716 18.2205C126.272 18.0221 125.748 17.834 125.146 17.656C124.544 17.4782 123.883 17.3277 123.165 17.2045C122.446 17.0815 121.69 17.0198 120.896 17.0198C119.609 17.0198 118.569 17.0882 117.775 17.225C116.982 17.3619 116.366 17.5294 115.928 17.728C115.49 17.9264 115.199 18.1453 115.055 18.3846C114.911 18.6242 114.84 18.8465 114.84 19.0518C114.84 19.6265 115.319 20.0438 116.277 20.3037C117.235 20.5638 118.549 20.6937 120.219 20.6937C120.725 20.6937 121.293 20.7074 121.923 20.7349C122.552 20.7622 123.195 20.827 123.852 20.9297C124.509 21.0323 125.153 21.1795 125.782 21.3709C126.412 21.5626 126.973 21.826 127.466 22.1613C127.959 22.4965 128.355 22.9105 128.657 23.4029C128.958 23.8956 129.108 24.484 129.108 25.1681C129.108 25.3187 129.081 25.541 129.026 25.8351C128.971 26.1294 128.852 26.4474 128.667 26.7896C128.482 27.1315 128.212 27.4806 127.856 27.8362C127.5 28.192 127.024 28.517 126.429 28.8113C125.834 29.1054 125.098 29.3449 124.222 29.5296C123.346 29.7143 122.292 29.8067 121.06 29.8067ZM141.18 29.8067C140.537 29.8067 139.859 29.728 139.148 29.5705C138.436 29.4133 137.734 29.1841 137.043 28.8831C136.352 28.582 135.692 28.2092 135.062 27.7644C134.432 27.3198 133.878 26.8066 133.399 26.2251C132.92 25.6436 132.54 25.0004 132.26 24.2957C131.979 23.591 131.839 22.8215 131.839 21.9868C131.839 21.0563 131.982 20.2183 132.27 19.4724C132.557 18.7268 132.944 18.0666 133.43 17.4919C133.916 16.9173 134.473 16.4213 135.103 16.0039C135.733 15.5866 136.393 15.2445 137.084 14.9777C137.776 14.7109 138.474 14.5125 139.178 14.3823C139.883 14.2524 140.55 14.1875 141.18 14.1875C142.193 14.1875 143.25 14.3448 144.352 14.6594C145.454 14.9743 146.463 15.4531 147.38 16.0963C148.297 16.7393 149.054 17.55 149.649 18.5284C150.244 19.5066 150.542 20.6595 150.542 21.9868C150.542 23.1498 150.306 24.2103 149.834 25.1681C149.362 26.1258 148.705 26.9503 147.863 27.6412C147.021 28.3322 146.032 28.8659 144.896 29.2422C143.76 29.6184 142.521 29.8067 141.18 29.8067ZM141.18 17.0198C140.277 17.0198 139.432 17.1499 138.645 17.4098C137.858 17.6699 137.17 18.0255 136.581 18.477C135.993 18.9285 135.527 19.4554 135.185 20.0575C134.843 20.6595 134.672 21.3027 134.672 21.9868C134.672 22.671 134.843 23.3175 135.185 23.9263C135.527 24.5352 135.993 25.0655 136.581 25.517C137.17 25.9686 137.858 26.3244 138.645 26.5843C139.432 26.8443 140.277 26.9743 141.18 26.9743C142.083 26.9743 142.929 26.8443 143.716 26.5843C144.503 26.3244 145.194 25.9686 145.789 25.517C146.385 25.0655 146.853 24.5352 147.196 23.9263C147.538 23.3175 147.709 22.671 147.709 21.9868C147.709 21.3027 147.538 20.6595 147.196 20.0575C146.853 19.4554 146.385 18.9285 145.789 18.477C145.194 18.0255 144.503 17.6699 143.716 17.4098C142.929 17.1499 142.083 17.0198 141.18 17.0198ZM168.958 28.6162C168.958 28.6572 168.93 28.6914 168.876 28.7189C168.232 28.9924 167.456 29.2422 166.545 29.4679C165.635 29.6937 164.626 29.8067 163.517 29.8067C162.285 29.8067 161.064 29.6562 159.852 29.3551C158.641 29.0541 157.553 28.5957 156.588 27.98C155.623 27.3643 154.84 26.5809 154.237 25.6299C153.635 24.6788 153.334 23.5604 153.334 22.2742C153.334 21.1658 153.505 20.1977 153.847 19.37C154.19 18.5421 154.641 17.8271 155.202 17.225C155.764 16.623 156.4 16.1269 157.112 15.7371C157.823 15.3471 158.549 15.0358 159.288 14.8032C160.027 14.5706 160.752 14.4098 161.464 14.3208C162.176 14.2318 162.805 14.1875 163.353 14.1875C164.544 14.1875 165.608 14.2832 166.545 14.4747C167.483 14.6663 168.26 14.858 168.876 15.0494C168.93 15.0767 168.958 15.1179 168.958 15.1726L169.163 18.0051C169.163 18.1008 169.122 18.1487 169.04 18.1487C169.026 18.1487 169.016 18.1453 169.009 18.1384C169.002 18.1315 168.992 18.1281 168.978 18.1281C168.814 18.0597 168.554 17.9639 168.198 17.8407C167.842 17.7177 167.418 17.5945 166.925 17.4713C166.432 17.3482 165.885 17.2422 165.283 17.1532C164.681 17.0642 164.037 17.0197 163.353 17.0197C162.422 17.0197 161.526 17.1463 160.663 17.3995C159.801 17.6526 159.035 18.0118 158.364 18.477C157.693 18.9424 157.16 19.4963 156.763 20.1395C156.366 20.7827 156.167 21.4941 156.167 22.2742C156.167 22.8899 156.29 23.4338 156.537 23.9059C156.783 24.3778 157.108 24.7884 157.512 25.1373C157.916 25.4861 158.374 25.7769 158.887 26.0095C159.401 26.2423 159.931 26.4304 160.479 26.5739C161.026 26.7177 161.563 26.8202 162.09 26.8819C162.617 26.9434 163.093 26.9742 163.517 26.9742C164.133 26.9742 164.732 26.9161 165.314 26.7998C165.895 26.6835 166.426 26.5466 166.905 26.3892C167.384 26.232 167.812 26.0676 168.188 25.8967C168.564 25.7257 168.855 25.5854 169.06 25.4759C169.074 25.4759 169.084 25.4725 169.091 25.4656C169.098 25.4588 169.108 25.4555 169.122 25.4555C169.231 25.4555 169.273 25.5033 169.245 25.5991L168.958 28.6162ZM172.325 14.68C172.325 14.5706 172.379 14.5158 172.489 14.5158H174.994C175.103 14.5158 175.158 14.5706 175.158 14.68V22.7872C175.158 22.8693 175.192 22.9104 175.261 22.9104C175.288 22.9104 175.315 22.8966 175.343 22.8693L183.801 14.5364C183.815 14.5227 183.835 14.5158 183.863 14.5158H187.64C187.682 14.5158 187.709 14.5328 187.723 14.567C187.736 14.6013 187.729 14.6321 187.702 14.6594L180.989 21.2888C180.948 21.33 180.948 21.3778 180.989 21.4326L188.872 29.314C188.9 29.3413 188.903 29.3755 188.882 29.4166C188.862 29.4576 188.838 29.4781 188.811 29.4781H185.136C185.122 29.4781 185.102 29.4645 185.074 29.4372L178.977 23.4235C178.949 23.3962 178.922 23.3823 178.894 23.3823C178.867 23.3823 178.84 23.3962 178.812 23.4235L175.178 26.9948C175.165 27.0085 175.158 27.0358 175.158 27.0769V29.314C175.158 29.4234 175.103 29.4782 174.994 29.4782H172.489C172.379 29.4782 172.325 29.4234 172.325 29.314L172.325 14.68ZM199.363 29.8067C198.159 29.8067 197.074 29.745 196.109 29.622C195.144 29.4987 194.309 29.3585 193.604 29.2011C192.9 29.0439 192.338 28.8933 191.921 28.7496C191.503 28.606 191.233 28.5067 191.11 28.4521C191.069 28.4246 191.048 28.3973 191.048 28.3698L190.741 25.2091C190.741 25.1133 190.775 25.0655 190.843 25.0655C190.857 25.0655 190.867 25.0688 190.874 25.0758C190.881 25.0825 190.891 25.0861 190.905 25.0861C191.096 25.1954 191.418 25.3562 191.87 25.5682C192.321 25.7805 192.903 25.9891 193.615 26.1942C194.326 26.3995 195.161 26.5809 196.119 26.7381C197.077 26.8955 198.159 26.9743 199.363 26.9743C200.937 26.9743 202.172 26.7998 203.069 26.4509C203.965 26.1019 204.414 25.64 204.414 25.0655C204.414 24.8602 204.304 24.6652 204.085 24.4804C203.866 24.2957 203.517 24.1316 203.038 23.988C202.559 23.8442 201.95 23.7314 201.211 23.6492C200.472 23.5671 199.575 23.5262 198.521 23.5262C197.207 23.5262 196.095 23.4441 195.185 23.2797C194.275 23.1156 193.515 22.9002 192.906 22.6334C192.297 22.3666 191.818 22.0689 191.469 21.7404C191.12 21.4121 190.86 21.0802 190.689 20.745C190.518 20.4097 190.412 20.0917 190.371 19.7907C190.33 19.4896 190.309 19.2434 190.309 19.0518C190.309 18.0802 190.58 17.2798 191.12 16.6503C191.661 16.021 192.355 15.5249 193.204 15.1624C194.053 14.7999 195.007 14.5467 196.068 14.4029C197.129 14.2593 198.172 14.1875 199.199 14.1875C200.13 14.1875 200.982 14.2457 201.755 14.362C202.528 14.4783 203.209 14.6116 203.798 14.7621C204.386 14.9126 204.865 15.0597 205.235 15.2033C205.604 15.3471 205.844 15.4462 205.953 15.501C205.995 15.501 206.015 15.5283 206.015 15.5831L206.22 18.6414C206.248 18.7234 206.214 18.7644 206.118 18.7644C206.104 18.7644 206.094 18.761 206.087 18.7541C206.08 18.7474 206.07 18.7438 206.056 18.7438C205.81 18.5933 205.464 18.4189 205.019 18.2205C204.575 18.0221 204.051 17.834 203.449 17.656C202.847 17.4782 202.186 17.3277 201.467 17.2045C200.749 17.0815 199.993 17.0198 199.199 17.0198C197.912 17.0198 196.872 17.0882 196.078 17.225C195.284 17.3619 194.669 17.5294 194.231 17.728C193.793 17.9264 193.502 18.1453 193.358 18.3846C193.214 18.6242 193.142 18.8465 193.142 19.0518C193.142 19.6265 193.622 20.0438 194.58 20.3037C195.538 20.5638 196.852 20.6937 198.521 20.6937C199.028 20.6937 199.596 20.7074 200.225 20.7349C200.855 20.7622 201.498 20.827 202.155 20.9297C202.812 21.0323 203.456 21.1795 204.085 21.3709C204.715 21.5626 205.276 21.826 205.769 22.1613C206.261 22.4965 206.658 22.9105 206.959 23.4029C207.261 23.8956 207.411 24.484 207.411 25.1681C207.411 25.3187 207.384 25.541 207.329 25.8351C207.274 26.1294 207.155 26.4474 206.97 26.7896C206.785 27.1315 206.515 27.4806 206.159 27.8362C205.803 28.192 205.327 28.517 204.732 28.8113C204.137 29.1054 203.401 29.3449 202.525 29.5296C201.649 29.7143 200.595 29.8067 199.363 29.8067Z" fill="#C11A1A"/>
<path d="M52.3318 40.7877H50.6179V38.4527H48.6359V40.7877H46.9219V35.0597H48.6359V37.1835H50.6179V35.0597H52.3318V40.7877ZM65.309 37.9163C65.309 38.8793 65.0482 39.6121 64.5265 40.1136C64.0064 40.6152 63.2429 40.8666 62.2393 40.8666C61.2489 40.8666 60.49 40.6138 59.9608 40.1097C59.4334 39.6055 59.1695 38.8712 59.1695 37.9084C59.1695 36.9549 59.4318 36.2259 59.9565 35.7231C60.4825 35.2201 61.2462 34.9688 62.2482 34.9688C63.2519 34.9688 64.0137 35.2189 64.5311 35.7177C65.0496 36.2166 65.309 36.9495 65.309 37.9163ZM60.9644 37.9163C60.9644 39.0237 61.3904 39.5774 62.2393 39.5774C62.671 39.5774 62.9909 39.4424 63.2002 39.1734C63.4079 38.9046 63.5126 38.4847 63.5126 37.9163C63.5126 37.3439 63.4066 36.9215 63.1959 36.6485C62.9836 36.3758 62.6682 36.2393 62.2482 36.2393C61.392 36.2393 60.9644 36.7982 60.9644 37.9163ZM74.9644 36.246C74.5591 36.246 74.2423 36.3971 74.0154 36.6993C73.7869 37.0002 73.6733 37.4161 73.6733 37.9471C73.6733 39.0492 74.1361 39.6 75.0602 39.6C75.3387 39.6 75.6098 39.5654 75.8707 39.4944C76.1331 39.4236 76.3968 39.3393 76.6605 39.2404V40.5484C76.1344 40.7596 75.5392 40.8666 74.8744 40.8666C73.921 40.8666 73.1916 40.6152 72.683 40.1136C72.1745 39.6121 71.9211 38.8872 71.9211 37.939C71.9211 37.3467 72.0436 36.8251 72.2897 36.3758C72.5358 35.9264 72.8895 35.5813 73.3521 35.3392C73.8136 35.0985 74.3573 34.9769 74.9822 34.9769C75.6644 34.9769 76.3159 35.1119 76.9379 35.3807L76.416 36.5991C76.1817 36.5002 75.9487 36.4159 75.716 36.3489C75.4832 36.2808 75.2325 36.246 74.9644 36.246ZM89.1162 40.7877H87.1857L85.3126 37.8842V40.7877H83.5987V35.0597H85.3126V37.8334L87.1178 35.0597H88.991L87.0442 37.7947L89.1162 40.7877ZM95.4662 35.0597H96.9854V37.5205C96.9854 37.7812 96.9634 38.3041 96.9161 39.0879H96.9516L99.4687 35.0597H101.575V40.7877H100.064V38.3898C100.064 38.0274 100.09 37.4831 100.142 36.7595H100.107L97.569 40.7877H95.4662L95.4662 35.0597ZM122.762 37.9163C122.762 38.8793 122.501 39.6121 121.979 40.1136C121.459 40.6152 120.696 40.8666 119.692 40.8666C118.702 40.8666 117.943 40.6138 117.414 40.1097C116.886 39.6055 116.622 38.8712 116.622 37.9084C116.622 36.9549 116.885 36.2259 117.409 35.7231C117.935 35.2201 118.699 34.9688 119.701 34.9688C120.705 34.9688 121.466 35.219 121.984 35.7178C122.502 36.2166 122.762 36.9495 122.762 37.9163ZM118.417 37.9163C118.417 39.0237 118.843 39.5775 119.692 39.5775C120.124 39.5775 120.444 39.4424 120.653 39.1734C120.861 38.9046 120.965 38.4847 120.965 37.9163C120.965 37.3439 120.859 36.9215 120.649 36.6485C120.436 36.3758 120.121 36.2393 119.701 36.2393C118.845 36.2393 118.417 36.7982 118.417 37.9163ZM134.78 40.7877H133.061V36.3249H131.321V40.7877H129.607V35.0597H134.78V40.7877ZM144.631 40.7877H142.924V36.3249H141.383V35.0597H146.168V36.3249H144.631V40.7877ZM158.506 37.9163C158.506 38.8793 158.245 39.6121 157.723 40.1136C157.203 40.6152 156.44 40.8666 155.436 40.8666C154.446 40.8666 153.687 40.6138 153.158 40.1097C152.63 39.6055 152.366 38.8712 152.366 37.9084C152.366 36.9549 152.629 36.2259 153.153 35.7231C153.679 35.2201 154.443 34.9688 155.445 34.9688C156.449 34.9688 157.21 35.219 157.728 35.7178C158.246 36.2166 158.506 36.9495 158.506 37.9163ZM154.161 37.9163C154.161 39.0237 154.587 39.5775 155.436 39.5775C155.868 39.5775 156.188 39.4424 156.397 39.1734C156.605 38.9046 156.709 38.4847 156.709 37.9163C156.709 37.3439 156.603 36.9215 156.393 36.6485C156.18 36.3758 155.865 36.2393 155.445 36.2393C154.589 36.2393 154.161 36.7982 154.161 37.9163ZM168.101 40.7877L166.81 36.662H166.771C166.832 37.3641 166.861 37.911 166.861 38.3002V40.7877H165.351V35.0597H167.622L168.938 39.1267H168.973L170.264 35.0597H172.54V40.7877H170.971V38.2761C170.971 38.1451 170.974 38.0005 170.979 37.8415C170.983 37.6823 171.002 37.2919 171.036 36.6699H170.998L169.725 40.7877L168.101 40.7877ZM190 37.0338C190.362 37.0338 190.691 37.1099 190.983 37.2638C191.274 37.4161 191.501 37.6329 191.665 37.9123C191.827 38.1918 191.908 38.5142 191.908 38.8793C191.908 39.5199 191.696 40.0106 191.271 40.353C190.847 40.6953 190.205 40.8666 189.344 40.8666C188.607 40.8666 188.006 40.7624 187.539 40.5563V39.2871C187.789 39.3915 188.072 39.477 188.387 39.5452C188.703 39.6134 188.974 39.6469 189.201 39.6469C189.518 39.6469 189.761 39.5867 189.93 39.4651C190.101 39.3433 190.185 39.1641 190.185 38.9262C190.185 38.7068 190.1 38.5355 189.927 38.4139C189.754 38.2909 189.493 38.2294 189.141 38.2294C188.874 38.2294 188.583 38.2749 188.272 38.3656L187.648 38.0848L187.885 35.0597H191.485V36.3489H189.335L189.257 37.1046C189.482 37.0658 189.642 37.0445 189.737 37.0403C189.832 37.0364 189.92 37.0338 190 37.0338ZM198.323 38.3656C198.323 37.5674 198.45 36.9201 198.7 36.4252C198.952 35.9304 199.323 35.5653 199.814 35.3299C200.305 35.0945 200.911 34.9769 201.63 34.9769C201.886 34.9769 202.186 34.9996 202.529 35.0437V36.2539C202.24 36.2045 201.928 36.1804 201.592 36.1804C201.021 36.1804 200.597 36.2941 200.318 36.5215C200.038 36.7476 199.886 37.1192 199.86 37.6343H199.912C200.171 37.1902 200.586 36.9681 201.16 36.9681C201.721 36.9681 202.156 37.1313 202.466 37.459C202.775 37.7865 202.93 38.244 202.93 38.8284C202.93 39.4584 202.734 39.9544 202.343 40.3195C201.951 40.6834 201.404 40.8666 200.702 40.8666C199.956 40.8666 199.374 40.6472 198.954 40.2072C198.534 39.7685 198.323 39.1548 198.323 38.3656ZM200.663 39.6401C200.845 39.6401 200.992 39.5774 201.105 39.453C201.219 39.33 201.276 39.132 201.276 38.8605C201.276 38.3951 201.077 38.1625 200.681 38.1625C200.485 38.1625 200.326 38.2226 200.203 38.3429C200.081 38.4633 200.019 38.6091 200.019 38.7816C200.019 39.0318 200.078 39.2377 200.197 39.3981C200.315 39.56 200.47 39.6401 200.663 39.6401Z" fill="#1D1515"/>
<path d="M22.0845 41.9067C22.8329 41.9067 23.5718 41.8651 24.2989 41.7848C27.1877 36.0292 23.5651 31.0406 19.988 26.1164C17.8367 23.1553 15.701 20.2152 14.8638 17.0555C14.6068 16.0856 14.4825 15.0644 14.48 14.0261C14.4723 11.2225 15.3594 8.30189 16.8894 5.91467C17.8624 4.3967 19.0985 3.08858 20.5344 2.15288C2.84019 3.51519 8.38179 15.599 16.2663 25.5142C19.6659 29.7895 22.7858 33.7131 22.3984 37.2947C22.2803 38.386 21.9658 39.4704 21.4795 40.4847C21.2514 40.9601 20.9859 41.42 20.6848 41.8579C21.1471 41.8899 21.6138 41.9067 22.0845 41.9067ZM7.56475 8.37745C4.2207 11.9383 2.17208 16.73 2.17208 22C2.17208 27.4974 4.40093 32.4743 8.00415 36.0763C10.9373 39.0088 14.7821 41.0308 19.0773 41.6811C19.5343 41.1279 19.9197 40.5221 20.2252 39.885C20.6422 39.0152 20.9123 38.0844 21.0135 37.1475C21.3396 34.1325 18.3898 30.4228 15.1757 26.3809C10.7976 20.8753 5.95728 14.7862 7.56471 8.37751L7.56475 8.37745ZM25.9481 41.5321C27.1331 41.2993 28.2804 40.9613 29.3798 40.5284C30.3248 34.9411 27.4657 31.0766 24.7959 27.4697C24.2409 26.7197 23.6931 25.9798 23.1997 25.2577C21.1928 22.3214 20.6306 19.2402 21.0532 16.3795C21.3432 14.4161 22.1015 12.5582 23.1762 10.9257C24.2477 9.29836 25.6335 7.89589 27.1832 6.83737C28.7105 5.79407 30.4022 5.07909 32.1188 4.8022C26.5406 1.54217 21.8872 0.698832 18.0619 6.66707C16.6703 8.83811 15.8633 11.488 15.8704 14.0261C15.8728 14.9393 15.9828 15.841 16.2107 16.7011C16.9799 19.6042 19.041 22.4413 21.1169 25.2989C24.7759 30.336 28.48 35.4355 25.9481 41.5321ZM30.8802 39.864C32.8469 38.8943 34.6306 37.6101 36.1648 36.0763C37.578 34.6638 38.7794 33.0396 39.7182 31.2556C39.8658 31.2934 40.0138 31.3288 40.1619 31.3616C40.7535 31.4923 41.3262 31.5792 41.8794 31.6221C40.8021 33.8329 39.3654 35.8364 37.645 37.5561C33.6628 41.5373 28.1611 44 22.0845 44C16.0081 44 10.506 41.5372 6.52388 37.5561C2.5416 33.5752 0.078125 28.0747 0.078125 22C0.078125 15.9254 2.54161 10.4249 6.52388 6.4439C10.506 2.46277 16.008 0 22.0845 0C28.161 0 33.6628 2.46277 37.645 6.4439C41.6273 10.4248 44.0908 15.9253 44.0908 22C44.0908 23.2033 43.9939 24.3841 43.8079 25.535C43.4466 25.6016 43.0705 25.6348 42.6794 25.6348C42.3346 25.6348 42.0014 25.6089 41.6797 25.5571C41.8879 24.4028 41.9969 23.2142 41.9969 22C41.9969 16.5027 39.768 11.5258 36.1648 7.92372C32.0634 3.82352 26.8205 7.91759 24.3374 11.6887C23.3732 13.1532 22.693 14.8201 22.4328 16.5812C22.0583 19.1167 22.561 21.8546 24.3503 24.4725C24.8516 25.206 25.379 25.9185 25.9136 26.6409C28.6196 30.2967 31.5083 34.2008 30.8802 39.864Z" fill="#FA8A00"/>
</g>
<defs>
<clipPath id="clip0_2492_87174">
<rect width="207.488" height="44" fill="white"/>
</clipPath>
</defs>
</svg>
