<svg width="288" height="200" viewBox="0 0 288 200" fill="none" xmlns="http://www.w3.org/2000/svg">
<g clip-path="url(#clip0_2194_91783)">
<path d="M4.03987 51.2305C7.45863 48.9844 12.2943 47.6185 19.1157 48.4933C19.1157 48.4933 25.854 26.6444 46.6107 35.0061C46.6107 35.0061 55.2355 12.3709 78.1498 22.3454L79.776 23.1666C86.4391 27.6426 89.246 35.0061 89.246 35.0061C110.003 26.6444 116.733 48.4933 116.733 48.4933C137.758 45.7964 139.916 64.393 139.916 64.393H8.00875C0.894822 64.393 -1.90674 55.1323 4.03987 51.2305Z" stroke="#1D1515" stroke-width="1.61009" stroke-linecap="round" stroke-linejoin="round"/>
<path d="M206.7 163.642C225.326 162.727 227.303 179.775 227.303 179.775H95.3858C88.2745 179.775 85.473 170.514 91.4169 166.61C94.8383 164.366 99.674 163 106.493 163.872C106.493 163.872 113.234 142.024 133.99 150.388C133.99 150.388 136.513 143.77 142.451 139.268" stroke="#1D1515" stroke-width="1.61009" stroke-linecap="round" stroke-linejoin="round"/>
<path d="M151.312 98.0818C154.731 95.8357 159.567 94.4698 166.388 95.3447C166.388 95.3447 173.127 73.4957 193.883 81.8601C193.883 81.8601 202.511 59.2222 225.422 69.1968L227.049 70.0179C233.712 74.494 236.519 81.8601 236.519 81.8601C257.275 73.4957 264.014 95.3447 264.014 95.3447C285.041 92.6612 287.196 111.247 287.196 111.247H208.409" stroke="#1D1515" stroke-width="1.61009" stroke-linecap="round" stroke-linejoin="round"/>
<path d="M180.044 99.2136C181.479 99.2145 182.912 99.297 184.338 99.4605V51.74C184.338 51.1132 184.214 50.4925 183.974 49.9135C183.734 49.3344 183.383 48.8084 182.939 48.3653C182.496 47.9222 181.97 47.5708 181.391 47.3312C180.811 47.0915 180.191 46.9684 179.564 46.9688H54.3872C53.1215 46.9688 51.9077 47.4713 51.0125 48.3661C50.1173 49.2608 49.614 50.4743 49.6133 51.74V126.167C49.614 127.432 50.1173 128.646 51.0125 129.54C51.9077 130.435 53.1215 130.938 54.3872 130.938H142.907C144.307 122.095 148.817 114.041 155.624 108.226C162.432 102.41 171.091 99.2146 180.044 99.2136Z" fill="#5D6063"/>
<path d="M53.0371 49.4004L114.516 97.0645C115.216 97.6198 116.084 97.922 116.978 97.922C117.872 97.922 118.739 97.6198 119.44 97.0645L180.921 49.4004" stroke="#1D1515" stroke-width="1.61009" stroke-linecap="round" stroke-linejoin="round"/>
<path d="M51.0586 115.346L89.6659 77.7988" stroke="#1D1515" stroke-width="1.61009" stroke-linecap="round" stroke-linejoin="round"/>
<path d="M144.629 77.7988L168.308 100.829" stroke="#1D1515" stroke-width="1.61009" stroke-linecap="round" stroke-linejoin="round"/>
<path d="M180.044 174.399C200.806 174.399 217.637 157.568 217.637 136.806C217.637 116.044 200.806 99.2129 180.044 99.2129C159.282 99.2129 142.451 116.044 142.451 136.806C142.451 157.568 159.282 174.399 180.044 174.399Z" stroke="#1D1515" stroke-width="1.61009" stroke-linecap="round" stroke-linejoin="round"/>
<path d="M209.657 100.939C208.905 100.473 208 100.324 207.139 100.525C206.278 100.726 205.532 101.261 205.065 102.012L196.851 115.204C191.204 110.663 184.037 108.447 176.813 109.01C169.589 109.573 162.851 112.872 157.977 118.234C153.102 123.595 150.457 130.615 150.582 137.86C150.707 145.106 153.593 152.03 158.65 157.22C163.707 162.41 170.554 165.474 177.794 165.788C185.033 166.101 192.119 163.639 197.606 158.905C203.092 154.172 206.565 147.522 207.315 140.315C208.066 133.108 206.037 125.886 201.644 120.123L210.725 105.53C210.956 105.159 211.112 104.745 211.183 104.313C211.255 103.881 211.241 103.44 211.142 103.013C211.042 102.587 210.86 102.184 210.605 101.828C210.351 101.472 210.028 101.17 209.657 100.939ZM205.363 137.343C205.368 143.33 203.335 149.14 199.598 153.818C195.86 158.495 190.642 161.76 184.801 163.075C178.96 164.391 172.845 163.678 167.464 161.055C162.082 158.431 157.754 154.053 155.193 148.642C152.631 143.23 151.989 137.108 153.371 131.283C154.754 125.458 158.079 120.277 162.798 116.593C167.518 112.91 173.352 110.943 179.338 111.018C185.325 111.092 191.108 113.203 195.735 117.002L180.868 140.899L172.259 129.445C171.728 128.737 170.938 128.268 170.061 128.142C169.184 128.016 168.294 128.244 167.585 128.775C166.876 129.306 166.407 130.096 166.281 130.973C166.155 131.85 166.383 132.74 166.914 133.449L178.453 148.793C178.763 149.207 179.166 149.542 179.628 149.772C180.091 150.003 180.601 150.122 181.118 150.122H181.262C181.804 150.099 182.331 149.944 182.798 149.671C183.266 149.398 183.66 149.014 183.946 148.555L200.457 122.047C203.656 126.505 205.372 131.856 205.363 137.343Z" fill="#1D1515"/>
</g>
<defs>
<clipPath id="clip0_2194_91783">
<rect width="288" height="200" fill="white"/>
</clipPath>
</defs>
</svg>
