<svg width="288" height="200" viewBox="0 0 288 200" fill="none" xmlns="http://www.w3.org/2000/svg">
<g clip-path="url(#clip0_1959_78969)">
<path d="M95.0251 197.789H37.0049V166.256H93.29" fill="#5D6063"/>
<path d="M54.2422 167.307L54.2567 185.386L59.2901 177.187L64.3234 185.386L68.826 178.055L72.9384 184.756V167.203" stroke="#1D1515" stroke-width="1.45402" stroke-linecap="round" stroke-linejoin="round"/>
<path d="M161.351 29.9678V35.9365" stroke="#1D1515" stroke-width="1.45402" stroke-linecap="round" stroke-linejoin="round"/>
<path d="M164.334 32.9531H158.365" stroke="#1D1515" stroke-width="1.45402" stroke-linecap="round" stroke-linejoin="round"/>
<path d="M91.1357 49.5166V55.4854" stroke="#1D1515" stroke-width="1.45402" stroke-linecap="round" stroke-linejoin="round"/>
<path d="M94.1216 52.499H88.1504" stroke="#1D1515" stroke-width="1.45402" stroke-linecap="round" stroke-linejoin="round"/>
<path d="M49.9336 26.3936V32.3647" stroke="#1D1515" stroke-width="1.45402" stroke-linecap="round" stroke-linejoin="round"/>
<path d="M52.917 29.3789H46.9482" stroke="#1D1515" stroke-width="1.45402" stroke-linecap="round" stroke-linejoin="round"/>
<path d="M43.417 114.897V120.866" stroke="#1D1515" stroke-width="1.45402" stroke-linecap="round" stroke-linejoin="round"/>
<path d="M46.4004 117.883H40.4316" stroke="#1D1515" stroke-width="1.45402" stroke-linecap="round" stroke-linejoin="round"/>
<path d="M31.4336 65.4932V71.4644" stroke="#1D1515" stroke-width="1.45402" stroke-linecap="round" stroke-linejoin="round"/>
<path d="M34.4194 68.4785H28.4482" stroke="#1D1515" stroke-width="1.45402" stroke-linecap="round" stroke-linejoin="round"/>
<path d="M230.826 82.6279V88.5991" stroke="#1D1515" stroke-width="1.45402" stroke-linecap="round" stroke-linejoin="round"/>
<path d="M233.812 85.6133H227.843" stroke="#1D1515" stroke-width="1.45402" stroke-linecap="round" stroke-linejoin="round"/>
<path d="M241.864 33.1201V39.0913" stroke="#1D1515" stroke-width="1.45402" stroke-linecap="round" stroke-linejoin="round"/>
<path d="M244.848 36.1055H238.879" stroke="#1D1515" stroke-width="1.45402" stroke-linecap="round" stroke-linejoin="round"/>
<path d="M263.937 120.783V126.752" stroke="#1D1515" stroke-width="1.45402" stroke-linecap="round" stroke-linejoin="round"/>
<path d="M266.922 123.766H260.951" stroke="#1D1515" stroke-width="1.45402" stroke-linecap="round" stroke-linejoin="round"/>
<path d="M206.585 127.59H180.721C180.612 127.588 180.506 127.563 180.408 127.514C180.285 127.514 180.164 127.483 180.056 127.423C179.949 127.363 179.858 127.277 179.793 127.173L165.553 104.393V196.319C165.553 196.512 165.476 196.697 165.34 196.833C165.204 196.969 165.019 197.046 164.826 197.046C164.633 197.046 164.448 196.969 164.312 196.833C164.176 196.697 164.099 196.512 164.099 196.319V103.671L140.495 127.602C140.446 127.743 140.353 127.865 140.232 127.952C140.11 128.038 139.964 128.085 139.814 128.086H91.5919C91.509 128.086 91.4269 128.07 91.3496 128.04V198.597H206.758V127.565C206.701 127.581 206.644 127.589 206.585 127.59ZM190.693 160.95V185.545H183.968V160.528H178.504L187.753 134.671L196.582 160.95H190.693Z" fill="#1D1515"/>
<path d="M139.077 126.644V122.359H64.5247L64.4375 126.671L139.077 126.644Z" fill="#1D1515"/>
<path d="M233.293 121.854H181.447V126.139L233.29 126.161L233.288 121.864" fill="#1D1515"/>
<path d="M233.278 120.19L206.323 95.8496H197.892C197.892 95.8496 198.489 104.14 191.061 105.301C189.483 105.616 185.56 103.023 183.667 97.7665C183.575 97.054 185.175 108.172 178.728 108.732C170.179 108.803 158.687 96.3731 158.687 96.3731H91.3467L64.5879 120.917H139.351L161.37 98.5856C161.507 98.456 161.689 98.3847 161.877 98.3866C162.065 98.3886 162.246 98.4636 162.38 98.5959C162.514 98.7282 162.592 98.9075 162.596 99.0959C162.601 99.2843 162.532 99.4671 162.405 99.6058L140.529 121.78V125.5L164.086 101.605C164.182 101.51 164.302 101.443 164.433 101.411L164.501 101.358C164.664 101.256 164.861 101.223 165.049 101.266C165.236 101.309 165.399 101.425 165.502 101.588L179.991 124.77V121.402L170.273 106.113C170.17 105.95 170.135 105.752 170.177 105.564C170.219 105.376 170.334 105.212 170.497 105.108C170.66 105.005 170.858 104.97 171.046 105.012C171.234 105.054 171.398 105.169 171.502 105.332L181.086 120.413H233.273" fill="#1D1515"/>
<path d="M164.188 101.789C164.25 101.679 164.34 101.587 164.448 101.522C164.557 101.457 164.68 101.421 164.806 101.418C164.685 101.387 164.557 101.387 164.436 101.418C164.316 101.513 164.23 101.643 164.188 101.789Z" fill="#1D1515"/>
<path d="M192.777 54.3659C187.93 53.0354 184.438 53.857 184.438 53.857C181.355 46.9915 171.594 40.6132 171.594 40.6132C164.729 44.1877 167.881 58.7643 167.881 58.7643L163.958 60.2353C159.053 54.2786 152.185 47.7622 150.205 47.6216C145.632 47.2969 145.475 67.8035 145.475 67.8035C134.349 74.4217 122.969 81.338 114.114 87.2971C114.441 83.0392 116.47 77.5382 121.413 70.8181C130.452 58.5195 132.449 42.2539 124.111 32.4174C112.408 18.6042 101.687 23.3055 95.3113 29.4051C88.8627 35.5702 87.8812 46.4317 97.977 39.2149C108.133 31.9448 113.113 35.7107 117.878 44.6821C122.642 53.6534 107.927 67.4618 101.062 78.6674C97.2112 84.9537 95.3137 91.1648 95.3961 96.3581H141.973C141.879 96.4647 141.787 96.5689 141.704 96.6731L144.014 96.3581H158.842C164.762 102.055 178.641 112.672 181.741 106.553C183.304 103.473 183.987 100.095 183.338 96.8888C184.712 99.5133 189.011 106.929 192.747 104.852C195.985 103.054 198.564 98.0181 197.936 92.7351C200.345 90.5129 202.199 88.1477 203.359 85.6661C212.818 68.6444 197.078 55.5509 192.777 54.3659Z" stroke="#1D1515" stroke-width="1.45402" stroke-linecap="round" stroke-linejoin="round"/>
<path d="M197.611 64.5099C203.393 55.6791 217.059 54.4189 217.059 54.4189" stroke="#1D1515" stroke-width="1.45402" stroke-linecap="round" stroke-linejoin="round"/>
<path d="M200.03 71.6562C201.397 68.9227 211.488 63.2471 219.056 65.4548" stroke="#1D1515" stroke-width="1.45402" stroke-linecap="round" stroke-linejoin="round"/>
<path d="M166.924 79.1194C162.787 77.7671 154.516 76.839 148.187 82.9168" stroke="#1D1515" stroke-width="1.45402" stroke-linecap="round" stroke-linejoin="round"/>
<path d="M166.57 75.4772C162.577 72.0094 151.96 71.0618 144.603 76.6332" stroke="#1D1515" stroke-width="1.45402" stroke-linecap="round" stroke-linejoin="round"/>
<path d="M152.415 49.374C152.415 49.374 147.159 61.881 152.941 66.0953" stroke="#1D1515" stroke-width="1.45402" stroke-linecap="round" stroke-linejoin="round"/>
<path d="M172.702 42.3311C172.702 42.3311 169.968 51.7822 172.491 58.2017" stroke="#1D1515" stroke-width="1.45402" stroke-linecap="round" stroke-linejoin="round"/>
<path d="M173.75 73.686C174.738 73.3467 175.104 71.8085 174.568 70.2504C174.033 68.6924 172.798 67.7044 171.811 68.0437C170.824 68.3831 170.458 69.9213 170.993 71.4794C171.529 73.0374 172.763 74.0254 173.75 73.686Z" fill="#1D1515"/>
<path d="M187.939 69.1665C188.926 68.8272 189.292 67.289 188.757 65.7309C188.221 64.1728 186.987 63.1849 185.999 63.5242C185.012 63.8636 184.646 65.4017 185.182 66.9598C185.717 68.5179 186.952 69.5059 187.939 69.1665Z" fill="#1D1515"/>
<path d="M186.665 72.0905L184.92 74.9646C184.792 75.1646 184.591 75.3066 184.359 75.3605C184.128 75.4143 183.885 75.3758 183.682 75.253L180.98 73.6414C180.835 73.56 180.719 73.4372 180.646 73.289C180.572 73.1407 180.545 72.9737 180.567 72.8097C180.59 72.6458 180.661 72.4923 180.772 72.3692C180.882 72.2462 181.027 72.1592 181.188 72.1195L185.635 70.857C186.403 70.6364 187.057 71.4289 186.665 72.0905Z" fill="#1D1515"/>
<path d="M182.007 77.987C184.791 81.5179 184.702 77.1195 184.261 74.8027C185.157 76.8166 187.53 79.7367 187.896 76.4991" stroke="#1D1515" stroke-width="1.45402" stroke-linecap="round" stroke-linejoin="round"/>
<path d="M178.535 108.287C178.254 107.516 173.858 98.7729 169.513 95.4795" stroke="#1D1515" stroke-width="1.45402" stroke-linecap="round" stroke-linejoin="round"/>
<path d="M175.751 92.8867C175.959 92.957 181.082 101.369 181.286 107.112" stroke="#1D1515" stroke-width="1.45402" stroke-linecap="round" stroke-linejoin="round"/>
<path d="M141.695 96.6771C145.689 91.7358 163.99 82.1708 174.168 86.797C184.347 91.4232 185.204 99.7257 181.737 106.557" stroke="#1D1515" stroke-width="1.45402" stroke-linecap="round" stroke-linejoin="round"/>
<path d="M186.418 91.8311C186.418 91.8311 191.148 100.817 191.253 105.179" stroke="#1D1515" stroke-width="1.45402" stroke-linecap="round" stroke-linejoin="round"/>
<path d="M192.304 89.8408C192.304 89.8408 195.772 100.298 193.724 104.345" stroke="#1D1515" stroke-width="1.45402" stroke-linecap="round" stroke-linejoin="round"/>
<path d="M178.055 88.3337C179.332 86.2811 190.557 79.5732 195.53 86.5525C196.433 87.8199 197.42 90.2893 197.822 91.627" stroke="#1D1515" stroke-width="1.45402" stroke-linecap="round" stroke-linejoin="round"/>
</g>
<defs>
<clipPath id="clip0_1959_78969">
<rect width="288" height="170.363" fill="white" transform="translate(0 14.8184)"/>
</clipPath>
</defs>
</svg>
