<svg width="288" height="200" viewBox="0 0 288 200" fill="none" xmlns="http://www.w3.org/2000/svg">
<g clip-path="url(#clip0_1959_79344)">
<path d="M107.691 172.288C110.124 174.629 113.37 175.935 116.746 175.931H148.086" stroke="#1D1515" stroke-width="1.16503" stroke-linecap="round" stroke-linejoin="round"/>
<path d="M185.454 112.212V84.0682C192.384 81.3066 198.134 76.2167 201.717 69.6739C205.299 63.1311 206.49 55.5444 205.085 48.2185C203.679 40.8927 199.764 34.2856 194.014 29.5337C188.264 24.7818 181.038 22.1821 173.579 22.1816C173.311 22.1816 173.043 22.1816 172.777 22.1816C172.645 22.1816 172.511 22.1816 172.377 22.1816H116.745C113.277 22.1816 109.951 23.5594 107.498 26.012C105.046 28.4645 103.668 31.7908 103.668 35.2591V134.194" stroke="#1D1515" stroke-width="1.16503" stroke-linecap="round" stroke-linejoin="round"/>
<path d="M170.742 112.081L185.396 112.47V84.4177C185.396 84.4177 207.081 77.8915 205.312 50.3501C204.302 37.8435 193.186 25.3388 185.984 28.6223C179.668 29.8863 172.468 35.5775 170.952 62.7306C169.435 89.8836 170.742 112.081 170.742 112.081Z" fill="#1D1515"/>
<path d="M155.529 43.4229H116.573C113.665 43.4229 111.309 45.7796 111.309 48.6869V80.9874C111.309 83.8947 113.665 86.2514 116.573 86.2514H155.529C158.436 86.2514 160.793 83.8947 160.793 80.9874V48.6869C160.793 45.7796 158.436 43.4229 155.529 43.4229Z" stroke="#1D1515" stroke-width="1.16503" stroke-linecap="round" stroke-linejoin="round"/>
<path d="M123.431 97.041H112.695C111.944 97.041 111.336 97.6495 111.336 98.4002V108.687C111.336 109.438 111.944 110.047 112.695 110.047H123.431C124.181 110.047 124.79 109.438 124.79 108.687V98.4002C124.79 97.6495 124.181 97.041 123.431 97.041Z" fill="#1D1515"/>
<path d="M159.432 97.041H148.696C147.945 97.041 147.337 97.6495 147.337 98.4002V108.687C147.337 109.438 147.945 110.047 148.696 110.047H159.432C160.182 110.047 160.791 109.438 160.791 108.687V98.4002C160.791 97.6495 160.182 97.041 159.432 97.041Z" fill="#1D1515"/>
<path d="M141.431 97.041H130.695C129.944 97.041 129.336 97.6495 129.336 98.4002V108.687C129.336 109.438 129.944 110.047 130.695 110.047H141.431C142.181 110.047 142.79 109.438 142.79 108.687V98.4002C142.79 97.6495 142.181 97.041 141.431 97.041Z" fill="#1D1515"/>
<path d="M123.431 113.66H112.695C111.944 113.66 111.336 114.269 111.336 115.019V125.306C111.336 126.057 111.944 126.666 112.695 126.666H123.431C124.181 126.666 124.79 126.057 124.79 125.306V115.019C124.79 114.269 124.181 113.66 123.431 113.66Z" fill="#1D1515"/>
<path d="M141.431 113.66H130.695C129.944 113.66 129.336 114.269 129.336 115.019V125.306C129.336 126.057 129.944 126.666 130.695 126.666H141.431C142.181 126.666 142.79 126.057 142.79 125.306V115.019C142.79 114.269 142.181 113.66 141.431 113.66Z" fill="#1D1515"/>
<path d="M123.431 144.005H122.072C122.072 144.005 124.246 137.09 122.633 135.23C121.019 133.37 111.344 135.036 111.344 134.288V132.358C111.344 131.998 111.487 131.652 111.742 131.397C111.997 131.142 112.342 130.999 112.703 130.999H123.431C123.791 130.999 124.137 131.142 124.392 131.397C124.647 131.652 124.79 131.998 124.79 132.358V142.649C124.789 143.009 124.645 143.354 124.391 143.608C124.136 143.862 123.791 144.005 123.431 144.005Z" fill="#1D1515"/>
<path d="M141.431 130.999H130.695C129.944 130.999 129.336 131.608 129.336 132.358V142.645C129.336 143.396 129.944 144.005 130.695 144.005H141.431C142.181 144.005 142.79 143.396 142.79 142.645V132.358C142.79 131.608 142.181 130.999 141.431 130.999Z" fill="#1D1515"/>
<path d="M120.063 152.033H123.306C123.718 152.033 124.113 152.197 124.404 152.488C124.696 152.779 124.859 153.175 124.859 153.587V160.161C124.859 160.573 124.696 160.968 124.404 161.26C124.113 161.551 123.718 161.715 123.306 161.715H119.481C118.424 161.715 117.378 161.495 116.411 161.068" stroke="#1D1515" stroke-width="1.16503" stroke-linecap="round" stroke-linejoin="round"/>
<path d="M141.43 151.988H130.694C129.943 151.988 129.335 152.597 129.335 153.347V160.687C129.335 161.438 129.943 162.046 130.694 162.046H141.43C142.18 162.046 142.789 161.438 142.789 160.687V153.347C142.789 152.597 142.18 151.988 141.43 151.988Z" stroke="#1D1515" stroke-width="1.16503" stroke-linecap="round" stroke-linejoin="round"/>
<path d="M249.374 112.299H150.413C147.576 112.299 145.275 114.599 145.275 117.437V171.191C145.275 174.029 147.576 176.329 150.413 176.329H249.374C252.211 176.329 254.511 174.029 254.511 171.191V117.437C254.511 114.599 252.211 112.299 249.374 112.299Z" stroke="#1D1515" stroke-width="1.16503" stroke-linecap="round" stroke-linejoin="round"/>
<path d="M169.165 148.822H155.626C155.311 148.822 155.057 149.077 155.057 149.391V154.84C155.057 155.154 155.311 155.409 155.626 155.409H169.165C169.479 155.409 169.734 155.154 169.734 154.84V149.391C169.734 149.077 169.479 148.822 169.165 148.822Z" stroke="#1D1515" stroke-width="1.16503" stroke-linecap="round" stroke-linejoin="round"/>
<path d="M187.995 148.822H174.456C174.141 148.822 173.887 149.077 173.887 149.391V154.84C173.887 155.154 174.141 155.409 174.456 155.409H187.995C188.309 155.409 188.564 155.154 188.564 154.84V149.391C188.564 149.077 188.309 148.822 187.995 148.822Z" stroke="#1D1515" stroke-width="1.16503" stroke-linecap="round" stroke-linejoin="round"/>
<path d="M169.14 160.145H155.6C155.286 160.145 155.031 160.399 155.031 160.713V166.162C155.031 166.476 155.286 166.731 155.6 166.731H169.14C169.454 166.731 169.709 166.476 169.709 166.162V160.713C169.709 160.399 169.454 160.145 169.14 160.145Z" stroke="#1D1515" stroke-width="1.16503" stroke-linecap="round" stroke-linejoin="round"/>
<path d="M188.06 160.145H174.52C174.206 160.145 173.951 160.399 173.951 160.713V166.162C173.951 166.476 174.206 166.731 174.52 166.731H188.06C188.374 166.731 188.628 166.476 188.628 166.162V160.713C188.628 160.399 188.374 160.145 188.06 160.145Z" stroke="#1D1515" stroke-width="1.16503" stroke-linecap="round" stroke-linejoin="round"/>
<path d="M207.011 148.822H193.471C193.157 148.822 192.902 149.077 192.902 149.391V154.84C192.902 155.154 193.157 155.409 193.471 155.409H207.011C207.325 155.409 207.58 155.154 207.58 154.84V149.391C207.58 149.077 207.325 148.822 207.011 148.822Z" stroke="#1D1515" stroke-width="1.16503" stroke-linecap="round" stroke-linejoin="round"/>
<path d="M225.75 148.822H212.211C211.896 148.822 211.642 149.077 211.642 149.391V154.84C211.642 155.154 211.896 155.409 212.211 155.409H225.75C226.064 155.409 226.319 155.154 226.319 154.84V149.391C226.319 149.077 226.064 148.822 225.75 148.822Z" stroke="#1D1515" stroke-width="1.16503" stroke-linecap="round" stroke-linejoin="round"/>
<path d="M244.065 176.16C244.739 176.161 245.406 176.03 246.029 175.773C246.652 175.516 247.218 175.139 247.695 174.663C248.172 174.188 248.551 173.623 248.81 173.001C249.068 172.379 249.202 171.712 249.203 171.038V117.446C249.202 116.773 249.068 116.106 248.81 115.484C248.551 114.862 248.172 114.297 247.695 113.821C247.218 113.346 246.652 112.969 246.029 112.712C245.406 112.455 244.739 112.323 244.065 112.324H249.456C250.129 112.323 250.797 112.455 251.419 112.712C252.042 112.969 252.608 113.346 253.085 113.821C253.562 114.297 253.941 114.862 254.2 115.484C254.459 116.106 254.592 116.773 254.593 117.446V171.038C254.592 171.712 254.459 172.379 254.2 173.001C253.941 173.623 253.562 174.188 253.085 174.663C252.608 175.139 252.042 175.516 251.419 175.773C250.797 176.03 250.129 176.161 249.456 176.16H244.065Z" fill="#1D1515"/>
<path d="M228.819 126.724C229.755 128.083 229.596 130.364 228.602 131.3" stroke="#1D1515" stroke-width="1.16503" stroke-linecap="round" stroke-linejoin="round"/>
<path d="M231.617 125.588C233.017 127.613 232.782 131.036 231.291 132.434" stroke="#1D1515" stroke-width="1.16503" stroke-linecap="round" stroke-linejoin="round"/>
<path d="M233.93 123.537C236.164 126.77 235.792 132.238 233.409 134.469" stroke="#1D1515" stroke-width="1.16503" stroke-linecap="round" stroke-linejoin="round"/>
<path d="M236.148 120.457C239.643 125.517 239.06 134.07 235.332 137.563" stroke="#1D1515" stroke-width="1.16503" stroke-linecap="round" stroke-linejoin="round"/>
<path d="M165.831 125.89H160.517V129.284H165.831V125.89Z" fill="#5D6063"/>
<path d="M156.241 125.89C155.96 125.89 155.691 126.001 155.493 126.2C155.294 126.398 155.183 126.667 155.183 126.948V139.041C155.183 139.321 155.294 139.591 155.493 139.789C155.691 139.988 155.96 140.099 156.241 140.099H159.348V125.89H156.241Z" fill="#5D6063"/>
<path d="M165.831 136.705H160.517V140.099H165.831V136.705Z" fill="#5D6063"/>
<path d="M165.663 130.449H160.572V135.538H165.663V130.449Z" fill="#5D6063"/>
<path d="M169.994 125.89H166.996V140.099H169.994C170.274 140.099 170.543 139.987 170.741 139.788C170.939 139.59 171.05 139.321 171.05 139.041V126.948C171.05 126.668 170.939 126.399 170.741 126.2C170.543 126.002 170.274 125.89 169.994 125.89Z" fill="#5D6063"/>
<path d="M67.6348 165.136C75.1588 155.48 77.2131 142.284 77.9723 136.636C78.061 135.981 78.3848 135.382 78.8832 134.949C79.3817 134.515 80.0207 134.279 80.681 134.282L120.422 134.494C120.809 134.496 121.192 134.581 121.543 134.743C121.895 134.905 122.209 135.14 122.462 135.433C122.716 135.726 122.904 136.07 123.014 136.441C123.123 136.813 123.153 137.203 123.099 137.587C121.721 147.538 116.861 176.556 94.0379 176.289L83.4324 176.239" stroke="#1D1515" stroke-width="1.16503" stroke-linecap="round" stroke-linejoin="round"/>
<path d="M92.8916 139.718H106.728" stroke="#1D1515" stroke-width="1.16503" stroke-linecap="round" stroke-linejoin="round"/>
<path d="M88.0879 143.844H107.649" stroke="#1D1515" stroke-width="1.16503" stroke-linecap="round" stroke-linejoin="round"/>
<path d="M84.8955 141.776H114.108" stroke="#1D1515" stroke-width="1.16503" stroke-linecap="round" stroke-linejoin="round"/>
<path d="M84.0703 145.777H109.879" stroke="#1D1515" stroke-width="1.16503" stroke-linecap="round" stroke-linejoin="round"/>
<path d="M77.5322 155.809H91.4872" stroke="#1D1515" stroke-width="1.16503" stroke-linecap="round" stroke-linejoin="round"/>
<path d="M75.502 160.399H96.882" stroke="#1D1515" stroke-width="1.16503" stroke-linecap="round" stroke-linejoin="round"/>
<path d="M106.988 155.923H113.062" stroke="#1D1515" stroke-width="1.16503" stroke-linecap="round" stroke-linejoin="round"/>
<path d="M104.58 160.078H110.652" stroke="#1D1515" stroke-width="1.16503" stroke-linecap="round" stroke-linejoin="round"/>
<path d="M101.224 164.957H107.297" stroke="#1D1515" stroke-width="1.16503" stroke-linecap="round" stroke-linejoin="round"/>
<path d="M72.3564 165.084H91.0996" stroke="#1D1515" stroke-width="1.16503" stroke-linecap="round" stroke-linejoin="round"/>
<path d="M97.4062 169.506H103.478" stroke="#1D1515" stroke-width="1.16503" stroke-linecap="round" stroke-linejoin="round"/>
<path d="M71.1387 169.632H83.5752" stroke="#1D1515" stroke-width="1.16503" stroke-linecap="round" stroke-linejoin="round"/>
<path d="M63.489 160.065L29.4938 160.091C29.0514 160.091 28.6148 160.192 28.2172 160.386C27.8196 160.58 27.4715 160.862 27.1991 161.21C26.9268 161.559 26.7375 161.965 26.6456 162.398C26.5537 162.831 26.5615 163.279 26.6686 163.708C27.8647 168.463 31.5384 176.22 42.7847 176.22C59.0037 176.22 86.7039 176.516 86.7097 176.428C71.9742 174.96 67.5393 166.186 66.2675 162.124C66.085 161.529 65.7168 161.008 65.2167 160.638C64.7167 160.267 64.1112 160.067 63.489 160.065Z" stroke="#1D1515" stroke-width="1.16503" stroke-linecap="round" stroke-linejoin="round"/>
<path d="M0.619141 176.479H288.619" stroke="#1D1515" stroke-width="1.16503" stroke-linecap="round" stroke-linejoin="round"/>
</g>
<defs>
<clipPath id="clip0_1959_79344">
<rect width="288" height="170.363" fill="white" transform="translate(0 14.8184)"/>
</clipPath>
</defs>
</svg>
