<svg width="288" height="200" viewBox="0 0 288 200" fill="none" xmlns="http://www.w3.org/2000/svg">
<g clip-path="url(#clip0_2212_96003)">
<path d="M108.201 127.549C108.062 127.444 107.915 127.35 107.762 127.268C105.489 126.051 103.561 126.637 101.421 128.891C102.399 123.417 102.366 116.779 98.0257 115.661C93.5559 114.506 91.0233 117.289 88.4033 124.015C88.5026 118.243 87.3615 110.799 82.5822 110.497C77.2075 110.157 75.4309 114.577 74.0961 124.381C72.4258 118.898 67.8119 109.294 62.39 111.198C57.0744 113.062 57.4169 118.187 60.37 128.634C57.4571 124.124 51.6288 117.419 47.7283 119.968C44.0169 122.387 45.0327 126.33 49.1458 133.656C46.4313 132.475 43.6082 132.359 41.3496 134.589C38.8147 137.094 38.1579 139.532 39.0131 142.445" stroke="#1D1515" stroke-width="1.41749" stroke-linecap="round" stroke-linejoin="round"/>
<path d="M92.4975 142.147L40.1636 142.313C36.5419 143.022 34.0849 146.608 34.6755 150.409L39.762 183.196" stroke="#1D1515" stroke-width="1.41749" stroke-linecap="round" stroke-linejoin="round"/>
<path d="M150.403 107.291C144.364 108.654 138.426 110.425 132.627 112.592C117.018 118.369 97.2325 136.966 84.5459 150.156C68.0085 151.399 55.2959 162.656 56.059 175.534C56.227 178.3 57.0013 180.996 58.327 183.429" stroke="#1D1515" stroke-width="1.41749" stroke-linecap="round" stroke-linejoin="round"/>
<path d="M227.255 131.542C223.709 130.488 219.986 130.166 216.312 130.597C210.67 122.801 204.195 116.186 197.391 111.985C189.767 107.289 180.917 105.193 171.498 104.997" stroke="#1D1515" stroke-width="1.41749" stroke-linecap="round" stroke-linejoin="round"/>
<path d="M242.285 183.347C246.505 177.755 249.04 170.59 249.04 162.765C249.051 158.028 248.095 153.338 246.231 148.982" stroke="#1D1515" stroke-width="1.41749" stroke-linecap="round" stroke-linejoin="round"/>
<path d="M199.012 113.029C178.066 126.011 159.232 126.297 147.058 124.209C135.761 122.271 127.624 117.913 124.962 116.219C124.51 116.474 124.057 116.735 123.604 117.003C125.775 118.498 134.28 123.408 146.565 125.56C150.565 126.262 154.618 126.616 158.679 126.616C162.831 126.614 166.974 126.248 171.061 125.522C180.984 123.76 190.819 119.852 200.269 113.911C199.843 113.608 199.424 113.314 199.012 113.029Z" fill="#1D1515"/>
<path d="M196.841 135.376C200.172 130.698 204.292 128.068 209.09 127.558C210.829 127.372 212.586 127.481 214.288 127.882C213.845 127.31 213.398 126.747 212.946 126.193C211.643 126.024 210.326 126.007 209.019 126.141C205.412 126.509 200.172 128.267 195.695 134.553C195.586 134.707 195.543 134.897 195.574 135.082C195.606 135.267 195.71 135.432 195.863 135.541C195.983 135.627 196.126 135.673 196.274 135.673C196.385 135.672 196.494 135.644 196.593 135.592C196.691 135.54 196.776 135.466 196.841 135.376Z" fill="#1D1515"/>
<path d="M197.332 152.689H197.346C197.532 152.689 197.711 152.616 197.843 152.485C197.976 152.355 198.052 152.178 198.055 151.992C198.095 149.908 198.936 145.195 201.835 140.751C205.199 135.589 210.148 132.407 216.539 131.28C216.229 130.855 215.918 130.429 215.594 130.009C209.215 131.308 204.053 134.734 200.639 139.976C197.769 144.382 196.687 149.19 196.623 151.966C196.621 152.06 196.638 152.154 196.673 152.241C196.708 152.329 196.76 152.409 196.826 152.476C196.892 152.543 196.97 152.597 197.057 152.633C197.144 152.67 197.238 152.689 197.332 152.689Z" fill="#1D1515"/>
<path d="M96.9996 144.994C94.3175 144.883 91.6315 145.089 88.9979 145.609C88.2844 146.324 87.5859 147.032 86.9023 147.735C89.5223 146.296 104.453 144.503 110.619 151.515C110.686 151.589 110.768 151.649 110.86 151.69C110.951 151.731 111.051 151.751 111.151 151.751C111.325 151.752 111.493 151.689 111.623 151.574C111.764 151.45 111.85 151.275 111.862 151.087C111.874 150.9 111.811 150.716 111.687 150.574C107.716 146.055 100.78 145.141 96.9996 144.994Z" fill="#1D1515"/>
<path d="M108.911 155.849C100.562 149.551 90.179 149.175 85.7753 149.343L84.3105 150.857C86.8337 150.652 98.9225 150.087 108.056 156.981C108.206 157.094 108.395 157.144 108.581 157.118C108.768 157.092 108.936 156.993 109.049 156.843C109.163 156.693 109.212 156.504 109.186 156.318C109.16 156.131 109.061 155.963 108.911 155.849Z" fill="#1D1515"/>
<path d="M73.1279 183.195C73.1279 183.195 80.8698 160.279 102.676 164.439C107.148 165.292 111.955 166.346 116.777 167.482" stroke="#1D1515" stroke-width="1.41749" stroke-linecap="round" stroke-linejoin="round"/>
<path d="M246.354 84.6674C250.086 71.6005 253.143 68.6828 254.903 69.9538C256.498 71.1067 253.25 79.4322 252.305 83.7531" stroke="#1D1515" stroke-width="1.41749" stroke-linecap="round" stroke-linejoin="round"/>
<path d="M262.827 81.8207C264.698 78.7826 267.788 78.9338 266.175 84.1124C264.601 89.161 263.434 95.7452 260.481 98.7196C257.528 101.694 256.465 103.026 256.465 103.026C256.465 103.026 250.559 125.068 247.206 143.394C242.354 169.897 233.204 174.995 224.649 171.959C216.095 168.923 214.514 156.943 226.197 133.656C237.879 110.369 244.038 96.8013 244.038 96.8013" stroke="#1D1515" stroke-width="1.41749" stroke-linecap="round" stroke-linejoin="round"/>
<path d="M244.235 97.2195C242.541 96.0737 242.744 89.4091 240.843 86.5056C238.48 82.8862 236.17 79.1346 240.542 79.6969C244.292 80.1812 245.485 83.4769 246.354 84.6581" stroke="#1D1515" stroke-width="1.41749" stroke-linecap="round" stroke-linejoin="round"/>
<path d="M260.642 87.3635C260.642 87.3635 263.963 79.2719 265.078 75.5298C266.3 71.4332 262.007 70.8568 259.938 76.7228" stroke="#1D1515" stroke-width="1.41749" stroke-linecap="round" stroke-linejoin="round"/>
<path d="M256.741 85.2396C256.741 85.2396 263.28 70.4221 260.355 69.1038C257.688 67.9013 255.654 73.3067 252.297 83.7512" stroke="#1D1515" stroke-width="1.41749" stroke-linecap="round" stroke-linejoin="round"/>
<path d="M150.017 100.305L150.697 112.706C150.697 112.706 149.145 121.721 161.668 120.051C174.142 118.386 172.611 111 172.611 111L169.58 94.6992" stroke="#1D1515" stroke-width="1.41749" stroke-linecap="round" stroke-linejoin="round"/>
<path d="M173.547 69.1986C173.547 69.1986 183.233 65.5651 183.611 75.6529C183.921 83.9783 176.869 83.6523 174.397 83.2838" stroke="#1D1515" stroke-width="1.41749" stroke-linecap="round" stroke-linejoin="round"/>
<path d="M148.552 53.334H165.179C167.622 53.334 169.966 54.3047 171.694 56.0326C173.422 57.7605 174.392 60.1041 174.392 62.5477V82.0713C174.392 87.1114 172.39 91.9452 168.826 95.5091C165.262 99.073 160.429 101.075 155.389 101.075C152.893 101.075 150.422 100.584 148.116 99.6286C145.811 98.6736 143.716 97.2737 141.951 95.5091C140.186 93.7444 138.786 91.6494 137.831 89.3438C136.876 87.0381 136.385 84.5669 136.385 82.0713V65.4984C136.385 63.9008 136.699 62.3188 137.311 60.8428C137.922 59.3667 138.819 58.0256 139.948 56.896C141.078 55.7664 142.42 54.8705 143.896 54.2593C145.372 53.6481 146.954 53.3337 148.552 53.334Z" stroke="#1D1515" stroke-width="1.41749" stroke-linecap="round" stroke-linejoin="round"/>
<path d="M178.814 91.0802C178.82 86.9436 178.433 82.8159 177.657 78.7527C177.657 78.6748 177.657 78.5921 177.657 78.5165C177.654 77.8031 177.369 77.1199 176.864 76.6155C176.36 76.1111 175.677 75.8264 174.963 75.8232L175.034 81.2097C175.581 81.1931 176.109 81.0101 176.549 80.6852C177.42 86.119 179.147 102.321 171.878 116.094C170.543 118.62 169.291 120.954 168.082 123.21C161.23 135.996 156.694 144.442 156.801 151.985C156.801 152.173 156.875 152.353 157.008 152.486C157.141 152.619 157.321 152.694 157.509 152.694C157.697 152.694 157.878 152.619 158.011 152.486C158.143 152.353 158.218 152.173 158.218 151.985C158.117 144.81 162.579 136.492 169.322 123.9C170.534 121.644 171.786 119.307 173.121 116.777C177.893 107.74 178.85 97.818 178.814 91.0802Z" fill="#1D1515"/>
<path d="M134.537 81.4928C134.869 81.6799 135.237 81.7935 135.617 81.8259V76.4678C135.016 76.5226 134.451 76.7775 134.012 77.1918C133.574 77.606 133.287 78.1556 133.198 78.7523C133.119 78.869 133.077 79.0063 133.077 79.1468C133.077 80.2241 133.077 105.678 140.637 117.162C148.367 128.927 150.758 135.627 151.29 147.035C151.298 147.218 151.377 147.389 151.509 147.515C151.641 147.641 151.816 147.711 151.998 147.711H152.031C152.219 147.702 152.396 147.62 152.522 147.481C152.649 147.342 152.715 147.159 152.707 146.972C152.161 135.263 149.721 128.402 141.825 116.387C135.803 107.234 134.729 88.1408 134.537 81.4928Z" fill="#1D1515"/>
<path d="M149.577 70.6729L149.828 85.9936C149.828 85.9936 150.957 87.6237 152.774 84.3021" stroke="#1D1515" stroke-width="1.41749" stroke-linecap="round" stroke-linejoin="round"/>
<path d="M149.577 89.2513C150.957 90.8649 154.198 90.6003 157.411 88.5C157.411 88.5 158.663 92.6036 152.429 93.225" stroke="#1D1515" stroke-width="1.41749" stroke-linecap="round" stroke-linejoin="round"/>
<path d="M155.608 65.7372C155.797 65.69 157.817 62.777 160.919 65.2647" stroke="#1D1515" stroke-width="1.41749" stroke-linecap="round" stroke-linejoin="round"/>
<path d="M160.92 77.0017C161.569 77.0017 162.094 76.1883 162.094 75.1849C162.094 74.1816 161.569 73.3682 160.92 73.3682C160.272 73.3682 159.746 74.1816 159.746 75.1849C159.746 76.1883 160.272 77.0017 160.92 77.0017Z" fill="#1D1515"/>
<path d="M143.744 77.4694C144.393 77.4694 144.919 76.6561 144.919 75.6527C144.919 74.6493 144.393 73.8359 143.744 73.8359C143.096 73.8359 142.57 74.6493 142.57 75.6527C142.57 76.6561 143.096 77.4694 143.744 77.4694Z" fill="#1D1515"/>
<path d="M139.99 65.603C140.179 65.5629 142.738 62.0593 145.315 65.3668" stroke="#1D1515" stroke-width="1.41749" stroke-linecap="round" stroke-linejoin="round"/>
<path d="M160.126 49.2049C155.527 49.2639 152.035 49.4954 149.942 49.8782C133.033 53.7243 135.767 66.2549 135.767 66.2549C135.767 66.2549 144.035 67.8307 150.766 57.8657C150.766 57.8657 160.011 65.4092 173.682 68.4473C173.902 68.3954 174.155 68.3268 174.391 68.2512V68.9435C175.517 68.6442 176.683 68.5222 177.847 68.582C177.696 63.642 176.813 57.4169 172.742 53.3983C169.862 50.5444 165.61 49.1316 160.126 49.2049Z" fill="#1D1515"/>
<path d="M204.512 38.9183C198.684 22.2415 182.132 12.8601 167.551 17.9607C155.566 22.1518 148.651 34.8241 149.795 48.4628C151.989 48.0753 155.45 47.8462 160.107 47.7871C165.982 47.7115 170.568 49.259 173.741 52.3893C178.23 56.8284 179.141 63.5756 179.274 68.8156C181.445 69.4039 183.444 71.1781 183.611 75.6527C183.628 76.1063 183.231 79.5744 183.328 79.5626C183.313 80.9316 183.685 82.2771 184.4 83.4442C186.026 86.0665 189.34 87.6967 194.257 88.2684H194.339C194.527 88.2794 194.712 88.2152 194.853 88.09C194.993 87.9649 195.079 87.789 195.089 87.601C195.1 87.413 195.036 87.2284 194.911 87.0877C194.786 86.947 194.61 86.8619 194.422 86.8509C189.969 86.3264 187.006 84.9325 185.617 82.7047C185.126 81.9088 184.835 81.0058 184.769 80.0729C185.981 81.4904 188.076 83.0189 191.412 83.0189C192.292 83.0141 193.168 82.9183 194.028 82.7331C194.122 82.7173 194.212 82.6827 194.292 82.6314C194.372 82.58 194.442 82.513 194.495 82.4342C194.549 82.3555 194.587 82.2667 194.605 82.1731C194.624 82.0796 194.624 81.9832 194.604 81.8898C194.585 81.7964 194.547 81.7079 194.492 81.6296C194.438 81.5512 194.368 81.4847 194.288 81.4339C194.207 81.3832 194.117 81.3493 194.022 81.3342C193.928 81.3191 193.832 81.3232 193.739 81.3463C189.442 82.2393 187.042 80.6021 185.804 79.1421C186.773 78.9302 187.728 78.6596 188.665 78.3318C203.246 73.243 210.341 55.5928 204.512 38.9183Z" fill="#1D1515"/>
<path d="M161.954 84.2993C166.73 84.2993 170.601 80.428 170.601 75.6526C170.601 70.8771 166.73 67.0059 161.954 67.0059C157.179 67.0059 153.308 70.8771 153.308 75.6526C153.308 80.428 157.179 84.2993 161.954 84.2993Z" stroke="#1D1515" stroke-width="1.41749" stroke-linecap="round" stroke-linejoin="round"/>
<path d="M147.477 75.4189H153.118" stroke="#1D1515" stroke-width="1.41749" stroke-linecap="round" stroke-linejoin="round"/>
<path d="M169.515 71.4543L174.393 68.6973" stroke="#1D1515" stroke-width="1.41749" stroke-linecap="round" stroke-linejoin="round"/>
<path d="M138.549 84.2993C143.325 84.2993 147.196 80.428 147.196 75.6526C147.196 70.8771 143.325 67.0059 138.549 67.0059C133.774 67.0059 129.902 70.8771 129.902 75.6526C129.902 80.428 133.774 84.2993 138.549 84.2993Z" stroke="#1D1515" stroke-width="1.41749" stroke-linecap="round" stroke-linejoin="round"/>
<path d="M198.013 174.357H193.102L190.687 138.62C190.589 137.394 190.038 136.249 189.14 135.409C188.243 134.568 187.064 134.092 185.835 134.075H117.372C116.787 134.066 116.206 134.181 115.668 134.41C115.129 134.64 114.645 134.98 114.246 135.408C113.846 135.836 113.541 136.343 113.35 136.896C113.158 137.45 113.085 138.037 113.134 138.62L115.806 178.185C115.904 179.411 116.455 180.556 117.352 181.397C118.25 182.237 119.429 182.713 120.659 182.73L198.013 182.631C198.35 182.631 198.683 182.565 198.994 182.436C199.304 182.307 199.587 182.119 199.824 181.881C200.062 181.643 200.251 181.361 200.38 181.05C200.508 180.739 200.574 180.406 200.574 180.07V176.918C200.574 176.582 200.508 176.249 200.38 175.938C200.251 175.628 200.062 175.345 199.824 175.108C199.587 174.87 199.304 174.681 198.994 174.552C198.683 174.424 198.35 174.357 198.013 174.357ZM155.411 148.635C154.189 151.876 151.395 150.877 151.395 150.877C151.876 147.926 155.411 148.635 155.411 148.635ZM155.772 164.496C153.31 166.025 149.63 165.463 147.532 163.237C145.434 161.012 145.746 157.971 148.208 156.443C148.583 156.213 148.986 156.03 149.405 155.897C149.166 155.644 148.983 155.344 148.868 155.016C148.752 154.688 148.707 154.339 148.734 153.993C148.761 153.623 148.881 153.265 149.084 152.954C149.286 152.643 149.564 152.388 149.892 152.214C149.606 151.148 149.148 149.75 148.772 149.301C148.718 149.25 148.677 149.187 148.652 149.118C148.626 149.048 148.618 148.973 148.627 148.9C148.636 148.826 148.662 148.756 148.703 148.694C148.744 148.632 148.8 148.581 148.864 148.545C149.013 148.473 149.181 148.453 149.342 148.488C149.503 148.523 149.648 148.611 149.753 148.739C150.324 149.421 150.823 151.018 151.087 151.994C151.113 151.994 151.142 151.994 151.168 151.994C151.776 152.097 152.323 152.426 152.7 152.915C153.077 153.403 153.256 154.016 153.202 154.631C153.167 155.023 153.03 155.399 152.805 155.722C154.194 155.988 155.466 156.677 156.448 157.695C158.539 159.93 158.236 162.973 155.772 164.501V164.496Z" fill="#1D1515"/>
<path d="M-0.00195312 183.425H288.002" stroke="#1D1515" stroke-width="1.41749" stroke-linecap="round" stroke-linejoin="round"/>
</g>
<defs>
<clipPath id="clip0_2212_96003">
<rect width="288.004" height="200" fill="white" transform="translate(-0.00195312)"/>
</clipPath>
</defs>
</svg>
