<svg width="288" height="150" viewBox="0 0 288 150" fill="none" xmlns="http://www.w3.org/2000/svg">
<g clip-path="url(#clip0_2146_83042)">
<path d="M198.061 138.421L202.594 137.372C204.387 140.672 207.337 143.193 210.876 144.451C214.416 145.708 218.295 145.613 221.768 144.184C225.242 142.755 228.065 140.092 229.694 136.708C231.323 133.323 231.644 129.456 230.595 125.849C229.546 122.243 227.201 119.151 224.011 117.169C220.82 115.186 217.01 114.453 213.311 115.11C209.613 115.766 206.288 117.767 203.975 120.727C201.663 123.686 200.525 127.396 200.782 131.144L197.014 132.018M184.679 134.882L180.47 135.853C179.732 136.025 179.092 136.482 178.691 137.126C178.29 137.769 178.16 138.545 178.332 139.284L178.503 140.023C178.675 140.762 179.133 141.402 179.777 141.803C180.42 142.203 181.197 142.332 181.935 142.16L186.7 141.055M226.186 132.023C225.811 134.008 224.855 135.837 223.44 137.28C222.025 138.722 220.215 139.712 218.237 140.125C216.259 140.538 214.203 140.356 212.329 139.6C210.456 138.845 208.848 137.551 207.709 135.882C206.571 134.212 205.953 132.243 205.934 130.223C205.915 128.203 206.495 126.222 207.601 124.531C208.708 122.841 210.291 121.517 212.15 120.726C214.009 119.935 216.061 119.713 218.046 120.088C219.364 120.338 220.621 120.845 221.743 121.58C222.865 122.315 223.832 123.264 224.588 124.373C225.343 125.481 225.873 126.728 226.147 128.041C226.42 129.355 226.433 130.709 226.183 132.028L226.186 132.023Z" fill="#6D6D6D"/>
<path d="M108.465 79.071C103.112 78.9431 98.3617 79.5566 95.0689 81.6094C95.8265 67.8116 89.5647 54.5465 78.4461 50.8117C62.301 45.3884 55.9436 54.3862 53.7808 62.4029C51.5888 70.5071 56.0861 79.7331 60.7015 69.008C65.3461 58.2132 71.1871 58.8187 79.3916 63.7256C87.5961 68.6324 82.4675 86.9129 82.3865 99.286C82.3428 106.442 83.9358 112.524 86.6814 116.683C82.1583 123.861 72.6861 123.874 73.4551 129.122C74.3649 135.331 78.2211 147.293 78.5012 149.797L99.7313 149.667C99.7313 149.667 101.536 143.789 97.4648 141.86C93.3933 139.93 90.4664 141.435 90.4664 141.435L90.0924 136.789C89.9548 135.115 91.3179 133.603 93.3707 133.153C95.4752 132.695 98.3228 132.073 101.444 131.406C101.876 131.622 102.324 131.826 102.789 132.017C101.967 134.445 101.35 136.405 101.251 137.126C100.915 139.591 105.461 142.326 108.925 144.672C112.389 147.017 115.426 149.578 115.426 149.578H140.872C140.872 149.578 140.89 140.239 134.073 140.513L126.535 140.963L121.661 137.479C120.819 136.888 120.382 136.091 120.388 135.287C121.338 135.33 122.319 135.361 123.33 135.381C130.796 135.513 137.605 135.43 143.757 135.131C146.307 140.474 148.149 145.136 148.235 146.496C148.332 148.024 148.306 148.86 149.846 149.3C151.413 149.748 170.082 149.276 170.082 149.276C170.082 149.276 170.501 145.876 170.012 144.824C169.141 142.947 163.768 139.24 162.115 139.24C162.115 139.24 161.684 136.352 161.2 133.535C164.562 133.042 167.584 132.462 170.266 131.797C170.739 132.564 171.26 133.106 171.804 133.368C177.198 135.959 185.132 130.293 186.169 138.476C187.205 146.66 193.905 145.999 196.513 143.127C199.121 140.255 198.351 136.998 196.003 127.629C194.758 122.66 187.358 119.475 187.358 119.475C188.177 118.15 188.846 116.739 189.353 115.266" stroke="#111111" stroke-width="0.971332" stroke-linecap="round" stroke-linejoin="round"/>
<path d="M168.364 149.06C168.364 149.06 169.206 144.602 163.021 141.301" stroke="#111111" stroke-width="0.971332" stroke-linecap="round" stroke-linejoin="round"/>
<path d="M164.779 149.268C164.779 149.268 165.2 145.512 161.408 142.914" stroke="#111111" stroke-width="0.971332" stroke-linecap="round" stroke-linejoin="round"/>
<path d="M195.237 143.284C195.166 142.582 195.535 137.403 193.359 134.453" stroke="#111111" stroke-width="0.971332" stroke-linecap="round" stroke-linejoin="round"/>
<path d="M192.567 144.477C192.567 144.477 190.197 137.964 190.336 134.453" stroke="#111111" stroke-width="0.971332" stroke-linecap="round" stroke-linejoin="round"/>
<path d="M137.395 149.417C137.395 149.417 137.652 142.933 132.27 142.324" stroke="#111111" stroke-width="0.971332" stroke-linecap="round" stroke-linejoin="round"/>
<path d="M134.82 149.48C134.82 149.48 134.796 145.478 130.449 143.934" stroke="#111111" stroke-width="0.971332" stroke-linecap="round" stroke-linejoin="round"/>
<path d="M98.0018 149.416C98.0018 149.416 98.9133 144.917 96.8087 143.443C95.5866 142.569 94.0986 142.147 92.5996 142.25" stroke="#111111" stroke-width="0.971332" stroke-linecap="round" stroke-linejoin="round"/>
<path d="M95.3342 149.415C95.3342 149.415 96.6682 145.413 93.0176 144.852" stroke="#111111" stroke-width="0.971332" stroke-linecap="round" stroke-linejoin="round"/>
<path d="M186.735 108.274L171.948 107.973C171.47 107.962 171.015 107.763 170.684 107.417C170.353 107.072 170.172 106.609 170.182 106.13L170.237 103.54C170.242 103.303 170.293 103.07 170.389 102.853C170.484 102.636 170.621 102.44 170.792 102.276C170.962 102.112 171.164 101.983 171.385 101.897C171.605 101.811 171.841 101.769 172.078 101.774L186.648 102.078" stroke="#111111" stroke-width="0.971332" stroke-linecap="round" stroke-linejoin="round"/>
<path d="M210.456 73.9766C211.322 78.4593 210.285 83.7741 204.814 89.1488C198.986 94.8974 191.143 96.9955 183.769 97.3177C183.396 106.859 183.027 116.189 183.027 116.189C183.027 116.189 205.217 118.974 206.177 109.906C206.663 105.237 204.855 100.963 202.98 97.915L210.236 89.7073C215.75 83.3661 213.87 76.0309 210.456 73.9766ZM191.928 109.896C190.98 109.877 190.06 109.576 189.282 109.033C188.505 108.491 187.907 107.729 187.562 106.846C187.217 105.963 187.143 104.998 187.347 104.072C187.551 103.146 188.025 102.302 188.709 101.645C189.393 100.989 190.256 100.55 191.189 100.384C192.123 100.219 193.084 100.333 193.952 100.714C194.821 101.094 195.557 101.724 196.067 102.523C196.577 103.322 196.84 104.254 196.82 105.202C196.808 105.831 196.671 106.452 196.418 107.029C196.166 107.606 195.802 108.127 195.347 108.563C194.893 108.999 194.357 109.341 193.77 109.57C193.184 109.799 192.558 109.91 191.928 109.896Z" fill="#111111"/>
<path d="M204.093 63.2892L191.871 64.1764C186.578 64.4435 181.544 62.708 176.891 60.6958C175.884 60.2619 172.844 57.7737 172.844 57.7737L172.797 57.6782C170.121 51.9748 166.843 45.9558 165.5 45.4539C162.172 44.209 157.199 58.8049 155.773 63.2439C141.374 73.2438 156.878 91.6829 164.973 94.6503C172.492 97.4024 192.889 100.933 204.818 89.1623C216.274 77.9013 208.304 66.9058 204.093 63.2892Z" stroke="#111111" stroke-width="0.971332" stroke-linecap="round" stroke-linejoin="round"/>
<path d="M166.354 47.9844C166.354 47.9844 162.695 49.6275 161.635 62.5641" stroke="#111111" stroke-width="0.971332" stroke-linecap="round" stroke-linejoin="round"/>
<path d="M182.252 72.97C183.205 72.9319 183.929 71.6811 183.869 70.1764C183.809 68.6716 182.987 67.4827 182.034 67.5208C181.081 67.5589 180.357 68.8097 180.418 70.3144C180.478 71.8192 181.299 73.0081 182.252 72.97Z" fill="#111111"/>
<path d="M195.449 73.1027C196.401 73.061 197.12 71.8085 197.054 70.3052C196.988 68.8019 196.163 67.6171 195.21 67.6588C194.258 67.7005 193.54 68.953 193.606 70.4563C193.672 71.9596 194.497 73.1445 195.449 73.1027Z" fill="#111111"/>
<path d="M186.281 79.0802C187.861 82.7422 189.016 79.1304 189.262 77.1133C189.524 79.0106 190.898 82.0541 192.142 79.5206" stroke="#111111" stroke-width="0.971332" stroke-linecap="round" stroke-linejoin="round"/>
<path d="M192.171 75.3368L189.867 77.3394C189.689 77.4767 189.469 77.548 189.244 77.5412C189.02 77.5344 188.804 77.4499 188.635 77.3022L186.467 75.3595C185.948 74.8933 186.28 74.1486 187.013 74.1388L191.486 74.0822C192.26 74.0692 192.7 74.8754 192.171 75.3368Z" fill="#111111"/>
<path d="M190.822 48.4669C192.741 46.2814 194.594 44.8762 195.8 45.6468C197.327 46.6181 199.817 54.7643 201.143 61.6851" stroke="#111111" stroke-width="0.971332" stroke-linecap="round" stroke-linejoin="round"/>
<path d="M195.561 47.1602C195.561 47.1602 188.364 55.9475 189.935 61.6557" stroke="#111111" stroke-width="0.971332" stroke-linecap="round" stroke-linejoin="round"/>
<path d="M212.338 59.0902C210.587 58.3455 199.488 57.3337 195.123 56.9582C195.003 54.2595 191.379 43.0082 183.457 43.0357C183.177 43.0357 182.907 43.0454 182.648 43.06L182.596 42.2344C182.596 42.2344 173.516 42.6893 169.07 50.4211L173.21 59.8527L173.869 60.1927C173.93 60.2186 175.637 60.9034 176.621 61.3259C181.273 63.3366 186.579 64.4374 191.871 64.1703L211.869 62.7133C212.439 62.6858 212.897 62.3507 212.965 61.9152L213.208 60.3756C213.284 59.8576 212.942 59.346 212.338 59.0902Z" fill="#111111"/>
<path d="M180.573 43.3946C182.901 43.3946 184.787 42.4755 184.787 41.3418C184.787 40.2081 182.901 39.2891 180.573 39.2891C178.246 39.2891 176.359 40.2081 176.359 41.3418C176.359 42.4755 178.246 43.3946 180.573 43.3946Z" fill="#6D6D6D"/>
<path d="M180.122 39.6532C179.312 37.7559 174.997 30.2928 170.635 31.0634C165.521 31.7644 180.122 39.6532 180.122 39.6532Z" stroke="#111111" stroke-width="0.971332" stroke-linecap="round" stroke-linejoin="round"/>
<path d="M180.142 39.5787C179.468 38.0068 177.485 31.1201 180.537 28.8585C183.993 26.0918 180.142 39.5787 180.142 39.5787Z" stroke="#111111" stroke-width="0.971332" stroke-linecap="round" stroke-linejoin="round"/>
<path d="M180.283 39.7059C182.148 39.7059 184.376 38.1939 184.065 34.6534C183.754 31.1129 188.402 28.4012 190.955 31.8543" stroke="#111111" stroke-width="0.971332" stroke-linecap="round" stroke-linejoin="round"/>
<path d="M180.309 39.2936C181.524 40.3022 183.792 40.5207 185.504 38.047C187.215 35.5734 191.707 36.3181 191.503 39.9476" stroke="#111111" stroke-width="0.971332" stroke-linecap="round" stroke-linejoin="round"/>
<path d="M204.951 75.1101C204.951 75.1101 216.523 64.2538 230.123 72.4859" stroke="#111111" stroke-width="0.971332" stroke-linecap="round" stroke-linejoin="round"/>
<path d="M204.871 77.2598C204.871 77.2598 218.308 68.8189 230.079 79.5019" stroke="#111111" stroke-width="0.971332" stroke-linecap="round" stroke-linejoin="round"/>
<path d="M178.75 81.0869L171.117 78.3461C153.367 71.7815 151.98 68.2005 152.221 66.6092C153.219 65.3036 154.422 64.1681 155.783 63.2467C156.411 61.2911 157.725 57.3653 159.289 53.6953C151.313 55.2511 144.891 60.3052 144.496 71.3849C144.496 71.3849 131.969 60.9091 109.474 66.2822C105.751 67.1725 105.346 70.0833 105.984 73.6756C113.492 115.904 149.909 123.178 179.808 115.637C180.05 113.435 180.346 103.547 180.513 97.3551H180.488L184.168 92.5745C186.713 86.4762 182.879 81.7927 178.75 81.0869ZM156.917 56.9056C157.037 56.8627 157.168 56.8683 157.284 56.9212C157.399 56.9741 157.489 57.0701 157.535 57.1886C157.58 57.3071 157.578 57.4388 157.527 57.5553C157.477 57.6718 157.383 57.764 157.265 57.8121C153.866 59.1186 152.295 62.5862 152.496 65.3383C152.506 65.4667 152.464 65.5935 152.38 65.691C152.295 65.7884 152.176 65.8485 152.048 65.858H152.014C151.891 65.8583 151.772 65.8121 151.682 65.7286C151.592 65.6451 151.537 65.5305 151.528 65.408C151.3 62.2997 153.077 58.3804 156.917 56.9056ZM172.646 97.8715H172.604C167.518 97.4279 162.88 95.8787 158.818 93.2625C155.57 91.1709 152.686 88.4059 150.238 85.0256C146.085 79.2915 144.672 73.8747 144.614 73.6481C144.596 73.5857 144.591 73.5205 144.599 73.4561C144.607 73.3918 144.628 73.3297 144.66 73.2734C144.692 73.2172 144.735 73.1681 144.787 73.1288C144.839 73.0896 144.898 73.0611 144.96 73.045C145.023 73.0288 145.089 73.0255 145.153 73.035C145.217 73.0446 145.278 73.0669 145.334 73.1006C145.389 73.1344 145.437 73.1789 145.475 73.2314C145.513 73.284 145.54 73.3437 145.554 73.4069C145.569 73.4619 146.992 78.8965 151.046 84.4849C154.769 89.6152 161.543 95.9337 172.684 96.9034C172.813 96.909 172.934 96.9655 173.021 97.0605C173.108 97.1556 173.154 97.2813 173.148 97.4101C173.143 97.5389 173.086 97.6602 172.991 97.7474C172.896 97.8345 172.77 97.8803 172.642 97.8747L172.646 97.8715Z" fill="#111111"/>
<path d="M176.346 75.1073C176.346 75.1073 164.774 64.2608 151.174 72.4896" stroke="#111111" stroke-width="0.971332" stroke-linecap="round" stroke-linejoin="round"/>
<path d="M176.424 77.2559C176.424 77.2559 162.988 68.815 151.217 79.498" stroke="#111111" stroke-width="0.971332" stroke-linecap="round" stroke-linejoin="round"/>
<path d="M0.486328 149.594H287.515" stroke="#111111" stroke-width="0.971332" stroke-linecap="round" stroke-linejoin="round"/>
</g>
<defs>
<clipPath id="clip0_2146_83042">
<rect width="288" height="150" fill="white"/>
</clipPath>
</defs>
</svg>
