<svg width="288" height="154" viewBox="0 0 288 154" fill="none" xmlns="http://www.w3.org/2000/svg">
<g clip-path="url(#clip0_2212_96291)">
<path d="M21.8027 135.307V25.3867H179.152V58.8663" stroke="#1D1515" stroke-width="1.05797" stroke-linecap="round" stroke-linejoin="round"/>
<path d="M107.703 86.9917V32.9697H171.776V62.5948" stroke="#1D1515" stroke-width="1.05797" stroke-linecap="round" stroke-linejoin="round"/>
<path d="M160.208 127.921H127.055" stroke="#1D1515" stroke-width="1.05797" stroke-linecap="round" stroke-linejoin="round"/>
<path d="M119.506 83.9001C121.368 83.9001 122.878 82.5004 122.878 80.7738C122.878 79.0472 121.368 77.6475 119.506 77.6475C117.644 77.6475 116.135 79.0472 116.135 80.7738C116.135 82.5004 117.644 83.9001 119.506 83.9001Z" stroke="#1D1515" stroke-width="1.05797" stroke-linecap="round" stroke-linejoin="round"/>
<path d="M127.191 120.82H152.087C153.156 114.95 158.661 110.479 165.296 110.479" stroke="#1D1515" stroke-width="1.05797" stroke-linecap="round" stroke-linejoin="round"/>
<path d="M166.98 67.1068V50.1475C166.42 50.2132 165.858 50.2468 165.294 50.248C158.721 50.248 153.258 45.8592 152.117 40.0703H126.118C124.977 45.8592 119.512 50.2533 112.94 50.2533C112.791 50.2533 112.644 50.2533 112.496 50.2427V86.965" stroke="#1D1515" stroke-width="1.05797" stroke-linecap="round" stroke-linejoin="round"/>
<path d="M93.1508 95.0975V32.9697H29.0781V127.921H73.2115" stroke="#1D1515" stroke-width="1.05797" stroke-linecap="round" stroke-linejoin="round"/>
<path d="M81.348 83.9001C83.21 83.9001 84.7194 82.5004 84.7194 80.7738C84.7194 79.0472 83.21 77.6475 81.348 77.6475C79.486 77.6475 77.9766 79.0472 77.9766 80.7738C77.9766 82.5004 79.486 83.9001 81.348 83.9001Z" stroke="#1D1515" stroke-width="1.05797" stroke-linecap="round" stroke-linejoin="round"/>
<path d="M73.0971 120.82H48.7637C47.6951 114.95 42.1901 110.478 35.5548 110.478C34.9915 110.48 34.4287 110.513 33.8691 110.579V50.1475C34.4287 50.2132 34.9915 50.2468 35.5548 50.248C42.1284 50.248 47.5911 45.8592 48.7319 40.0703H74.7369C75.8778 45.8592 81.3422 50.2533 87.914 50.2533C88.0639 50.2533 88.2102 50.2533 88.3583 50.2427V95.1537" stroke="#1D1515" stroke-width="1.05797" stroke-linecap="round" stroke-linejoin="round"/>
<path d="M100.375 25.5117V94.9466" stroke="#1D1515" stroke-width="1.05797" stroke-linecap="round" stroke-linejoin="round"/>
<path d="M127.272 94.6155L115.197 87.7669C114.394 87.3017 113.481 87.0583 112.552 87.0616L102.801 87.1409C102.57 87.1409 102.063 87.885 102.272 87.9926L114.011 94.9135L115.331 135.095H127.031V94.6137L127.272 94.6155Z" stroke="#1D1515" stroke-width="1.05797" stroke-linecap="round" stroke-linejoin="round"/>
<path d="M102.662 87.4745C102.619 87.4512 102.584 87.414 102.564 87.3688C102.544 87.3236 102.54 87.2731 102.552 87.2251C102.564 87.1772 102.591 87.1346 102.63 87.1041C102.669 87.0736 102.717 87.0569 102.766 87.0566H102.366C100.696 87.0566 100.144 89.2925 101.622 90.0701L110.144 94.5524H72.5645V135.09H116.107V94.5524H116.119L102.662 87.4745ZM97.7248 116.163C97.7363 118.096 97.3728 120.012 96.6545 121.806L98.4055 126.177C98.6735 126.844 98.0528 127.528 97.2858 127.411L92.405 126.678C91.9451 126.887 91.4585 127.032 90.9591 127.108V128.157C90.9593 128.37 90.9176 128.581 90.8364 128.777C90.7551 128.974 90.636 129.152 90.4856 129.303C90.3353 129.453 90.1568 129.573 89.9603 129.654C89.7637 129.736 89.5531 129.778 89.3404 129.778H88.7091C88.4963 129.778 88.2854 129.736 88.0887 129.655C87.892 129.573 87.7133 129.454 87.5628 129.304C87.4123 129.153 87.2929 128.974 87.2116 128.778C87.1302 128.581 87.0884 128.37 87.0887 128.157V126.218C84.4437 124.5 82.6117 120.644 82.6152 116.167C82.6187 111.69 84.4561 107.844 87.0887 106.116V103.67C87.0887 103.241 87.2594 102.828 87.5633 102.525C87.8672 102.221 88.2794 102.05 88.7091 102.05H89.3404C89.7699 102.05 90.1816 102.221 90.4851 102.525C90.7886 102.829 90.9591 103.241 90.9591 103.67V105.21C91.4642 105.286 91.9562 105.433 92.4209 105.645L97.3069 104.917C98.0757 104.802 98.6947 105.487 98.4249 106.151L96.6616 110.519C97.3797 112.314 97.7426 114.23 97.7301 116.163H97.7248Z" fill="#1D1515"/>
<path d="M258.94 98.5585C258.162 94.8362 257.579 91.0758 257.194 87.2928C257.111 84.0254 256.981 80.5923 256.926 77.0005C256.92 76.2572 256.797 75.5194 256.563 74.814C263.743 61.9314 263.307 43.1629 256.355 31.9167C248.011 18.424 227.689 15.1108 219.056 22.6435C210.423 30.1763 212.165 43.1629 215.845 45.2771C219.525 47.3913 218.574 42.8773 218.574 42.8773C218.574 42.8773 214.318 22.3702 237.399 28.0374C259.698 33.5036 247.979 61.2702 232.032 67.8878C217.841 68.5437 201.605 71.9204 195.003 73.3787C193.878 71.8323 192.331 70.4146 190.279 69.1944C192.515 65.2429 197.173 56.4 194.024 56.4987C192.31 56.5481 172.512 57.7136 166.996 67.454C164.243 68.1311 161.563 69.081 158.998 70.2894C154.772 69.0092 139.514 65.4192 130.091 76.7042C128.343 80.1938 136.086 79.8147 142.081 84.2282C139.708 89.8866 138.555 99.6305 150.132 105.665C155.087 108.26 160.46 108.888 165.626 108.406C165.671 108.507 165.731 108.601 165.803 108.685C165.803 112.936 167.116 113.083 167.919 113.779C167.883 114.95 167.566 116.114 167.303 117.482C166.713 120.63 166.06 125.01 166.06 125.01C164.457 125.01 159.254 128.6 158.409 130.418C157.937 131.43 158.34 134.717 158.34 134.717C158.34 134.717 176.432 135.173 177.95 134.739C179.468 134.306 179.417 133.505 179.51 132.024C179.613 130.437 182.196 124.158 185.474 117.718C187.424 118.202 189.531 118.647 191.795 119.055C191.298 121.906 190.838 124.995 190.838 124.995C189.235 124.995 184.03 128.586 183.187 130.403C182.713 131.426 183.118 134.717 183.118 134.717C183.118 134.717 201.211 135.173 202.729 134.739C204.248 134.306 204.197 133.505 204.29 132.024C204.373 130.701 206.17 126.152 208.652 120.959C213.667 121.25 219.188 121.363 225.268 121.25C226.247 121.233 227.197 121.202 228.117 121.159C228.117 121.938 227.699 122.71 226.883 123.285L222.172 126.662L214.87 126.226C208.27 125.964 208.286 135.013 208.286 135.013H232.942C232.942 135.013 235.874 132.523 239.235 130.252C242.596 127.981 246.993 125.331 246.669 122.943C246.572 122.229 245.951 120.256 245.128 117.84C245.491 117.678 245.844 117.51 246.186 117.338C249.323 118.009 252.206 118.635 254.297 119.101C256.286 119.536 257.605 121.002 257.471 122.627L257.102 127.134C257.102 127.134 254.26 125.676 250.322 127.545C246.385 129.414 248.134 135.108 248.134 135.108L268.699 135.235C268.971 132.809 272.706 121.22 273.587 115.206C274.469 109.191 261.466 110.265 258.94 98.5585Z" stroke="#1D1515" stroke-width="1.05797" stroke-linecap="round" stroke-linejoin="round"/>
<path d="M162.58 87.8472C163.549 87.7292 164.183 86.3939 163.997 84.8646C163.811 83.3353 162.875 82.1911 161.906 82.309C160.938 82.4269 160.303 83.7622 160.489 85.2915C160.676 86.8209 161.612 87.9651 162.58 87.8472Z" fill="#1D1515"/>
<path d="M150.799 89.8364C151.768 89.7185 152.402 88.3832 152.216 86.8538C152.03 85.3245 151.094 84.1803 150.125 84.2982C149.156 84.4161 148.522 85.7515 148.708 87.2808C148.894 88.8101 149.83 89.9543 150.799 89.8364Z" fill="#1D1515"/>
<path d="M162.369 95.9242C161.84 95.2647 160.664 95.1695 159.527 95.076C159.046 95.0355 158.333 94.9773 158.116 94.8662C158.111 94.8499 158.105 94.834 158.097 94.8186L157.959 93.9951C158.064 93.9355 158.157 93.8572 158.233 93.7641L160.105 91.4401C160.552 90.8812 160.091 90.1864 159.349 90.2993L154.816 90.987C154.033 91.1069 153.724 91.9956 154.336 92.3711L156.981 93.9934L157.157 95.0602C157.013 95.2242 156.399 95.4798 156.023 95.635C154.939 96.0882 153.453 96.7053 153.957 97.9819C154.01 98.0932 154.102 98.1803 154.217 98.2257C154.331 98.2712 154.459 98.2716 154.573 98.2268C154.688 98.1821 154.781 98.0956 154.835 97.9847C154.888 97.8739 154.898 97.7468 154.861 97.6293C154.719 97.2678 155.471 96.924 156.397 96.536C156.947 96.3068 157.476 96.0846 157.808 95.7831C158.229 95.9436 158.818 95.9929 159.455 96.0441C160.211 96.1076 161.354 96.201 161.62 96.5325C161.641 96.5606 161.656 96.5931 161.663 96.6275C161.67 96.662 161.669 96.6976 161.661 96.7318C161.652 96.7949 161.656 96.8591 161.672 96.9207C161.688 96.9823 161.716 97.0402 161.755 97.0909C161.793 97.1417 161.841 97.1844 161.896 97.2165C161.951 97.2487 162.012 97.2697 162.075 97.2784C162.097 97.2801 162.12 97.2801 162.142 97.2784C162.259 97.2782 162.372 97.2356 162.46 97.1584C162.549 97.0813 162.606 96.9748 162.622 96.8587C162.647 96.694 162.638 96.5257 162.595 96.3647C162.551 96.2037 162.475 96.0536 162.369 95.9242Z" fill="#1D1515"/>
<path d="M149.171 93.9941C149.171 93.9941 132.809 102.105 135.56 119.17" stroke="#1D1515" stroke-width="1.05797" stroke-linecap="round" stroke-linejoin="round"/>
<path d="M150.127 96.04C150.127 96.04 136.675 105.763 142.645 121.989" stroke="#1D1515" stroke-width="1.05797" stroke-linecap="round" stroke-linejoin="round"/>
<path d="M169.738 90.2707C169.738 90.2707 188.482 86.6313 196.893 101.732" stroke="#1D1515" stroke-width="1.05797" stroke-linecap="round" stroke-linejoin="round"/>
<path d="M171.344 92.5504C171.344 92.5504 187.714 91.8997 193.085 108.334" stroke="#1D1515" stroke-width="1.05797" stroke-linecap="round" stroke-linejoin="round"/>
<path d="M193.606 59.0489C193.606 59.0489 186.155 58.303 178.338 66.7845" stroke="#1D1515" stroke-width="1.05797" stroke-linecap="round" stroke-linejoin="round"/>
<path d="M214.898 92.3984C214.608 104.341 218.977 112.789 225.831 114.538C232.685 116.287 239.086 114.683 245.347 117.16" stroke="#1D1515" stroke-width="1.05797" stroke-linecap="round" stroke-linejoin="round"/>
<path d="M166.396 108.562C185.331 105.358 201.063 91.6662 194.8 74.333" stroke="#1D1515" stroke-width="1.05797" stroke-linecap="round" stroke-linejoin="round"/>
<path d="M168.434 113.806C168.434 113.806 176.153 114.241 180.815 108.999" stroke="#1D1515" stroke-width="1.05797" stroke-linecap="round" stroke-linejoin="round"/>
<path d="M184.789 134.512C184.789 134.512 183.973 130.192 189.958 126.995" stroke="#1D1515" stroke-width="1.05797" stroke-linecap="round" stroke-linejoin="round"/>
<path d="M188.258 134.716C188.258 134.716 187.85 131.079 191.523 128.561" stroke="#1D1515" stroke-width="1.05797" stroke-linecap="round" stroke-linejoin="round"/>
<path d="M160.01 134.512C160.01 134.512 159.194 130.192 165.18 126.995" stroke="#1D1515" stroke-width="1.05797" stroke-linecap="round" stroke-linejoin="round"/>
<path d="M163.478 134.716C163.478 134.716 163.071 131.079 166.744 128.561" stroke="#1D1515" stroke-width="1.05797" stroke-linecap="round" stroke-linejoin="round"/>
<path d="M211.65 134.852C211.65 134.852 211.402 128.572 216.616 127.976" stroke="#1D1515" stroke-width="1.05797" stroke-linecap="round" stroke-linejoin="round"/>
<path d="M214.145 134.92C214.145 134.92 214.166 131.04 218.376 129.547" stroke="#1D1515" stroke-width="1.05797" stroke-linecap="round" stroke-linejoin="round"/>
<path d="M249.811 134.852C249.811 134.852 248.929 130.498 250.967 129.07C252.152 128.222 253.595 127.813 255.048 127.913" stroke="#1D1515" stroke-width="1.05797" stroke-linecap="round" stroke-linejoin="round"/>
<path d="M252.394 134.852C252.394 134.852 251.102 130.973 254.639 130.43" stroke="#1D1515" stroke-width="1.05797" stroke-linecap="round" stroke-linejoin="round"/>
<path d="M138.085 135.009C139.443 135.009 140.543 133.908 140.543 132.551C140.543 131.193 139.443 130.093 138.085 130.093C136.727 130.093 135.627 131.193 135.627 132.551C135.627 133.908 136.727 135.009 138.085 135.009Z" fill="#5D6063"/>
<path d="M287.469 135.304H0.527344" stroke="#1D1515" stroke-width="1.05797" stroke-linecap="round" stroke-linejoin="round"/>
</g>
<defs>
<clipPath id="clip0_2212_96291">
<rect width="288" height="117.673" fill="white" transform="translate(0 18.1631)"/>
</clipPath>
</defs>
</svg>
