<svg width="289" height="201" viewBox="0 0 289 201" fill="none" xmlns="http://www.w3.org/2000/svg">
<path d="M62.6672 101.013H27.9023C25.8426 101.013 24.1729 102.682 24.1729 104.742V117.105C24.1729 119.165 25.8426 120.834 27.9023 120.834H62.6672C64.7269 120.834 66.3966 119.165 66.3966 117.105V104.742C66.3966 102.682 64.7269 101.013 62.6672 101.013Z" stroke="#1D1515" stroke-width="1.26709" stroke-linecap="round" stroke-linejoin="round"/>
<path d="M31.4795 105.851H60.2024" stroke="#1D1515" stroke-width="1.26709" stroke-linecap="round" stroke-linejoin="round"/>
<path d="M31.4795 109.043H54.0253" stroke="#1D1515" stroke-width="1.26709" stroke-linecap="round" stroke-linejoin="round"/>
<path d="M31.4795 112.59H60.2024" stroke="#1D1515" stroke-width="1.26709" stroke-linecap="round" stroke-linejoin="round"/>
<path d="M31.4795 115.782H54.0253" stroke="#1D1515" stroke-width="1.26709" stroke-linecap="round" stroke-linejoin="round"/>
<path d="M25.4253 108.1C27.9341 108.1 29.9679 106.066 29.9679 103.557C29.9679 101.048 27.9341 99.0146 25.4253 99.0146C22.9166 99.0146 20.8828 101.048 20.8828 103.557C20.8828 106.066 22.9166 108.1 25.4253 108.1Z" fill="#1D1515"/>
<path d="M125.357 131.483H120.812V127.698H125.357C125.699 127.698 126.026 127.834 126.268 128.076C126.51 128.317 126.645 128.645 126.645 128.986V130.194C126.645 130.536 126.51 130.864 126.268 131.105C126.026 131.347 125.699 131.483 125.357 131.483Z" fill="#1D1515"/>
<path d="M183.086 127.698H172.358C171.646 127.698 171.069 128.275 171.069 128.986V130.194C171.069 130.906 171.646 131.483 172.358 131.483H183.086C183.797 131.483 184.374 130.906 184.374 130.194V128.986C184.374 128.275 183.797 127.698 183.086 127.698Z" fill="#1D1515"/>
<path d="M166.285 127.698H131.104C130.392 127.698 129.815 128.275 129.815 128.986V130.194C129.815 130.906 130.392 131.483 131.104 131.483H166.285C166.996 131.483 167.573 130.906 167.573 130.194V128.986C167.573 128.275 166.996 127.698 166.285 127.698Z" fill="#1D1515"/>
<path d="M184.241 124.315H121.037C120.944 126.248 120.91 128.074 120.965 129.806C120.994 130.685 121.176 132.49 121.455 134.97H184.241C185.082 134.97 185.887 134.636 186.481 134.042C187.075 133.448 187.409 132.642 187.409 131.802V127.479C187.408 126.64 187.074 125.835 186.48 125.242C185.886 124.649 185.081 124.315 184.241 124.315Z" stroke="#1D1515" stroke-width="1.26709" stroke-linecap="round" stroke-linejoin="round"/>
<path d="M52.3086 141.034V120.93" stroke="#1D1515" stroke-width="1.26709" stroke-linecap="round" stroke-linejoin="round"/>
<path d="M88.7692 168.723H56.9272C54.3761 168.723 52.3086 166.792 52.3086 164.41V161.876" stroke="#1D1515" stroke-width="1.26709" stroke-linecap="round" stroke-linejoin="round"/>
<path d="M151.864 168.723H126.187" stroke="#1D1515" stroke-width="1.26709" stroke-linecap="round" stroke-linejoin="round"/>
<path d="M238.119 135.369V164.411C238.119 166.793 236.052 168.723 233.501 168.723H209.996" stroke="#1D1515" stroke-width="1.26709" stroke-linecap="round" stroke-linejoin="round"/>
<path d="M52.3086 100.823V76.3896H238.119V89.8166" stroke="#1D1515" stroke-width="1.26709" stroke-linecap="round" stroke-linejoin="round"/>
<path d="M147.672 55.5664H134.883C135.336 55.9178 135.74 56.3292 136.082 56.7892C136.093 56.8016 136.103 56.8151 136.112 56.8293L141.772 65.7855H149.456C149.395 65.7266 149.345 65.6559 149.312 65.5775C149.278 65.4991 149.26 65.4147 149.26 65.3294V57.0215C149.26 56.219 148.548 55.5664 147.672 55.5664ZM145.055 61.1163H144.135V62.037C144.135 62.2051 144.068 62.3662 143.949 62.485C143.83 62.6038 143.669 62.6706 143.501 62.6706C143.333 62.6706 143.172 62.6038 143.053 62.485C142.934 62.3662 142.868 62.2051 142.868 62.037V61.1268H141.957C141.789 61.1268 141.628 61.0601 141.509 60.9413C141.391 60.8225 141.324 60.6613 141.324 60.4933C141.324 60.3253 141.391 60.1641 141.509 60.0453C141.628 59.9265 141.789 59.8597 141.957 59.8597H142.878V58.939C142.878 58.771 142.945 58.6098 143.064 58.491C143.183 58.3722 143.344 58.3054 143.512 58.3054C143.68 58.3054 143.841 58.3722 143.96 58.491C144.079 58.6098 144.145 58.771 144.145 58.939V59.8492H145.055C145.223 59.8492 145.385 59.9159 145.503 60.0347C145.622 60.1536 145.689 60.3147 145.689 60.4827C145.689 60.6508 145.622 60.8119 145.503 60.9307C145.385 61.0495 145.223 61.1163 145.055 61.1163Z" fill="#1D1515"/>
<path d="M234.177 50.9355L56.2027 51.1615C53.6326 51.1615 51.5566 53.3684 51.5566 56.0905L51.6538 65.9316L82.9552 65.788L88.617 56.8296C88.6249 56.8155 88.6341 56.802 88.6445 56.7895C89.7996 55.2458 91.5588 54.325 93.3475 54.325H131.16C131.214 54.3089 131.27 54.3004 131.327 54.2997H147.672C149.245 54.2997 150.527 55.5203 150.527 57.0197V65.3297C150.527 65.4151 150.509 65.4995 150.476 65.5779C150.442 65.6562 150.393 65.727 150.331 65.7859H238.816V67.053H141.423C141.316 67.0533 141.211 67.0265 141.117 66.9752C141.023 66.9239 140.944 66.8497 140.887 66.7594L135.054 57.5287C134.137 56.3165 132.765 55.5921 131.381 55.5921H93.3412C91.9558 55.5921 90.5852 56.3165 89.6666 57.5287L83.838 66.7594C83.781 66.849 83.7024 66.9229 83.6094 66.9742C83.5164 67.0255 83.412 67.0526 83.3058 67.053L51.6622 67.1987L51.7678 77.9268H238.833V55.8645C238.829 53.1424 236.745 50.9355 234.177 50.9355ZM59.2944 61.653C58.7332 61.6535 58.1846 61.4874 57.7179 61.1759C57.2511 60.8645 56.8873 60.4215 56.6724 59.9032C56.4574 59.3849 56.4011 58.8144 56.5105 58.2641C56.6198 57.7137 56.89 57.2082 57.2868 56.8114C57.6835 56.4146 58.1891 56.1445 58.7395 56.0351C59.2898 55.9257 59.8603 55.9821 60.3786 56.197C60.8969 56.4119 61.3398 56.7758 61.6513 57.2425C61.9628 57.7092 62.1288 58.2579 62.1284 58.819C62.1284 59.5706 61.8298 60.2915 61.2983 60.823C60.7669 61.3545 60.046 61.653 59.2944 61.653ZM68.6181 61.653C68.057 61.653 67.5086 61.4867 67.0421 61.1749C66.5757 60.8632 66.2122 60.4201 65.9976 59.9017C65.783 59.3834 65.7269 58.813 65.8365 58.2628C65.9461 57.7126 66.2165 57.2072 66.6133 56.8106C67.0102 56.4141 67.5157 56.1441 68.066 56.0349C68.6163 55.9257 69.1867 55.9822 69.7049 56.1972C70.2231 56.4122 70.6659 56.776 70.9773 57.2427C71.2887 57.7094 71.4547 58.258 71.4542 58.819C71.4542 59.1913 71.3809 59.56 71.2383 59.904C71.0957 60.248 70.8868 60.5605 70.6234 60.8237C70.36 61.0869 70.0473 61.2956 69.7033 61.4379C69.3592 61.5802 68.9904 61.6533 68.6181 61.653ZM77.9439 61.653C77.3827 61.6535 76.8341 61.4874 76.3674 61.1759C75.9007 60.8645 75.5368 60.4215 75.3219 59.9032C75.107 59.3849 75.0506 58.8144 75.16 58.2641C75.2693 57.7137 75.5395 57.2082 75.9363 56.8114C76.333 56.4146 76.8386 56.1445 77.389 56.0351C77.9393 55.9257 78.5098 55.9821 79.0281 56.197C79.5464 56.4119 79.9893 56.7758 80.3008 57.2425C80.6123 57.7092 80.7784 58.2579 80.7779 58.819C80.7779 59.5706 80.4793 60.2915 79.9479 60.823C79.4164 61.3545 78.6955 61.653 77.9439 61.653ZM228.95 59.7735L227.748 60.652H227.824C227.992 60.661 228.15 60.7364 228.262 60.8615C228.375 60.9867 228.433 61.1514 228.424 61.3194C228.415 61.4874 228.34 61.645 228.214 61.7575C228.089 61.8699 227.925 61.9281 227.757 61.9191H227.689L226.105 61.7502H226.031C225.931 61.7505 225.833 61.7271 225.743 61.6819C225.654 61.6368 225.577 61.5712 225.518 61.4904C225.466 61.4199 225.429 61.3394 225.41 61.254C225.391 61.1686 225.389 61.0801 225.406 60.9942L225.731 59.3258C225.764 59.1609 225.861 59.0156 226 58.9219C226.14 58.8283 226.311 58.7939 226.476 58.8264C226.641 58.8589 226.786 58.9555 226.88 59.0951C226.973 59.2347 227.008 59.4058 226.975 59.5708L226.954 59.6827L228.221 58.762C228.288 58.7094 228.365 58.6709 228.447 58.6486C228.529 58.6264 228.615 58.6209 228.699 58.6325C228.783 58.6441 228.864 58.6725 228.937 58.7161C229.01 58.7596 229.074 58.8175 229.124 58.8861C229.174 58.9548 229.21 59.0328 229.229 59.1156C229.249 59.1984 229.251 59.2842 229.237 59.368C229.222 59.4518 229.191 59.5318 229.145 59.6033C229.099 59.6748 229.039 59.7363 228.969 59.7841L228.95 59.7735ZM233.408 56.5023L233.089 58.0672C233.06 58.2103 232.982 58.3389 232.869 58.4312C232.756 58.5236 232.614 58.574 232.468 58.574C232.425 58.5739 232.382 58.5696 232.339 58.5613C232.175 58.5273 232.031 58.4294 231.939 58.2893C231.846 58.1491 231.813 57.9781 231.847 57.8138L231.862 57.7398L230.66 58.6184C230.525 58.7175 230.355 58.7586 230.189 58.7327C230.023 58.7067 229.874 58.6159 229.774 58.48C229.675 58.3442 229.634 58.1746 229.66 58.0084C229.686 57.8423 229.777 57.6933 229.913 57.5941L231.18 56.6734L231.066 56.6607C230.983 56.6511 230.902 56.6253 230.829 56.5846C230.756 56.5439 230.691 56.4892 230.639 56.4236C230.534 56.2911 230.486 56.1223 230.505 55.9543C230.524 55.7863 230.61 55.6328 230.742 55.5276C230.875 55.4225 231.044 55.3743 231.212 55.3936L232.901 55.5879C232.988 55.5978 233.073 55.6259 233.149 55.6702C233.225 55.7146 233.291 55.7743 233.342 55.8455C233.413 55.9384 233.456 56.0489 233.467 56.1647C233.479 56.2806 233.458 56.3974 233.408 56.5023ZM127.924 60.6837C127.862 60.6283 127.811 60.561 127.774 60.4858C127.737 60.4105 127.716 60.3288 127.711 60.2453C127.7 60.0766 127.757 59.9107 127.869 59.7841C127.981 59.6575 128.139 59.5806 128.308 59.5703C128.477 59.56 128.643 59.6172 128.769 59.7292L129.65 60.4979L130.545 59.7482C130.674 59.6447 130.839 59.596 131.004 59.6125C131.169 59.6289 131.321 59.7093 131.427 59.8362C131.533 59.9632 131.585 60.1268 131.573 60.2919C131.56 60.457 131.483 60.6106 131.358 60.7196L130.615 61.3405L131.346 61.974C131.473 62.0849 131.551 62.2419 131.563 62.4104C131.574 62.579 131.519 62.7452 131.408 62.8726C131.297 63 131.14 63.0782 130.971 63.0899C130.803 63.1016 130.637 63.0458 130.509 62.9349L129.631 62.1662L128.733 62.9159C128.604 63.0194 128.439 63.0681 128.274 63.0516C128.11 63.0352 127.958 62.9549 127.852 62.8279C127.745 62.7009 127.693 62.5373 127.706 62.3722C127.719 62.2071 127.796 62.0535 127.92 61.9445L128.664 61.3236L127.924 60.6837ZM65.9931 73.1118H62.384L63.3005 73.9439C63.4081 74.0598 63.4685 74.2119 63.4697 74.3702C63.4708 74.5284 63.4128 74.6813 63.3068 74.7989C63.2009 74.9165 63.0548 74.9902 62.8973 75.0054C62.7398 75.0207 62.5823 74.9765 62.4558 74.8815L60.4411 73.0485C60.3329 72.9974 60.2413 72.9168 60.177 72.8159C60.1128 72.7149 60.0784 72.5979 60.0778 72.4783C60.0778 72.4783 60.0778 72.4656 60.0778 72.4592C60.0778 72.4529 60.0778 72.4466 60.0778 72.4424C60.0783 72.3538 60.0974 72.2663 60.1337 72.1856C60.1701 72.1048 60.223 72.0326 60.289 71.9735L62.3818 70.0391C62.5053 69.9251 62.6691 69.8649 62.837 69.8716C63.0049 69.8783 63.1633 69.9515 63.2773 70.075C63.3912 70.1985 63.4515 70.3622 63.4448 70.5301C63.438 70.6981 63.3649 70.8564 63.2414 70.9704L62.2953 71.8447H65.9931C66.1611 71.8447 66.3222 71.9115 66.441 72.0303C66.5599 72.1491 66.6266 72.3102 66.6266 72.4783C66.6266 72.6463 66.5599 72.8074 66.441 72.9262C66.3222 73.0451 66.1611 73.1118 65.9931 73.1118ZM75.9651 72.4783C75.9646 72.5979 75.9302 72.7149 75.8659 72.8159C75.8016 72.9168 75.7101 72.9974 75.6019 73.0485L73.5872 74.8815C73.4715 74.9866 73.3211 75.0453 73.1648 75.0462C73.0373 75.0455 72.9129 75.0062 72.808 74.9336C72.7031 74.861 72.6226 74.7585 72.577 74.6394C72.5313 74.5203 72.5227 74.3901 72.5522 74.266C72.5818 74.1419 72.6481 74.0297 72.7424 73.9439L73.659 73.1118H70.0414C69.8734 73.1118 69.7123 73.0451 69.5934 72.9262C69.4746 72.8074 69.4079 72.6463 69.4079 72.4783C69.4079 72.3102 69.4746 72.1491 69.5934 72.0303C69.7123 71.9115 69.8734 71.8447 70.0414 71.8447H73.7561L72.81 70.9704C72.6865 70.8564 72.6134 70.6981 72.6066 70.5301C72.5999 70.3622 72.6601 70.1985 72.7741 70.075C72.8881 69.9515 73.0465 69.8783 73.2144 69.8716C73.3823 69.8649 73.546 69.9251 73.6695 70.0391L75.7624 71.9735C75.8284 72.0326 75.8813 72.1048 75.9177 72.1856C75.954 72.2663 75.9731 72.3538 75.9735 72.4424C75.9735 72.4424 75.9735 72.4529 75.9735 72.4592C75.9735 72.4656 75.9651 72.4719 75.9651 72.4783ZM210.235 73.7052C210.235 73.9853 210.124 74.2538 209.926 74.4519C209.728 74.6499 209.459 74.7611 209.179 74.7611H84.2477C83.9676 74.7611 83.699 74.6499 83.501 74.4519C83.303 74.2538 83.1917 73.9853 83.1917 73.7052V71.7243C83.1917 71.4443 83.303 71.1757 83.501 70.9777C83.699 70.7797 83.9676 70.6684 84.2477 70.6684H209.181C209.461 70.6684 209.73 70.7797 209.928 70.9777C210.126 71.1757 210.237 71.4443 210.237 71.7243L210.235 73.7052ZM221.201 71.8553L220.101 72.4888L220.524 73.8172C220.563 73.939 220.565 74.07 220.529 74.1929C220.493 74.3159 220.42 74.4249 220.321 74.5057C220.221 74.5864 220.099 74.6351 219.972 74.6453C219.844 74.6554 219.716 74.6266 219.605 74.5626L218.416 73.8763L217.204 74.7569C217.096 74.8357 216.965 74.8782 216.831 74.8783C216.698 74.8785 216.567 74.8362 216.459 74.7577C216.351 74.6791 216.27 74.5683 216.228 74.4411C216.187 74.3138 216.187 74.1767 216.228 74.0495L216.676 72.6704L215.504 71.8257C215.396 71.7469 215.316 71.6362 215.275 71.5093C215.234 71.3824 215.234 71.2458 215.276 71.119C215.317 70.9921 215.397 70.8815 215.505 70.8029C215.612 70.7243 215.742 70.6817 215.875 70.6811H217.326L217.774 69.3021C217.816 69.1753 217.896 69.065 218.004 68.9867C218.112 68.9085 218.242 68.8664 218.376 68.8664C218.509 68.8664 218.639 68.9085 218.747 68.9867C218.855 69.065 218.936 69.1753 218.978 69.3021L219.428 70.6811H220.895C221.035 70.6809 221.171 70.7269 221.281 70.8118C221.392 70.8967 221.472 71.0159 221.508 71.1507C221.544 71.2856 221.535 71.4286 221.481 71.5575C221.428 71.6864 221.333 71.7941 221.212 71.8637L221.201 71.8553ZM231.288 74.8794H227.733C227.565 74.8794 227.404 74.8127 227.285 74.6938C227.167 74.575 227.1 74.4139 227.1 74.2458C227.1 74.0778 227.167 73.9167 227.285 73.7979C227.404 73.6791 227.565 73.6123 227.733 73.6123H231.288C231.456 73.6123 231.617 73.6791 231.736 73.7979C231.854 73.9167 231.921 74.0778 231.921 74.2458C231.921 74.4139 231.854 74.575 231.736 74.6938C231.617 74.8127 231.456 74.8794 231.288 74.8794ZM231.288 72.9112H227.733C227.565 72.9112 227.404 72.8444 227.285 72.7256C227.167 72.6068 227.1 72.4457 227.1 72.2776C227.1 72.1096 227.167 71.9485 227.285 71.8296C227.404 71.7108 227.565 71.6441 227.733 71.6441H231.288C231.456 71.6441 231.617 71.7108 231.736 71.8296C231.854 71.9485 231.921 72.1096 231.921 72.2776C231.921 72.4457 231.854 72.6068 231.736 72.7256C231.617 72.8444 231.456 72.9112 231.288 72.9112ZM231.288 70.9451H227.733C227.565 70.9451 227.404 70.8783 227.285 70.7595C227.167 70.6407 227.1 70.4795 227.1 70.3115C227.1 70.1435 227.167 69.9824 227.285 69.8635C227.404 69.7447 227.565 69.678 227.733 69.678H231.288C231.456 69.678 231.617 69.7447 231.736 69.8635C231.854 69.9824 231.921 70.1435 231.921 70.3115C231.921 70.4795 231.854 70.6407 231.736 70.7595C231.617 70.8783 231.456 70.9451 231.288 70.9451Z" fill="#1D1515"/>
<path d="M183.796 101.32H122.753C122.671 102.235 122.599 103.149 122.542 104.053C122.202 109.778 121.719 114.749 121.37 119.172H183.796C184.766 119.172 185.696 118.787 186.383 118.102C187.07 117.417 187.457 116.488 187.46 115.518V104.986C187.46 104.505 187.365 104.028 187.181 103.584C186.997 103.139 186.727 102.735 186.387 102.394C186.047 102.054 185.643 101.784 185.198 101.599C184.754 101.415 184.277 101.32 183.796 101.32Z" fill="#1D1515"/>
<path d="M205.822 152.73H156.118C153.786 152.73 151.895 154.621 151.895 156.954V178.533C151.895 180.865 153.786 182.756 156.118 182.756H205.822C208.155 182.756 210.046 180.865 210.046 178.533V156.954C210.046 154.621 208.155 152.73 205.822 152.73Z" stroke="#1D1515" stroke-width="1.26709" stroke-linecap="round" stroke-linejoin="round"/>
<path d="M166.103 171.331C169.424 171.331 172.116 168.64 172.116 165.319C172.116 161.998 169.424 159.307 166.103 159.307C162.783 159.307 160.091 161.998 160.091 165.319C160.091 168.64 162.783 171.331 166.103 171.331Z" stroke="#1D1515" stroke-width="1.26709" stroke-linecap="round" stroke-linejoin="round"/>
<path d="M199.793 171.464H192.27C191.517 171.464 190.906 172.075 190.906 172.828V173.588C190.906 174.342 191.517 174.953 192.27 174.953H199.793C200.546 174.953 201.157 174.342 201.157 173.588V172.828C201.157 172.075 200.546 171.464 199.793 171.464Z" stroke="#1D1515" stroke-width="1.26709" stroke-linecap="round" stroke-linejoin="round"/>
<path d="M153.172 158.753C155.681 158.753 157.715 156.719 157.715 154.211C157.715 151.702 155.681 149.668 153.172 149.668C150.664 149.668 148.63 151.702 148.63 154.211C148.63 156.719 150.664 158.753 153.172 158.753Z" fill="#1D1515"/>
<path d="M176.046 164.377L200.556 164.447" stroke="#1D1515" stroke-width="1.26709" stroke-linecap="round" stroke-linejoin="round"/>
<path d="M176.315 167.471L200.825 167.54" stroke="#1D1515" stroke-width="1.26709" stroke-linecap="round" stroke-linejoin="round"/>
<path d="M256.21 89.9185L212.454 89.804C209.924 89.7974 207.868 91.8428 207.861 94.3725L207.766 130.641C207.759 133.171 209.805 135.227 212.335 135.233L256.091 135.348C258.621 135.355 260.677 133.309 260.684 130.779L260.779 94.5111C260.786 91.9813 258.74 89.9252 256.21 89.9185Z" stroke="#1D1515" stroke-width="1.26709" stroke-linecap="round" stroke-linejoin="round"/>
<path d="M251.834 111.583H242.447C241.797 111.583 241.271 112.11 241.271 112.759V122.315C241.271 122.965 241.797 123.492 242.447 123.492H251.834C252.483 123.492 253.01 122.965 253.01 122.315V112.759C253.01 112.11 252.483 111.583 251.834 111.583Z" stroke="#1D1515" stroke-width="1.26709" stroke-linecap="round" stroke-linejoin="round"/>
<path d="M249.727 99.7517L219.164 99.6717C218.179 99.6691 217.378 100.466 217.375 101.451L217.363 106.262C217.36 107.248 218.157 108.049 219.142 108.051L249.705 108.131C250.69 108.134 251.491 107.337 251.494 106.352L251.506 101.541C251.509 100.555 250.712 99.7543 249.727 99.7517Z" stroke="#1D1515" stroke-width="1.26709" stroke-linecap="round" stroke-linejoin="round"/>
<path d="M217.79 123.097L237.117 123.152" stroke="#1D1515" stroke-width="1.26709" stroke-linecap="round" stroke-linejoin="round"/>
<path d="M217.802 118.054L237.129 118.109" stroke="#1D1515" stroke-width="1.26709" stroke-linecap="round" stroke-linejoin="round"/>
<path d="M217.817 113.011L237.145 113.068" stroke="#1D1515" stroke-width="1.26709" stroke-linecap="round" stroke-linejoin="round"/>
<path d="M209.967 95.7062C212.476 95.7062 214.51 93.6724 214.51 91.1636C214.51 88.6548 212.476 86.6211 209.967 86.6211C207.459 86.6211 205.425 88.6548 205.425 91.1636C205.425 93.6724 207.459 95.7062 209.967 95.7062Z" fill="#1D1515"/>
<path d="M59.4746 140.978H6.30316C4.556 140.978 3.13965 142.394 3.13965 144.141V158.567C3.13965 160.314 4.556 161.73 6.30316 161.73H59.4746C61.2218 161.73 62.6381 160.314 62.6381 158.567V144.141C62.6381 142.394 61.2218 140.978 59.4746 140.978Z" stroke="#1D1515" stroke-width="1.26709" stroke-linecap="round" stroke-linejoin="round"/>
<path d="M11.1016 148.96H53.7329" stroke="#1D1515" stroke-width="1.26709" stroke-linecap="round" stroke-linejoin="round"/>
<path d="M11.1016 153.54H48.7406" stroke="#1D1515" stroke-width="1.26709" stroke-linecap="round" stroke-linejoin="round"/>
<path d="M4.54253 146.295C7.0513 146.295 9.08506 144.261 9.08506 141.752C9.08506 139.244 7.0513 137.21 4.54253 137.21C2.03376 137.21 0 139.244 0 141.752C0 144.261 2.03376 146.295 4.54253 146.295Z" fill="#1D1515"/>
<path d="M173.802 38.949C171.823 15.55 151.254 -1.81977 127.855 0.15267C104.456 2.12511 87.0967 22.6943 89.0607 46.0933C89.6176 52.7648 91.7446 59.2101 95.268 64.9026C98.7914 70.5952 103.611 75.3736 109.334 78.8476L105.288 85.4576C108.487 88.0045 111.15 91.0223 112.618 92.8195L113.847 94.0253C113.847 92.0318 114.189 82.6574 119.957 81.9098C121.902 81.6564 122.966 82.5835 123.49 84.2961C127.282 85.0155 131.155 85.2145 135.001 84.8875C158.4 82.915 175.768 62.348 173.802 38.949ZM134.197 75.3484C127.704 75.8959 121.194 74.5058 115.492 71.3538C109.789 68.2018 105.149 63.4295 102.159 57.6404C99.168 51.8513 97.9614 45.3055 98.6912 38.8306C99.4209 32.3558 102.054 26.2427 106.258 21.2645C110.462 16.2864 116.048 12.6666 122.31 10.8631C128.571 9.05959 135.226 9.15328 141.434 11.1323C147.643 13.1114 153.124 16.8869 157.187 21.9814C161.249 27.076 163.709 33.2607 164.256 39.7536C164.99 48.4599 162.235 57.1011 156.598 63.7763C150.961 70.4516 142.903 74.6142 134.197 75.3484Z" fill="#5D6063"/>
<path d="M113.851 94.3991C113.851 94.3991 113.499 82.7482 119.957 81.9119C126.415 81.0756 123.186 93.2397 122.546 104.054C121.906 114.869 120.749 122.995 120.964 129.819C121.179 136.642 130.353 199.386 130.353 199.386L88.4355 199.524L88.9065 139.615C88.9065 139.615 70.1345 126.161 70.7913 106.648C72.0795 90.8998 83.1982 83.614 92.845 81.1791C102.492 78.7442 113.851 94.3991 113.851 94.3991Z" stroke="#1D1515" stroke-width="1.26709" stroke-linecap="round" stroke-linejoin="round"/>
<path d="M68.6671 139.11C67.7802 140.547 69.0747 142.956 71.5603 144.491L72.857 145.294C75.3426 146.829 78.0753 146.912 78.9623 145.476L89.7326 127.709L80.1597 120.474L68.6671 139.11Z" fill="#5D6063"/>
<path d="M78.2061 119.121C78.2061 119.121 91.4915 129.727 96.5789 130.812C101.666 131.898 105.339 130.705 106.038 127.311C106.737 123.917 95.5526 113.905 85.2933 109.8" stroke="#1D1515" stroke-width="1.26709" stroke-linecap="round" stroke-linejoin="round"/>
<path d="M88.2178 98.8105C88.2178 98.8105 101.347 104.92 108.28 113.099C114.932 120.421 111.545 129.071 105.716 125.648" stroke="#1D1515" stroke-width="1.26709" stroke-linecap="round" stroke-linejoin="round"/>
<path d="M89.8145 89.417C89.8145 89.417 106.19 94.629 112.812 106.227C119.435 117.825 111.714 119.532 111.714 119.532" stroke="#1D1515" stroke-width="1.26709" stroke-linecap="round" stroke-linejoin="round"/>
<path d="M113.79 94.002C121.331 107.589 114.635 110.214 114.635 110.214" stroke="#1D1515" stroke-width="1.26709" stroke-linecap="round" stroke-linejoin="round"/>
<path d="M1.01367 199.677H288" stroke="#1D1515" stroke-width="1.26709" stroke-linecap="round" stroke-linejoin="round"/>
</svg>
