<svg width="288" height="200" viewBox="0 0 288 200" fill="none" xmlns="http://www.w3.org/2000/svg">
<g clip-path="url(#clip0_1932_198510)">
<path d="M68.1124 149.651C68.3411 149.455 68.5185 149.207 68.6292 148.928C68.7399 148.648 68.7805 148.346 68.7474 148.047C67.4484 136.313 62.0962 124.233 53.7479 119.801C45.1675 115.247 39.3189 127.889 51.2079 139.636C60.159 148.479 64.9439 149.915 66.757 150.091C67.0006 150.113 67.2461 150.085 67.4789 150.011C67.7117 149.936 67.9272 149.815 68.1124 149.655V149.651Z" stroke="#1D1515" stroke-width="0.966984" stroke-linecap="round" stroke-linejoin="round"/>
<path d="M46.7871 120.846C46.7871 120.846 61.8028 135.713 67.8109 149.219" stroke="#1D1515" stroke-width="0.966984" stroke-linecap="round" stroke-linejoin="round"/>
<path d="M49.4492 136.976C49.4492 136.976 55.6202 136.763 62.2714 139.637" stroke="#1D1515" stroke-width="0.966984" stroke-linecap="round" stroke-linejoin="round"/>
<path d="M56.6465 122.316C56.6465 122.316 64.1648 135.629 63.6104 141.348" stroke="#1D1515" stroke-width="0.966984" stroke-linecap="round" stroke-linejoin="round"/>
<path d="M56.9805 144.245C56.9805 144.245 62.6115 144.036 66.278 146.291" stroke="#1D1515" stroke-width="0.966984" stroke-linecap="round" stroke-linejoin="round"/>
<path d="M78.7177 138.917C79.3624 139.357 80.0925 139.433 80.6711 139.117C91.8703 133.028 101.316 121.663 101.461 109.392C101.622 96.7807 85.7848 94.1344 80.0715 113.676C75.7717 128.38 76.7967 134.991 77.567 137.367C77.7694 137.996 78.1711 138.542 78.7113 138.922L78.7177 138.917Z" stroke="#1D1515" stroke-width="0.966984" stroke-linecap="round" stroke-linejoin="round"/>
<path d="M79.4375 139.293C79.4375 139.293 83.9984 108.559 97.1107 101.557" stroke="#1D1515" stroke-width="0.966984" stroke-linecap="round" stroke-linejoin="round"/>
<path d="M100.818 111.287C97.9448 112.565 87.727 117.287 83.8301 121.519" stroke="#1D1515" stroke-width="0.966984" stroke-linecap="round" stroke-linejoin="round"/>
<path d="M80.7284 113.529C80.3223 117.861 79.9226 125.404 81.7276 127.77" stroke="#1D1515" stroke-width="0.966984" stroke-linecap="round" stroke-linejoin="round"/>
<path d="M81.1191 132.466C81.1191 132.466 91.2096 129.046 95.7448 125.42" stroke="#1D1515" stroke-width="0.966984" stroke-linecap="round" stroke-linejoin="round"/>
<path d="M77.2773 155.508C78.5022 152.768 81.4144 148.001 86.9697 147.527" stroke="#1D1515" stroke-width="0.966984" stroke-linecap="round" stroke-linejoin="round"/>
<path d="M87.157 147.328C87.7178 147.25 87.9824 145.808 87.7481 144.106C87.5138 142.405 86.8692 141.088 86.3084 141.165C85.7476 141.242 85.4829 142.684 85.7173 144.386C85.9516 146.088 86.5962 147.405 87.157 147.328Z" fill="#1D1515"/>
<path d="M89.9671 146.254C91.1916 145.258 91.9185 144.124 91.5906 143.721C91.2627 143.318 90.0042 143.798 88.7797 144.793C87.5552 145.789 86.8283 146.923 87.1562 147.326C87.4841 147.729 88.7426 147.249 89.9671 146.254Z" fill="#1D1515"/>
<path d="M87.1537 147.261C87.4135 146.758 86.3869 145.711 84.8606 144.923C83.3344 144.134 81.8865 143.903 81.6267 144.406C81.3669 144.909 82.3935 145.956 83.9198 146.744C85.446 147.532 86.8939 147.764 87.1537 147.261Z" fill="#1D1515"/>
<path d="M92.1824 150.043C92.4295 149.585 91.5042 148.606 90.1158 147.856C88.7273 147.106 87.4015 146.869 87.1544 147.326C86.9073 147.784 87.8326 148.762 89.221 149.512C90.6095 150.263 91.9353 150.5 92.1824 150.043Z" fill="#1D1515"/>
<path d="M86.809 150.317C87.4719 148.885 87.627 147.547 87.1552 147.328C86.6835 147.11 85.7637 148.094 85.1008 149.526C84.4378 150.958 84.2828 152.296 84.7545 152.515C85.2262 152.733 86.1461 151.749 86.809 150.317Z" fill="#1D1515"/>
<path d="M61.4219 110.877C61.4219 110.877 78.7212 124.552 72.0216 155.532" stroke="#1D1515" stroke-width="0.966984" stroke-linecap="round" stroke-linejoin="round"/>
<path d="M62.8439 111.862C63.8085 111.299 63.658 109.245 62.5077 107.275C61.3575 105.305 59.643 104.165 58.6783 104.728C57.7137 105.291 57.8641 107.345 59.0144 109.315C60.1647 111.285 61.8792 112.426 62.8439 111.862Z" fill="#1D1515"/>
<path d="M63.0967 111.843C63.119 110.726 61.288 109.784 59.0072 109.739C56.7263 109.694 54.8593 110.562 54.8371 111.679C54.8149 112.796 56.6459 113.738 58.9267 113.783C61.2075 113.829 63.0745 112.96 63.0967 111.843Z" fill="#1D1515"/>
<path d="M66.7738 110.084C68.0042 108.46 68.357 106.655 67.5617 106.052C66.7664 105.45 65.1242 106.277 63.8938 107.901C62.6634 109.525 62.3107 111.33 63.106 111.933C63.9013 112.535 65.5435 111.707 66.7738 110.084Z" fill="#1D1515"/>
<path d="M64.798 117.773C65.7063 117.36 65.759 115.522 64.9158 113.667C64.0725 111.813 62.6525 110.644 61.7442 111.057C60.8359 111.47 60.7832 113.308 61.6265 115.163C62.4698 117.018 63.8897 118.186 64.798 117.773Z" fill="#1D1515"/>
<path d="M68.0049 112.192C68.0997 111.296 66.694 110.413 64.8653 110.22C63.0366 110.026 61.4773 110.596 61.3826 111.491C61.2878 112.387 62.6934 113.27 64.5221 113.464C66.3508 113.657 67.9101 113.088 68.0049 112.192Z" fill="#1D1515"/>
<path d="M54.7124 159.428L62.2871 193.336H86.3489L93.9236 159.428C94.3555 157.494 93.1323 155.588 91.4529 155.588H57.1847C55.5037 155.588 54.2805 157.49 54.7124 159.428Z" stroke="#1D1515" stroke-width="0.966984" stroke-linecap="round" stroke-linejoin="round"/>
<path d="M257.257 107.613L250.728 107.662C251.97 108.269 252.924 109.342 253.381 110.647C253.839 111.952 253.764 113.385 253.173 114.635L218.961 187.045H227.248L261.607 114.426C261.952 113.696 262.106 112.89 262.055 112.084C262.004 111.278 261.749 110.498 261.315 109.817C260.88 109.136 260.28 108.577 259.57 108.192C258.86 107.806 258.064 107.607 257.257 107.613Z" fill="#1D1515"/>
<path d="M169.769 112.981L241.178 112.309C244.061 112.288 245.976 115.155 244.743 117.648L216.056 178.431C215.336 179.903 214.22 181.145 212.832 182.016C211.445 182.888 209.842 183.355 208.204 183.364L112.93 183.848C112.386 183.851 111.851 183.715 111.374 183.453C110.897 183.191 110.495 182.812 110.206 182.351C109.917 181.891 109.751 181.364 109.722 180.821C109.694 180.278 109.804 179.736 110.044 179.248L126.397 147.674L120.353 147.378L100.801 187.463L27.8902 187.532C27.8902 187.532 26.2689 198.206 39.8663 198.87L95.3228 198.692L95.1616 199.015L190.824 198.68V190.754C190.824 189.795 191.205 188.875 191.883 188.197C192.56 187.519 193.48 187.139 194.439 187.139H218.215C218.178 187.023 218.186 186.897 218.238 186.787L252.485 114.313C252.795 113.66 252.934 112.938 252.89 112.216C252.846 111.494 252.62 110.795 252.233 110.184C251.846 109.572 251.31 109.069 250.676 108.72C250.043 108.372 249.331 108.189 248.607 108.189H248.572C248.455 108.19 248.341 108.149 248.252 108.072C248.163 107.996 248.105 107.89 248.089 107.773L171.213 108.486" fill="#1D1515"/>
<path d="M208.106 145.794H191.034C189.919 145.794 189.463 144.89 190.017 143.775L194.504 134.738C195.058 133.623 196.411 132.719 197.526 132.719H214.6C215.715 132.719 216.169 133.623 215.616 134.738L211.123 143.775C210.575 144.89 209.222 145.794 208.106 145.794Z" fill="#5D6063"/>
<path d="M209.819 132.719C210.488 132.719 210.773 133.234 210.464 133.871L205.116 144.642C204.794 145.286 204.001 145.794 203.332 145.794" stroke="#1D1515" stroke-width="0.966984" stroke-linecap="round" stroke-linejoin="round"/>
<path d="M206.798 145.656L202.508 140.936C202.423 140.843 202.317 140.773 202.198 140.731C202.08 140.69 201.953 140.679 201.829 140.699C201.705 140.719 201.588 140.77 201.489 140.847C201.39 140.924 201.311 141.024 201.26 141.139L198.359 147.682C198.302 147.811 198.282 147.954 198.303 148.094C198.323 148.234 198.382 148.366 198.473 148.474C198.564 148.582 198.684 148.662 198.819 148.705C198.953 148.749 199.097 148.753 199.235 148.718L201.676 148.098L201.947 152.61C201.955 152.762 201.996 152.909 202.067 153.043C202.138 153.177 202.237 153.294 202.357 153.386C202.478 153.478 202.617 153.543 202.764 153.576C202.912 153.609 203.066 153.609 203.214 153.577L204.999 153.195C205.145 153.164 205.282 153.103 205.402 153.015C205.521 152.927 205.621 152.814 205.694 152.685C205.767 152.555 205.812 152.411 205.825 152.263C205.838 152.115 205.82 151.966 205.771 151.826L204.255 147.447L206.421 146.897C206.548 146.866 206.665 146.802 206.76 146.712C206.855 146.622 206.925 146.509 206.963 146.384C207.001 146.259 207.005 146.126 206.977 145.998C206.948 145.871 206.886 145.753 206.798 145.656Z" fill="#1D1515"/>
<path d="M200.704 164.275H181.585C181.023 164.275 180.792 163.817 181.073 163.255L183.339 158.692C183.617 158.128 184.306 157.672 184.863 157.672H203.982C204.546 157.672 204.775 158.128 204.496 158.692L202.23 163.255C201.95 163.819 201.266 164.275 200.704 164.275Z" stroke="#1D1515" stroke-width="0.966984" stroke-linecap="round" stroke-linejoin="round"/>
<path d="M244.606 117.605H141.996" stroke="#1D1515" stroke-width="0.966984" stroke-linecap="round" stroke-linejoin="round"/>
<path d="M226.229 112.715L224.109 117.538" stroke="#1D1515" stroke-width="0.966984" stroke-linecap="round" stroke-linejoin="round"/>
<path d="M210.594 112.809L208.127 117.642" stroke="#1D1515" stroke-width="0.966984" stroke-linecap="round" stroke-linejoin="round"/>
<path d="M133.926 147.819L119.518 175.207C119.339 175.573 119.256 175.978 119.277 176.385C119.298 176.792 119.422 177.186 119.639 177.532C119.855 177.877 120.156 178.161 120.512 178.357C120.869 178.554 121.27 178.656 121.678 178.654L204.709 178.374C205.937 178.367 207.139 178.017 208.179 177.364C209.219 176.711 210.056 175.78 210.595 174.677L233.654 126.777C234.578 124.909 233.143 122.761 230.984 122.775L166.728 123.178" stroke="#1D1515" stroke-width="0.966984" stroke-linecap="round" stroke-linejoin="round"/>
<path d="M194.254 187.045H241.193C242.151 187.045 243.07 187.426 243.748 188.104C244.425 188.782 244.806 189.701 244.806 190.66V198.708H190.639V190.66C190.639 190.185 190.732 189.715 190.914 189.276C191.096 188.838 191.362 188.439 191.697 188.104C192.033 187.768 192.432 187.502 192.87 187.32C193.309 187.138 193.779 187.045 194.254 187.045Z" stroke="#1D1515" stroke-width="0.966984" stroke-linecap="round" stroke-linejoin="round"/>
<path d="M182.224 131.41H166.343V145.522C166.343 145.811 166.287 146.097 166.176 146.364C166.065 146.632 165.903 146.874 165.699 147.079C165.494 147.283 165.252 147.445 164.984 147.556C164.717 147.667 164.431 147.723 164.142 147.723H138.884L130.241 164.323C129.003 166.529 129.781 168.302 131.98 168.302H161.455C163.653 168.302 166.44 166.52 167.678 164.321L183.965 135.386C185.203 133.193 184.424 131.41 182.224 131.41Z" fill="#1D1515"/>
<path d="M184.138 84.588C180.233 73.1066 175.972 70.7424 172.953 71.5869C169.935 72.4314 161.767 76.483 164.608 80.1978C167.449 83.9127 171.538 96.7446 171.538 96.7446C159.725 98.7736 149.114 103.03 147.573 103.675C147.992 104.173 154.423 112.413 145.708 115.686C139.982 117.836 133.642 115.004 129.856 111.409L133.204 109.37C131.877 109.884 126.854 112.012 121.826 116.503C115.966 121.738 104.07 133.558 100.874 138.115C98.2247 141.896 99.809 146.22 101.23 147.402C102.652 148.583 104.958 151.792 115.434 148.246C117.431 147.571 119.316 147.018 121.062 146.567C120.89 146.246 120.8 145.888 120.801 145.524V121.714C120.8 121.425 120.857 121.138 120.968 120.871C121.078 120.604 121.24 120.362 121.444 120.157C121.649 119.953 121.891 119.79 122.158 119.68C122.425 119.569 122.711 119.512 123 119.512H164.147C164.436 119.512 164.723 119.569 164.99 119.679C165.257 119.79 165.5 119.952 165.704 120.157C165.909 120.361 166.071 120.604 166.182 120.871C166.292 121.138 166.349 121.425 166.349 121.714V145.521C166.349 145.81 166.292 146.096 166.182 146.364C166.071 146.631 165.909 146.874 165.704 147.078C165.5 147.282 165.257 147.445 164.99 147.555C164.723 147.666 164.436 147.723 164.147 147.722H133.787L146.68 160.232C146.68 160.232 150.809 163.729 152.698 165.437C152.787 165.717 152.955 165.966 153.182 166.153C155.876 168.261 159.362 168.308 163.553 166.986C165.603 166.344 167.319 164.922 168.331 163.026L183.816 133.946C183.94 133.713 184.01 133.454 184.02 133.19C184.031 132.926 183.982 132.663 183.877 132.42C183.772 132.178 183.613 131.962 183.413 131.789C183.213 131.617 182.977 131.491 182.721 131.422L177.853 130.105C170.993 127.422 165.496 116.668 165.496 116.668C177.745 112.447 187.334 101.133 187.334 101.133C187.334 101.133 188.045 96.0693 184.138 84.588Z" fill="#1D1515"/>
<path d="M164.142 119.514H122.996C121.781 119.514 120.795 120.499 120.795 121.715V145.522C120.795 146.738 121.781 147.724 122.996 147.724H164.142C165.357 147.724 166.343 146.738 166.343 145.522V121.715C166.343 120.499 165.357 119.514 164.142 119.514Z" stroke="#1D1515" stroke-width="0.966984" stroke-linecap="round" stroke-linejoin="round"/>
<path d="M149.069 122.625H141.068C140.388 122.625 139.838 123.176 139.838 123.855V126.847C139.838 127.527 140.388 128.077 141.068 128.077H149.069C149.748 128.077 150.299 127.527 150.299 126.847V123.855C150.299 123.176 149.748 122.625 149.069 122.625Z" fill="#1D1515"/>
<path d="M151.672 119.514C153.122 119.514 154.286 120.627 154.286 121.999V145.239C154.286 146.612 153.116 147.724 151.672 147.724" stroke="#1D1515" stroke-width="0.966984" stroke-linecap="round" stroke-linejoin="round"/>
<path d="M125.138 108.902C123.594 108.856 122.352 106.833 122.352 104.345C122.352 102.996 122.717 101.782 123.298 100.947" stroke="#5D6063" stroke-width="0.966984" stroke-linecap="round" stroke-linejoin="round"/>
<path d="M146.979 91.9316C147.129 92.5106 147.204 93.1064 147.203 93.7044C147.203 96.2218 145.93 98.2622 144.362 98.2622C144.236 98.2623 144.11 98.2493 143.986 98.2235" stroke="#5D6063" stroke-width="0.966984" stroke-linecap="round" stroke-linejoin="round"/>
<path d="M142.048 101.85L143.582 105.793L147.563 103.676C147.963 104.146 154.432 112.411 145.702 115.69C139.976 117.84 133.635 115.009 129.85 111.413L133.455 109.216L130.246 102.472" stroke="#1D1515" stroke-width="0.966984" stroke-linecap="round" stroke-linejoin="round"/>
<path d="M100.868 138.112C97.6724 141.497 99.803 146.217 101.224 147.399C102.646 148.58 104.952 151.789 115.428 148.243C122.166 145.963 127.655 145.079 130.714 144.739C130.714 144.739 133.538 137.606 131.585 132.035C131.585 132.035 121.109 131.866 113.297 135.073" fill="#1D1515"/>
<path d="M136.141 135.146C137.735 134.397 140.976 133.111 141.896 133.004C143.009 132.874 143.565 133.67 142.694 134.363C142.242 134.722 141.768 135.095 141.159 135.57" stroke="#1D1515" stroke-width="0.966984" stroke-linecap="round" stroke-linejoin="round"/>
<path d="M132.474 135.747C138.689 134.227 144.815 136.535 145.413 136.796C146.01 137.057 146.218 138.217 144.874 138.29C143.53 138.362 138.937 137.698 138.937 137.698C140.945 138.229 145.438 139.463 145.761 139.793C146.255 140.306 145.506 141.326 144.138 140.975L138.404 139.552C138.404 139.552 143.904 141.969 144.367 142.325C144.829 142.681 142.718 143.776 140.142 142.662C137.567 141.548 137.345 141.695 137.345 141.695C137.345 141.695 141.512 143.241 142.059 143.681C142.605 144.121 139.775 145.649 136.995 143.784C136.995 143.784 133.82 145.062 131.229 144.187" stroke="#1D1515" stroke-width="0.966984" stroke-linecap="round" stroke-linejoin="round"/>
<path d="M127.162 99.8701C126.876 100.265 126.499 100.586 126.064 100.806C125.629 101.026 125.147 101.139 124.659 101.135C122.991 101.135 121.641 99.8459 121.641 98.2649C121.641 96.8354 122.738 95.6508 124.177 95.4316" stroke="#1D1515" stroke-width="0.966984" stroke-linecap="round" stroke-linejoin="round"/>
<path d="M140.812 86.4413C141.391 85.8974 142.156 85.5968 142.95 85.6016C144.616 85.6016 145.967 86.8909 145.967 88.472C145.967 89.8805 144.9 91.0506 143.491 91.2955" stroke="#1D1515" stroke-width="0.966984" stroke-linecap="round" stroke-linejoin="round"/>
<path d="M140.832 102.681C145.097 99.5943 145.337 92.6478 141.369 87.166C137.401 81.6842 130.727 79.743 126.462 82.8301C122.197 85.9173 121.957 92.8638 125.925 98.3456C129.893 103.827 136.567 105.769 140.832 102.681Z" stroke="#1D1515" stroke-width="0.966984" stroke-linecap="round" stroke-linejoin="round"/>
<path d="M138.964 95.2455C138.332 96.0723 137.009 97.2472 134.496 97.4728C134.393 97.4812 134.295 97.5182 134.211 97.5796C134.128 97.641 134.063 97.7244 134.025 97.8204C133.986 97.9164 133.975 98.0213 133.992 98.1233C134.01 98.2252 134.056 98.3203 134.124 98.3979C134.998 99.3761 136.656 100.685 138.704 99.6872C140.782 98.6719 140.392 96.6138 139.924 95.3906C139.889 95.2982 139.83 95.2168 139.753 95.1548C139.676 95.0927 139.584 95.0523 139.487 95.0375C139.389 95.0227 139.289 95.0342 139.197 95.0708C139.105 95.1073 139.025 95.1676 138.964 95.2455Z" stroke="#1D1515" stroke-width="0.966984" stroke-linecap="round" stroke-linejoin="round"/>
<path d="M135.678 95.0117L137.617 94.0061L134.068 89.8223" stroke="#1D1515" stroke-width="0.966984" stroke-linecap="round" stroke-linejoin="round"/>
<path d="M127.777 90.1527C127.777 90.1527 128.609 88.1591 130.338 88.6668" stroke="#1D1515" stroke-width="0.966984" stroke-linecap="round" stroke-linejoin="round"/>
<path d="M134.205 86.5923C134.205 86.5923 135.73 85.0129 137.154 86.0733" stroke="#1D1515" stroke-width="0.966984" stroke-linecap="round" stroke-linejoin="round"/>
<path d="M131.26 93.5557C131.628 93.3948 131.731 92.8195 131.491 92.2707C131.251 91.7218 130.758 91.4073 130.391 91.5681C130.023 91.729 129.919 92.3043 130.159 92.8531C130.399 93.402 130.892 93.7165 131.26 93.5557Z" fill="#1D1515"/>
<path d="M138.128 90.7218C138.476 90.5242 138.516 89.9401 138.219 89.417C137.921 88.894 137.398 88.6302 137.051 88.8278C136.703 89.0254 136.663 89.6095 136.961 90.1326C137.258 90.6556 137.781 90.9194 138.128 90.7218Z" fill="#1D1515"/>
<path d="M118.532 82.885C120.91 79.5957 119.125 66.904 108.113 61.5292C96.9638 56.0883 92.5237 66.7074 91.6454 69.4117C90.767 72.116 91.51 78.5416 100.719 81.8971C109.928 85.2525 115.818 86.6417 118.532 82.885Z" fill="#1D1515"/>
<path d="M121.063 87.2697L117.624 85.0343C117.334 84.854 117.085 84.6161 116.891 84.3354C116.697 84.0548 116.563 83.7372 116.497 83.4026C116.43 83.0679 116.434 82.7232 116.506 82.3898C116.579 82.0565 116.719 81.7415 116.918 81.4646L117.06 81.2695C117.483 80.7021 118.107 80.3169 118.804 80.1921C119.501 80.0673 120.219 80.2122 120.813 80.5975L124.254 82.8328L121.063 87.2697Z" fill="#5D6063"/>
<path d="M142.949 81.3804C142.949 81.3804 140.925 70.0345 125.692 79.93C123.174 81.3321 120.66 84.2024 119.69 87.2919C118.186 92.0785 121.463 99.2809 124.847 98.2672C125.126 98.1828 125.4 98.0843 125.669 97.9723C125.556 97.8111 125.445 97.6354 125.337 97.463C124.956 96.8515 124.618 96.2145 124.325 95.5564C127.835 91.9222 125.178 85.7254 124.902 85.163C126.156 85.4547 127.547 85.9317 127.885 87.4354L137.631 83.5142C139.375 84.7121 140.851 86.2592 141.966 88.0575C141.982 88.0816 141.995 88.1058 142.009 88.13C142.293 86.4378 141.395 84.4426 139.652 82.702L142.949 81.3804Z" fill="#1D1515"/>
<path d="M168.857 66.7113C168.499 65.8024 168.193 64.8031 168.252 64.1907C168.399 62.7548 167.264 61.7136 166.48 63.5154C166.069 64.4663 166.075 65.4994 166.172 66.2633" stroke="#1D1515" stroke-width="0.966984" stroke-linecap="round" stroke-linejoin="round"/>
<path d="M166.744 73.7308L169.627 78.5431C171.75 78.0081 173.924 76.7268 175.194 74.3432C172.989 71.5357 169.287 66.9377 168.515 66.6928C166.385 66.0175 163.131 66.2189 162.489 66.4155C161.127 66.833 161.845 67.6678 163.276 67.7806C164.642 67.8902 167.113 68.1029 167.113 68.1029C164.978 68.1448 162.322 68.3092 161.92 68.5768C161.31 68.9877 161.825 70.1642 163.274 70.0949L167.402 70.0369C167.402 70.0369 162.773 70.5413 162.209 70.7847C161.645 71.0281 161.708 72.6155 164.56 72.1498C167.413 71.684 167.608 71.8742 167.608 71.8742C167.608 71.8742 164.154 72.6026 163.495 72.904C162.836 73.2054 163.482 74.8944 166.744 73.7308Z" stroke="#1D1515" stroke-width="0.966984" stroke-linecap="round" stroke-linejoin="round"/>
<path d="M125.192 99.7852C126.761 99.7852 128.033 101.827 128.033 104.344C128.033 106.862 126.761 108.904 125.192 108.904H125.137" stroke="#5D6063" stroke-width="0.966984" stroke-linecap="round" stroke-linejoin="round"/>
<path d="M144.367 89.1484C145.544 89.1484 146.554 90.2959 146.984 91.9317" stroke="#5D6063" stroke-width="0.966984" stroke-linecap="round" stroke-linejoin="round"/>
<path d="M136.587 152.135L130.241 164.325C129.003 166.528 129.781 168.301 131.98 168.301H161.455C163.653 168.301 166.44 166.519 167.678 164.32L183.965 135.385C185.203 133.187 184.424 131.404 182.224 131.404" stroke="#1D1515" stroke-width="0.966984" stroke-linecap="round" stroke-linejoin="round"/>
<path d="M287.514 198.279L0.480469 199.407" stroke="#1D1515" stroke-width="0.966984" stroke-linecap="round" stroke-linejoin="round"/>
</g>
<defs>
<clipPath id="clip0_1932_198510">
<rect width="288" height="200" fill="white"/>
</clipPath>
</defs>
</svg>
